<svg version="1.1" id="svg-main" xmlns="http://www.w3.org/2000/svg" x="0" y="0" width="319.1" height="273.4" viewBox="0 0 319.1 273.4" xml:space="preserve"><style>.st1{fill:#fff}.st16,.st2,.st20,.st22,.st24,.st26{stroke:#f5f5f5;stroke-width:1.7;stroke-linejoin:round;stroke-miterlimit:3.4}.st16,.st20,.st22,.st24,.st26{fill:#295eff}.st20,.st22,.st24,.st26{fill:#8fabff}.st22,.st24,.st26{fill:#b3c6ff}.st24,.st26{fill:#c2d1ff}.st26{fill:#e0e8ff}.st30,.st33,.st37,.st39,.st48,.st51,.st53,.st56,.st59,.st62,.st68,.st69,.st76{fill:#e5ecff;stroke:#f5f5f5;stroke-width:1.7;stroke-linejoin:round;stroke-miterlimit:3.4}.st33,.st37,.st39,.st48,.st51,.st53,.st56,.st59,.st62,.st68,.st69,.st76{fill:#ffe0e0}.st37,.st39,.st48,.st51,.st53,.st56,.st59,.st62,.st68,.st69,.st76{fill:#ffdbdb}.st39,.st48,.st51,.st53,.st56,.st59,.st62,.st68,.st69,.st76{fill:#ffc7c7}.st48,.st51,.st53,.st56,.st59,.st62,.st68,.st69,.st76{fill:#c00}.st51,.st53,.st56,.st59,.st62,.st68,.st69,.st76{fill:red}.st53,.st56,.st59,.st62,.st68,.st69,.st76{fill:#0f0}.st56,.st59,.st62,.st68,.st69,.st76{fill:#d1ffd1}.st59,.st62,.st68,.st69,.st76{fill:#b3ffb3}.st62,.st68,.st69,.st76{fill:#0fff0f}.st68,.st69,.st76{fill:#dbffdb}.st69,.st76{fill:#29ff29}.st76{fill:#fff}.st77{font-family:'Lato';font-weight: semi-bold;}.st78{font-size:10px}</style><path d="M126.5 21.9c69 0 125 56 125 125s-56 125-125 125-125-56-125-125c0-34.8 14.5-68 40-91.7" fill="none" stroke="#000" stroke-width="3" stroke-miterlimit="3.6"/><path class="st1" d="M-34 148.8c0 6.9-.5 13.8-1.6 20.7l-17.6-2.7c.9-6 1.4-12 1.4-18H-34z" transform="rotate(-90) scale(.85)"/><path class="st2" d="M-34 148.8c0 6.9-.5 13.8-1.6 20.7l-17.6-2.7c.9-6 1.4-12 1.4-18H-34z" transform="rotate(-90) scale(.85)"/><path class="st1" d="M-35.5 169.5c-1 6.9-2.6 13.6-4.6 20.2l-17-5.2c1.8-5.8 3.1-11.7 4-17.6l17.6 2.6z" transform="rotate(-90) scale(.85)"/><path class="st2" d="M-35.5 169.5c-1 6.9-2.6 13.6-4.6 20.2l-17-5.2c1.8-5.8 3.1-11.7 4-17.6l17.6 2.6z" transform="rotate(-90) scale(.85)"/><path class="st1" d="M-40.1 189.8c-2 6.6-4.6 13.1-7.6 19.3l-16-7.7c2.6-5.4 4.8-11.1 6.6-16.8l17 5.2z" transform="rotate(-90) scale(.85)"/><path class="st2" d="M-40.1 189.8c-2 6.6-4.6 13.1-7.6 19.3l-16-7.7c2.6-5.4 4.8-11.1 6.6-16.8l17 5.2z" transform="rotate(-90) scale(.85)"/><path class="st1" d="M-47.7 209.1c-3 6.2-6.5 12.3-10.4 18l-14.7-10c3.4-5 6.4-10.2 9-15.7l16.1 7.7z" transform="rotate(-90) scale(.85)"/><path class="st2" d="M-47.7 209.1c-3 6.2-6.5 12.3-10.4 18l-14.7-10c3.4-5 6.4-10.2 9-15.7l16.1 7.7z" transform="rotate(-90) scale(.85)"/><path class="st1" d="M-58.1 227.1c-3.9 5.7-8.2 11.2-12.9 16.2l-13.1-12.1c4.1-4.4 7.9-9.2 11.3-14.1l14.7 10z" transform="rotate(-90) scale(.85)"/><path class="st2" d="M-58.1 227.1c-3.9 5.7-8.2 11.2-12.9 16.2l-13.1-12.1c4.1-4.4 7.9-9.2 11.3-14.1l14.7 10z" transform="rotate(-90) scale(.85)"/><path class="st1" d="M-71 243.3c-4.7 5.1-9.8 9.8-15.2 14.1l-11.1-13.9c4.7-3.8 9.2-7.9 13.3-12.3l13 12.1z" transform="rotate(-90) scale(.85)"/><path class="st2" d="M-71 243.3c-4.7 5.1-9.8 9.8-15.2 14.1l-11.1-13.9c4.7-3.8 9.2-7.9 13.3-12.3l13 12.1z" transform="rotate(-90) scale(.85)"/><path class="st1" d="M-86.2 257.4c-5.4 4.3-11.2 8.2-17.2 11.7l-8.9-15.4c5.2-3 10.2-6.4 15-10.2l11.1 13.9z" transform="rotate(-90) scale(.85)"/><path class="st2" d="M-86.2 257.4c-5.4 4.3-11.2 8.2-17.2 11.7l-8.9-15.4c5.2-3 10.2-6.4 15-10.2l11.1 13.9z" transform="rotate(-90) scale(.85)"/><path class="st1" d="M-103.4 269.1c-6 3.5-12.3 6.5-18.7 9l-6.5-16.6c5.6-2.2 11.1-4.8 16.3-7.9l8.9 15.5z" transform="rotate(-90) scale(.85)"/><path d="M228.735 87.89c2.975 5.1 5.525 10.455 7.65 15.895l-14.11 5.525c-1.87-4.76-4.08-9.435-6.715-13.855l13.175-7.565z" fill="#00030a" stroke="#f5f5f5" stroke-width="1.4449999999999998" stroke-linejoin="round" stroke-miterlimit="3.4"/><path class="st1" d="M-122.1 278.1c-6.5 2.5-13.1 4.6-19.8 6.1l-4-17.4c5.9-1.3 11.7-3.1 17.3-5.3l6.5 16.6z" transform="rotate(-90) scale(.85)"/><path d="M236.385 103.785c2.125 5.525 3.91 11.135 5.185 16.83l-14.79 3.4c-1.105-5.015-2.635-9.945-4.505-14.705l14.11-5.525z" fill="#00175c" stroke="#f5f5f5" stroke-width="1.4449999999999998" stroke-linejoin="round" stroke-miterlimit="3.4"/><path class="st1" d="M-141.9 284.2c-6.8 1.5-13.6 2.6-20.5 3.1l-1.3-17.8c6-.5 12-1.4 17.9-2.7l3.9 17.4z" transform="rotate(-90) scale(.85)"/><path d="M241.57 120.615c1.275 5.78 2.21 11.56 2.635 17.425l-15.13 1.105c-.425-5.1-1.19-10.2-2.295-15.215l14.79-3.315z" fill="#001966" stroke="#f5f5f5" stroke-width="1.4449999999999998" stroke-linejoin="round" stroke-miterlimit="3.4"/><path class="st1" d="M-162.5 287.3c-6.9.5-13.8.5-20.8 0l1.3-17.8c6 .5 12.1.5 18.1 0l1.4 17.8z" transform="rotate(-90) scale(.85)"/><path d="M244.205 138.125a122.74 122.74 0 010 17.68l-15.13-1.105c.425-5.1.425-10.285 0-15.385l15.13-1.19z" fill="#00228a" stroke="#f5f5f5" stroke-width="1.4449999999999998" stroke-linejoin="round" stroke-miterlimit="3.4"/><path class="st1" d="M-183.2 287.3c-6.9-.5-13.8-1.6-20.5-3.1l4-17.4c5.9 1.3 11.9 2.2 17.9 2.7l-1.4 17.8z" transform="rotate(-90) scale(.85)"/><path d="M244.205 155.72c-.425 5.865-1.36 11.73-2.635 17.425l-14.79-3.4a115.33 115.33 0 002.295-15.215l15.13 1.19z" fill="#002eb8" stroke="#f5f5f5" stroke-width="1.4449999999999998" stroke-linejoin="round" stroke-miterlimit="3.4"/><path class="st1" d="M-203.8 284.2c-6.8-1.5-13.4-3.6-19.8-6.1l6.5-16.6c5.6 2.2 11.4 4 17.3 5.3l-4 17.4z" transform="rotate(-90) scale(.85)"/><path d="M241.57 173.23c-1.275 5.78-3.06 11.39-5.185 16.83l-14.11-5.525c1.87-4.76 3.4-9.69 4.505-14.705l14.79 3.4z" fill="#002fbd" stroke="#f5f5f5" stroke-width="1.4449999999999998" stroke-linejoin="round" stroke-miterlimit="3.4"/><path class="st1" d="M-223.6 278.1c-6.5-2.5-12.7-5.5-18.7-9l8.9-15.4c5.2 3 10.7 5.6 16.3 7.9l-6.5 16.5z" transform="rotate(-90) scale(.85)"/><path d="M236.385 190.06a109.336 109.336 0 01-7.65 15.895l-13.09-7.565c2.55-4.42 4.76-9.095 6.715-13.855l14.025 5.525z" fill="#0034d1" stroke="#f5f5f5" stroke-width="1.4449999999999998" stroke-linejoin="round" stroke-miterlimit="3.4"/><path class="st1" d="M-242.3 269.1c-6-3.5-11.7-7.4-17.2-11.7l11.1-13.9c4.7 3.8 9.7 7.2 15 10.2l-8.9 15.4z" transform="rotate(-90) scale(.85)"/><path d="M228.735 205.955c-2.975 5.1-6.29 9.945-9.945 14.62l-11.815-9.435a93.487 93.487 0 008.67-12.75l13.09 7.565z" fill="#0038e0" stroke="#f5f5f5" stroke-width="1.4449999999999998" stroke-linejoin="round" stroke-miterlimit="3.4"/><path class="st1" d="M-259.4 257.4c-5.4-4.3-10.5-9-15.2-14.1l13.1-12.1c4.1 4.4 8.5 8.5 13.3 12.3l-11.2 13.9z" transform="rotate(-90) scale(.85)"/><path d="M218.79 220.49a114.789 114.789 0 01-11.985 12.92l-10.285-11.135a101.68 101.68 0 0010.455-11.305l11.815 9.52z" fill="#0039e6" stroke="#f5f5f5" stroke-width="1.4449999999999998" stroke-linejoin="round" stroke-miterlimit="3.4"/><path class="st1" d="M-274.7 243.3c-4.7-5.1-9-10.5-12.9-16.2l14.7-10c3.4 5 7.2 9.7 11.3 14.1l-13.1 12.1z" transform="rotate(-90) scale(.85)"/><path d="M206.805 233.495a121.718 121.718 0 01-13.77 10.965l-8.5-12.495c4.25-2.89 8.245-6.12 11.985-9.605l10.285 11.135z" fill="#003cf0" stroke="#f5f5f5" stroke-width="1.4449999999999998" stroke-linejoin="round" stroke-miterlimit="3.4"/><path class="st1" d="M-287.6 227.1c-3.9-5.7-7.4-11.7-10.4-18l16-7.7c2.6 5.4 5.6 10.7 9 15.7l-14.6 10z" transform="rotate(-90) scale(.85)"/><path d="M193.035 244.46c-4.845 3.315-9.945 6.29-15.3 8.84l-6.545-13.6c4.59-2.21 9.095-4.76 13.345-7.65l8.5 12.41z" fill="#0040ff" stroke="#f5f5f5" stroke-width="1.4449999999999998" stroke-linejoin="round" stroke-miterlimit="3.4"/><path class="st1" d="M-298 209.1c-3-6.2-5.5-12.7-7.6-19.3l17-5.2c1.8 5.8 4 11.4 6.6 16.8l-16 7.7z" transform="rotate(-90) scale(.85)"/><path d="M177.735 253.3c-5.27 2.55-10.795 4.675-16.405 6.46l-4.42-14.45c4.93-1.53 9.69-3.4 14.28-5.61l6.545 13.6z" fill="#0544ff" stroke="#f5f5f5" stroke-width="1.4449999999999998" stroke-linejoin="round" stroke-miterlimit="3.4"/><path class="st1" d="M-305.6 189.8c-2-6.6-3.6-13.4-4.6-20.2l17.6-2.7c.9 6 2.2 11.9 4 17.6l-17 5.3z" transform="rotate(-90) scale(.85)"/><path d="M161.33 259.76c-5.61 1.7-11.39 3.06-17.17 3.91l-2.295-14.96c5.1-.765 10.115-1.87 14.96-3.4l4.505 14.45z" fill="#1a53ff" stroke="#f5f5f5" stroke-width="1.4449999999999998" stroke-linejoin="round" stroke-miterlimit="3.4"/><path class="st1" d="M-310.2 169.5c-1-6.9-1.6-13.8-1.6-20.7h17.8c0 6 .5 12.1 1.4 18l-17.6 2.7z" transform="rotate(-90) scale(.85)"/><path class="st16" d="M-310.2 169.5c-1-6.9-1.6-13.8-1.6-20.7h17.8c0 6 .5 12.1 1.4 18l-17.6 2.7z" transform="rotate(-90) scale(.85)"/><g><path class="st1" d="M-311.7 148.8c0-6.9.5-13.8 1.6-20.7l17.6 2.7c-.9 6-1.4 12-1.4 18h-17.8z" transform="rotate(-90) scale(.85)"/><path class="st16" d="M-311.7 148.8c0-6.9.5-13.8 1.6-20.7l17.6 2.7c-.9 6-1.4 12-1.4 18h-17.8z" transform="rotate(-90) scale(.85)"/></g><g><path class="st1" d="M-310.2 128.1c1-6.9 2.6-13.6 4.6-20.2l17 5.2c-1.8 5.8-3.1 11.7-4 17.6l-17.6-2.6z" transform="rotate(-90) scale(.85)"/><path d="M108.885 263.67c-5.865-.85-11.56-2.21-17.17-3.91l4.42-14.45c4.93 1.53 9.945 2.635 14.96 3.4l-2.21 14.96z" fill="#3d6eff" stroke="#f5f5f5" stroke-width="1.4449999999999998" stroke-linejoin="round" stroke-miterlimit="3.4"/></g><g><path class="st1" d="M-305.6 107.9c2-6.6 4.6-13.1 7.6-19.3l16 7.7c-2.6 5.4-4.8 11.1-6.6 16.8l-17-5.2z" transform="rotate(-90) scale(.85)"/><path d="M91.715 259.76c-5.61-1.7-11.135-3.91-16.405-6.46l6.545-13.6c4.59 2.21 9.435 4.08 14.28 5.61l-4.42 14.45z" fill="#7a9cff" stroke="#f5f5f5" stroke-width="1.4449999999999998" stroke-linejoin="round" stroke-miterlimit="3.4"/></g><g><path class="st1" d="M-298 88.6c3-6.2 6.5-12.3 10.4-18l14.7 10c-3.4 5-6.4 10.2-9 15.7l-16.1-7.7z" transform="rotate(-90) scale(.85)"/><path d="M75.31 253.3c-5.27-2.55-10.455-5.525-15.3-8.84l8.5-12.495c4.25 2.89 8.67 5.44 13.345 7.65L75.31 253.3z" fill="#85a3ff" stroke="#f5f5f5" stroke-width="1.4449999999999998" stroke-linejoin="round" stroke-miterlimit="3.4"/></g><g><path class="st1" d="M-287.6 70.6c3.9-5.7 8.2-11.1 12.9-16.2l13.1 12.1c-4.1 4.4-7.9 9.2-11.3 14.1l-14.7-10z" transform="rotate(-90) scale(.85)"/><path class="st20" d="M-287.6 70.6c3.9-5.7 8.2-11.1 12.9-16.2l13.1 12.1c-4.1 4.4-7.9 9.2-11.3 14.1l-14.7-10z" transform="rotate(-90) scale(.85)"/></g><g><path class="st1" d="M-274.6 54.3c4.7-5.1 9.8-9.8 15.2-14.1l11.1 13.9c-4.7 3.8-9.2 7.9-13.3 12.3l-13-12.1z" transform="rotate(-90) scale(.85)"/><path class="st20" d="M-274.6 54.3c4.7-5.1 9.8-9.8 15.2-14.1l11.1 13.9c-4.7 3.8-9.2 7.9-13.3 12.3l-13-12.1z" transform="rotate(-90) scale(.85)"/></g><g><path class="st1" d="M-259.4 40.2c5.4-4.3 11.2-8.2 17.2-11.7l8.9 15.4c-5.2 3-10.2 6.4-15 10.2l-11.1-13.9z" transform="rotate(-90) scale(.85)"/><path d="M34.17 220.49c-3.655-4.59-6.97-9.52-9.945-14.62l13.09-7.565c2.55 4.42 5.44 8.67 8.67 12.75L34.17 220.49z" fill="#a8beff" stroke="#f5f5f5" stroke-width="1.4449999999999998" stroke-linejoin="round" stroke-miterlimit="3.4"/></g><g><path class="st1" d="M-242.3 28.5c6-3.5 12.3-6.5 18.7-9l6.5 16.6c-5.6 2.2-11.1 4.8-16.3 7.9l-8.9-15.5z" transform="rotate(-90) scale(.85)"/><path class="st22" d="M-242.3 28.5c6-3.5 12.3-6.5 18.7-9l6.5 16.6c-5.6 2.2-11.1 4.8-16.3 7.9l-8.9-15.5z" transform="rotate(-90) scale(.85)"/></g><g><path class="st1" d="M-223.6 19.5c6.5-2.5 13.1-4.6 19.8-6.1l4 17.4c-5.9 1.3-11.7 3.1-17.3 5.3l-6.5-16.6z" transform="rotate(-90) scale(.85)"/><path class="st22" d="M-223.6 19.5c6.5-2.5 13.1-4.6 19.8-6.1l4 17.4c-5.9 1.3-11.7 3.1-17.3 5.3l-6.5-16.6z" transform="rotate(-90) scale(.85)"/></g><g><path class="st1" d="M-203.7 13.4c6.8-1.5 13.6-2.6 20.5-3.1l1.3 17.8c-6 .5-12 1.4-17.9 2.7l-3.9-17.4z" transform="rotate(-90) scale(.85)"/><path class="st22" d="M-203.7 13.4c6.8-1.5 13.6-2.6 20.5-3.1l1.3 17.8c-6 .5-12 1.4-17.9 2.7l-3.9-17.4z" transform="rotate(-90) scale(.85)"/></g><g><path class="st1" d="M-183.2 10.3c6.9-.5 13.8-.5 20.8 0l-1.3 17.8c-6-.5-12.1-.5-18.1 0l-1.4-17.8z" transform="rotate(-90) scale(.85)"/><path d="M8.755 155.72a122.74 122.74 0 010-17.68l15.13 1.105a92.982 92.982 0 000 15.385l-15.13 1.19z" fill="#bdcdff" stroke="#f5f5f5" stroke-width="1.4449999999999998" stroke-linejoin="round" stroke-miterlimit="3.4"/></g><g><path class="st1" d="M-162.4 10.3c6.9.5 13.8 1.6 20.5 3.1l-4 17.4c-5.9-1.3-11.9-2.2-17.9-2.7l1.4-17.8z" transform="rotate(-90) scale(.85)"/><path class="st24" d="M-162.4 10.3c6.9.5 13.8 1.6 20.5 3.1l-4 17.4c-5.9-1.3-11.9-2.2-17.9-2.7l1.4-17.8z" transform="rotate(-90) scale(.85)"/></g><g><path class="st1" d="M-141.9 13.4c6.8 1.5 13.4 3.6 19.8 6.1l-6.5 16.6c-5.6-2.2-11.4-4-17.3-5.3l4-17.4z" transform="rotate(-90) scale(.85)"/><path class="st24" d="M-141.9 13.4c6.8 1.5 13.4 3.6 19.8 6.1l-6.5 16.6c-5.6-2.2-11.4-4-17.3-5.3l4-17.4z" transform="rotate(-90) scale(.85)"/></g><g><path class="st1" d="M-122.1 19.5c6.5 2.5 12.7 5.5 18.7 9l-8.9 15.4c-5.2-3-10.7-5.6-16.3-7.9l6.5-16.5z" transform="rotate(-90) scale(.85)"/><path d="M16.575 103.785a109.336 109.336 0 017.65-15.895l13.09 7.565c-2.55 4.42-4.76 9.095-6.715 13.855l-14.025-5.525z" fill="#c7d5ff" stroke="#f5f5f5" stroke-width="1.4449999999999998" stroke-linejoin="round" stroke-miterlimit="3.4"/></g><g><path class="st1" d="M-103.4 28.5c6 3.5 11.7 7.4 17.2 11.7l-11.1 13.9c-4.7-3.8-9.7-7.2-15-10.2l8.9-15.4z" transform="rotate(-90) scale(.85)"/><path class="st26" d="M-103.4 28.5c6 3.5 11.7 7.4 17.2 11.7l-11.1 13.9c-4.7-3.8-9.7-7.2-15-10.2l8.9-15.4z" transform="rotate(-90) scale(.85)"/></g><g><path class="st1" d="M-86.2 40.2c5.4 4.3 10.5 9 15.2 14.1l-13.1 12.1c-4.1-4.4-8.5-8.5-13.3-12.3l11.2-13.9z" transform="rotate(-90) scale(.85)"/><path class="st26" d="M-86.2 40.2c5.4 4.3 10.5 9 15.2 14.1l-13.1 12.1c-4.1-4.4-8.5-8.5-13.3-12.3l11.2-13.9z" transform="rotate(-90) scale(.85)"/></g><g><path class="st1" d="M-71 54.4c4.7 5.1 9 10.5 12.9 16.2l-14.7 10c-3.4-5-7.2-9.7-11.3-14.2l13.1-12z" transform="rotate(-90) scale(.85)"/><path d="M46.24 60.35a121.718 121.718 0 0113.77-10.965l8.5 12.495c-4.25 2.89-8.245 6.12-12.07 9.605L46.24 60.35z" fill="#668cff" stroke="#f5f5f5" stroke-width="1.4449999999999998" stroke-linejoin="round" stroke-miterlimit="3.4"/></g><g><path class="st1" d="M-58.1 70.6c3.9 5.7 7.4 11.7 10.4 18l-16 7.7c-2.6-5.4-5.6-10.7-9-15.7l14.6-10z" transform="rotate(-90) scale(.85)"/><path d="M60.01 49.385c4.845-3.315 9.945-6.29 15.3-8.84l6.545 13.6c-4.59 2.21-9.095 4.76-13.345 7.65l-8.5-12.41z" fill="#d1ddff" stroke="#f5f5f5" stroke-width="1.4449999999999998" stroke-linejoin="round" stroke-miterlimit="3.4"/></g><g><path class="st1" d="M-47.7 88.6c3 6.2 5.5 12.7 7.6 19.3l-17 5.2c-1.8-5.8-4-11.4-6.6-16.8l16-7.7z" transform="rotate(-90) scale(.85)"/><path d="M75.31 40.545c5.27-2.55 10.795-4.675 16.405-6.46l4.42 14.45c-4.93 1.53-9.69 3.4-14.28 5.61l-6.545-13.6z" fill="#dbe4ff" stroke="#f5f5f5" stroke-width="1.4449999999999998" stroke-linejoin="round" stroke-miterlimit="3.4"/></g><g><path class="st1" d="M-40.1 107.9c2 6.6 3.6 13.4 4.6 20.2l-17.6 2.7c-.9-6-2.2-11.9-4-17.6l17-5.3z" transform="rotate(-90) scale(.85)"/><path class="st30" d="M-40.1 107.9c2 6.6 3.6 13.4 4.6 20.2l-17.6 2.7c-.9-6-2.2-11.9-4-17.6l17-5.3z" transform="rotate(-90) scale(.85)"/></g><g><path class="st1" d="M-35.5 128.1c1 6.9 1.5 13.8 1.5 20.7h-17.8c0-6-.5-12.1-1.4-18l17.7-2.7z" transform="rotate(-90) scale(.85)"/><path class="st30" d="M-35.5 128.1c1 6.9 1.5 13.8 1.5 20.7h-17.8c0-6-.5-12.1-1.4-18l17.7-2.7z" transform="rotate(-90) scale(.85)"/></g><g><path class="st1" d="M-56.2 148.8c0 5.8-.4 11.6-1.3 17.4l-17.8-2.7c.7-4.9 1.1-9.8 1.1-14.7h18z" transform="rotate(-90) scale(.85)"/><path class="st2" d="M-56.2 148.8c0 5.8-.4 11.6-1.3 17.4l-17.8-2.7c.7-4.9 1.1-9.8 1.1-14.7h18z" transform="rotate(-90) scale(.85)"/><path class="st1" d="M-57.5 166.2c-.9 5.8-2.2 11.4-3.9 17l-17.2-5.3c1.5-4.7 2.5-9.5 3.3-14.4l17.8 2.7z" transform="rotate(-90) scale(.85)"/><path d="M141.27 48.875c4.93.765 9.69 1.87 14.45 3.315l-4.505 14.62c-3.995-1.275-8.075-2.125-12.24-2.805l2.295-15.13z" fill="#850000" stroke="#f5f5f5" stroke-width="1.4449999999999998" stroke-linejoin="round" stroke-miterlimit="3.4"/><path class="st1" d="M-61.4 183.2c-1.7 5.6-3.8 11-6.4 16.2l-16.2-7.8c2.1-4.4 3.9-9 5.4-13.7l17.2 5.3z" transform="rotate(-90) scale(.85)"/><path d="M155.72 52.19c4.76 1.445 9.35 3.23 13.77 5.44l-6.63 13.77a92.054 92.054 0 00-11.645-4.59l4.505-14.62z" fill="#6b0000" stroke="#f5f5f5" stroke-width="1.4449999999999998" stroke-linejoin="round" stroke-miterlimit="3.4"/><path class="st1" d="M-67.8 199.4c-2.5 5.2-5.4 10.3-8.7 15.1l-14.9-10.1c2.8-4.1 5.2-8.3 7.4-12.8l16.2 7.8z" transform="rotate(-90) scale(.85)"/><path class="st33" d="M-67.8 199.4c-2.5 5.2-5.4 10.3-8.7 15.1l-14.9-10.1c2.8-4.1 5.2-8.3 7.4-12.8l16.2 7.8z" transform="rotate(-90) scale(.85)"/><path class="st1" d="M-76.5 214.5c-3.3 4.8-6.9 9.4-10.9 13.6l-13.2-12.2c3.3-3.6 6.4-7.5 9.2-11.5l14.9 10.1z" transform="rotate(-90) scale(.85)"/><path d="M182.325 65.025c4.08 2.805 7.99 5.865 11.56 9.265l-10.37 11.22a96.074 96.074 0 00-9.775-7.82l8.585-12.665z" fill="#ffd6d6" stroke="#f5f5f5" stroke-width="1.4449999999999998" stroke-linejoin="round" stroke-miterlimit="3.4"/><path class="st1" d="M-87.3 228.2c-4 4.3-8.2 8.2-12.8 11.9l-11.2-14.1c3.8-3.1 7.5-6.4 10.8-10l13.2 12.2z" transform="rotate(-90) scale(.85)"/><path class="st33" d="M-87.3 228.2c-4 4.3-8.2 8.2-12.8 11.9l-11.2-14.1c3.8-3.1 7.5-6.4 10.8-10l13.2 12.2z" transform="rotate(-90) scale(.85)"/><path class="st1" d="M-100.1 240c-4.5 3.6-9.4 6.9-14.4 9.8l-9-15.6c4.3-2.5 8.3-5.2 12.2-8.3l11.2 14.1z" transform="rotate(-90) scale(.85)"/><path d="M204 85.085c3.06 3.825 5.865 7.99 8.33 12.24l-13.26 7.65c-2.125-3.655-4.42-7.055-7.055-10.37L204 85.085z" fill="#d10000" stroke="#f5f5f5" stroke-width="1.4449999999999998" stroke-linejoin="round" stroke-miterlimit="3.4"/><path class="st1" d="M-114.5 249.8c-5 2.9-10.3 5.4-15.7 7.6l-6.6-16.7c4.6-1.8 9-3.9 13.3-6.4l9 15.5z" transform="rotate(-90) scale(.85)"/><path class="st2" d="M-114.5 249.8c-5 2.9-10.3 5.4-15.7 7.6l-6.6-16.7c4.6-1.8 9-3.9 13.3-6.4l9 15.5z" transform="rotate(-90) scale(.85)"/><path class="st1" d="M-130.2 257.4c-5.4 2.1-11 3.8-16.7 5.1l-4-17.5c4.8-1.1 9.5-2.5 14.1-4.3l6.6 16.7z" transform="rotate(-90) scale(.85)"/><path d="M218.79 110.67c1.785 4.59 3.23 9.35 4.335 14.195l-14.875 3.4c-.935-4.08-2.125-8.075-3.655-11.985l14.195-5.61z" fill="#ff9494" stroke="#f5f5f5" stroke-width="1.4449999999999998" stroke-linejoin="round" stroke-miterlimit="3.4"/><path class="st1" d="M-146.9 262.5c-5.7 1.3-11.4 2.2-17.2 2.6l-1.3-17.9c4.9-.4 9.8-1.1 14.6-2.2l3.9 17.5z" transform="rotate(-90) scale(.85)"/><path class="st37" d="M-146.9 262.5c-5.7 1.3-11.4 2.2-17.2 2.6l-1.3-17.9c4.9-.4 9.8-1.1 14.6-2.2l3.9 17.5z" transform="rotate(-90) scale(.85)"/><path class="st1" d="M-164.1 265.1c-5.8.4-11.6.4-17.4 0l1.3-17.9c4.9.4 9.8.4 14.7 0l1.4 17.9z" transform="rotate(-90) scale(.85)"/><path d="M225.335 139.485c.34 4.93.34 9.86 0 14.79l-15.215-1.105c.34-4.165.34-8.33 0-12.495l15.215-1.19z" fill="#ffbdbd" stroke="#f5f5f5" stroke-width="1.4449999999999998" stroke-linejoin="round" stroke-miterlimit="3.4"/><path class="st1" d="M-181.6 265.1c-5.8-.4-11.6-1.3-17.2-2.6l4-17.5c4.8 1.1 9.7 1.8 14.6 2.2l-1.4 17.9z" transform="rotate(-90) scale(.85)"/><path class="st2" d="M-181.6 265.1c-5.8-.4-11.6-1.3-17.2-2.6l4-17.5c4.8 1.1 9.7 1.8 14.6 2.2l-1.4 17.9z" transform="rotate(-90) scale(.85)"/><path class="st1" d="M-198.8 262.5c-5.7-1.3-11.2-3-16.7-5.1l6.6-16.7c4.6 1.8 9.3 3.3 14.1 4.3l-4 17.5z" transform="rotate(-90) scale(.85)"/><path class="st39" d="M-198.8 262.5c-5.7-1.3-11.2-3-16.7-5.1l6.6-16.7c4.6 1.8 9.3 3.3 14.1 4.3l-4 17.5z" transform="rotate(-90) scale(.85)"/><path class="st1" d="M-215.5 257.4c-5.4-2.1-10.7-4.7-15.7-7.6l9-15.6c4.3 2.5 8.7 4.6 13.3 6.4l-6.6 16.8z" transform="rotate(-90) scale(.85)"/><path d="M218.79 183.175c-1.785 4.59-3.995 9.095-6.46 13.345l-13.26-7.65a81.246 81.246 0 005.44-11.305l14.28 5.61z" fill="#ffc2c2" stroke="#f5f5f5" stroke-width="1.4449999999999998" stroke-linejoin="round" stroke-miterlimit="3.4"/><path class="st1" d="M-231.2 249.8c-5-2.9-9.9-6.2-14.4-9.8l11.2-14.1c3.8 3.1 7.9 5.8 12.2 8.3l-9 15.6z" transform="rotate(-90) scale(.85)"/><path d="M212.33 196.52c-2.465 4.25-5.27 8.415-8.33 12.24l-11.985-9.52c2.635-3.23 4.93-6.715 7.055-10.37l13.26 7.65z" fill="#ff5c5c" stroke="#f5f5f5" stroke-width="1.4449999999999998" stroke-linejoin="round" stroke-miterlimit="3.4"/><path class="st1" d="M-245.6 240c-4.5-3.6-8.8-7.6-12.8-11.9l13.2-12.2c3.3 3.6 7 7 10.8 10l-11.2 14.1z" transform="rotate(-90) scale(.85)"/><path class="st37" d="M-245.6 240c-4.5-3.6-8.8-7.6-12.8-11.9l13.2-12.2c3.3 3.6 7 7 10.8 10l-11.2 14.1z" transform="rotate(-90) scale(.85)"/><path class="st1" d="M-258.3 228.1c-4-4.3-7.6-8.8-10.9-13.6l14.9-10.1c2.8 4.1 5.8 7.9 9.2 11.5l-13.2 12.2z" transform="rotate(-90) scale(.85)"/><path class="st2" d="M-258.3 228.1c-4-4.3-7.6-8.8-10.9-13.6l14.9-10.1c2.8 4.1 5.8 7.9 9.2 11.5l-13.2 12.2z" transform="rotate(-90) scale(.85)"/><path class="st1" d="M-269.2 214.5c-3.3-4.8-6.2-9.9-8.7-15.1l16.2-7.8c2.1 4.4 4.6 8.7 7.4 12.8l-14.9 10.1z" transform="rotate(-90) scale(.85)"/><path class="st39" d="M-269.2 214.5c-3.3-4.8-6.2-9.9-8.7-15.1l16.2-7.8c2.1 4.4 4.6 8.7 7.4 12.8l-14.9 10.1z" transform="rotate(-90) scale(.85)"/><path class="st1" d="M-277.9 199.4c-2.5-5.2-4.7-10.7-6.4-16.2l17.2-5.3c1.5 4.7 3.3 9.3 5.4 13.7l-16.2 7.8z" transform="rotate(-90) scale(.85)"/><path class="st2" d="M-277.9 199.4c-2.5-5.2-4.7-10.7-6.4-16.2l17.2-5.3c1.5 4.7 3.3 9.3 5.4 13.7l-16.2 7.8z" transform="rotate(-90) scale(.85)"/><path class="st1" d="M-284.3 183.2c-1.7-5.6-3-11.2-3.9-17l17.8-2.7c.7 4.9 1.8 9.7 3.3 14.4l-17.2 5.3z" transform="rotate(-90) scale(.85)"/><path d="M155.72 241.655c-4.76 1.445-9.52 2.55-14.45 3.315l-2.295-15.13a75.135 75.135 0 0012.24-2.805l4.505 14.62z" fill="#ff7a7a" stroke="#f5f5f5" stroke-width="1.4449999999999998" stroke-linejoin="round" stroke-miterlimit="3.4"/><path class="st1" d="M-288.2 166.2c-.9-5.8-1.3-11.6-1.3-17.4h18c0 4.9.4 9.8 1.1 14.7l-17.8 2.7z" transform="rotate(-90) scale(.85)"/><path class="st2" d="M-288.2 166.2c-.9-5.8-1.3-11.6-1.3-17.4h18c0 4.9.4 9.8 1.1 14.7l-17.8 2.7z" transform="rotate(-90) scale(.85)"/><g><path class="st1" d="M-289.5 148.8c0-5.8.4-11.6 1.3-17.4l17.8 2.7c-.7 4.9-1.1 9.8-1.1 14.7h-18z" transform="rotate(-90) scale(.85)"/><path class="st2" d="M-289.5 148.8c0-5.8.4-11.6 1.3-17.4l17.8 2.7c-.7 4.9-1.1 9.8-1.1 14.7h-18z" transform="rotate(-90) scale(.85)"/></g><g><path class="st1" d="M-288.2 131.4c.9-5.8 2.2-11.4 3.9-17l17.2 5.3c-1.5 4.7-2.5 9.5-3.3 14.4l-17.8-2.7z" transform="rotate(-90) scale(.85)"/><path class="st2" d="M-288.2 131.4c.9-5.8 2.2-11.4 3.9-17l17.2 5.3c-1.5 4.7-2.5 9.5-3.3 14.4l-17.8-2.7z" transform="rotate(-90) scale(.85)"/></g><g><path class="st1" d="M-284.3 114.4c1.7-5.6 3.8-11 6.4-16.2l16.2 7.8c-2.1 4.4-3.9 9-5.4 13.7l-17.2-5.3z" transform="rotate(-90) scale(.85)"/><path d="M97.24 241.655c-4.76-1.445-9.35-3.23-13.77-5.44l6.63-13.77a92.054 92.054 0 0011.645 4.59l-4.505 14.62z" fill="#ff4d4d" stroke="#f5f5f5" stroke-width="1.4449999999999998" stroke-linejoin="round" stroke-miterlimit="3.4"/></g><g><path class="st1" d="M-277.9 98.2c2.5-5.2 5.4-10.3 8.7-15.1l14.9 10.1c-2.8 4.1-5.2 8.3-7.4 12.8l-16.2-7.8z" transform="rotate(-90) scale(.85)"/><path class="st2" d="M-277.9 98.2c2.5-5.2 5.4-10.3 8.7-15.1l14.9 10.1c-2.8 4.1-5.2 8.3-7.4 12.8l-16.2-7.8z" transform="rotate(-90) scale(.85)"/></g><g><path class="st1" d="M-269.2 83.1c3.3-4.8 6.9-9.4 10.9-13.6l13.2 12.2c-3.3 3.6-6.4 7.5-9.2 11.5l-14.9-10.1z" transform="rotate(-90) scale(.85)"/><path class="st2" d="M-269.2 83.1c3.3-4.8 6.9-9.4 10.9-13.6l13.2 12.2c-3.3 3.6-6.4 7.5-9.2 11.5l-14.9-10.1z" transform="rotate(-90) scale(.85)"/></g><g><path class="st1" d="M-258.3 69.5c4-4.3 8.2-8.2 12.8-11.9l11.2 14.1c-3.8 3.1-7.5 6.4-10.8 10l-13.2-12.2z" transform="rotate(-90) scale(.85)"/><path d="M59.075 219.555c-3.655-3.4-6.97-6.97-10.115-10.88l11.985-9.52c2.635 3.23 5.44 6.375 8.5 9.18l-10.37 11.22z" fill="#ffb3b3" stroke="#f5f5f5" stroke-width="1.4449999999999998" stroke-linejoin="round" stroke-miterlimit="3.4"/></g><g><path class="st1" d="M-245.6 57.6c4.5-3.6 9.4-6.9 14.4-9.8l9 15.6c-4.3 2.5-8.3 5.2-12.2 8.3l-11.2-14.1z" transform="rotate(-90) scale(.85)"/><path d="M48.96 208.76c-3.06-3.825-5.865-7.99-8.33-12.24l13.26-7.65c2.125 3.655 4.42 7.055 7.055 10.37l-11.985 9.52z" fill="#a30000" stroke="#f5f5f5" stroke-width="1.4449999999999998" stroke-linejoin="round" stroke-miterlimit="3.4"/></g><g><path class="st1" d="M-231.1 47.8c5-2.9 10.3-5.4 15.7-7.6l6.6 16.7c-4.6 1.8-9 3.9-13.3 6.4l-9-15.5z" transform="rotate(-90) scale(.85)"/><path class="st2" d="M-231.1 47.8c5-2.9 10.3-5.4 15.7-7.6l6.6 16.7c-4.6 1.8-9 3.9-13.3 6.4l-9-15.5z" transform="rotate(-90) scale(.85)"/></g><g><path class="st1" d="M-215.4 40.3c5.4-2.1 11-3.8 16.7-5.1l4 17.5c-4.8 1.1-9.5 2.5-14.1 4.3l-6.6-16.7z" transform="rotate(-90) scale(.85)"/><path class="st2" d="M-215.4 40.3c5.4-2.1 11-3.8 16.7-5.1l4 17.5c-4.8 1.1-9.5 2.5-14.1 4.3l-6.6-16.7z" transform="rotate(-90) scale(.85)"/></g><g><path class="st1" d="M-198.8 35.1c5.7-1.3 11.4-2.2 17.2-2.6l1.3 17.9c-4.9.4-9.8 1.1-14.6 2.2l-3.9-17.5z" transform="rotate(-90) scale(.85)"/><path class="st2" d="M-198.8 35.1c5.7-1.3 11.4-2.2 17.2-2.6l1.3 17.9c-4.9.4-9.8 1.1-14.6 2.2l-3.9-17.5z" transform="rotate(-90) scale(.85)"/></g><g><path class="st1" d="M-181.5 32.5c5.8-.4 11.6-.4 17.4 0l-1.3 17.9c-4.9-.4-9.8-.4-14.7 0l-1.4-17.9z" transform="rotate(-90) scale(.85)"/><path d="M27.625 154.275c-.34-4.93-.34-9.86 0-14.79l15.215 1.105a76.66 76.66 0 000 12.495l-15.215 1.19z" fill="#f50000" stroke="#f5f5f5" stroke-width="1.4449999999999998" stroke-linejoin="round" stroke-miterlimit="3.4"/></g><g><path class="st1" d="M-164.1 32.5c5.8.4 11.6 1.3 17.2 2.6l-4 17.5c-4.8-1.1-9.7-1.8-14.6-2.2l1.4-17.9z" transform="rotate(-90) scale(.85)"/><path class="st2" d="M-164.1 32.5c5.8.4 11.6 1.3 17.2 2.6l-4 17.5c-4.8-1.1-9.7-1.8-14.6-2.2l1.4-17.9z" transform="rotate(-90) scale(.85)"/></g><g><path class="st1" d="M-146.9 35.1c5.7 1.3 11.2 3 16.7 5.1l-6.6 16.7c-4.6-1.8-9.3-3.3-14.1-4.3l4-17.5z" transform="rotate(-90) scale(.85)"/><path d="M29.835 124.865c1.105-4.845 2.55-9.52 4.335-14.195l14.195 5.61c-1.53 3.91-2.805 7.905-3.655 11.985l-14.875-3.4z" fill="#ff0a0a" stroke="#f5f5f5" stroke-width="1.4449999999999998" stroke-linejoin="round" stroke-miterlimit="3.4"/></g><g><path class="st1" d="M-130.2 40.3c5.4 2.1 10.7 4.7 15.7 7.6l-9 15.6c-4.3-2.5-8.7-4.6-13.3-6.4l6.6-16.8z" transform="rotate(-90) scale(.85)"/><path class="st2" d="M-130.2 40.3c5.4 2.1 10.7 4.7 15.7 7.6l-9 15.6c-4.3-2.5-8.7-4.6-13.3-6.4l6.6-16.8z" transform="rotate(-90) scale(.85)"/></g><g><path class="st1" d="M-114.5 47.8c5 2.9 9.9 6.2 14.4 9.8l-11.2 14.1c-3.8-3.1-7.9-5.8-12.2-8.3l9-15.6z" transform="rotate(-90) scale(.85)"/><path class="st48" d="M-114.5 47.8c5 2.9 9.9 6.2 14.4 9.8l-11.2 14.1c-3.8-3.1-7.9-5.8-12.2-8.3l9-15.6z" transform="rotate(-90) scale(.85)"/></g><g><path class="st1" d="M-100.1 57.6c4.5 3.6 8.8 7.6 12.8 11.9l-13.2 12.2c-3.3-3.6-7-7-10.8-10l11.2-14.1z" transform="rotate(-90) scale(.85)"/><path class="st48" d="M-100.1 57.6c4.5 3.6 8.8 7.6 12.8 11.9l-13.2 12.2c-3.3-3.6-7-7-10.8-10l11.2-14.1z" transform="rotate(-90) scale(.85)"/></g><g><path class="st1" d="M-87.3 69.5c4 4.3 7.6 8.8 10.9 13.6l-14.9 10.1c-2.8-4.1-5.8-7.9-9.2-11.5l13.2-12.2z" transform="rotate(-90) scale(.85)"/><path class="st2" d="M-87.3 69.5c4 4.3 7.6 8.8 10.9 13.6l-14.9 10.1c-2.8-4.1-5.8-7.9-9.2-11.5l13.2-12.2z" transform="rotate(-90) scale(.85)"/></g><g><path class="st1" d="M-76.5 83.1c3.3 4.8 6.2 9.9 8.7 15.1L-84 106c-2.1-4.4-4.6-8.7-7.4-12.8l14.9-10.1z" transform="rotate(-90) scale(.85)"/><path d="M70.635 65.025c4.08-2.805 8.415-5.27 12.835-7.395L90.1 71.4a82.028 82.028 0 00-10.88 6.29l-8.585-12.665z" fill="#300" stroke="#f5f5f5" stroke-width="1.4449999999999998" stroke-linejoin="round" stroke-miterlimit="3.4"/></g><g><path class="st1" d="M-67.8 98.2c2.5 5.2 4.7 10.7 6.4 16.2l-17.2 5.3c-1.5-4.7-3.3-9.3-5.4-13.7l16.2-7.8z" transform="rotate(-90) scale(.85)"/><path d="M83.47 57.63c4.42-2.125 9.095-3.995 13.77-5.44l4.505 14.62A92.054 92.054 0 0090.1 71.4l-6.63-13.77z" fill="#900" stroke="#f5f5f5" stroke-width="1.4449999999999998" stroke-linejoin="round" stroke-miterlimit="3.4"/></g><g><path class="st1" d="M-61.4 114.5c1.7 5.6 3 11.2 3.9 17l-17.8 2.7c-.7-4.9-1.8-9.7-3.3-14.4l17.2-5.3z" transform="rotate(-90) scale(.85)"/><path class="st51" d="M-61.4 114.5c1.7 5.6 3 11.2 3.9 17l-17.8 2.7c-.7-4.9-1.8-9.7-3.3-14.4l17.2-5.3z" transform="rotate(-90) scale(.85)"/></g><g><path class="st1" d="M-57.5 131.5c.9 5.8 1.3 11.6 1.3 17.4h-18c0-4.9-.4-9.8-1.1-14.7l17.8-2.7z" transform="rotate(-90) scale(.85)"/><path class="st51" d="M-57.5 131.5c.9 5.8 1.3 11.6 1.3 17.4h-18c0-4.9-.4-9.8-1.1-14.7l17.8-2.7z" transform="rotate(-90) scale(.85)"/></g></g><g><path class="st1" d="M-78.5 148.8c0 4.7-.4 9.4-1.1 14.1l-17.6-2.7c.6-3.8.9-7.6.9-11.4h17.8z" transform="rotate(-90) scale(.85)"/><path d="M126.48 66.725c3.995 0 7.99.34 11.985.935l-2.295 14.96a62.04 62.04 0 00-9.69-.765v-15.13z" fill="#00db00" stroke="#f5f5f5" stroke-width="1.4449999999999998" stroke-linejoin="round" stroke-miterlimit="3.4"/><path class="st1" d="M-79.5 162.9c-.7 4.7-1.8 9.3-3.1 13.8l-17-5.2c1.1-3.7 2-7.4 2.5-11.2l17.6 2.6z" transform="rotate(-90) scale(.85)"/><path class="st2" d="M-79.5 162.9c-.7 4.7-1.8 9.3-3.1 13.8l-17-5.2c1.1-3.7 2-7.4 2.5-11.2l17.6 2.6z" transform="rotate(-90) scale(.85)"/><path class="st1" d="M-82.7 176.6c-1.4 4.5-3.1 8.9-5.2 13.1l-16-7.7c1.7-3.4 3.1-7 4.2-10.7l17 5.3z" transform="rotate(-90) scale(.85)"/><path class="st53" d="M-82.7 176.6c-1.4 4.5-3.1 8.9-5.2 13.1l-16-7.7c1.7-3.4 3.1-7 4.2-10.7l17 5.3z" transform="rotate(-90) scale(.85)"/><path class="st1" d="M-87.8 189.8c-2 4.2-4.4 8.3-7.1 12.2l-14.7-10c2.2-3.2 4.1-6.5 5.7-9.9l16.1 7.7z" transform="rotate(-90) scale(.85)"/><path d="M161.33 74.63c3.57 1.7 7.055 3.74 10.37 6.035l-8.5 12.495a59.754 59.754 0 00-8.415-4.845l6.545-13.685z" fill="#cfc" stroke="#f5f5f5" stroke-width="1.4449999999999998" stroke-linejoin="round" stroke-miterlimit="3.4"/><path class="st1" d="M-94.9 202c-2.7 3.9-5.6 7.6-8.8 11l-13.1-12.1c2.6-2.8 5-5.8 7.1-8.9l14.8 10z" transform="rotate(-90) scale(.85)"/><path class="st2" d="M-94.9 202c-2.7 3.9-5.6 7.6-8.8 11l-13.1-12.1c2.6-2.8 5-5.8 7.1-8.9l14.8 10z" transform="rotate(-90) scale(.85)"/><path class="st1" d="M-103.7 213c-3.2 3.5-6.7 6.7-10.3 9.6l-11.1-13.9c3-2.4 5.8-5 8.4-7.8l13 12.1z" transform="rotate(-90) scale(.85)"/><path class="st2" d="M-103.7 213c-3.2 3.5-6.7 6.7-10.3 9.6l-11.1-13.9c3-2.4 5.8-5 8.4-7.8l13 12.1z" transform="rotate(-90) scale(.85)"/><path class="st1" d="M-114 222.6c-3.7 2.9-7.6 5.6-11.7 7.9l-8.9-15.4c3.3-1.9 6.5-4.1 9.5-6.4l11.1 13.9z" transform="rotate(-90) scale(.85)"/><path d="M189.21 96.9c2.465 3.145 4.76 6.46 6.715 9.945l-13.09 7.565c-1.615-2.805-3.485-5.525-5.44-8.075L189.21 96.9z" fill="#00a300" stroke="#f5f5f5" stroke-width="1.4449999999999998" stroke-linejoin="round" stroke-miterlimit="3.4"/><path class="st1" d="M-125.7 230.6c-4.1 2.4-8.3 4.4-12.7 6.1l-6.5-16.6c3.6-1.4 7-3.1 10.3-5l8.9 15.5z" transform="rotate(-90) scale(.85)"/><path class="st56" d="M-125.7 230.6c-4.1 2.4-8.3 4.4-12.7 6.1l-6.5-16.6c3.6-1.4 7-3.1 10.3-5l8.9 15.5z" transform="rotate(-90) scale(.85)"/><path class="st1" d="M-138.4 236.7c-4.4 1.7-8.9 3.1-13.5 4.2l-4-17.4c3.7-.8 7.4-2 10.9-3.4l6.6 16.6z" transform="rotate(-90) scale(.85)"/><path d="M201.195 117.64a89.667 89.667 0 013.57 11.475l-14.79 3.4c-.68-3.145-1.7-6.29-2.89-9.265l14.11-5.61z" fill="#008f00" stroke="#f5f5f5" stroke-width="1.4449999999999998" stroke-linejoin="round" stroke-miterlimit="3.4"/><path class="st1" d="M-151.8 240.8c-4.6 1-9.3 1.8-13.9 2.1l-1.3-17.8c3.8-.3 7.6-.9 11.3-1.7l3.9 17.4z" transform="rotate(-90) scale(.85)"/><path d="M204.68 129.03c.85 3.91 1.53 7.905 1.785 11.815l-15.13 1.105c-.255-3.23-.765-6.46-1.445-9.605l14.79-3.315z" fill="#94ff94" stroke="#f5f5f5" stroke-width="1.4449999999999998" stroke-linejoin="round" stroke-miterlimit="3.4"/><path class="st1" d="M-165.8 242.9c-4.7.4-9.4.4-14.1 0l1.3-17.8c3.8.3 7.6.3 11.4 0l1.4 17.8z" transform="rotate(-90) scale(.85)"/><path class="st2" d="M-165.8 242.9c-4.7.4-9.4.4-14.1 0l1.3-17.8c3.8.3 7.6.3 11.4 0l1.4 17.8z" transform="rotate(-90) scale(.85)"/><path class="st1" d="M-179.9 242.9c-4.7-.4-9.4-1.1-13.9-2.1l4-17.4c3.7.9 7.5 1.4 11.3 1.7l-1.4 17.8z" transform="rotate(-90) scale(.85)"/><path class="st59" d="M-179.9 242.9c-4.7-.4-9.4-1.1-13.9-2.1l4-17.4c3.7.9 7.5 1.4 11.3 1.7l-1.4 17.8z" transform="rotate(-90) scale(.85)"/><path class="st1" d="M-193.8 240.8c-4.6-1-9.1-2.4-13.5-4.2l6.5-16.6c3.6 1.4 7.2 2.5 10.9 3.4l-3.9 17.4z" transform="rotate(-90) scale(.85)"/><path class="st2" d="M-193.8 240.8c-4.6-1-9.1-2.4-13.5-4.2l6.5-16.6c3.6 1.4 7.2 2.5 10.9 3.4l-3.9 17.4z" transform="rotate(-90) scale(.85)"/><path class="st1" d="M-207.3 236.7c-4.4-1.7-8.6-3.8-12.7-6.1l8.9-15.4c3.3 1.9 6.8 3.6 10.3 5l-6.5 16.5z" transform="rotate(-90) scale(.85)"/><path d="M201.195 176.205c-1.445 3.74-3.23 7.31-5.185 10.795l-13.09-7.565a69.233 69.233 0 004.25-8.755l14.025 5.525z" fill="#006b00" stroke="#f5f5f5" stroke-width="1.4449999999999998" stroke-linejoin="round" stroke-miterlimit="3.4"/><path class="st1" d="M-220 230.6c-4.1-2.4-8-5-11.7-7.9l11.1-13.9c3 2.4 6.1 4.5 9.5 6.4l-8.9 15.4z" transform="rotate(-90) scale(.85)"/><path class="st53" d="M-220 230.6c-4.1-2.4-8-5-11.7-7.9l11.1-13.9c3 2.4 6.1 4.5 9.5 6.4l-8.9 15.4z" transform="rotate(-90) scale(.85)"/><path class="st1" d="M-231.7 222.6c-3.7-2.9-7.1-6.1-10.3-9.6l13.1-12.1c2.6 2.8 5.4 5.4 8.4 7.8l-11.2 13.9z" transform="rotate(-90) scale(.85)"/><path d="M189.21 196.945c-2.465 3.145-5.185 6.035-8.16 8.755l-10.285-11.135a65.95 65.95 0 006.63-7.14l11.815 9.52z" fill="#3dff3d" stroke="#f5f5f5" stroke-width="1.4449999999999998" stroke-linejoin="round" stroke-miterlimit="3.4"/><path class="st1" d="M-242 213c-3.2-3.5-6.1-7.1-8.8-11l14.7-10c2.2 3.2 4.5 6.1 7.1 8.9l-13 12.1z" transform="rotate(-90) scale(.85)"/><path class="st62" d="M-242 213c-3.2-3.5-6.1-7.1-8.8-11l14.7-10c2.2 3.2 4.5 6.1 7.1 8.9l-13 12.1z" transform="rotate(-90) scale(.85)"/><path class="st1" d="M-250.8 202c-2.7-3.9-5-8-7.1-12.2l16-7.7c1.7 3.4 3.6 6.8 5.7 9.9l-14.6 10z" transform="rotate(-90) scale(.85)"/><path class="st2" d="M-250.8 202c-2.7-3.9-5-8-7.1-12.2l16-7.7c1.7 3.4 3.6 6.8 5.7 9.9l-14.6 10z" transform="rotate(-90) scale(.85)"/><path class="st1" d="M-257.9 189.8c-2-4.2-3.8-8.6-5.2-13.1l17-5.2c1.1 3.7 2.5 7.2 4.2 10.7l-16 7.6z" transform="rotate(-90) scale(.85)"/><path d="M161.33 219.215c-3.57 1.7-7.31 3.23-11.135 4.42l-4.42-14.45c3.145-.935 6.12-2.125 9.095-3.57l6.46 13.6z" fill="#70ff70" stroke="#f5f5f5" stroke-width="1.4449999999999998" stroke-linejoin="round" stroke-miterlimit="3.4"/><path class="st1" d="M-263 176.6c-1.4-4.5-2.4-9.1-3.1-13.8l17.6-2.7c.6 3.8 1.4 7.5 2.5 11.2l-17 5.3z" transform="rotate(-90) scale(.85)"/><path d="M150.11 223.55c-3.825 1.19-7.735 2.04-11.73 2.635l-2.295-14.96c3.23-.51 6.375-1.19 9.52-2.125l4.505 14.45z" fill="#c7ffc7" stroke="#f5f5f5" stroke-width="1.4449999999999998" stroke-linejoin="round" stroke-miterlimit="3.4"/><path class="st1" d="M-266.2 162.9c-.7-4.7-1.1-9.4-1.1-14.1h17.8c0 3.8.3 7.6.9 11.4l-17.6 2.7z" transform="rotate(-90) scale(.85)"/><path d="M138.465 226.27c-3.995.595-7.99.935-11.985.935v-15.13c3.23 0 6.46-.255 9.69-.765l2.295 14.96z" fill="#80ff80" stroke="#f5f5f5" stroke-width="1.4449999999999998" stroke-linejoin="round" stroke-miterlimit="3.4"/><g><path class="st1" d="M-267.2 148.8c0-4.7.4-9.4 1.1-14.1l17.6 2.7c-.6 3.8-.9 7.6-.9 11.4h-17.8z" transform="rotate(-90) scale(.85)"/><path d="M126.48 227.12c-3.995 0-7.99-.34-11.985-.935l2.295-14.96c3.23.51 6.46.765 9.69.765v15.13z" fill="#f5fff5" stroke="#f5f5f5" stroke-width="1.4449999999999998" stroke-linejoin="round" stroke-miterlimit="3.4"/></g><g><path class="st1" d="M-266.2 134.8c.7-4.7 1.8-9.3 3.1-13.8l17 5.2c-1.1 3.7-2 7.4-2.5 11.2l-17.6-2.6z" transform="rotate(-90) scale(.85)"/><path class="st56" d="M-266.2 134.8c.7-4.7 1.8-9.3 3.1-13.8l17 5.2c-1.1 3.7-2 7.4-2.5 11.2l-17.6-2.6z" transform="rotate(-90) scale(.85)"/></g><g><path class="st1" d="M-263 121c1.4-4.5 3.1-8.9 5.2-13.1l16 7.7c-1.7 3.4-3.1 7-4.2 10.7l-17-5.3z" transform="rotate(-90) scale(.85)"/><path d="M102.85 223.55c-3.825-1.19-7.565-2.635-11.135-4.42l6.545-13.6a56.138 56.138 0 009.095 3.57l-4.505 14.45z" fill="#a3ffa3" stroke="#f5f5f5" stroke-width="1.4449999999999998" stroke-linejoin="round" stroke-miterlimit="3.4"/></g><g><path class="st1" d="M-257.9 107.9c2-4.2 4.4-8.3 7.1-12.2l14.7 10a70.3 70.3 0 00-5.7 9.9l-16.1-7.7z" transform="rotate(-90) scale(.85)"/><path class="st68" d="M-257.9 107.9c2-4.2 4.4-8.3 7.1-12.2l14.7 10a70.3 70.3 0 00-5.7 9.9l-16.1-7.7z" transform="rotate(-90) scale(.85)"/></g><g><path class="st1" d="M-250.8 95.7c2.7-3.9 5.6-7.6 8.8-11l13.1 12.1c-2.6 2.8-5 5.8-7.1 8.9l-14.8-10z" transform="rotate(-90) scale(.85)"/><path class="st68" d="M-250.8 95.7c2.7-3.9 5.6-7.6 8.8-11l13.1 12.1c-2.6 2.8-5 5.8-7.1 8.9l-14.8-10z" transform="rotate(-90) scale(.85)"/></g><g><path class="st1" d="M-242 84.6c3.2-3.5 6.7-6.7 10.3-9.6l11.1 13.9c-3 2.4-5.8 5-8.4 7.8l-13-12.1z" transform="rotate(-90) scale(.85)"/><path class="st69" d="M-242 84.6c3.2-3.5 6.7-6.7 10.3-9.6l11.1 13.9c-3 2.4-5.8 5-8.4 7.8l-13-12.1z" transform="rotate(-90) scale(.85)"/></g><g><path class="st1" d="M-231.7 75c3.7-2.9 7.6-5.6 11.7-7.9l8.9 15.4c-3.3 1.9-6.5 4.1-9.5 6.4L-231.7 75z" transform="rotate(-90) scale(.85)"/><path class="st69" d="M-231.7 75c3.7-2.9 7.6-5.6 11.7-7.9l8.9 15.4c-3.3 1.9-6.5 4.1-9.5 6.4L-231.7 75z" transform="rotate(-90) scale(.85)"/></g><g><path class="st1" d="M-220 67.1c4.1-2.4 8.3-4.4 12.7-6.1l6.5 16.6c-3.6 1.4-7 3.1-10.3 5l-8.9-15.5z" transform="rotate(-90) scale(.85)"/><path d="M57.035 187a74.038 74.038 0 01-5.185-10.795l14.11-5.525c1.19 3.06 2.635 5.95 4.25 8.755L57.035 187z" fill="#9eff9e" stroke="#f5f5f5" stroke-width="1.4449999999999998" stroke-linejoin="round" stroke-miterlimit="3.4"/></g><g><path class="st1" d="M-207.3 61c4.4-1.7 8.9-3.1 13.5-4.2l4 17.4c-3.7.8-7.4 2-10.9 3.4l-6.6-16.6z" transform="rotate(-90) scale(.85)"/><path class="st2" d="M-207.3 61c4.4-1.7 8.9-3.1 13.5-4.2l4 17.4c-3.7.8-7.4 2-10.9 3.4l-6.6-16.6z" transform="rotate(-90) scale(.85)"/></g><g><path class="st1" d="M-193.8 56.8c4.6-1 9.3-1.7 13.9-2.1l1.3 17.8c-3.8.3-7.6.9-11.3 1.7l-3.9-17.4z" transform="rotate(-90) scale(.85)"/><path d="M48.28 164.73a94.472 94.472 0 01-1.785-11.815l15.13-1.105c.255 3.23.765 6.46 1.445 9.605l-14.79 3.315z" fill="#0c0" stroke="#f5f5f5" stroke-width="1.4449999999999998" stroke-linejoin="round" stroke-miterlimit="3.4"/></g><g><path class="st1" d="M-179.9 54.7c4.7-.4 9.4-.4 14.1 0l-1.3 17.8c-3.8-.3-7.6-.3-11.4 0l-1.4-17.8z" transform="rotate(-90) scale(.85)"/><path class="st2" d="M-179.9 54.7c4.7-.4 9.4-.4 14.1 0l-1.3 17.8c-3.8-.3-7.6-.3-11.4 0l-1.4-17.8z" transform="rotate(-90) scale(.85)"/></g><g><path class="st1" d="M-165.8 54.7c4.7.4 9.4 1.1 13.9 2.1l-4 17.4c-3.7-.9-7.5-1.4-11.3-1.7l1.4-17.8z" transform="rotate(-90) scale(.85)"/><path class="st2" d="M-165.8 54.7c4.7.4 9.4 1.1 13.9 2.1l-4 17.4c-3.7-.9-7.5-1.4-11.3-1.7l1.4-17.8z" transform="rotate(-90) scale(.85)"/></g><g><path class="st1" d="M-151.8 56.8c4.6 1 9.1 2.4 13.5 4.2l-6.5 16.6c-3.6-1.4-7.2-2.5-10.9-3.4l3.9-17.4z" transform="rotate(-90) scale(.85)"/><path d="M48.28 129.03c.85-3.91 2.04-7.735 3.57-11.475l14.11 5.525a72.923 72.923 0 00-2.89 9.265l-14.79-3.315z" fill="#47ff47" stroke="#f5f5f5" stroke-width="1.4449999999999998" stroke-linejoin="round" stroke-miterlimit="3.4"/></g><g><path class="st1" d="M-138.4 61c4.4 1.7 8.6 3.8 12.7 6.1l-8.9 15.4c-3.3-1.9-6.8-3.6-10.3-5l6.5-16.5z" transform="rotate(-90) scale(.85)"/><path d="M51.85 117.64c1.445-3.74 3.23-7.31 5.185-10.795l13.09 7.565a69.233 69.233 0 00-4.25 8.755L51.85 117.64z" fill="#00f000" stroke="#f5f5f5" stroke-width="1.4449999999999998" stroke-linejoin="round" stroke-miterlimit="3.4"/></g><g><path class="st1" d="M-125.6 67.1c4.1 2.4 8 5 11.7 7.9l-11.2 14c-3-2.4-6.1-4.5-9.5-6.4l9-15.5z" transform="rotate(-90) scale(.85)"/><path d="M57.035 106.76c2.04-3.485 4.25-6.8 6.715-9.945l11.9 9.52a58.356 58.356 0 00-5.44 8.075l-13.175-7.65z" fill="#61ff61" stroke="#f5f5f5" stroke-width="1.4449999999999998" stroke-linejoin="round" stroke-miterlimit="3.4"/></g><g><path class="st1" d="M-114 75c3.7 2.9 7.1 6.1 10.3 9.6l-13.1 12.1c-2.6-2.8-5.4-5.4-8.4-7.8L-114 75z" transform="rotate(-90) scale(.85)"/><path d="M63.75 96.9c2.465-3.145 5.185-6.035 8.16-8.755L82.195 99.28a65.95 65.95 0 00-6.63 7.14L63.75 96.9z" fill="#a8ffa8" stroke="#f5f5f5" stroke-width="1.4449999999999998" stroke-linejoin="round" stroke-miterlimit="3.4"/></g><g><path class="st1" d="M-103.7 84.6c3.2 3.5 6.1 7.1 8.8 11l-14.7 10c-2.2-3.2-4.5-6.1-7.1-8.9l13-12.1z" transform="rotate(-90) scale(.85)"/><path class="st76" d="M-103.7 84.6c3.2 3.5 6.1 7.1 8.8 11l-14.7 10c-2.2-3.2-4.5-6.1-7.1-8.9l13-12.1z" transform="rotate(-90) scale(.85)"/></g><g><path class="st1" d="M-94.9 95.7c2.7 3.9 5 8 7.1 12.2l-16 7.7c-1.7-3.4-3.6-6.8-5.7-9.9l14.6-10z" transform="rotate(-90) scale(.85)"/><path class="st76" d="M-94.9 95.7c2.7 3.9 5 8 7.1 12.2l-16 7.7c-1.7-3.4-3.6-6.8-5.7-9.9l14.6-10z" transform="rotate(-90) scale(.85)"/></g><g><path class="st1" d="M-87.8 107.9c2 4.2 3.8 8.6 5.2 13.1l-17 5.2c-1.1-3.7-2.5-7.2-4.2-10.7l16-7.6z" transform="rotate(-90) scale(.85)"/><path class="st59" d="M-87.8 107.9c2 4.2 3.8 8.6 5.2 13.1l-17 5.2c-1.1-3.7-2.5-7.2-4.2-10.7l16-7.6z" transform="rotate(-90) scale(.85)"/></g><g><path class="st1" d="M-82.7 121c1.4 4.5 2.4 9.1 3.1 13.8l-17.6 2.7c-.6-3.8-1.4-7.5-2.5-11.2l17-5.3z" transform="rotate(-90) scale(.85)"/><path class="st76" d="M-82.7 121c1.4 4.5 2.4 9.1 3.1 13.8l-17.6 2.7c-.6-3.8-1.4-7.5-2.5-11.2l17-5.3z" transform="rotate(-90) scale(.85)"/></g><g><path class="st1" d="M-79.5 134.8c.7 4.7 1.1 9.4 1.1 14.1h-17.8c0-3.8-.3-7.6-.9-11.4l17.6-2.7z" transform="rotate(-90) scale(.85)"/><path class="st62" d="M-79.5 134.8c.7 4.7 1.1 9.4 1.1 14.1h-17.8c0-3.8-.3-7.6-.9-11.4l17.6-2.7z" transform="rotate(-90) scale(.85)"/></g></g><text transform="translate(178.14 10.338)"><tspan x="0" y="0" class="st77 st78">Known readouts indicated</tspan><tspan x="0" y="14.4" class="st77 st78">by solid black line</tspan></text></svg>