<svg version="1.1" id="Layer_1" xmlns="http://www.w3.org/2000/svg" xmlns:xlink="http://www.w3.org/1999/xlink" x="0px" y="0px"
	 width="338px" height="235px" viewBox="0 0 338 235" enable-background="new 0 0 338 235" xml:space="preserve">
<g>
	<rect x="90.4" y="23.044" fill="#E6EBFA" width="4.24" height="21.5"/>
	<rect x="94.64" y="23.044" fill="#DCE3F8" width="4.24" height="21.5"/>
	<rect x="98.87" y="23.044" fill="#D3DCF6" width="4.24" height="21.5"/>
	<rect x="103.11" y="23.044" fill="#CAD4F4" width="4.24" height="21.5"/>
	<rect x="107.34" y="23.044" fill="#C1CDF2" width="4.24" height="21.5"/>
	<rect x="111.58" y="23.044" fill="#B8C6F0" width="4.24" height="21.5"/>
	<rect x="115.81" y="23.044" fill="#AEBEEE" width="4.24" height="21.5"/>
	<rect x="120.05" y="23.044" fill="#A5B7ED" width="4.24" height="21.5"/>
	<rect x="124.279" y="23.044" fill="#9CB0EB" width="4.24" height="21.5"/>
	<rect x="128.52" y="23.044" fill="#93A8E9" width="4.24" height="21.5"/>
	<rect x="132.75" y="23.044" fill="#8AA1E7" width="4.24" height="21.5"/>
	<rect x="136.99" y="23.044" fill="#809AE5" width="4.24" height="21.5"/>
	<rect x="141.221" y="23.044" fill="#7792E3" width="4.239" height="21.5"/>
	<rect x="145.46" y="23.044" fill="#6E8BE2" width="4.24" height="21.5"/>
	<rect x="149.689" y="23.044" fill="#6583E0" width="4.24" height="21.5"/>
	<rect x="153.93" y="23.044" fill="#5C7CDE" width="4.24" height="21.5"/>
	<rect x="158.16" y="23.044" fill="#5275DC" width="4.24" height="21.5"/>
	<rect x="162.4" y="23.044" fill="#496DDA" width="4.24" height="21.5"/>
	<rect x="166.641" y="23.044" fill="#4066D8" width="4.239" height="21.5"/>
	<rect x="170.87" y="23.044" fill="#375FD7" width="4.239" height="21.5"/>
	<rect x="175.109" y="23.044" fill="#2D57D5" width="4.24" height="21.5"/>
	<rect x="179.34" y="23.044" fill="#2450D3" width="4.24" height="21.5"/>
	<rect x="183.58" y="23.044" fill="#1B49D1" width="4.24" height="21.5"/>
	<rect x="187.811" y="23.044" fill="#1241CF" width="4.239" height="21.5"/>
	<rect x="192.05" y="23.044" fill="#093ACD" width="4.24" height="21.5"/>
	<rect x="196.279" y="23.044" fill="#0033CC" width="4.24" height="21.5"/>
	<rect x="200.52" y="23.044" fill="#0031C4" width="4.24" height="21.5"/>
	<rect x="204.75" y="23.044" fill="#002FBD" width="4.24" height="21.5"/>
	<rect x="208.99" y="23.044" fill="#002DB5" width="4.24" height="21.5"/>
	<rect x="213.221" y="23.044" fill="#002BAE" width="4.239" height="21.5"/>
	<rect x="217.46" y="23.044" fill="#0029A7" width="4.24" height="21.5"/>
	<rect x="221.69" y="23.044" fill="#00279F" width="4.239" height="21.5"/>
	<rect x="225.93" y="23.044" fill="#002698" width="4.24" height="21.5"/>
	<rect x="230.16" y="23.044" fill="#002491" width="4.24" height="21.5"/>
	<rect x="234.4" y="23.044" fill="#002289" width="4.239" height="21.5"/>
	<rect x="238.64" y="23.044" fill="#002082" width="4.24" height="21.5"/>
	<rect x="242.87" y="23.044" fill="#001E7B" width="4.24" height="21.5"/>
	<rect x="247.11" y="23.044" fill="#001C73" width="4.239" height="21.5"/>
	<rect x="251.34" y="23.044" fill="#001B6C" width="4.24" height="21.5"/>
	<rect x="255.58" y="23.044" fill="#001964" width="4.24" height="21.5"/>
	<rect x="259.81" y="23.044" fill="#00175D" width="4.24" height="21.5"/>
	<rect x="264.05" y="23.044" fill="#001556" width="4.24" height="21.5"/>
	<rect x="268.28" y="23.044" fill="#00134E" width="4.239" height="21.5"/>
	<rect x="272.52" y="23.044" fill="#001147" width="4.24" height="21.5"/>
	<rect x="276.75" y="23.044" fill="#001040" width="4.24" height="21.5"/>
	<rect x="280.99" y="23.044" fill="#000E38" width="4.24" height="21.5"/>
	<rect x="285.22" y="23.044" fill="#000C31" width="4.24" height="21.5"/>
	<rect x="289.46" y="23.044" fill="#000A2A" width="4.24" height="21.5"/>
	<rect x="293.69" y="23.044" fill="#000822" width="4.239" height="21.5"/>
	<rect x="297.93" y="23.044" fill="#00061B" width="4.24" height="21.5"/>
	<rect x="302.16" y="23.044" fill="#000514" width="4.24" height="21.5"/>
	
		<rect x="90.4" y="23.044" fill="none" stroke="#000000" stroke-width="0.75" stroke-linecap="round" stroke-linejoin="round" stroke-miterlimit="10" width="216" height="21.5"/>
</g>
<text transform="matrix(1 0 0 1 48.0508 36.9941)" font-family="'ArialMT'" font-size="12">blue</text>
<text transform="matrix(1 0 0 1 53.395 78.9336)" font-family="'ArialMT'" font-size="12">red</text>
<g>
	<rect x="90.4" y="64.912" fill="#FFE6E6" width="4.24" height="21.499"/>
	<rect x="94.64" y="64.912" fill="#FFDCDC" width="4.24" height="21.499"/>
	<rect x="98.87" y="64.912" fill="#FFD3D3" width="4.24" height="21.499"/>
	<rect x="103.11" y="64.912" fill="#FFCACA" width="4.24" height="21.499"/>
	<rect x="107.34" y="64.912" fill="#FFC1C1" width="4.24" height="21.499"/>
	<rect x="111.58" y="64.912" fill="#FFB8B8" width="4.24" height="21.499"/>
	<rect x="115.81" y="64.912" fill="#FFAEAE" width="4.24" height="21.499"/>
	<rect x="120.05" y="64.912" fill="#FFA5A5" width="4.24" height="21.499"/>
	<rect x="124.28" y="64.912" fill="#FF9C9C" width="4.24" height="21.499"/>
	<rect x="128.52" y="64.912" fill="#FF9393" width="4.24" height="21.499"/>
	<rect x="132.75" y="64.912" fill="#FF8A8A" width="4.24" height="21.499"/>
	<rect x="136.99" y="64.912" fill="#FF8080" width="4.24" height="21.499"/>
	<rect x="141.22" y="64.912" fill="#FF7777" width="4.24" height="21.499"/>
	<rect x="145.46" y="64.912" fill="#FF6E6E" width="4.24" height="21.499"/>
	<rect x="149.69" y="64.912" fill="#FF6565" width="4.24" height="21.499"/>
	<rect x="153.93" y="64.912" fill="#FF5C5C" width="4.24" height="21.499"/>
	<rect x="158.16" y="64.912" fill="#FF5252" width="4.24" height="21.499"/>
	<rect x="162.4" y="64.912" fill="#FF4949" width="4.241" height="21.499"/>
	<rect x="166.641" y="64.912" fill="#FF4040" width="4.239" height="21.499"/>
	<rect x="170.87" y="64.912" fill="#FF3737" width="4.239" height="21.499"/>
	<rect x="175.109" y="64.912" fill="#FF2D2D" width="4.24" height="21.499"/>
	<rect x="179.34" y="64.912" fill="#FF2424" width="4.24" height="21.499"/>
	<rect x="183.58" y="64.912" fill="#FF1B1B" width="4.24" height="21.499"/>
	<rect x="187.811" y="64.912" fill="#FF1212" width="4.239" height="21.499"/>
	<rect x="192.05" y="64.912" fill="#FF0909" width="4.24" height="21.499"/>
	<rect x="196.279" y="65.056" fill="#FF0000" width="4.24" height="21.499"/>
	<rect x="200.52" y="65.056" fill="#F50000" width="4.24" height="21.499"/>
	<rect x="204.75" y="65.056" fill="#EC0000" width="4.24" height="21.499"/>
	<rect x="208.99" y="65.056" fill="#E30000" width="4.24" height="21.499"/>
	<rect x="213.221" y="65.056" fill="#DA0000" width="4.239" height="21.499"/>
	<rect x="217.46" y="65.056" fill="#D10000" width="4.24" height="21.499"/>
	<rect x="221.69" y="65.056" fill="#C80000" width="4.239" height="21.499"/>
	<rect x="225.93" y="65.056" fill="#BE0000" width="4.24" height="21.499"/>
	<rect x="230.16" y="65.056" fill="#B50000" width="4.24" height="21.499"/>
	<rect x="234.4" y="65.056" fill="#AC0000" width="4.239" height="21.499"/>
	<rect x="238.64" y="65.056" fill="#A30000" width="4.24" height="21.499"/>
	<rect x="242.87" y="65.056" fill="#9A0000" width="4.24" height="21.499"/>
	<rect x="247.11" y="65.056" fill="#910000" width="4.239" height="21.499"/>
	<rect x="251.34" y="65.056" fill="#870000" width="4.24" height="21.499"/>
	<rect x="255.58" y="65.056" fill="#7E0000" width="4.24" height="21.499"/>
	<rect x="259.81" y="65.056" fill="#750000" width="4.24" height="21.499"/>
	<rect x="264.05" y="65.056" fill="#6C0000" width="4.24" height="21.499"/>
	<rect x="268.28" y="65.056" fill="#630000" width="4.239" height="21.499"/>
	<rect x="272.52" y="65.056" fill="#5A0000" width="4.24" height="21.499"/>
	<rect x="276.75" y="65.056" fill="#500000" width="4.24" height="21.499"/>
	<rect x="280.99" y="65.056" fill="#470000" width="4.24" height="21.499"/>
	<rect x="285.22" y="65.056" fill="#3E0000" width="4.24" height="21.499"/>
	<rect x="289.46" y="65.056" fill="#350000" width="4.24" height="21.499"/>
	<rect x="293.69" y="65.056" fill="#2C0000" width="4.239" height="21.499"/>
	<rect x="297.93" y="65.056" fill="#230000" width="4.24" height="21.499"/>
	<rect x="302.16" y="65.056" fill="#1A0000" width="4.24" height="21.499"/>
	
		<rect x="90.4" y="64.912" fill="none" stroke="#000000" stroke-width="0.75" stroke-linecap="round" stroke-linejoin="round" stroke-miterlimit="10" width="216" height="21.499"/>
</g>
<g>
	<rect x="90.4" y="106.922" fill="#FFE6E6" width="4.24" height="21.5"/>
	<rect x="94.64" y="106.922" fill="#FEE6DC" width="4.24" height="21.5"/>
	<rect x="98.87" y="106.922" fill="#FDE6D3" width="4.24" height="21.5"/>
	<rect x="103.11" y="106.922" fill="#FCE6CA" width="4.24" height="21.5"/>
	<rect x="107.34" y="106.922" fill="#FBE6C1" width="4.24" height="21.5"/>
	<rect x="111.58" y="106.922" fill="#FAE6B8" width="4.24" height="21.5"/>
	<rect x="115.81" y="106.922" fill="#F9E6AE" width="4.24" height="21.5"/>
	<rect x="120.05" y="106.922" fill="#F8E6A5" width="4.24" height="21.5"/>
	<rect x="124.28" y="106.922" fill="#F7E69C" width="4.24" height="21.5"/>
	<rect x="128.52" y="106.922" fill="#F6E693" width="4.24" height="21.5"/>
	<rect x="132.75" y="106.922" fill="#F5E68A" width="4.24" height="21.5"/>
	<rect x="136.99" y="106.922" fill="#F4E680" width="4.24" height="21.5"/>
	<rect x="141.22" y="106.922" fill="#F3E677" width="4.24" height="21.5"/>
	<rect x="145.46" y="106.922" fill="#F2E66E" width="4.24" height="21.5"/>
	<rect x="149.69" y="106.922" fill="#F1E665" width="4.24" height="21.5"/>
	<rect x="153.93" y="106.922" fill="#F0E65C" width="4.24" height="21.5"/>
	<rect x="158.16" y="106.922" fill="#EFE652" width="4.24" height="21.5"/>
	<rect x="162.4" y="106.922" fill="#EEE649" width="4.241" height="21.5"/>
	<rect x="166.641" y="106.922" fill="#EDE640" width="4.239" height="21.5"/>
	<rect x="170.87" y="106.922" fill="#ECE637" width="4.239" height="21.5"/>
	<rect x="175.109" y="106.922" fill="#EBE62D" width="4.24" height="21.5"/>
	<rect x="179.34" y="106.922" fill="#EAE624" width="4.24" height="21.5"/>
	<rect x="183.58" y="106.922" fill="#E9E61B" width="4.24" height="21.5"/>
	<rect x="187.811" y="106.922" fill="#E8E612" width="4.239" height="21.5"/>
	<rect x="192.05" y="106.922" fill="#E7E609" width="4.24" height="21.5"/>
	<rect x="196.279" y="106.922" fill="#E6E600" width="4.24" height="21.5"/>
	<rect x="200.52" y="106.922" fill="#DDDD00" width="4.24" height="21.5"/>
	<rect x="204.75" y="106.922" fill="#D5D400" width="4.24" height="21.5"/>
	<rect x="208.99" y="106.922" fill="#CDCB00" width="4.24" height="21.5"/>
	<rect x="213.221" y="106.922" fill="#C5C200" width="4.239" height="21.5"/>
	<rect x="217.46" y="106.922" fill="#BDB900" width="4.24" height="21.5"/>
	<rect x="221.69" y="106.922" fill="#B5B000" width="4.239" height="21.5"/>
	<rect x="225.93" y="106.922" fill="#ACA700" width="4.24" height="21.5"/>
	<rect x="230.16" y="106.922" fill="#A49E00" width="4.24" height="21.5"/>
	<rect x="234.4" y="106.922" fill="#9C9500" width="4.239" height="21.5"/>
	<rect x="238.64" y="106.922" fill="#948C00" width="4.24" height="21.5"/>
	<rect x="242.87" y="106.922" fill="#8C8300" width="4.24" height="21.5"/>
	<rect x="247.11" y="106.922" fill="#847A00" width="4.239" height="21.5"/>
	<rect x="251.34" y="106.922" fill="#7B7100" width="4.24" height="21.5"/>
	<rect x="255.58" y="106.922" fill="#736800" width="4.24" height="21.5"/>
	<rect x="259.81" y="106.922" fill="#6B5F00" width="4.24" height="21.5"/>
	<rect x="264.05" y="106.922" fill="#635600" width="4.24" height="21.5"/>
	<rect x="268.28" y="106.922" fill="#5B4D00" width="4.239" height="21.5"/>
	<rect x="272.52" y="106.922" fill="#534400" width="4.24" height="21.5"/>
	<rect x="276.75" y="106.922" fill="#4A3B00" width="4.24" height="21.5"/>
	<rect x="280.99" y="106.922" fill="#423200" width="4.24" height="21.5"/>
	<rect x="285.22" y="106.922" fill="#3A2900" width="4.24" height="21.5"/>
	<rect x="289.46" y="106.922" fill="#322000" width="4.24" height="21.5"/>
	<rect x="293.69" y="106.922" fill="#2A1700" width="4.239" height="21.5"/>
	<rect x="297.93" y="106.922" fill="#220E00" width="4.24" height="21.5"/>
	<rect x="302.16" y="106.922" fill="#1A0600" width="4.24" height="21.5"/>
	
		<rect x="90.4" y="106.922" fill="none" stroke="#000000" stroke-width="0.75" stroke-linecap="round" stroke-linejoin="round" stroke-miterlimit="10" width="216" height="21.5"/>
</g>
<text transform="matrix(1 0 0 1 37.3931 120.873)" font-family="'ArialMT'" font-size="12">yellow</text>
<text transform="matrix(1 0 0 1 40.0474 162.8115)" font-family="'ArialMT'" font-size="12">green</text>
<text transform="matrix(1 0 0 1 16.0474 204.75)" font-family="'ArialMT'" font-size="12">grey scale</text>
<g>
	<rect x="90.4" y="148.861" fill="#FFE6E6" width="4.24" height="21.5"/>
	<rect x="94.64" y="148.861" fill="#F4E4DC" width="4.24" height="21.5"/>
	<rect x="98.87" y="148.861" fill="#EAE3D3" width="4.24" height="21.5"/>
	<rect x="103.11" y="148.861" fill="#E0E2CA" width="4.24" height="21.5"/>
	<rect x="107.34" y="148.861" fill="#D6E1C1" width="4.24" height="21.5"/>
	<rect x="111.58" y="148.861" fill="#CCE0B8" width="4.24" height="21.5"/>
	<rect x="115.81" y="148.861" fill="#C1DFAE" width="4.24" height="21.5"/>
	<rect x="120.05" y="148.861" fill="#B7DEA5" width="4.24" height="21.5"/>
	<rect x="124.28" y="148.861" fill="#ADDD9C" width="4.24" height="21.5"/>
	<rect x="128.52" y="148.861" fill="#A3DC93" width="4.24" height="21.5"/>
	<rect x="132.75" y="148.861" fill="#99DB8A" width="4.24" height="21.5"/>
	<rect x="136.99" y="148.861" fill="#8EDA80" width="4.24" height="21.5"/>
	<rect x="141.22" y="148.861" fill="#84D977" width="4.24" height="21.5"/>
	<rect x="145.46" y="148.861" fill="#7AD86E" width="4.24" height="21.5"/>
	<rect x="149.69" y="148.861" fill="#70D765" width="4.24" height="21.5"/>
	<rect x="153.93" y="148.861" fill="#66D65C" width="4.24" height="21.5"/>
	<rect x="158.16" y="148.861" fill="#5BD552" width="4.24" height="21.5"/>
	<rect x="162.4" y="148.861" fill="#51D449" width="4.24" height="21.5"/>
	<rect x="166.641" y="148.861" fill="#47D340" width="4.239" height="21.5"/>
	<rect x="170.87" y="148.861" fill="#3DD237" width="4.239" height="21.5"/>
	<rect x="175.109" y="148.861" fill="#32D12D" width="4.24" height="21.5"/>
	<rect x="179.34" y="148.861" fill="#28D024" width="4.24" height="21.5"/>
	<rect x="183.58" y="148.861" fill="#1ECF1B" width="4.24" height="21.5"/>
	<rect x="187.811" y="148.861" fill="#14CE12" width="4.239" height="21.5"/>
	<rect x="192.05" y="148.861" fill="#0ACD09" width="4.24" height="21.5"/>
	<rect x="196.279" y="148.861" fill="#00CC00" width="4.24" height="21.5"/>
	<rect x="200.52" y="148.861" fill="#01C400" width="4.24" height="21.5"/>
	<rect x="204.75" y="148.861" fill="#02BC00" width="4.24" height="21.5"/>
	<rect x="208.99" y="148.861" fill="#03B400" width="4.24" height="21.5"/>
	<rect x="213.221" y="148.861" fill="#04AC00" width="4.239" height="21.5"/>
	<rect x="217.46" y="148.861" fill="#05A400" width="4.24" height="21.5"/>
	<rect x="221.69" y="148.861" fill="#069C00" width="4.239" height="21.5"/>
	<rect x="225.93" y="148.861" fill="#079400" width="4.24" height="21.5"/>
	<rect x="230.16" y="148.861" fill="#088C00" width="4.24" height="21.5"/>
	<rect x="234.4" y="148.861" fill="#098400" width="4.239" height="21.5"/>
	<rect x="238.64" y="148.861" fill="#0A7C00" width="4.24" height="21.5"/>
	<rect x="242.87" y="148.861" fill="#0B7400" width="4.24" height="21.5"/>
	<rect x="247.11" y="148.861" fill="#0C6C00" width="4.239" height="21.5"/>
	<rect x="251.34" y="148.861" fill="#0D6500" width="4.24" height="21.5"/>
	<rect x="255.58" y="148.861" fill="#0E5D00" width="4.24" height="21.5"/>
	<rect x="259.81" y="148.861" fill="#0F5500" width="4.24" height="21.5"/>
	<rect x="264.05" y="148.861" fill="#104D00" width="4.24" height="21.5"/>
	<rect x="268.28" y="148.861" fill="#114500" width="4.239" height="21.5"/>
	<rect x="272.52" y="148.861" fill="#123D00" width="4.24" height="21.5"/>
	<rect x="276.75" y="148.861" fill="#133500" width="4.24" height="21.5"/>
	<rect x="280.99" y="148.861" fill="#142D00" width="4.24" height="21.5"/>
	<rect x="285.22" y="148.861" fill="#152500" width="4.24" height="21.5"/>
	<rect x="289.46" y="148.861" fill="#161D00" width="4.24" height="21.5"/>
	<rect x="293.69" y="148.861" fill="#171500" width="4.239" height="21.5"/>
	<rect x="297.93" y="148.861" fill="#180D00" width="4.24" height="21.5"/>
	<rect x="302.16" y="148.861" fill="#1A0600" width="4.24" height="21.5"/>
	
		<rect x="90.4" y="148.861" fill="none" stroke="#000000" stroke-width="0.75" stroke-linecap="round" stroke-linejoin="round" stroke-miterlimit="10" width="216" height="21.5"/>
</g>
<g>
	<rect x="90.4" y="190.8" fill="#E6E6E6" width="4.24" height="21.5"/>
	<rect x="94.64" y="190.8" fill="#E1E1E1" width="4.24" height="21.5"/>
	<rect x="98.87" y="190.8" fill="#DCDCDC" width="4.24" height="21.5"/>
	<rect x="103.11" y="190.8" fill="#D8D8D8" width="4.24" height="21.5"/>
	<rect x="107.34" y="190.8" fill="#D3D3D3" width="4.24" height="21.5"/>
	<rect x="111.58" y="190.8" fill="#CFCFCF" width="4.24" height="21.5"/>
	<rect x="115.81" y="190.8" fill="#CACACA" width="4.24" height="21.5"/>
	<rect x="120.05" y="190.8" fill="#C5C5C5" width="4.24" height="21.5"/>
	<rect x="124.28" y="190.8" fill="#C1C1C1" width="4.24" height="21.5"/>
	<rect x="128.52" y="190.8" fill="#BCBCBC" width="4.24" height="21.5"/>
	<rect x="132.75" y="190.8" fill="#B8B8B8" width="4.24" height="21.5"/>
	<rect x="136.99" y="190.8" fill="#B3B3B3" width="4.24" height="21.5"/>
	<rect x="141.22" y="190.8" fill="#AEAEAE" width="4.24" height="21.5"/>
	<rect x="145.46" y="190.8" fill="#AAAAAA" width="4.24" height="21.5"/>
	<rect x="149.69" y="190.8" fill="#A5A5A5" width="4.24" height="21.5"/>
	<rect x="153.93" y="190.8" fill="#A1A1A1" width="4.24" height="21.5"/>
	<rect x="158.16" y="190.8" fill="#9C9C9C" width="4.24" height="21.5"/>
	<rect x="162.4" y="190.8" fill="#979797" width="4.24" height="21.5"/>
	<rect x="166.641" y="190.8" fill="#939393" width="4.239" height="21.5"/>
	<rect x="170.87" y="190.8" fill="#8E8E8E" width="4.239" height="21.5"/>
	<rect x="175.109" y="190.8" fill="#8A8A8A" width="4.24" height="21.5"/>
	<rect x="179.34" y="190.8" fill="#858585" width="4.24" height="21.5"/>
	<rect x="183.58" y="190.8" fill="#818181" width="4.24" height="21.5"/>
	<rect x="187.811" y="190.8" fill="#7C7C7C" width="4.239" height="21.5"/>
	<rect x="192.05" y="190.8" fill="#777777" width="4.24" height="21.5"/>
	<rect x="196.279" y="190.8" fill="#737373" width="4.24" height="21.5"/>
	<rect x="200.52" y="190.8" fill="#6E6E6E" width="4.24" height="21.5"/>
	<rect x="204.75" y="190.8" fill="#6A6A6A" width="4.24" height="21.5"/>
	<rect x="208.99" y="190.8" fill="#656565" width="4.24" height="21.5"/>
	<rect x="213.221" y="190.8" fill="#606060" width="4.239" height="21.5"/>
	<rect x="217.46" y="190.8" fill="#5C5C5C" width="4.24" height="21.5"/>
	<rect x="221.69" y="190.8" fill="#575757" width="4.239" height="21.5"/>
	<rect x="225.93" y="190.8" fill="#535353" width="4.24" height="21.5"/>
	<rect x="230.16" y="190.8" fill="#4E4E4E" width="4.24" height="21.5"/>
	<rect x="234.4" y="190.8" fill="#494949" width="4.239" height="21.5"/>
	<rect x="238.64" y="190.8" fill="#454545" width="4.24" height="21.5"/>
	<rect x="242.87" y="190.8" fill="#404040" width="4.24" height="21.5"/>
	<rect x="247.11" y="190.8" fill="#3C3C3C" width="4.239" height="21.5"/>
	<rect x="251.34" y="190.8" fill="#373737" width="4.24" height="21.5"/>
	<rect x="255.58" y="190.8" fill="#323232" width="4.24" height="21.5"/>
	<rect x="259.81" y="190.8" fill="#2E2E2E" width="4.24" height="21.5"/>
	<rect x="264.05" y="190.8" fill="#292929" width="4.24" height="21.5"/>
	<rect x="268.28" y="190.8" fill="#252525" width="4.239" height="21.5"/>
	<rect x="272.52" y="190.8" fill="#202020" width="4.24" height="21.5"/>
	<rect x="276.75" y="190.8" fill="#1C1C1C" width="4.24" height="21.5"/>
	<rect x="280.99" y="190.8" fill="#171717" width="4.24" height="21.5"/>
	<rect x="285.22" y="190.8" fill="#121212" width="4.24" height="21.5"/>
	<rect x="289.46" y="190.8" fill="#0E0E0E" width="4.24" height="21.5"/>
	<rect x="293.69" y="190.8" fill="#090909" width="4.239" height="21.5"/>
	<rect x="297.93" y="190.8" fill="#050505" width="4.24" height="21.5"/>
	<rect x="302.16" y="190.8" width="4.24" height="21.5"/>
	
		<rect x="90.4" y="190.8" fill="none" stroke="#000000" stroke-width="0.75" stroke-linecap="round" stroke-linejoin="round" stroke-miterlimit="10" width="216" height="21.5"/>
</g>
</svg>
