<svg xmlns="http://www.w3.org/2000/svg" viewBox="0 0 129.1 68">
<style type="text/css">
	.st0{fill:#97A7D6;stroke:#354EA1;stroke-width:2.6659;stroke-linecap:round;stroke-linejoin:round;stroke-miterlimit:11.8483;}
	.st1{fill:none;stroke:#000000;stroke-linecap:round;stroke-linejoin:round;}
	.st2{font-family:'Lato';font-weight: semi-bold;}
	.st3{font-size:18px;}
</style>
<polyline class="st0" points="50.2,34.3 50.2,33.1 50.1,31.9 49.9,30.8 49.6,29.6 49.3,28.4 48.9,27.3 48.4,26.3 47.8,25.2 
	47.3,24.1 46.5,23.2 45.8,22.2 45.1,21.3 44.2,20.4 43.3,19.6 42.4,18.9 41.5,18.2 40.4,17.6 39.3,17.1 38.3,16.7 37.1,16.2 
	35.9,15.8 34.8,15.6 33.6,15.5 32.4,15.4 31.3,15.2 30,15.4 28.8,15.5 27.6,15.6 26.5,15.8 25.3,16.2 24.2,16.7 23.1,17.1 22,17.6 
	21,18.2 20,18.9 19.1,19.6 18.2,20.4 17.3,21.3 16.6,22.2 15.9,23.2 15.1,24.1 14.6,25.2 14,26.3 13.5,27.3 13.1,28.4 12.8,29.6 
	12.5,30.8 12.3,31.9 12.2,33.1 12.2,34.3 12.2,35.5 12.3,36.7 12.5,37.9 12.8,39 13.1,40.2 13.5,41.3 14,42.4 14.6,43.4 15.1,44.5 
	15.9,45.4 16.6,46.4 17.3,47.3 18.2,48.2 19.1,49 20,49.7 21,50.4 22,51 23.1,51.5 24.2,52 25.3,52.4 26.5,52.8 27.6,53 28.8,53.1 
	30,53.3 31.3,53.4 32.4,53.3 33.6,53.1 34.8,53 35.9,52.8 37.1,52.4 38.3,52 39.3,51.5 40.4,51 41.5,50.4 42.4,49.7 43.3,49 
	44.2,48.2 45.1,47.3 45.8,46.4 46.5,45.4 47.3,44.5 47.8,43.4 48.4,42.4 48.9,41.3 49.3,40.2 49.6,39 49.9,37.9 50.1,36.7 
	50.2,35.5 50.2,34.3 "/>
<g>
	<g>
		<line class="st1" x1="74.7" y1="34.3" x2="54.2" y2="34.3"/>
		<g>
			<polygon points="55.1,29.3 50.2,34.3 55.1,39.3 			"/>
		</g>
	</g>
</g>
<text transform="matrix(1 0 0 1 80 39)" class="st2 st3">edge</text>
</svg>
