<svg xmlns="http://www.w3.org/2000/svg" viewBox="0 0 114 68">
<style type="text/css">
	.st0{fill:#97A7D6;stroke:#354EA1;stroke-width:2.6659;stroke-linecap:round;stroke-linejoin:round;stroke-miterlimit:11.8483;}
	.st1{fill:none;stroke:#000000;stroke-linecap:round;stroke-linejoin:round;}
	.st2{font-family:'Lato';font-weight: semi-bold;}
	.st3{font-size:18px;}
</style>
<polyline class="st0" points="51.2,34.3 51.2,33.1 51.1,31.9 50.9,30.8 50.6,29.6 50.3,28.4 49.9,27.3 49.4,26.3 48.8,25.2 
	48.3,24.1 47.5,23.2 46.8,22.2 46.1,21.3 45.2,20.4 44.3,19.6 43.4,18.9 42.5,18.2 41.4,17.6 40.3,17.1 39.3,16.7 38.1,16.2 
	36.9,15.8 35.8,15.6 34.6,15.5 33.4,15.4 32.3,15.2 31,15.4 29.8,15.5 28.6,15.6 27.5,15.8 26.3,16.2 25.2,16.7 24.1,17.1 23,17.6 
	22,18.2 21,18.9 20.1,19.6 19.2,20.4 18.3,21.3 17.6,22.2 16.9,23.2 16.1,24.1 15.6,25.2 15,26.3 14.5,27.3 14.1,28.4 13.8,29.6 
	13.5,30.8 13.3,31.9 13.2,33.1 13.2,34.3 13.2,35.5 13.3,36.7 13.5,37.9 13.8,39 14.1,40.2 14.5,41.3 15,42.4 15.6,43.4 16.1,44.5 
	16.9,45.4 17.6,46.4 18.3,47.3 19.2,48.2 20.1,49 21,49.7 22,50.4 23,51 24.1,51.5 25.2,52 26.3,52.4 27.5,52.8 28.6,53 29.8,53.1 
	31,53.3 32.3,53.4 33.4,53.3 34.6,53.1 35.8,53 36.9,52.8 38.1,52.4 39.3,52 40.3,51.5 41.4,51 42.5,50.4 43.4,49.7 44.3,49 
	45.2,48.2 46.1,47.3 46.8,46.4 47.5,45.4 48.3,44.5 48.8,43.4 49.4,42.4 49.9,41.3 50.3,40.2 50.6,39 50.9,37.9 51.1,36.7 
	51.2,35.5 51.2,34.3 "/>
<g>
	<g>
		<line class="st1" x1="75.7" y1="34.3" x2="39.4" y2="34.3"/>
		<g>
			<polygon points="40.9,29.3 32.3,34.3 40.9,39.3 			"/>
		</g>
	</g>
</g>
<text transform="matrix(1 0 0 1 83 40)" class="st2 st3">fill</text>
</svg>
