<svg xmlns="http://www.w3.org/2000/svg" viewBox="0 0 286.6 173">
<style type="text/css">
	.st0{fill:none;stroke:#D3DCF6;stroke-width:2.25;stroke-linecap:round;stroke-linejoin:round;stroke-miterlimit:10;}
	.st1{fill:none;stroke:#0033CC;stroke-width:2.25;stroke-linecap:round;stroke-linejoin:round;stroke-miterlimit:10;}
	.st2{fill:none;stroke:#000514;stroke-width:2.25;stroke-linecap:round;stroke-linejoin:round;stroke-miterlimit:10;}
	.st3{font-family:'Lato';font-weight: semi-bold;}
	.st4{font-size:18px;}
</style>
<polyline class="st0" points="48.1,142.7 48.1,141.7 48,140.7 47.8,139.7 47.6,138.8 47.3,137.8 47,136.8 46.6,135.9 46.1,135 
	45.6,134.1 45,133.3 44.4,132.5 43.8,131.8 43,131 42.3,130.4 41.5,129.8 40.7,129.2 39.8,128.7 38.9,128.2 38,127.8 37,127.5 
	36,127.2 35.1,127 34.1,126.8 33.1,126.7 32.1,126.7 31,126.7 30,126.8 29,127 28.1,127.2 27.1,127.5 26.1,127.8 25.2,128.2 
	24.3,128.7 23.4,129.2 22.6,129.8 21.8,130.4 21.1,131 20.3,131.8 19.7,132.5 19.1,133.3 18.5,134.1 18,135 17.5,135.9 17.1,136.8 
	16.8,137.8 16.5,138.8 16.3,139.7 16.1,140.7 16,141.7 16,142.7 16,143.8 16.1,144.8 16.3,145.8 16.5,146.7 16.8,147.7 17.1,148.7 
	17.5,149.6 18,150.5 18.5,151.3 19.1,152.2 19.7,153 20.3,153.7 21.1,154.5 21.8,155.1 22.6,155.7 23.4,156.3 24.3,156.8 
	25.2,157.3 26.1,157.7 27.1,158 28.1,158.3 29,158.5 30,158.7 31,158.8 32.1,158.8 33.1,158.8 34.1,158.7 35.1,158.5 36,158.3 
	37,158 38,157.7 38.9,157.3 39.8,156.8 40.7,156.3 41.5,155.7 42.3,155.1 43,154.5 43.8,153.7 44.4,153 45,152.2 45.6,151.3 
	46.1,150.5 46.6,149.6 47,148.7 47.3,147.7 47.6,146.7 47.8,145.8 48,144.8 48.1,143.8 48.1,142.7 "/>
<polyline class="st1" points="48.1,88.8 48.1,87.8 48,86.8 47.8,85.8 47.6,84.8 47.3,83.8 47,82.9 46.6,82 46.1,81.1 45.6,80.2 
	45,79.4 44.4,78.6 43.8,77.8 43,77.1 42.3,76.4 41.5,75.8 40.7,75.2 39.8,74.7 38.9,74.3 38,73.9 37,73.5 36,73.2 35.1,73 
	34.1,72.9 33.1,72.8 32.1,72.7 31,72.8 30,72.9 29,73 28.1,73.2 27.1,73.5 26.1,73.9 25.2,74.3 24.3,74.7 23.4,75.2 22.6,75.8 
	21.8,76.4 21.1,77.1 20.3,77.8 19.7,78.6 19.1,79.4 18.5,80.2 18,81.1 17.5,82 17.1,82.9 16.8,83.8 16.5,84.8 16.3,85.8 16.1,86.8 
	16,87.8 16,88.8 16,89.8 16.1,90.8 16.3,91.8 16.5,92.8 16.8,93.8 17.1,94.7 17.5,95.6 18,96.5 18.5,97.4 19.1,98.2 19.7,99 
	20.3,99.8 21.1,100.5 21.8,101.2 22.6,101.8 23.4,102.4 24.3,102.9 25.2,103.3 26.1,103.7 27.1,104.1 28.1,104.4 29,104.6 30,104.7 
	31,104.8 32.1,104.9 33.1,104.8 34.1,104.7 35.1,104.6 36,104.4 37,104.1 38,103.7 38.9,103.3 39.8,102.9 40.7,102.4 41.5,101.8 
	42.3,101.2 43,100.5 43.8,99.8 44.4,99 45,98.2 45.6,97.4 46.1,96.5 46.6,95.6 47,94.7 47.3,93.8 47.6,92.8 47.8,91.8 48,90.8 
	48.1,89.8 48.1,88.8 "/>
<polyline class="st2" points="48.1,34.9 48.1,33.8 48,32.8 47.8,31.8 47.6,30.9 47.3,29.9 47,28.9 46.6,28 46.1,27.1 45.6,26.3 
	45,25.4 44.4,24.6 43.8,23.9 43,23.1 42.3,22.5 41.5,21.9 40.7,21.3 39.8,20.8 38.9,20.3 38,19.9 37,19.6 36,19.3 35.1,19.1 
	34.1,18.9 33.1,18.8 32.1,18.8 31,18.8 30,18.9 29,19.1 28.1,19.3 27.1,19.6 26.1,19.9 25.2,20.3 24.3,20.8 23.4,21.3 22.6,21.9 
	21.8,22.5 21.1,23.1 20.3,23.9 19.7,24.6 19.1,25.4 18.5,26.3 18,27.1 17.5,28 17.1,28.9 16.8,29.9 16.5,30.9 16.3,31.8 16.1,32.8 
	16,33.8 16,34.9 16,35.9 16.1,36.9 16.3,37.9 16.5,38.8 16.8,39.8 17.1,40.8 17.5,41.7 18,42.6 18.5,43.5 19.1,44.3 19.7,45.1 
	20.3,45.8 21.1,46.6 21.8,47.2 22.6,47.8 23.4,48.4 24.3,48.9 25.2,49.4 26.1,49.8 27.1,50.1 28.1,50.4 29,50.6 30,50.8 31,50.9 
	32.1,50.9 33.1,50.9 34.1,50.8 35.1,50.6 36,50.4 37,50.1 38,49.8 38.9,49.4 39.8,48.9 40.7,48.4 41.5,47.8 42.3,47.2 43,46.6 
	43.8,45.8 44.4,45.1 45,44.3 45.6,43.5 46.1,42.6 46.6,41.7 47,40.8 47.3,39.8 47.6,38.8 47.8,37.9 48,36.9 48.1,35.9 48.1,34.9 "/>
<text transform="matrix(1 0 0 1 59.3188 41.0576)" class="st3 st4">Score ≤ 1° Filter</text>
<text transform="matrix(1 0 0 1 59.3188 95.001)" class="st3 st4">1° Filter &lt; Score ≤ 2° Filter</text>
<text transform="matrix(1 0 0 1 59.3188 149.9434)" class="st3 st4">2° Filter &lt; Score</text>
</svg>
