<svg xmlns="http://www.w3.org/2000/svg" x="0px" y="0px" width="250px" height="205px" viewBox="0 0 211 173">
<style type="text/css">
	.st0{fill:none;stroke:#D3DCF6;stroke-width:2.25;stroke-linecap:round;stroke-linejoin:round;stroke-miterlimit:10;}
	.st1{fill:none;stroke:#0033CC;stroke-width:2.25;stroke-linecap:round;stroke-linejoin:round;stroke-miterlimit:10;}
	.st2{fill:none;stroke:#000514;stroke-width:2.25;stroke-linecap:round;stroke-linejoin:round;stroke-miterlimit:10;}
	.st3{enable-background:new    ;}
</style>
<polyline class="st0" points="48.1,142.7 48.1,141.7 48,140.7 47.8,139.7 47.6,138.8 47.3,137.8 47,136.8 46.6,135.9 46.1,135 
	45.6,134.1 45,133.3 44.4,132.5 43.8,131.8 43,131 42.3,130.4 41.5,129.8 40.7,129.2 39.8,128.7 38.9,128.2 38,127.8 37,127.5 
	36,127.2 35.1,127 34.1,126.8 33.1,126.7 32.1,126.7 31,126.7 30,126.8 29,127 28.1,127.2 27.1,127.5 26.1,127.8 25.2,128.2 
	24.3,128.7 23.4,129.2 22.6,129.8 21.8,130.4 21.1,131 20.3,131.8 19.7,132.5 19.1,133.3 18.5,134.1 18,135 17.5,135.9 17.1,136.8 
	16.8,137.8 16.5,138.8 16.3,139.7 16.1,140.7 16,141.7 16,142.7 16,143.8 16.1,144.8 16.3,145.8 16.5,146.7 16.8,147.7 17.1,148.7 
	17.5,149.6 18,150.5 18.5,151.3 19.1,152.2 19.7,153 20.3,153.7 21.1,154.5 21.8,155.1 22.6,155.7 23.4,156.3 24.3,156.8 
	25.2,157.3 26.1,157.7 27.1,158 28.1,158.3 29,158.5 30,158.7 31,158.8 32.1,158.8 33.1,158.8 34.1,158.7 35.1,158.5 36,158.3 
	37,158 38,157.7 38.9,157.3 39.8,156.8 40.7,156.3 41.5,155.7 42.3,155.1 43,154.5 43.8,153.7 44.4,153 45,152.2 45.6,151.3 
	46.1,150.5 46.6,149.6 47,148.7 47.3,147.7 47.6,146.7 47.8,145.8 48,144.8 48.1,143.8 48.1,142.7 "/>
<polyline class="st1" points="48.1,88.8 48.1,87.8 48,86.8 47.8,85.8 47.6,84.8 47.3,83.8 47,82.9 46.6,82 46.1,81.1 45.6,80.2 
	45,79.4 44.4,78.6 43.8,77.8 43,77.1 42.3,76.4 41.5,75.8 40.7,75.2 39.8,74.7 38.9,74.3 38,73.9 37,73.5 36,73.2 35.1,73 
	34.1,72.9 33.1,72.8 32.1,72.7 31,72.8 30,72.9 29,73 28.1,73.2 27.1,73.5 26.1,73.9 25.2,74.3 24.3,74.7 23.4,75.2 22.6,75.8 
	21.8,76.4 21.1,77.1 20.3,77.8 19.7,78.6 19.1,79.4 18.5,80.2 18,81.1 17.5,82 17.1,82.9 16.8,83.8 16.5,84.8 16.3,85.8 16.1,86.8 
	16,87.8 16,88.8 16,89.8 16.1,90.8 16.3,91.8 16.5,92.8 16.8,93.8 17.1,94.7 17.5,95.6 18,96.5 18.5,97.4 19.1,98.2 19.7,99 
	20.3,99.8 21.1,100.5 21.8,101.2 22.6,101.8 23.4,102.4 24.3,102.9 25.2,103.3 26.1,103.7 27.1,104.1 28.1,104.4 29,104.6 30,104.7 
	31,104.8 32.1,104.9 33.1,104.8 34.1,104.7 35.1,104.6 36,104.4 37,104.1 38,103.7 38.9,103.3 39.8,102.9 40.7,102.4 41.5,101.8 
	42.3,101.2 43,100.5 43.8,99.8 44.4,99 45,98.2 45.6,97.4 46.1,96.5 46.6,95.6 47,94.7 47.3,93.8 47.6,92.8 47.8,91.8 48,90.8 
	48.1,89.8 48.1,88.8 "/>
<polyline class="st2" points="48.1,34.9 48.1,33.8 48,32.8 47.8,31.8 47.6,30.9 47.3,29.9 47,28.9 46.6,28 46.1,27.1 45.6,26.3 
	45,25.4 44.4,24.6 43.8,23.9 43,23.1 42.3,22.5 41.5,21.9 40.7,21.3 39.8,20.8 38.9,20.3 38,19.9 37,19.6 36,19.3 35.1,19.1 
	34.1,18.9 33.1,18.8 32.1,18.8 31,18.8 30,18.9 29,19.1 28.1,19.3 27.1,19.6 26.1,19.9 25.2,20.3 24.3,20.8 23.4,21.3 22.6,21.9 
	21.8,22.5 21.1,23.1 20.3,23.9 19.7,24.6 19.1,25.4 18.5,26.3 18,27.1 17.5,28 17.1,28.9 16.8,29.9 16.5,30.9 16.3,31.8 16.1,32.8 
	16,33.8 16,34.9 16,35.9 16.1,36.9 16.3,37.9 16.5,38.8 16.8,39.8 17.1,40.8 17.5,41.7 18,42.6 18.5,43.5 19.1,44.3 19.7,45.1 
	20.3,45.8 21.1,46.6 21.8,47.2 22.6,47.8 23.4,48.4 24.3,48.9 25.2,49.4 26.1,49.8 27.1,50.1 28.1,50.4 29,50.6 30,50.8 31,50.9 
	32.1,50.9 33.1,50.9 34.1,50.8 35.1,50.6 36,50.4 37,50.1 38,49.8 38.9,49.4 39.8,48.9 40.7,48.4 41.5,47.8 42.3,47.2 43,46.6 
	43.8,45.8 44.4,45.1 45,44.3 45.6,43.5 46.1,42.6 46.6,41.7 47,40.8 47.3,39.8 47.6,38.8 47.8,37.9 48,36.9 48.1,35.9 48.1,34.9 "/>
<g class="st3">
	<path d="M59.9,35.3l1.1-0.1c0.1,0.4,0.2,0.8,0.4,1.1s0.5,0.5,0.9,0.7s0.8,0.3,1.3,0.3c0.4,0,0.8-0.1,1.1-0.2s0.6-0.3,0.7-0.5
		s0.2-0.5,0.2-0.7c0-0.3-0.1-0.5-0.2-0.7s-0.4-0.4-0.8-0.5c-0.2-0.1-0.7-0.2-1.5-0.4s-1.3-0.4-1.7-0.5c-0.4-0.2-0.7-0.5-0.9-0.8
		s-0.3-0.7-0.3-1.1c0-0.4,0.1-0.8,0.4-1.2s0.6-0.7,1.1-0.9s1-0.3,1.6-0.3c0.6,0,1.2,0.1,1.7,0.3s0.9,0.5,1.1,0.9s0.4,0.8,0.4,1.4
		L65.3,32c-0.1-0.5-0.3-1-0.6-1.2s-0.8-0.4-1.5-0.4c-0.7,0-1.2,0.1-1.5,0.4s-0.5,0.6-0.5,0.9c0,0.3,0.1,0.6,0.3,0.8
		c0.2,0.2,0.8,0.4,1.7,0.6s1.6,0.4,1.9,0.5c0.5,0.2,0.9,0.5,1.1,0.9s0.4,0.8,0.4,1.2c0,0.5-0.1,0.9-0.4,1.3s-0.6,0.7-1.1,0.9
		s-1,0.3-1.7,0.3c-0.8,0-1.4-0.1-2-0.3s-0.9-0.6-1.2-1S59.9,35.9,59.9,35.3z"/>
	<path d="M72.2,35.8l1,0.1c-0.1,0.7-0.4,1.3-0.9,1.7s-1,0.6-1.7,0.6c-0.9,0-1.5-0.3-2.1-0.8S67.8,36,67.8,35c0-0.7,0.1-1.3,0.3-1.8
		s0.6-0.9,1-1.1s1-0.4,1.5-0.4c0.7,0,1.2,0.2,1.7,0.5s0.7,0.8,0.8,1.5l-1,0.2c-0.1-0.4-0.3-0.7-0.5-0.9s-0.5-0.3-0.9-0.3
		c-0.5,0-1,0.2-1.3,0.6s-0.5,1-0.5,1.8c0,0.8,0.2,1.4,0.5,1.8s0.7,0.6,1.3,0.6c0.4,0,0.8-0.1,1-0.4S72.1,36.3,72.2,35.8z"/>
	<path d="M73.7,34.9c0-1.2,0.3-2,1-2.6c0.5-0.5,1.2-0.7,2-0.7c0.9,0,1.6,0.3,2.1,0.8s0.8,1.3,0.8,2.3c0,0.8-0.1,1.4-0.4,1.9
		s-0.6,0.8-1,1.1s-1,0.4-1.5,0.4c-0.9,0-1.6-0.3-2.1-0.8S73.7,36,73.7,34.9z M74.8,34.9c0,0.8,0.2,1.4,0.5,1.8s0.8,0.6,1.3,0.6
		c0.5,0,1-0.2,1.3-0.6s0.5-1,0.5-1.8c0-0.8-0.2-1.4-0.5-1.7s-0.8-0.6-1.3-0.6c-0.5,0-1,0.2-1.3,0.6S74.8,34.1,74.8,34.9z"/>
	<path d="M80.8,38.1v-6.2h0.9v0.9c0.2-0.4,0.5-0.7,0.7-0.9s0.4-0.2,0.7-0.2c0.4,0,0.7,0.1,1.1,0.3l-0.4,1c-0.3-0.2-0.5-0.2-0.8-0.2
		c-0.2,0-0.4,0.1-0.6,0.2s-0.3,0.3-0.4,0.6c-0.1,0.4-0.2,0.8-0.2,1.2v3.3H80.8z"/>
	<path d="M89,36.1l1.1,0.1c-0.2,0.6-0.5,1.1-1,1.5s-1.1,0.5-1.8,0.5c-0.9,0-1.6-0.3-2.2-0.8S84.4,36,84.4,35c0-1,0.3-1.9,0.8-2.4
		s1.2-0.9,2.1-0.9c0.8,0,1.5,0.3,2,0.8s0.8,1.4,0.8,2.4c0,0.1,0,0.2,0,0.3h-4.6c0,0.7,0.2,1.2,0.6,1.6s0.8,0.5,1.3,0.5
		c0.4,0,0.7-0.1,1-0.3S88.9,36.5,89,36.1z M85.6,34.3h3.5c0-0.5-0.2-0.9-0.4-1.2c-0.3-0.4-0.8-0.6-1.3-0.6c-0.5,0-0.9,0.2-1.2,0.5
		S85.6,33.8,85.6,34.3z"/>
	<path d="M94.5,33.6v-1l5.7-2.4v1.1l-4.5,1.8l4.5,1.9v1L94.5,33.6z M100.1,37.4h-5.7v-1h5.7V37.4z"/>
	<path d="M108.4,38.1h-1.1v-6.7c-0.3,0.2-0.6,0.5-1,0.7c-0.4,0.2-0.8,0.4-1.1,0.5v-1c0.6-0.3,1.1-0.6,1.5-1s0.8-0.8,0.9-1.1h0.7
		V38.1z"/>
	<path d="M111.3,30.9c0-0.4,0.2-0.8,0.5-1.1s0.7-0.5,1.1-0.5c0.5,0,0.8,0.2,1.2,0.5s0.5,0.7,0.5,1.1s-0.2,0.8-0.5,1.2
		s-0.7,0.5-1.2,0.5c-0.4,0-0.8-0.2-1.1-0.5S111.3,31.4,111.3,30.9z M112,30.9c0,0.3,0.1,0.5,0.3,0.7s0.4,0.3,0.7,0.3
		c0.3,0,0.5-0.1,0.7-0.3s0.3-0.4,0.3-0.7s-0.1-0.5-0.3-0.7S113.2,30,113,30c-0.3,0-0.5,0.1-0.7,0.3S112,30.7,112,30.9z"/>
	<path d="M119.7,38.1v-8.6h5.8v1h-4.7v2.7h4v1h-4v3.9H119.7z"/>
	<path d="M126.9,30.7v-1.2h1.1v1.2H126.9z M126.9,38.1v-6.2h1.1v6.2H126.9z"/>
	<path d="M129.5,38.1v-8.6h1.1v8.6H129.5z"/>
	<path d="M134.5,37.1l0.2,0.9c-0.3,0.1-0.6,0.1-0.8,0.1c-0.4,0-0.7-0.1-0.9-0.2s-0.4-0.3-0.4-0.5s-0.1-0.6-0.1-1.2v-3.6h-0.8v-0.8
		h0.8v-1.5l1-0.6v2.2h1.1v0.8h-1.1v3.6c0,0.3,0,0.5,0.1,0.6s0.1,0.2,0.2,0.2s0.2,0.1,0.4,0.1C134.1,37.2,134.3,37.1,134.5,37.1z"/>
	<path d="M139.8,36.1l1.1,0.1c-0.2,0.6-0.5,1.1-1,1.5s-1.1,0.5-1.8,0.5c-0.9,0-1.6-0.3-2.2-0.8s-0.8-1.3-0.8-2.4
		c0-1,0.3-1.9,0.8-2.4s1.2-0.9,2.1-0.9c0.8,0,1.5,0.3,2,0.8s0.8,1.4,0.8,2.4c0,0.1,0,0.2,0,0.3h-4.6c0,0.7,0.2,1.2,0.6,1.6
		s0.8,0.5,1.3,0.5c0.4,0,0.7-0.1,1-0.3S139.6,36.5,139.8,36.1z M136.3,34.3h3.5c0-0.5-0.2-0.9-0.4-1.2c-0.3-0.4-0.8-0.6-1.3-0.6
		c-0.5,0-0.9,0.2-1.2,0.5S136.3,33.8,136.3,34.3z"/>
	<path d="M142.2,38.1v-6.2h0.9v0.9c0.2-0.4,0.5-0.7,0.7-0.9s0.4-0.2,0.7-0.2c0.4,0,0.7,0.1,1.1,0.3l-0.4,1c-0.3-0.2-0.5-0.2-0.8-0.2
		c-0.2,0-0.4,0.1-0.6,0.2s-0.3,0.3-0.4,0.6c-0.1,0.4-0.2,0.8-0.2,1.2v3.3H142.2z"/>
</g>
<g class="st3">
	<path d="M63.8,92h-1.1v-6.7c-0.3,0.2-0.6,0.5-1,0.7s-0.8,0.4-1.1,0.5v-1c0.6-0.3,1.1-0.6,1.5-1s0.8-0.8,0.9-1.1h0.7V92z"/>
	<path d="M66.7,84.9c0-0.4,0.2-0.8,0.5-1.1s0.7-0.5,1.1-0.5c0.5,0,0.8,0.2,1.2,0.5s0.5,0.7,0.5,1.1s-0.2,0.8-0.5,1.2
		s-0.7,0.5-1.2,0.5c-0.4,0-0.8-0.2-1.1-0.5S66.7,85.3,66.7,84.9z M67.4,84.9c0,0.3,0.1,0.5,0.3,0.7s0.4,0.3,0.7,0.3
		c0.3,0,0.5-0.1,0.7-0.3s0.3-0.4,0.3-0.7s-0.1-0.5-0.3-0.7s-0.4-0.3-0.7-0.3c-0.3,0-0.5,0.1-0.7,0.3S67.4,84.6,67.4,84.9z"/>
	<path d="M75.1,92v-8.6h5.8v1h-4.7v2.7h4v1h-4V92H75.1z"/>
	<path d="M82.3,84.6v-1.2h1.1v1.2H82.3z M82.3,92v-6.2h1.1V92H82.3z"/>
	<path d="M84.9,92v-8.6h1.1V92H84.9z"/>
	<path d="M89.9,91.1L90,92c-0.3,0.1-0.6,0.1-0.8,0.1c-0.4,0-0.7-0.1-0.9-0.2s-0.4-0.3-0.4-0.5s-0.1-0.6-0.1-1.2v-3.6H87v-0.8h0.8
		v-1.5l1-0.6v2.2h1.1v0.8h-1.1v3.6c0,0.3,0,0.5,0.1,0.6S89,91,89.1,91s0.2,0.1,0.4,0.1C89.5,91.1,89.7,91.1,89.9,91.1z"/>
	<path d="M95.2,90l1.1,0.1c-0.2,0.6-0.5,1.1-1,1.5s-1.1,0.5-1.8,0.5c-0.9,0-1.6-0.3-2.2-0.8s-0.8-1.3-0.8-2.4c0-1,0.3-1.9,0.8-2.4
		s1.2-0.9,2.1-0.9c0.8,0,1.5,0.3,2,0.8s0.8,1.4,0.8,2.4c0,0.1,0,0.2,0,0.3h-4.6c0,0.7,0.2,1.2,0.6,1.6s0.8,0.5,1.3,0.5
		c0.4,0,0.7-0.1,1-0.3S95,90.4,95.2,90z M91.7,88.3h3.5c0-0.5-0.2-0.9-0.4-1.2c-0.3-0.4-0.8-0.6-1.3-0.6c-0.5,0-0.9,0.2-1.2,0.5
		S91.7,87.7,91.7,88.3z"/>
	<path d="M97.6,92v-6.2h0.9v0.9c0.2-0.4,0.5-0.7,0.7-0.9s0.4-0.2,0.7-0.2c0.4,0,0.7,0.1,1.1,0.3l-0.4,1c-0.3-0.2-0.5-0.2-0.8-0.2
		c-0.2,0-0.4,0.1-0.6,0.2s-0.3,0.3-0.4,0.6c-0.1,0.4-0.2,0.8-0.2,1.2V92H97.6z"/>
	<path d="M104.8,88.2v-1l5.7-2.4v1l-4.5,1.9l4.5,1.9v1L104.8,88.2z"/>
	<path d="M115,89.2l1.1-0.1c0.1,0.4,0.2,0.8,0.4,1.1s0.5,0.5,0.9,0.7s0.8,0.3,1.3,0.3c0.4,0,0.8-0.1,1.1-0.2s0.6-0.3,0.7-0.5
		s0.2-0.5,0.2-0.7c0-0.3-0.1-0.5-0.2-0.7s-0.4-0.4-0.8-0.5c-0.2-0.1-0.7-0.2-1.5-0.4s-1.3-0.4-1.7-0.5c-0.4-0.2-0.7-0.5-0.9-0.8
		s-0.3-0.7-0.3-1.1c0-0.4,0.1-0.8,0.4-1.2s0.6-0.7,1.1-0.9s1-0.3,1.6-0.3c0.6,0,1.2,0.1,1.7,0.3s0.9,0.5,1.1,0.9s0.4,0.8,0.4,1.4
		l-1.1,0.1c-0.1-0.5-0.3-1-0.6-1.2s-0.8-0.4-1.5-0.4c-0.7,0-1.2,0.1-1.5,0.4s-0.5,0.6-0.5,0.9c0,0.3,0.1,0.6,0.3,0.8
		c0.2,0.2,0.8,0.4,1.7,0.6s1.6,0.4,1.9,0.5c0.5,0.2,0.9,0.5,1.1,0.9s0.4,0.8,0.4,1.2c0,0.5-0.1,0.9-0.4,1.3s-0.6,0.7-1.1,0.9
		s-1,0.3-1.7,0.3c-0.8,0-1.4-0.1-2-0.3s-0.9-0.6-1.2-1S115,89.8,115,89.2z"/>
	<path d="M127.3,89.7l1,0.1c-0.1,0.7-0.4,1.3-0.9,1.7s-1,0.6-1.7,0.6c-0.9,0-1.5-0.3-2.1-0.8s-0.8-1.4-0.8-2.4
		c0-0.7,0.1-1.3,0.3-1.8s0.6-0.9,1-1.1s1-0.4,1.5-0.4c0.7,0,1.2,0.2,1.7,0.5s0.7,0.8,0.8,1.5l-1,0.2c-0.1-0.4-0.3-0.7-0.5-0.9
		s-0.5-0.3-0.9-0.3c-0.5,0-1,0.2-1.3,0.6s-0.5,1-0.5,1.8c0,0.8,0.2,1.4,0.5,1.8s0.7,0.6,1.3,0.6c0.4,0,0.8-0.1,1-0.4
		S127.2,90.2,127.3,89.7z"/>
	<path d="M128.9,88.9c0-1.2,0.3-2,1-2.6c0.5-0.5,1.2-0.7,2-0.7c0.9,0,1.6,0.3,2.1,0.8s0.8,1.3,0.8,2.3c0,0.8-0.1,1.4-0.4,1.9
		s-0.6,0.8-1,1.1s-1,0.4-1.5,0.4c-0.9,0-1.6-0.3-2.1-0.8S128.9,89.9,128.9,88.9z M130,88.9c0,0.8,0.2,1.4,0.5,1.8s0.8,0.6,1.3,0.6
		c0.5,0,1-0.2,1.3-0.6s0.5-1,0.5-1.8c0-0.8-0.2-1.4-0.5-1.7s-0.8-0.6-1.3-0.6c-0.5,0-1,0.2-1.3,0.6S130,88.1,130,88.9z"/>
	<path d="M135.9,92v-6.2h0.9v0.9c0.2-0.4,0.5-0.7,0.7-0.9s0.4-0.2,0.7-0.2c0.4,0,0.7,0.1,1.1,0.3l-0.4,1c-0.3-0.2-0.5-0.2-0.8-0.2
		c-0.2,0-0.4,0.1-0.6,0.2s-0.3,0.3-0.4,0.6c-0.1,0.4-0.2,0.8-0.2,1.2V92H135.9z"/>
	<path d="M144.2,90l1.1,0.1c-0.2,0.6-0.5,1.1-1,1.5s-1.1,0.5-1.8,0.5c-0.9,0-1.6-0.3-2.2-0.8s-0.8-1.3-0.8-2.4c0-1,0.3-1.9,0.8-2.4
		s1.2-0.9,2.1-0.9c0.8,0,1.5,0.3,2,0.8s0.8,1.4,0.8,2.4c0,0.1,0,0.2,0,0.3h-4.6c0,0.7,0.2,1.2,0.6,1.6s0.8,0.5,1.3,0.5
		c0.4,0,0.7-0.1,1-0.3S144,90.4,144.2,90z M140.7,88.3h3.5c0-0.5-0.2-0.9-0.4-1.2c-0.3-0.4-0.8-0.6-1.3-0.6c-0.5,0-0.9,0.2-1.2,0.5
		S140.8,87.7,140.7,88.3z"/>
	<path d="M149.6,87.5v-1l5.7-2.4v1.1l-4.5,1.8l4.5,1.9v1L149.6,87.5z M155.3,91.4h-5.7v-1h5.7V91.4z"/>
	<path d="M165.1,91v1h-5.7c0-0.3,0-0.5,0.1-0.7c0.1-0.4,0.4-0.8,0.7-1.1s0.8-0.8,1.4-1.3c0.9-0.8,1.6-1.4,1.9-1.8s0.5-0.9,0.5-1.3
		c0-0.4-0.1-0.8-0.4-1.1s-0.7-0.4-1.2-0.4c-0.5,0-0.9,0.2-1.2,0.5s-0.5,0.7-0.5,1.3l-1.1-0.1c0.1-0.8,0.4-1.4,0.8-1.8s1.1-0.6,2-0.6
		c0.8,0,1.5,0.2,2,0.7s0.7,1,0.7,1.7c0,0.3-0.1,0.7-0.2,1s-0.4,0.7-0.7,1s-0.9,0.9-1.6,1.5c-0.6,0.5-1,0.9-1.2,1.1s-0.3,0.4-0.4,0.6
		H165.1z"/>
	<path d="M166.5,84.9c0-0.4,0.2-0.8,0.5-1.1s0.7-0.5,1.1-0.5c0.5,0,0.8,0.2,1.2,0.5s0.5,0.7,0.5,1.1s-0.2,0.8-0.5,1.2
		s-0.7,0.5-1.2,0.5c-0.4,0-0.8-0.2-1.1-0.5S166.5,85.3,166.5,84.9z M167.1,84.9c0,0.3,0.1,0.5,0.3,0.7s0.4,0.3,0.7,0.3
		c0.3,0,0.5-0.1,0.7-0.3s0.3-0.4,0.3-0.7s-0.1-0.5-0.3-0.7s-0.4-0.3-0.7-0.3c-0.3,0-0.5,0.1-0.7,0.3S167.1,84.6,167.1,84.9z"/>
	<path d="M174.9,92v-8.6h5.8v1H176v2.7h4v1h-4V92H174.9z"/>
	<path d="M182,84.6v-1.2h1.1v1.2H182z M182,92v-6.2h1.1V92H182z"/>
	<path d="M184.6,92v-8.6h1.1V92H184.6z"/>
	<path d="M189.6,91.1l0.2,0.9c-0.3,0.1-0.6,0.1-0.8,0.1c-0.4,0-0.7-0.1-0.9-0.2s-0.4-0.3-0.4-0.5s-0.1-0.6-0.1-1.2v-3.6h-0.8v-0.8
		h0.8v-1.5l1-0.6v2.2h1.1v0.8h-1.1v3.6c0,0.3,0,0.5,0.1,0.6s0.1,0.2,0.2,0.2s0.2,0.1,0.4,0.1C189.3,91.1,189.4,91.1,189.6,91.1z"/>
	<path d="M194.9,90l1.1,0.1c-0.2,0.6-0.5,1.1-1,1.5s-1.1,0.5-1.8,0.5c-0.9,0-1.6-0.3-2.2-0.8s-0.8-1.3-0.8-2.4c0-1,0.3-1.9,0.8-2.4
		s1.2-0.9,2.1-0.9c0.8,0,1.5,0.3,2,0.8s0.8,1.4,0.8,2.4c0,0.1,0,0.2,0,0.3h-4.6c0,0.7,0.2,1.2,0.6,1.6s0.8,0.5,1.3,0.5
		c0.4,0,0.7-0.1,1-0.3S194.8,90.4,194.9,90z M191.5,88.3h3.5c0-0.5-0.2-0.9-0.4-1.2c-0.3-0.4-0.8-0.6-1.3-0.6
		c-0.5,0-0.9,0.2-1.2,0.5S191.5,87.7,191.5,88.3z"/>
	<path d="M197.3,92v-6.2h0.9v0.9c0.2-0.4,0.5-0.7,0.7-0.9s0.4-0.2,0.7-0.2c0.4,0,0.7,0.1,1.1,0.3l-0.4,1c-0.3-0.2-0.5-0.2-0.8-0.2
		c-0.2,0-0.4,0.1-0.6,0.2s-0.3,0.3-0.4,0.6c-0.1,0.4-0.2,0.8-0.2,1.2V92H197.3z"/>
</g>
<g class="st3">
	<path d="M65.4,144.9v1h-5.7c0-0.3,0-0.5,0.1-0.7c0.1-0.4,0.4-0.8,0.7-1.1s0.8-0.8,1.4-1.3c0.9-0.8,1.6-1.4,1.9-1.8s0.5-0.9,0.5-1.3
		c0-0.4-0.1-0.8-0.4-1.1s-0.7-0.4-1.2-0.4c-0.5,0-0.9,0.2-1.2,0.5s-0.5,0.7-0.5,1.3l-1.1-0.1c0.1-0.8,0.4-1.4,0.8-1.8s1.1-0.6,2-0.6
		c0.8,0,1.5,0.2,2,0.7s0.7,1,0.7,1.7c0,0.3-0.1,0.7-0.2,1s-0.4,0.7-0.7,1s-0.9,0.9-1.6,1.5c-0.6,0.5-1,0.9-1.2,1.1s-0.3,0.4-0.4,0.6
		H65.4z"/>
	<path d="M66.7,138.8c0-0.4,0.2-0.8,0.5-1.1s0.7-0.5,1.1-0.5c0.5,0,0.8,0.2,1.2,0.5s0.5,0.7,0.5,1.1s-0.2,0.8-0.5,1.2
		s-0.7,0.5-1.2,0.5c-0.4,0-0.8-0.2-1.1-0.5S66.7,139.3,66.7,138.8z M67.4,138.8c0,0.3,0.1,0.5,0.3,0.7s0.4,0.3,0.7,0.3
		c0.3,0,0.5-0.1,0.7-0.3s0.3-0.4,0.3-0.7s-0.1-0.5-0.3-0.7s-0.4-0.3-0.7-0.3c-0.3,0-0.5,0.1-0.7,0.3S67.4,138.6,67.4,138.8z"/>
	<path d="M75.1,145.9v-8.6h5.8v1h-4.7v2.7h4v1h-4v3.9H75.1z"/>
	<path d="M82.3,138.6v-1.2h1.1v1.2H82.3z M82.3,145.9v-6.2h1.1v6.2H82.3z"/>
	<path d="M84.9,145.9v-8.6h1.1v8.6H84.9z"/>
	<path d="M89.9,145l0.2,0.9c-0.3,0.1-0.6,0.1-0.8,0.1c-0.4,0-0.7-0.1-0.9-0.2s-0.4-0.3-0.4-0.5s-0.1-0.6-0.1-1.2v-3.6H87v-0.8h0.8
		v-1.5l1-0.6v2.2h1.1v0.8h-1.1v3.6c0,0.3,0,0.5,0.1,0.6s0.1,0.2,0.2,0.2s0.2,0.1,0.4,0.1C89.5,145,89.7,145,89.9,145z"/>
	<path d="M95.2,143.9l1.1,0.1c-0.2,0.6-0.5,1.1-1,1.5s-1.1,0.5-1.8,0.5c-0.9,0-1.6-0.3-2.2-0.8s-0.8-1.3-0.8-2.4
		c0-1,0.3-1.9,0.8-2.4s1.2-0.9,2.1-0.9c0.8,0,1.5,0.3,2,0.8s0.8,1.4,0.8,2.4c0,0.1,0,0.2,0,0.3h-4.6c0,0.7,0.2,1.2,0.6,1.6
		s0.8,0.5,1.3,0.5c0.4,0,0.7-0.1,1-0.3S95,144.4,95.2,143.9z M91.7,142.2h3.5c0-0.5-0.2-0.9-0.4-1.2c-0.3-0.4-0.8-0.6-1.3-0.6
		c-0.5,0-0.9,0.2-1.2,0.5S91.7,141.7,91.7,142.2z"/>
	<path d="M97.6,145.9v-6.2h0.9v0.9c0.2-0.4,0.5-0.7,0.7-0.9s0.4-0.2,0.7-0.2c0.4,0,0.7,0.1,1.1,0.3l-0.4,1c-0.3-0.2-0.5-0.2-0.8-0.2
		c-0.2,0-0.4,0.1-0.6,0.2s-0.3,0.3-0.4,0.6c-0.1,0.4-0.2,0.8-0.2,1.2v3.3H97.6z"/>
	<path d="M104.8,142.2v-1l5.7-2.4v1l-4.5,1.9l4.5,1.9v1L104.8,142.2z"/>
	<path d="M115,143.2l1.1-0.1c0.1,0.4,0.2,0.8,0.4,1.1s0.5,0.5,0.9,0.7s0.8,0.3,1.3,0.3c0.4,0,0.8-0.1,1.1-0.2s0.6-0.3,0.7-0.5
		s0.2-0.5,0.2-0.7c0-0.3-0.1-0.5-0.2-0.7s-0.4-0.4-0.8-0.5c-0.2-0.1-0.7-0.2-1.5-0.4s-1.3-0.4-1.7-0.5c-0.4-0.2-0.7-0.5-0.9-0.8
		s-0.3-0.7-0.3-1.1c0-0.4,0.1-0.8,0.4-1.2s0.6-0.7,1.1-0.9s1-0.3,1.6-0.3c0.6,0,1.2,0.1,1.7,0.3s0.9,0.5,1.1,0.9s0.4,0.8,0.4,1.4
		l-1.1,0.1c-0.1-0.5-0.3-1-0.6-1.2s-0.8-0.4-1.5-0.4c-0.7,0-1.2,0.1-1.5,0.4s-0.5,0.6-0.5,0.9c0,0.3,0.1,0.6,0.3,0.8
		c0.2,0.2,0.8,0.4,1.7,0.6s1.6,0.4,1.9,0.5c0.5,0.2,0.9,0.5,1.1,0.9s0.4,0.8,0.4,1.2c0,0.5-0.1,0.9-0.4,1.3s-0.6,0.7-1.1,0.9
		s-1,0.3-1.7,0.3c-0.8,0-1.4-0.1-2-0.3s-0.9-0.6-1.2-1S115,143.8,115,143.2z"/>
	<path d="M127.3,143.7l1,0.1c-0.1,0.7-0.4,1.3-0.9,1.7s-1,0.6-1.7,0.6c-0.9,0-1.5-0.3-2.1-0.8s-0.8-1.4-0.8-2.4
		c0-0.7,0.1-1.3,0.3-1.8s0.6-0.9,1-1.1s1-0.4,1.5-0.4c0.7,0,1.2,0.2,1.7,0.5s0.7,0.8,0.8,1.5l-1,0.2c-0.1-0.4-0.3-0.7-0.5-0.9
		s-0.5-0.3-0.9-0.3c-0.5,0-1,0.2-1.3,0.6s-0.5,1-0.5,1.8c0,0.8,0.2,1.4,0.5,1.8s0.7,0.6,1.3,0.6c0.4,0,0.8-0.1,1-0.4
		S127.2,144.2,127.3,143.7z"/>
	<path d="M128.9,142.8c0-1.2,0.3-2,1-2.6c0.5-0.5,1.2-0.7,2-0.7c0.9,0,1.6,0.3,2.1,0.8s0.8,1.3,0.8,2.3c0,0.8-0.1,1.4-0.4,1.9
		s-0.6,0.8-1,1.1s-1,0.4-1.5,0.4c-0.9,0-1.6-0.3-2.1-0.8S128.9,143.9,128.9,142.8z M130,142.8c0,0.8,0.2,1.4,0.5,1.8
		s0.8,0.6,1.3,0.6c0.5,0,1-0.2,1.3-0.6s0.5-1,0.5-1.8c0-0.8-0.2-1.4-0.5-1.7s-0.8-0.6-1.3-0.6c-0.5,0-1,0.2-1.3,0.6
		S130,142,130,142.8z"/>
	<path d="M135.9,145.9v-6.2h0.9v0.9c0.2-0.4,0.5-0.7,0.7-0.9s0.4-0.2,0.7-0.2c0.4,0,0.7,0.1,1.1,0.3l-0.4,1
		c-0.3-0.2-0.5-0.2-0.8-0.2c-0.2,0-0.4,0.1-0.6,0.2s-0.3,0.3-0.4,0.6c-0.1,0.4-0.2,0.8-0.2,1.2v3.3H135.9z"/>
	<path d="M144.2,143.9l1.1,0.1c-0.2,0.6-0.5,1.1-1,1.5s-1.1,0.5-1.8,0.5c-0.9,0-1.6-0.3-2.2-0.8s-0.8-1.3-0.8-2.4
		c0-1,0.3-1.9,0.8-2.4s1.2-0.9,2.1-0.9c0.8,0,1.5,0.3,2,0.8s0.8,1.4,0.8,2.4c0,0.1,0,0.2,0,0.3h-4.6c0,0.7,0.2,1.2,0.6,1.6
		s0.8,0.5,1.3,0.5c0.4,0,0.7-0.1,1-0.3S144,144.4,144.2,143.9z M140.7,142.2h3.5c0-0.5-0.2-0.9-0.4-1.2c-0.3-0.4-0.8-0.6-1.3-0.6
		c-0.5,0-0.9,0.2-1.2,0.5S140.8,141.7,140.7,142.2z"/>
</g>
</svg>
