<svg id="svg-main" xmlns="http://www.w3.org/2000/svg" width="440.7" height="430.9"><style>.st3{fill:#dfcd06}.st4{font-family:&apos;Lato&apos;,sans-serif}.st5{fill:#333;font-size:16px}.st6{fill:#6e97ff}.st7{fill:none;stroke:#333;stroke-width:2}</style><path fill-opacity="0" d="M76.7 20h344v344h-344z" id="plot_points_wheel"/><path fill="none" d="M76.7 0h364v364h-364z"/><path pointer-events="none" fill-opacity="0" stroke="#000" stroke-dasharray="2" d="M76.7 20z"/><circle class="st3" cx="112.9" cy="338.4" r="4"/><circle class="st3" cx="85.3" cy="352.9" r="4"/><circle class="st3" cx="91.4" cy="191.5" r="4"/><circle class="st3" cx="146.2" cy="335.1" r="4"/><circle class="st3" cx="99.1" cy="297.4" r="4"/><circle class="st3" cx="204.9" cy="105.4" r="4"/><text transform="translate(212.872 110.763)" class="st4 st5">RASSF2</text><circle class="st3" cx="92.2" cy="276" r="4"/><circle class="st3" cx="100" cy="262.3" r="4"/><circle class="st3" cx="135.2" cy="287.6" r="4"/><circle class="st3" cx="88.8" cy="227.2" r="4"/><circle class="st3" cx="122.2" cy="333.3" r="4"/><circle class="st6" cx="85.3" cy="105.4" r="4"/><text transform="translate(93.332 110.763)" class="st4 st5">SNX5</text><circle class="st3" cx="388.7" cy="254.8" r="4"/><text transform="translate(396.722 260.173)" class="st4 st5">STK3</text><circle class="st3" cx="209.7" cy="352.3" r="4"/><circle class="st3" cx="171.1" cy="347.8" r="4"/><circle class="st3" cx="150.5" cy="346.1" r="4"/><path class="st7" d="M76.7 364h344M76.7 364v10M248.7 364v10M420.7 364v10"/><text transform="translate(72.283 392)" class="st4 st5">0</text><text transform="translate(235.385 392)" class="st4 st5">100</text><text transform="translate(407.385 392)" class="st4 st5">200</text><text transform="translate(198.381 428)" class="st4 st5">Spectral count</text><path class="st7" d="M76.7 20v344"/><g><path class="st7" d="M76.7 364h-10M76.7 249.3h-10M76.7 134.7h-10M76.7 20h-10"/></g><g><text transform="translate(54.834 369.333)" class="st4 st5">0</text><text transform="translate(45.935 254.663)" class="st4 st5">10</text><text transform="translate(45.935 140.003)" class="st4 st5">20</text><text transform="translate(45.935 25.333)" class="st4 st5">30</text></g><text transform="rotate(-90 120.894 107.162)" class="st4 st5">Specificity</text><g><circle class="st6" cx="283.1" cy="27" r="6"/><text transform="translate(298.078 32.406)" class="st4 st5">Infinite specificity</text><circle class="st3" cx="283.1" cy="57" r="6"/><text transform="translate(298.078 62.406)" class="st4 st5">Finite specificity</text></g></svg>