<svg version="1.1" id="Layer_1" xmlns="http://www.w3.org/2000/svg" x="0" y="0" viewBox="0 0 121.9 105.2" xml:space="preserve"><style>.st2{opacity:.25;fill:#88d9fc;enable-background:new}.st3{fill:#fff}.st4{fill:#b9e874}.st6{fill:#90cc27}.st7{fill:#1f1712}.st8{opacity:.55;fill:#fff;enable-background:new}.st9{fill:none;stroke:#1f1712;stroke-width:1.44;stroke-linecap:round;stroke-linejoin:round}.st10{fill:#8bbc1e}.st11{fill:#e4ffb6}.st12{fill:#181828}.st14{opacity:.5;fill:#11202d;enable-background:new}.st18{fill:none;stroke:#ff99b1;stroke-linecap:round;stroke-linejoin:round}.st19{fill:#ff99b1}.st20{fill:none;stroke:#1f1712;stroke-width:.5;stroke-linecap:round;stroke-linejoin:round}.st24{opacity:.4;fill:#90cc27;enable-background:new}.st26{fill:#ba807d}.st30{fill:#e3ffb3}</style><g opacity=".15"><path d="M51.6 109.8c-.8-2.8-4.2-4.1-7.1-4.3-8.9-.9-18.1 3.1-26.7.4-7.6-2.5-12.6-9.7-12.5-17.7 0-3.8 1.6-7.4 4.4-10 3.6-3 8.6-3.4 12.5-5.9 6.6-4.2 8.2-13 12.6-19.6 6.6-10 20-14.3 31.9-12.4 2.3.3 4.5 1 6.6 2 8.7 4.4 11.3 15.9 19.5 21.2 2.9 1.9 6.4 2.8 9.7 4.1 5.2 1.8 9.8 4.7 13.7 8.6 3.7 4 6.1 9.4 5.7 14.8-.4 3.3-1.3 6.5-2.7 9.4-1.7 4.1-3.5 8.3-6.6 11.5-6.4 6.6-16.6 7.7-25.8 7.1-4.2-.3-8.6-.9-12.3-3s-6.7-6-6.6-10.2" fill="#88d9fc"/></g><path class="st2" d="M20.3 41c-2.6 0-4.9 1.3-6.3 3.5C11.7 41 7 40 3.5 42.3s-4.5 7-2.2 10.5c1.4 2.1 3.8 3.4 6.4 3.4h12.7c4.2 0 7.6-3.4 7.6-7.6S24.5 41 20.3 41zM109.3 52.3c-1.5 0-2.8.8-3.6 2-1.3-2-4-2.6-6-1.3s-2.6 4-1.3 6c.8 1.2 2.2 2 3.6 2h7.3c2.4-.1 4.3-2.2 4.1-4.6 0-2.2-1.8-4-4.1-4.1z"/><path class="st3" d="M11.8 87.3c-1.5 0-2.8.8-3.6 2-1.3-2-4-2.6-6-1.2s-2.6 4-1.2 6c.8 1.2 2.2 2 3.6 2h7.3c2.4.1 4.4-1.7 4.6-4.1.1-2.4-1.7-4.4-4.1-4.6-.3-.1-.5-.1-.6-.1z"/><path class="st2" d="M104.1 72.2c-2.1 0-4 1-5.2 2.8-1.9-2.8-5.6-3.6-8.5-1.8s-3.6 5.6-1.8 8.5c1.1 1.7 3.1 2.8 5.1 2.8h10.2c3.4.1 6.2-2.5 6.4-5.9.1-3.4-2.5-6.2-5.9-6.4h-.3z"/><path class="st4" d="M32.8 53.7l3.3.1c4.2.1 7.6 3.6 7.5 7.9-.1 4.2-3.6 7.6-7.8 7.6l-3.3-.1c-4.3-.1-7.6-3.6-7.5-7.8 0-4.4 3.5-7.8 7.8-7.7z"/><path d="M25.6 59.7c.4-2 1.6-3.7 3.4-4.8" fill="none" stroke="#fff" stroke-width="2" stroke-linecap="round" stroke-linejoin="round"/><path class="st4" d="M65.5 101.5c0 .9.2 1.9-.2 2.6-.8 1.4-2.9 2.1-4.6 2.1-2.7-.1-4.8-2.3-4.8-4.9l.3-6.3v-.2l9.6.2"/><path class="st6" d="M58 98.2c-.6-.3-1.1-.8-1.5-1.3v-1.5c1.4.3 2.9.4 4.3.4 1.8 0 3.6-.1 5.4-.4l-.6 4.3c-.6.1-1.1.1-1.7.1-2.1 0-4.1-.6-5.9-1.6z"/><path class="st7" d="M56.8 97.2v4.3c0 .4.1.8.2 1.2.7 2.1 3.1 3.3 5.2 2.5.4-.1.7-.3 1.1-.5.7-.5 1.2-1.2 1.6-2 .1-.4.2-.8.2-1.3v-4.3c0-.3.2-.6.5-.6s.6.2.6.5v4.4c-.1 1.7-.9 3.2-2.2 4.2-.9.6-2 1-3.1 1-2.2 0-4.2-1.4-5-3.6-.2-.5-.3-1.1-.3-1.6V97c0-.3.3-.6.7-.5.3.2.5.4.5.7z"/><circle class="st8" cx="49.2" cy="91.7" r=".3"/><circle class="st8" cx="54.4" cy="93.4" r=".5"/><ellipse transform="rotate(-71.657 48.876 88.644)" class="st3" cx="48.9" cy="88.6" rx="1.4" ry=".8"/><circle class="st8" cx="51.4" cy="89.4" r=".5"/><path class="st8" d="M50 89.9c.2 0 .4.2.4.3 0 .2-.2.4-.3.4-.2 0-.4-.2-.4-.3 0-.2.1-.4.3-.4z"/><circle class="st8" cx="50.5" cy="89" r=".5"/><path class="st9" d="M24.7 61.1c0-1.6.5-3.1 1.5-4.4M28.5 54.6c1.2-.7 2.6-1 4-1l3.3.1c4.2.1 7.6 3.6 7.5 7.8-.1 4.2-3.6 7.6-7.8 7.5h-3.3c-3.1-.1-5.9-2.1-7-5"/><path class="st10" d="M31.7 57.5h1.7c2.2 0 4 1.8 3.9 4.1 0 2.2-1.8 4-4 4h-1.7c-2.2 0-4-1.8-3.9-4.1 0-2.2 1.8-4 4-4z"/><path class="st4" d="M85.5 53.7l3.3.1c4.2.1 7.6 3.6 7.6 7.9-.1 4.2-3.6 7.6-7.8 7.6l-3.3-.1c-4.2-.1-7.6-3.6-7.6-7.8.1-4.4 3.6-7.8 7.8-7.7z"/><path class="st9" d="M85.5 53.6l3.3.1c4.2.1 7.6 3.6 7.6 7.9-.1 4.2-3.6 7.6-7.8 7.5h-3.2c-4.3-.1-7.6-3.6-7.6-7.9 0-4.3 3.5-7.7 7.7-7.6z"/><path class="st10" d="M87.8 57.4h1.7c2.2 0 4 1.8 3.9 4.1 0 2.2-1.9 4-4.1 3.9h-1.7c-2.2 0-4-1.8-3.9-4.1.1-2.2 1.9-4 4.1-3.9z"/><path class="st3" d="M81.4 59.2c.3-.7.8-1.2 1.4-1.6.6-.2.3-1.1-.3-.9-.9.4-1.6 1.1-2 2-.2.6.6 1.1.9.5z"/><ellipse transform="rotate(-81.599 80.273 61.014)" class="st3" cx="80.3" cy="61" rx=".8" ry=".6"/><path class="st4" d="M80 13.5l.9.9c5.4 5.3 7.7 12.6 7.7 20.1l.7 33.7C89.4 84 76.8 96.9 61 97.1c-15.8.2-28.7-12.5-28.9-28.3V34.5c0-8 3.4-15.6 9.3-21 9.5-8.7 29-8.6 38.6 0z"/><path class="st6" d="M75.7 14l-.9-.9-.1-.1c-.5-.5-.6-1.3-.1-1.8.4-.4 1.1-.5 1.6-.2 1 .6 2 1.4 2.9 2.2l.9.9c5.4 5.4 8.4 12.6 8.4 20.2V68c.2 15.8-12.5 28.7-28.3 28.9-.8 0-1.7 0-2.5-.1 15-1 28.7-13.6 28.5-28.8l-.3-33.8c-.1-7.5-4.7-14.9-10.1-20.2z"/><path class="st3" d="M61.7 96.3c-.4.1-.8.1-1.2.1-15.8 0-30.3-12.6-28.6-28.6l.6-33.8c0-8 3.4-15.7 9.3-21.1.9.6-.6 1.1.4 1.5-4.8 5.1-8.5 12-8.5 19.6l-.3 33.8c0 15 9.5 28.7 28.3 28.5z"/><path class="st9" d="M33.6 77.7c.1.6.4 1.3.6 1.8M32.3 73.3c-.3-1.7-.5-3.4-.5-5.2V34.3c0-8 3.4-15.7 9.3-21.1 9.5-8.7 29-8.6 38.6 0l.9.9C86 19.4 89 25.4 89 32.9V68c0 15.8-12.8 28.6-28.6 28.6-10.1 0-19.4-5.3-24.6-14"/><path class="st3" d="M33.8 49.7c.4 0 .7.3.7.7v5.9c0 .4-.3.7-.7.7-.4 0-.7-.3-.7-.7v-5.9c0-.4.3-.7.7-.7zM38.1 31c.5 0 1 .4 1 1v12c0 .5-.4 1-1 1-.5 0-1-.4-1-1V32c.1-.5.5-1 1-1z"/><path class="st6" d="M85.6 36.5c.4 0 .7.3.7.7v2c0 .4-.3.7-.7.7-.4 0-.7-.3-.7-.7v-2c.1-.4.4-.7.7-.7zM85.6 56.6c.4 0 .7.3.7.7v4.2c0 .4-.3.7-.7.7-.4 0-.7-.3-.7-.7v-4.2c.1-.4.4-.7.7-.7z"/><path class="st3" d="M33 69.1c.1 7.1 2.2 13.6 7.4 18.7.3.3.8.3 1.1 0 .3-.3.3-.8 0-1.1-4.8-4.8-6.8-10.8-6.9-17.5 0-.4-.4-.8-.8-.8-.5-.1-.8.3-.8.7z"/><ellipse class="st6" cx="51.9" cy="55.1" rx="3.1" ry="4.2"/><ellipse class="st6" cx="67.7" cy="55.1" rx="3.1" ry="4.2"/><path class="st11" d="M51.5 16.4c-.8-.9-1.9-1.4-3.1-1.6-1.2-.2-2.5 0-3.5.6-1.1.6-1.7 1.8-1.7 3.1.1.6.3 1.3.4 1.9v.4c-.5.3-1 .7-1.4 1.1-.4.5-.5 1.2-.2 1.9.4.6 1.3.9 2 .7.7-.3 1.4-.7 1.8-1.3.5-.6 1-1.1 1.7-1.5 1.3-.8 3.2-.8 4.1-2 .8-1 .7-2.3-.1-3.3z"/><ellipse transform="rotate(-27.076 49.565 24.114)" class="st11" cx="49.6" cy="24.1" rx="2.7" ry="1.6"/><circle class="st6" cx="49.9" cy="54.7" r="7.6"/><ellipse class="st12" cx="49.9" cy="54.1" rx="3.1" ry="4.2"/><ellipse class="st3" cx="49.9" cy="51.2" rx="1.1" ry="1.3"/><circle class="st6" cx="70.7" cy="54.7" r="9.3"/><path class="st4" d="M44.3 52.1c-.8 2.4-.2 5.1 1.5 7 .7.7 1.8-.4 1.1-1.1-1.3-1.5-1.8-3.6-1.1-5.6.1-.4-.2-.8-.6-.9-.4 0-.8.2-.9.6zM79 48.9c-1.2-2.2-3.5-4-6-3.9-.4 0-.8.3-.8.8s.3.8.8.8c2 0 3.8 1.5 4.7 3.2.2.3.7.4 1 .2.3-.4.4-.8.3-1.1z"/><path d="M49.2 74.3h21.4c2.9 0 5.2 2.3 5.2 5.2 0 2.9-2.3 5.2-5.2 5.2H49.2c-2.9 0-5.2-2.3-5.2-5.2 0-2.8 2.3-5.2 5.2-5.2z" fill="#213346"/><path class="st14" d="M75.6 80.5c0 1.1-.6 2.2-1.5 2.8-1 .8-2.3 1.2-3.5 1.2H49.8c-2.8 0-5-1.8-5-4 0-.4.1-.9.3-1.3.9 1.8 2.8 2.8 4.7 2.7h20.7c1.3 0 2.5-.4 3.5-1.2.5-.4.9-.9 1.2-1.6.3.5.4.9.4 1.4z"/><path class="st6" d="M65.5 6.9c-.4-.1-.7-.1-1.1-.1-3.5-.1-6.4 2.7-6.5 6.3s2.7 6.4 6.3 6.5c.6 0 1.2-.1 1.7-.2v.2c-.1 3.5 2.7 6.4 6.3 6.5 1.5 0 2.9-.4 4-1.3.6.6 1.2 1.1 2 1.4 3.1 1.6 7 .4 8.6-2.7 1.6-3.1.4-7-2.7-8.6l-.6-.3c1.4-3.2-.1-7-3.3-8.4-1.4-.6-3-.7-4.4-.2-1.2-1.3-2.8-2-4.6-2.1-2.4-.1-4.5 1-5.7 3z"/><path d="M68.3 3.5c-.3-.1-.7-.1-1.1-.1-.6 0-1.2.1-1.8.2-3.3.9-5.4 4.4-4.5 7.8.9 3.4 4.4 5.5 7.8 4.6v.2c0 3.5 2.8 6.4 6.3 6.5 1.4 0 2.8-.4 4-1.3.6.6 1.3 1.1 2 1.4 3.2 1.5 7 0 8.5-3.2s0-7-3.2-8.5c1.4-3.2-.1-7-3.3-8.4-1.4-.6-3-.7-4.5-.2-2.4-2.6-6.4-2.8-9-.4-.5.4-.9.9-1.2 1.4z" fill="#fc496c"/><path d="M89.1 19.4c-1.5 3.2-5.3 4.6-8.5 3.1-.7-.3-1.4-.8-2-1.4-2.8 2.1-6.8 1.6-9-1.2-.9-1.1-1.3-2.5-1.3-3.9.2.7.6 1.3 1 1.8 2.2 2.8 6.3 3.4 9.1 1.2.6.6 1.2 1.1 2 1.4 3.3 1.5 7.1.1 8.6-3.2.2-.5.4-1 .5-1.6.3 1.3.1 2.7-.4 3.8z" fill="#e01445"/><circle class="st12" cx="70.5" cy="54.7" r="7.6"/><path d="M70.7 53c.8 0 1.5.7 1.5 1.5v13.3c0 .8-.7 1.5-1.5 1.5s-1.5-.7-1.5-1.5V54.5c0-.8.7-1.5 1.5-1.5z" fill="#f9637c"/><circle class="st3" cx="38.3" cy="48.9" r="1.7"/><path class="st18" d="M69.2 4.3S72.5-.2 77 2.8M79.5 3.6s5.7-.2 5.7 5.4M63.4 14.2s-4-4-.3-7.9"/><path class="st9" d="M68.2 3.8c-.4-.1-.7-.1-1.1-.1-.6 0-1.2.1-1.8.2-3.4.9-5.5 4.4-4.6 7.8.9 3.4 4.4 5.5 7.8 4.6v.2c0 3.5 2.8 6.4 6.3 6.5 1.4 0 2.8-.4 4-1.3.6.6 1.3 1.1 2 1.4 3.2 1.5 7 .1 8.5-3.1s.1-7-3.1-8.5c1.4-3.2-.1-7-3.3-8.4-1.4-.6-3-.7-4.4-.2C76 .2 72 0 69.4 2.4c-.5.4-.9.9-1.2 1.4z"/><circle class="st19" cx="62.7" cy="11.5" r="1.1"/><circle class="st19" cx="63.5" cy="9.6" r=".4"/><circle class="st19" cx="64.1" cy="10.5" r=".3"/><circle class="st19" cx="70.7" cy="4.3" r="1.1"/><circle class="st19" cx="72.6" cy="5.1" r=".4"/><circle class="st19" cx="71.6" cy="5.8" r=".3"/><circle class="st19" cx="82.3" cy="5.7" r="1.1"/><circle class="st19" cx="84.2" cy="6.5" r=".4"/><circle class="st19" cx="83.2" cy="7.1" r=".3"/><path class="st20" d="M72.4 19.8s4.2 1.6 6-.8M68.7 6.3s-1-1.7-3-.5M64.5 13.5s1 1.7 3.1.5M87 18.4s1.7-1 .5-3M83.8 10.4c1-.6 1.2-1.9.6-2.9 0 0 0-.1-.1-.1"/><path class="st7" d="M76.8 1.6l-.4 5.3v.2l-.9.1-.3.1V9.6l.5-1.7 1.2.1h.3l.1-.4.2-.6 1.1-4zM72.4 21.9l-.6 6.3v.3l-1 .1-.4.1v2.9l.6-2.2 1.5.2h.4l.1-.6.2-.7 1.4-4.8zM78.5 22l1.6 11.2.1.4-1.8.7-.6.3.1.4 1.1 4.5.2-4 2.5-.2.7-.1.1-1.1v-1.3l.4-8.9zM68.5 17.9l-5.3 5.8-.2.3-1.1-.6-.4-.2-.2.2-2 2.6 2.3-1.7 1.2 1.2.4.4.6-.4.7-.6 5-3.8zM85 22.8l-3.3-4-.2-.2.5-.7.2-.2-.1-.2-1.6-1.5.9 1.6-.9.8-.3.2.3.4.3.5 2 3.7z"/><path fill="#fff6d2" d="M50.4 74.4h5.2v5.2h-5.2z"/><path fill="#e8c842" d="M50.4 74.4h5.2v1.7h-5.2z"/><path fill="none" stroke="#1f1712" stroke-linecap="round" stroke-linejoin="round" d="M50.4 74.4h5.2v5.2h-5.2z"/><path class="st24" d="M83.7 64.2c.3 0 .5.2.5.5v4.6c0 .3-.2.5-.5.5s-.5-.2-.5-.5v-4.6c0-.3.3-.5.5-.5zM83.6 46c.3 0 .5.2.5.5v4.7c0 .3-.2.5-.5.5s-.5-.2-.5-.5v-4.7c0-.3.2-.5.5-.5z"/><path class="st14" d="M58.6 75.8h6.9c.6 0 1.1.5 1.1 1.1 0 .6-.5 1.1-1.1 1.1h-6.9c-.6 0-1.1-.5-1.1-1.1 0-.6.5-1.1 1.1-1.1z"/><path class="st9" d="M60 62.5v9c.1 1.8.5 3.5 1.1 5.1"/><ellipse class="st12" cx="71.1" cy="67.9" rx="3.1" ry="4.2"/><ellipse class="st3" cx="70.3" cy="66" rx=".8" ry=".9"/><path class="st6" d="M54 33.5c-6.2-1.3-11.8-3.9-16.7-7.8-.2-.2-.2-.5 0-.7.2-.2.5-.2.7-.1 4.7 3.7 10.3 6.3 16.1 7.5.3 0 .5.3.4.6s-.2.5-.5.5z"/><path class="st6" d="M44.1 32.1H44c-.1-.1-.2-.2-.1-.3l2-3.6c0-.1.2-.2.3-.2h.1c.1.1.2.2.1.3l-2.1 3.6c-.1.1-.1.2-.2.2zM49.1 33.9c-.2 0-.3-.2-.2-.3l1.4-3.9c0-.1.2-.2.3-.1.1 0 .2.2.1.3l-1.5 3.8c.1.1 0 .2-.1.2zM51.3 34.7c-.2 0-.3-.2-.2-.3l1.5-3.9c0-.1.2-.2.3-.1.1 0 .2.2.2.3l-1.5 3.8c-.1.1-.2.2-.3.2zM41.9 30.9h-.1c-.1-.1-.2-.2-.1-.3l2-3.6c.1-.1.2-.1.3-.1.1.1.1.2.1.3l-2 3.5c0 .2-.1.2-.2.2zM46.3 32.8h-.1c-.1-.1-.2-.2-.1-.3l2-3.6c.1-.1.2-.1.3-.1.1.1.1.2.1.3l-2 3.6c-.1.1-.1.1-.2.1zM38.2 28.5h-.1c-.1-.1-.2-.2-.1-.3l2-3.6c.1-.1.2-.2.3-.1.1.1.2.2.1.3l-2 3.5c0 .2-.1.2-.2.2zM40.1 30H40c-.1-.1-.2-.2-.1-.4L42 26c.1-.1.2-.1.3-.1.1.1.1.2.1.3l-2.1 3.6c-.1.1-.1.2-.2.2z"/><path fill="#f5e2ce" d="M71.6 84.5h-5.9l-1.4-7.3H68l.9 1.5.9-1.5h1.8z"/><path class="st26" d="M71.6 84.5h-5.9l-.4-2.1 6.3-.1z"/><circle class="st26" cx="66.4" cy="82.2" r=".7"/><circle class="st26" cx="67.6" cy="81.6" r=".3"/><path fill="none" stroke="#fffcfa" stroke-width=".75" stroke-linecap="round" stroke-linejoin="round" d="M65.2 78.2h1.6"/><path fill="none" stroke="#1f1712" stroke-width=".75" stroke-linecap="round" stroke-linejoin="round" d="M71.6 84.5l-5.9.3-1.4-7.3 3.5-.3 1.1 2.2 1.1-2.2h1.6z"/><path fill="none" stroke="#e3ffb3" stroke-width="2" stroke-linecap="round" stroke-linejoin="round" d="M49.9 85.6h20.8"/><path class="st9" d="M49.1 74.3h21.5c2.9 0 5.2 2.3 5.2 5.2 0 2.9-2.3 5.2-5.2 5.2H49.1c-2.9 0-5.2-2.3-5.2-5.2 0-2.9 2.4-5.2 5.2-5.2z"/><path class="st30" d="M70.9 94l.3-6.3 1.4 5.6z"/><path class="st7" d="M71.6 94.4l-.4-6.8 2 6.1z"/><path class="st7" d="M70.4 89.9c.8-.4 1.7-.7 2.5-.8-.7.6-1.6.9-2.5.8zM70.2 92.2c1.1-.7 2.3-1.2 3.6-1.3-.1-.1-1.7 1.7-3.6 1.3z"/><path class="st30" d="M32.6 62.8l8.3 1-8.4 1.2z"/><path class="st7" d="M31.6 63.7l9.5.1-8.6 2.1z"/><path class="st7" d="M38 62.4c.5 1.1.8 2.3.8 3.6-.8-1-1-2.3-.8-3.6zM34.8 61.9c.9 1.5 1.4 3.2 1.5 5 0 0-2.3-2.3-1.5-5z"/><circle class="st6" cx="63.4" cy="90.2" r=".5"/><circle class="st6" cx="63.7" cy="87.9" r=".5"/><circle class="st6" cx="66.2" cy="92.3" r=".5"/><circle class="st6" cx="68.7" cy="92" r=".5"/><circle class="st6" cx="69" cy="89.2" r=".5"/><circle class="st6" cx="64.7" cy="94.2" r=".5"/><circle class="st6" cx="61.9" cy="92.4" r=".5"/><circle class="st6" cx="65.8" cy="89.1" r=".8"/></svg>