<svg version="1.1" id="svg-main" xmlns="http://www.w3.org/2000/svg" x="0" y="0" height="550" width="550" viewBox="0 0 550 550" style="enable-background:new 0 0 550 550" xml:space="preserve"><style>.st1{fill:#fff}.st15,.st17,.st19,.st2,.st20,.st23,.st27{stroke:#f5f5f5;stroke-width:1.2686;stroke-linejoin:round;stroke-miterlimit:2.5372}.st15,.st17,.st19,.st20,.st23,.st27{fill:#0034d1}.st17,.st19,.st20,.st23,.st27{fill:#003efa}.st19,.st20,.st23,.st27{fill:#144fff}.st20,.st23,.st27{fill:#1a53ff}.st23,.st27{fill:#4775ff}.st27{fill:#7598ff}.st28,.st32,.st33,.st34,.st35,.st37,.st38,.st41,.st42,.st43,.st44,.st47,.st48,.st50{fill:#7a9cff;stroke:#f5f5f5;stroke-width:1.2686;stroke-linejoin:round;stroke-miterlimit:2.5372}.st32,.st33,.st34,.st35,.st37,.st38,.st41,.st42,.st43,.st44,.st47,.st48,.st50{fill:#94afff}.st33,.st34,.st35,.st37,.st38,.st41,.st42,.st43,.st44,.st47,.st48,.st50{fill:#99b3ff}.st34,.st35,.st37,.st38,.st41,.st42,.st43,.st44,.st47,.st48,.st50{fill:#9eb6ff}.st35,.st37,.st38,.st41,.st42,.st43,.st44,.st47,.st48,.st50{fill:#a3baff}.st37,.st38,.st41,.st42,.st43,.st44,.st47,.st48,.st50{fill:#adc2ff}.st38,.st41,.st42,.st43,.st44,.st47,.st48,.st50{fill:#b8c9ff}.st41,.st42,.st43,.st44,.st47,.st48,.st50{fill:#c7d5ff}.st42,.st43,.st44,.st47,.st48,.st50{fill:#d1ddff}.st43,.st44,.st47,.st48,.st50{fill:#d6e0ff}.st44,.st47,.st48,.st50{fill:#dbe4ff}.st47,.st48,.st50{fill:#e5ecff}.st48,.st50{fill:#fff}.st50{fill:#8f0000}.st51,.st52,.st53,.st54,.st55,.st56,.st60,.st61,.st62,.st64,.st66,.st69,.st72,.st73{fill:#f00000;stroke:#f5f5f5;stroke-width:1.2686;stroke-linejoin:round;stroke-miterlimit:2.5372}.st52,.st53,.st54,.st55,.st56,.st60,.st61,.st62,.st64,.st66,.st69,.st72,.st73{fill:#ff0a0a}.st53,.st54,.st55,.st56,.st60,.st61,.st62,.st64,.st66,.st69,.st72,.st73{fill:#eb0000}.st54,.st55,.st56,.st60,.st61,.st62,.st64,.st66,.st69,.st72,.st73{fill:#d60000}.st55,.st56,.st60,.st61,.st62,.st64,.st66,.st69,.st72,.st73{fill:#ad0000}.st56,.st60,.st61,.st62,.st64,.st66,.st69,.st72,.st73{fill:#bd0000}.st60,.st61,.st62,.st64,.st66,.st69,.st72,.st73{fill:#e60000}.st61,.st62,.st64,.st66,.st69,.st72,.st73{fill:#f50000}.st62,.st64,.st66,.st69,.st72,.st73{fill:#d10000}.st64,.st66,.st69,.st72,.st73{fill:#ff0505}.st66,.st69,.st72,.st73{fill:#900}.st69,.st72,.st73{fill:#c00}.st72,.st73{fill:#8a0000}.st73{fill:#ff3838}.st75,.st78,.st84,.st85,.st86,.st87,.st88,.st89,.st91,.st93,.st95,.st96,.st97,.st98{fill:red;stroke:#f5f5f5;stroke-width:1.2686;stroke-linejoin:round;stroke-miterlimit:2.5372}.st78,.st84,.st85,.st86,.st87,.st88,.st89,.st91,.st93,.st95,.st96,.st97,.st98{fill:#610000}.st84,.st85,.st86,.st87,.st88,.st89,.st91,.st93,.st95,.st96,.st97,.st98{fill:#e5ffe5}.st85,.st86,.st87,.st88,.st89,.st91,.st93,.st95,.st96,.st97,.st98{fill:#c2ffc2}.st86,.st87,.st88,.st89,.st91,.st93,.st95,.st96,.st97,.st98{fill:#5cff5c}.st87,.st88,.st89,.st91,.st93,.st95,.st96,.st97,.st98{fill:#70ff70}.st88,.st89,.st91,.st93,.st95,.st96,.st97,.st98{fill:#adffad}.st89,.st91,.st93,.st95,.st96,.st97,.st98{fill:#a3ffa3}.st91,.st93,.st95,.st96,.st97,.st98{fill:#47ff47}.st93,.st95,.st96,.st97,.st98{fill:#b8ffb8}.st95,.st96,.st97,.st98{fill:#8fff8f}.st96,.st97,.st98{fill:#a8ffa8}.st97,.st98{fill:#0f0}.st98{fill:#9f9}.st101,.st104,.st106,.st107,.st111,.st112,.st114,.st116,.st117,.st121,.st123,.st99{fill:#c7ffc7;stroke:#f5f5f5;stroke-width:1.2686;stroke-linejoin:round;stroke-miterlimit:2.5372}.st101,.st104,.st106,.st107,.st111,.st112,.st114,.st116,.st117,.st121,.st123{fill:#7aff7a}.st104,.st106,.st107,.st111,.st112,.st114,.st116,.st117,.st121,.st123{fill:#d1ffd1}.st106,.st107,.st111,.st112,.st114,.st116,.st117,.st121,.st123{fill:#d6ffd6}.st107,.st111,.st112,.st114,.st116,.st117,.st121,.st123{fill:#3dff3d}.st111,.st112,.st114,.st116,.st117,.st121,.st123{fill:#24ff24}.st112,.st114,.st116,.st117,.st121,.st123{fill:#e0ffe0}.st114,.st116,.st117,.st121,.st123{fill:#00f500}.st116,.st117,.st121,.st123{fill:#3f3}.st117,.st121,.st123{fill:#dbffdb}.st121,.st123{fill:#94ff94}.st123{fill:#9eff9e}.st130{font-family:&apos;Lato&apos;,sans-serif}.st131{fill:#333;font-size:16px}</style><g id="g2714" transform="translate(-365.18 -155.646)"><g id="g1559" transform="matrix(0 -.74622 .74622 0 108.2 8.666)"><path id="path4" d="M-199.2 712.9c0 202.3-164 366.3-366.3 366.3s-366.3-164-366.3-366.3 164-366.3 366.3-366.3c93.6 0 183.7 35.9 251.8 100.2" style="fill:none;stroke:#000;stroke-width:3.358;stroke-miterlimit:2.6864"/><g id="g516" transform="scale(.85)"><g id="g10"><path id="path6" class="st1" d="M-258.3 838.7c0 10-.4 20.1-1.1 30.1l-49.9-3.7c.6-8.8 1-17.6 1-26.4h50z"/><path id="path8" class="st2" d="M-258.3 838.7c0 10-.4 20.1-1.1 30.1l-49.9-3.7c.6-8.8 1-17.6 1-26.4h50z"/></g><g id="g16"><path id="path12" class="st1" d="M-259.4 868.8c-.7 10-1.9 20-3.3 29.9l-49.5-7.4c1.3-8.7 2.3-17.4 2.9-26.2l49.9 3.7z"/><path id="path14" class="st2" d="M-259.4 868.8c-.7 10-1.9 20-3.3 29.9l-49.5-7.4c1.3-8.7 2.3-17.4 2.9-26.2l49.9 3.7z"/></g><g id="g22"><path id="path18" class="st1" d="M-262.8 898.7c-1.5 9.9-3.3 19.8-5.5 29.6l-48.8-11c1.9-8.6 3.6-17.2 4.8-25.9l49.5 7.3z"/><path id="path20" class="st2" d="M-262.8 898.7c-1.5 9.9-3.3 19.8-5.5 29.6l-48.8-11c1.9-8.6 3.6-17.2 4.8-25.9l49.5 7.3z"/></g><g id="g28"><path id="path24" class="st1" d="M-268.3 928.3c-2.2 9.8-4.8 19.5-7.7 29.1l-47.8-14.6c2.6-8.4 4.8-16.9 6.8-25.5l48.7 11z"/><path id="path26" class="st2" d="M-268.3 928.3c-2.2 9.8-4.8 19.5-7.7 29.1l-47.8-14.6c2.6-8.4 4.8-16.9 6.8-25.5l48.7 11z"/></g><g id="g34"><path id="path30" class="st1" d="M-276 957.3c-2.9 9.6-6.2 19.1-9.8 28.4l-46.6-18.1c3.2-8.2 6.1-16.5 8.6-24.9l47.8 14.6z"/><path id="path32" class="st2" d="M-276 957.3c-2.9 9.6-6.2 19.1-9.8 28.4l-46.6-18.1c3.2-8.2 6.1-16.5 8.6-24.9l47.8 14.6z"/></g><g id="g40"><path id="path36" class="st1" d="M-285.8 985.8c-3.6 9.4-7.6 18.6-11.9 27.6l-45.2-21.5c3.8-7.9 7.3-16 10.4-24.2l46.7 18.1z"/><path id="path38" class="st2" d="M-285.8 985.8c-3.6 9.4-7.6 18.6-11.9 27.6l-45.2-21.5c3.8-7.9 7.3-16 10.4-24.2l46.7 18.1z"/></g><g id="g46"><path id="path42" class="st1" d="M-297.7 1013.4c-4.3 9.1-8.9 18-13.9 26.7l-43.5-24.7c4.4-7.6 8.4-15.5 12.2-23.4l45.2 21.4z"/><path id="path44" class="st2" d="M-297.7 1013.4c-4.3 9.1-8.9 18-13.9 26.7l-43.5-24.7c4.4-7.6 8.4-15.5 12.2-23.4l45.2 21.4z"/></g><g id="g52"><path id="path48" class="st1" d="M-311.6 1040.1c-5 8.7-10.2 17.2-15.8 25.6l-41.5-27.9c4.9-7.3 9.5-14.8 13.9-22.4l43.4 24.7z"/><path id="path50" class="st2" d="M-311.6 1040.1c-5 8.7-10.2 17.2-15.8 25.6l-41.5-27.9c4.9-7.3 9.5-14.8 13.9-22.4l43.4 24.7z"/></g><g id="g58"><path id="path54" class="st1" d="M-327.4 1065.6c-5.6 8.3-11.5 16.4-17.7 24.3l-39.3-30.9c5.4-6.9 10.6-14 15.5-21.3l41.5 27.9z"/><path id="path56" class="st2" d="M-327.4 1065.6c-5.6 8.3-11.5 16.4-17.7 24.3l-39.3-30.9c5.4-6.9 10.6-14 15.5-21.3l41.5 27.9z"/></g><g id="g64"><path id="path60" class="st1" d="M-345.1 1090c-6.2 7.9-12.7 15.6-19.4 23l-36.9-33.7c5.9-6.5 11.6-13.2 17-20.1l39.3 30.8z"/><path id="path62" class="st2" d="M-345.1 1090c-6.2 7.9-12.7 15.6-19.4 23l-36.9-33.7c5.9-6.5 11.6-13.2 17-20.1l39.3 30.8z"/></g><g id="g70"><path id="path66" class="st1" d="M-364.5 1112.9c-6.8 7.4-13.8 14.6-21.1 21.5l-34.4-36.3c6.4-6 12.6-12.3 18.5-18.8l37 33.6z"/><path id="path68" class="st2" d="M-364.5 1112.9c-6.8 7.4-13.8 14.6-21.1 21.5l-34.4-36.3c6.4-6 12.6-12.3 18.5-18.8l37 33.6z"/></g><g id="g76"><path id="path72" class="st1" d="M-385.6 1134.4c-7.3 6.9-14.8 13.5-22.6 19.8l-31.6-38.8c6.8-5.6 13.4-11.4 19.8-17.4l34.4 36.4z"/><path id="path74" class="st2" d="M-385.6 1134.4c-7.3 6.9-14.8 13.5-22.6 19.8l-31.6-38.8c6.8-5.6 13.4-11.4 19.8-17.4l34.4 36.4z"/></g><g id="g82"><path id="path78" class="st1" d="M-408.2 1154.3c-7.8 6.3-15.8 12.4-24 18.1l-28.6-41c7.2-5 14.2-10.3 21.1-15.9l31.5 38.8z"/><path id="path80" class="st2" d="M-408.2 1154.3c-7.8 6.3-15.8 12.4-24 18.1l-28.6-41c7.2-5 14.2-10.3 21.1-15.9l31.5 38.8z"/></g><g id="g88"><path id="path84" class="st1" d="M-432.2 1172.4c-8.2 5.7-16.7 11.2-25.3 16.3l-25.5-43c7.6-4.5 15-9.3 22.2-14.3l28.6 41z"/><path id="path86" class="st2" d="M-432.2 1172.4c-8.2 5.7-16.7 11.2-25.3 16.3l-25.5-43c7.6-4.5 15-9.3 22.2-14.3l28.6 41z"/></g><g id="g94"><path id="path90" class="st1" d="M-457.5 1188.7c-8.6 5.1-17.4 9.9-26.4 14.4l-22.3-44.8c7.9-3.9 15.6-8.1 23.2-12.6l25.5 43z"/><path id="path92" d="M-457.5 1188.7c-8.6 5.1-17.4 9.9-26.4 14.4l-22.3-44.8c7.9-3.9 15.6-8.1 23.2-12.6l25.5 43z" style="fill:#00061a;stroke:#f5f5f5;stroke-width:1.2686;stroke-linejoin:round;stroke-miterlimit:2.5372"/></g><g id="g100"><path id="path96" class="st1" d="M-483.9 1203.1c-9 4.5-18.1 8.6-27.4 12.4l-18.9-46.3c8.1-3.3 16.2-7 24-10.9l22.3 44.8z"/><path id="path98" d="M-483.9 1203.1c-9 4.5-18.1 8.6-27.4 12.4l-18.9-46.3c8.1-3.3 16.2-7 24-10.9l22.3 44.8z" style="fill:#000a29;stroke:#f5f5f5;stroke-width:1.2686;stroke-linejoin:round;stroke-miterlimit:2.5372"/></g><g id="g106"><path id="path102" class="st1" d="M-511.3 1215.5c-9.3 3.8-18.7 7.2-28.2 10.3l-15.4-47.6c8.4-2.7 16.6-5.7 24.8-9.1l18.8 46.4z"/><path id="path104" d="M-511.3 1215.5c-9.3 3.8-18.7 7.2-28.2 10.3l-15.4-47.6c8.4-2.7 16.6-5.7 24.8-9.1l18.8 46.4z" style="fill:#000d33;stroke:#f5f5f5;stroke-width:1.2686;stroke-linejoin:round;stroke-miterlimit:2.5372"/></g><g id="g112"><path id="path108" class="st1" d="M-539.6 1225.8c-9.5 3.1-19.2 5.8-28.9 8.2l-11.9-48.6c8.5-2.1 17-4.5 25.4-7.2l15.4 47.6z"/><path id="path110" d="M-539.6 1225.8c-9.5 3.1-19.2 5.8-28.9 8.2l-11.9-48.6c8.5-2.1 17-4.5 25.4-7.2l15.4 47.6z" style="fill:#000e38;stroke:#f5f5f5;stroke-width:1.2686;stroke-linejoin:round;stroke-miterlimit:2.5372"/></g><g id="g118"><path id="path114" class="st1" d="M-568.5 1234.1c-9.7 2.4-19.6 4.4-29.5 6.1l-8.3-49.3c8.7-1.5 17.3-3.2 25.8-5.3l12 48.5z"/><path id="path116" d="M-568.5 1234.1c-9.7 2.4-19.6 4.4-29.5 6.1l-8.3-49.3c8.7-1.5 17.3-3.2 25.8-5.3l12 48.5z" style="fill:#001b6b;stroke:#f5f5f5;stroke-width:1.2686;stroke-linejoin:round;stroke-miterlimit:2.5372"/></g><g id="g124"><path id="path120" class="st1" d="M-597.9 1240.1c-9.9 1.7-19.8 3-29.8 3.9l-4.6-49.8c8.8-.8 17.5-1.9 26.2-3.4l8.2 49.3z"/><path id="path122" d="M-597.9 1240.1c-9.9 1.7-19.8 3-29.8 3.9l-4.6-49.8c8.8-.8 17.5-1.9 26.2-3.4l8.2 49.3z" style="fill:#001d75;stroke:#f5f5f5;stroke-width:1.2686;stroke-linejoin:round;stroke-miterlimit:2.5372"/></g><g id="g130"><path id="path126" class="st1" d="M-627.8 1244c-10 .9-20 1.5-30 1.7l-.9-50c8.8-.2 17.6-.6 26.3-1.5l4.6 49.8z"/><path id="path128" d="M-627.8 1244c-10 .9-20 1.5-30 1.7l-.9-50c8.8-.2 17.6-.6 26.3-1.5l4.6 49.8z" style="fill:#002080;stroke:#f5f5f5;stroke-width:1.2686;stroke-linejoin:round;stroke-miterlimit:2.5372"/></g><g id="g136"><path id="path132" class="st1" d="M-657.8 1245.7c-10 .2-20.1 0-30.1-.6l2.8-49.9c8.8.5 17.6.7 26.4.5l.9 50z"/><path id="path134" d="M-657.8 1245.7c-10 .2-20.1 0-30.1-.6l2.8-49.9c8.8.5 17.6.7 26.4.5l.9 50z" style="fill:#002699;stroke:#f5f5f5;stroke-width:1.2686;stroke-linejoin:round;stroke-miterlimit:2.5372"/></g><g id="g142"><path id="path138" class="st1" d="M-687.9 1245.1c-10-.6-20-1.5-30-2.8l6.5-49.6c8.7 1.1 17.5 1.9 26.3 2.4l-2.8 50z"/><path id="path140" d="M-687.9 1245.1c-10-.6-20-1.5-30-2.8l6.5-49.6c8.7 1.1 17.5 1.9 26.3 2.4l-2.8 50z" style="fill:#002aa8;stroke:#f5f5f5;stroke-width:1.2686;stroke-linejoin:round;stroke-miterlimit:2.5372"/></g><g id="g148"><path id="path144" class="st1" d="M-717.8 1242.3c-9.9-1.3-19.8-3-29.7-5l10.1-49c8.6 1.8 17.3 3.2 26 4.4l-6.4 49.6z"/><path id="path146" d="M-717.8 1242.3c-9.9-1.3-19.8-3-29.7-5l10.1-49c8.6 1.8 17.3 3.2 26 4.4l-6.4 49.6z" style="fill:#0030c2;stroke:#f5f5f5;stroke-width:1.2686;stroke-linejoin:round;stroke-miterlimit:2.5372"/></g><g id="g154"><path id="path150" class="st1" d="M-747.5 1237.4c-9.8-2-19.6-4.4-29.2-7.2l13.7-48.1c8.5 2.4 17 4.5 25.6 6.3l-10.1 49z"/><path id="path152" d="M-747.5 1237.4c-9.8-2-19.6-4.4-29.2-7.2l13.7-48.1c8.5 2.4 17 4.5 25.6 6.3l-10.1 49z" style="fill:#0032c7;stroke:#f5f5f5;stroke-width:1.2686;stroke-linejoin:round;stroke-miterlimit:2.5372"/></g><g id="g160"><path id="path156" class="st1" d="M-776.7 1230.2c-9.6-2.7-19.2-5.8-28.6-9.3l17.2-46.9c8.3 3 16.6 5.7 25.1 8.2l-13.7 48z"/><path id="path158" d="M-776.7 1230.2c-9.6-2.7-19.2-5.8-28.6-9.3l17.2-46.9c8.3 3 16.6 5.7 25.1 8.2l-13.7 48z" style="fill:#03c;stroke:#f5f5f5;stroke-width:1.2686;stroke-linejoin:round;stroke-miterlimit:2.5372"/></g><g id="g166"><path id="path162" class="st1" d="M-805.3 1220.9c-9.4-3.5-18.7-7.2-27.8-11.4l20.6-45.6c8 3.6 16.2 7 24.4 10l-17.2 47z"/><path id="path164" class="st15" d="M-805.3 1220.9c-9.4-3.5-18.7-7.2-27.8-11.4l20.6-45.6c8 3.6 16.2 7 24.4 10l-17.2 47z"/></g><g id="g172"><path id="path168" class="st1" d="M-833.2 1209.5c-9.1-4.1-18.1-8.6-26.9-13.4l23.9-43.9c7.7 4.2 15.6 8.1 23.6 11.8l-20.6 45.5z"/><path id="path170" class="st15" d="M-833.2 1209.5c-9.1-4.1-18.1-8.6-26.9-13.4l23.9-43.9c7.7 4.2 15.6 8.1 23.6 11.8l-20.6 45.5z"/></g><g id="g178"><path id="path174" class="st1" d="M-860.1 1196.1c-8.8-4.8-17.4-9.9-25.9-15.4l27.1-42c7.4 4.8 15 9.3 22.7 13.5l-23.9 43.9z"/><path id="path176" d="M-860.1 1196.1c-8.8-4.8-17.4-9.9-25.9-15.4l27.1-42c7.4 4.8 15 9.3 22.7 13.5l-23.9 43.9z" style="fill:#003df5;stroke:#f5f5f5;stroke-width:1.2686;stroke-linejoin:round;stroke-miterlimit:2.5372"/></g><g id="g184"><path id="path180" class="st1" d="M-885.9 1180.7c-8.4-5.4-16.7-11.2-24.7-17.2l30.1-39.9c7 5.3 14.2 10.3 21.6 15.1l-27 42z"/><path id="path182" class="st17" d="M-885.9 1180.7c-8.4-5.4-16.7-11.2-24.7-17.2l30.1-39.9c7 5.3 14.2 10.3 21.6 15.1l-27 42z"/></g><g id="g190"><path id="path186" class="st1" d="M-910.6 1163.5c-8-6-15.8-12.4-23.3-19l33-37.6c6.6 5.8 13.4 11.4 20.5 16.7l-30.2 39.9z"/><path id="path188" class="st17" d="M-910.6 1163.5c-8-6-15.8-12.4-23.3-19l33-37.6c6.6 5.8 13.4 11.4 20.5 16.7l-30.2 39.9z"/></g><g id="g196"><path id="path192" class="st1" d="M-933.9 1144.5c-7.5-6.6-14.8-13.5-21.8-20.7l35.7-35c6.2 6.3 12.6 12.3 19.2 18.1l-33.1 37.6z"/><path id="path194" d="M-933.9 1144.5c-7.5-6.6-14.8-13.5-21.8-20.7l35.7-35c6.2 6.3 12.6 12.3 19.2 18.1l-33.1 37.6z" style="fill:#0f4bff;stroke:#f5f5f5;stroke-width:1.2686;stroke-linejoin:round;stroke-miterlimit:2.5372"/></g><g id="g202"><path id="path198" class="st1" d="M-955.8 1123.8c-7-7.2-13.8-14.6-20.3-22.2l38.2-32.3c5.7 6.7 11.6 13.2 17.8 19.5l-35.7 35z"/><path id="path200" class="st19" d="M-955.8 1123.8c-7-7.2-13.8-14.6-20.3-22.2l38.2-32.3c5.7 6.7 11.6 13.2 17.8 19.5l-35.7 35z"/></g><g id="g208"><path id="path204" class="st1" d="M-976 1101.6c-6.5-7.7-12.7-15.6-18.6-23.7l40.5-29.4c5.2 7.1 10.6 14 16.3 20.8l-38.2 32.3z"/><path id="path206" class="st19" d="M-976 1101.6c-6.5-7.7-12.7-15.6-18.6-23.7l40.5-29.4c5.2 7.1 10.6 14 16.3 20.8l-38.2 32.3z"/></g><g id="g214"><path id="path210" class="st1" d="M-994.6 1077.9c-5.9-8.1-11.5-16.4-16.8-25l42.5-26.3c4.6 7.5 9.5 14.8 14.7 21.9l-40.4 29.4z"/><path id="path212" class="st20" d="M-994.6 1077.9c-5.9-8.1-11.5-16.4-16.8-25l42.5-26.3c4.6 7.5 9.5 14.8 14.7 21.9l-40.4 29.4z"/></g><g id="g220"><path id="path216" class="st1" d="M-1011.4 1053c-5.3-8.5-10.2-17.2-14.9-26.1l44.3-23.1c4.1 7.8 8.4 15.5 13 22.9l-42.4 26.3z"/><path id="path218" class="st20" d="M-1011.4 1053c-5.3-8.5-10.2-17.2-14.9-26.1l44.3-23.1c4.1 7.8 8.4 15.5 13 22.9l-42.4 26.3z"/></g><g id="g226"><path id="path222" class="st1" d="M-1026.2 1026.8c-4.6-8.9-8.9-18-12.9-27.2l45.9-19.8c3.5 8.1 7.3 16 11.3 23.8l-44.3 23.2z"/><path id="path224" d="M-1026.2 1026.8c-4.6-8.9-8.9-18-12.9-27.2l45.9-19.8c3.5 8.1 7.3 16 11.3 23.8l-44.3 23.2z" style="fill:#386aff;stroke:#f5f5f5;stroke-width:1.2686;stroke-linejoin:round;stroke-miterlimit:2.5372"/></g><g id="g232"><path id="path228" class="st1" d="M-1039.1 999.7c-4-9.2-7.6-18.6-10.9-28l47.3-16.3c2.9 8.3 6.1 16.5 9.5 24.6l-45.9 19.7z"/><path id="path230" d="M-1039.1 999.7c-4-9.2-7.6-18.6-10.9-28l47.3-16.3c2.9 8.3 6.1 16.5 9.5 24.6l-45.9 19.7z" style="fill:#4271ff;stroke:#f5f5f5;stroke-width:1.2686;stroke-linejoin:round;stroke-miterlimit:2.5372"/></g><g id="g238"><path id="path234" class="st1" d="M-1050 971.6c-3.3-9.5-6.2-19.1-8.8-28.8l48.3-12.8c2.3 8.5 4.8 16.9 7.7 25.2l-47.2 16.4z"/><path id="path236" class="st23" d="M-1050 971.6c-3.3-9.5-6.2-19.1-8.8-28.8l48.3-12.8c2.3 8.5 4.8 16.9 7.7 25.2l-47.2 16.4z"/></g><g id="g244"><path id="path240" class="st1" d="M-1058.8 942.8c-2.6-9.7-4.8-19.5-6.6-29.3l49.1-9.2c1.6 8.6 3.6 17.2 5.8 25.7l-48.3 12.8z"/><path id="path242" class="st23" d="M-1058.8 942.8c-2.6-9.7-4.8-19.5-6.6-29.3l49.1-9.2c1.6 8.6 3.6 17.2 5.8 25.7l-48.3 12.8z"/></g><g id="g250"><path id="path246" class="st1" d="M-1065.4 913.5c-1.8-9.9-3.3-19.8-4.4-29.8l49.7-5.5c1 8.7 2.3 17.4 3.9 26.1l-49.2 9.2z"/><path id="path248" d="M-1065.4 913.5c-1.8-9.9-3.3-19.8-4.4-29.8l49.7-5.5c1 8.7 2.3 17.4 3.9 26.1l-49.2 9.2z" style="fill:#527dff;stroke:#f5f5f5;stroke-width:1.2686;stroke-linejoin:round;stroke-miterlimit:2.5372"/></g><g id="g256"><path id="path252" class="st1" d="M-1069.8 883.7c-1.1-10-1.8-20-2.2-30l50-1.8c.3 8.8 1 17.6 1.9 26.3l-49.7 5.5z"/><path id="path254" d="M-1069.8 883.7c-1.1-10-1.8-20-2.2-30l50-1.8c.3 8.8 1 17.6 1.9 26.3l-49.7 5.5z" style="fill:#5781ff;stroke:#f5f5f5;stroke-width:1.2686;stroke-linejoin:round;stroke-miterlimit:2.5372"/></g><g id="g262"><path id="path258" class="st1" d="M-1072 853.7c-.4-10-.4-20.1 0-30.1l50 1.9c-.3 8.8-.3 17.6 0 26.4l-50 1.8z"/><path id="path260" d="M-1072 853.7c-.4-10-.4-20.1 0-30.1l50 1.9c-.3 8.8-.3 17.6 0 26.4l-50 1.8z" style="fill:#7094ff;stroke:#f5f5f5;stroke-width:1.2686;stroke-linejoin:round;stroke-miterlimit:2.5372"/></g><g id="g268"><path id="path264" class="st1" d="M-1072 823.7c.4-10 1.1-20 2.2-30l49.7 5.5c-1 8.7-1.6 17.5-2 26.3l-49.9-1.8z"/><path id="path266" class="st27" d="M-1072 823.7c.4-10 1.1-20 2.2-30l49.7 5.5c-1 8.7-1.6 17.5-2 26.3l-49.9-1.8z"/></g><g id="g274"><path id="path270" class="st1" d="M-1069.8 793.7c1.1-10 2.6-19.9 4.4-29.8l49.1 9.2c-1.6 8.6-2.9 17.4-3.9 26.1l-49.6-5.5z"/><path id="path272" class="st27" d="M-1069.8 793.7c1.1-10 2.6-19.9 4.4-29.8l49.1 9.2c-1.6 8.6-2.9 17.4-3.9 26.1l-49.6-5.5z"/></g><g id="g280"><path id="path276" class="st1" d="M-1065.4 763.9c1.8-9.9 4.1-19.6 6.6-29.3l48.3 12.8c-2.3 8.5-4.2 17.1-5.8 25.7l-49.1-9.2z"/><path id="path278" class="st28" d="M-1065.4 763.9c1.8-9.9 4.1-19.6 6.6-29.3l48.3 12.8c-2.3 8.5-4.2 17.1-5.8 25.7l-49.1-9.2z"/></g><g id="g286"><path id="path282" class="st1" d="M-1058.8 734.6c2.6-9.7 5.5-19.3 8.8-28.8l47.3 16.3c-2.9 8.3-5.4 16.7-7.7 25.2l-48.4-12.7z"/><path id="path284" class="st28" d="M-1058.8 734.6c2.6-9.7 5.5-19.3 8.8-28.8l47.3 16.3c-2.9 8.3-5.4 16.7-7.7 25.2l-48.4-12.7z"/></g><g id="g292"><path id="path288" class="st1" d="M-1050 705.8c3.3-9.5 6.9-18.8 10.9-28l45.9 19.8c-3.5 8.1-6.7 16.3-9.5 24.6l-47.3-16.4z"/><path id="path290" d="M-1050 705.8c3.3-9.5 6.9-18.8 10.9-28l45.9 19.8c-3.5 8.1-6.7 16.3-9.5 24.6l-47.3-16.4z" style="fill:#809fff;stroke:#f5f5f5;stroke-width:1.2686;stroke-linejoin:round;stroke-miterlimit:2.5372"/></g><g id="g298"><path id="path294" class="st1" d="M-1039.1 677.8c4-9.2 8.3-18.3 12.9-27.2l44.3 23.1c-4.1 7.8-7.8 15.8-11.3 23.8l-45.9-19.7z"/><path id="path296" d="M-1039.1 677.8c4-9.2 8.3-18.3 12.9-27.2l44.3 23.1c-4.1 7.8-7.8 15.8-11.3 23.8l-45.9-19.7z" style="fill:#8aa7ff;stroke:#f5f5f5;stroke-width:1.2686;stroke-linejoin:round;stroke-miterlimit:2.5372"/></g><g id="g304"><path id="path300" class="st1" d="M-1026.2 650.6c4.6-8.9 9.6-17.6 14.9-26.1l42.5 26.3c-4.6 7.5-9 15.1-13.1 22.9l-44.3-23.1z"/><path id="path302" d="M-1026.2 650.6c4.6-8.9 9.6-17.6 14.9-26.1l42.5 26.3c-4.6 7.5-9 15.1-13.1 22.9l-44.3-23.1z" style="fill:#8fabff;stroke:#f5f5f5;stroke-width:1.2686;stroke-linejoin:round;stroke-miterlimit:2.5372"/></g><g id="g310"><path id="path306" class="st1" d="M-1011.3 624.4c5.3-8.5 10.9-16.9 16.8-25l40.4 29.4c-5.2 7.1-10.1 14.4-14.7 21.9l-42.5-26.3z"/><path id="path308" class="st32" d="M-1011.3 624.4c5.3-8.5 10.9-16.9 16.8-25l40.4 29.4c-5.2 7.1-10.1 14.4-14.7 21.9l-42.5-26.3z"/></g><g id="g316"><path id="path312" class="st1" d="M-994.6 599.5c5.9-8.1 12.1-16 18.6-23.7l38.2 32.3c-5.7 6.7-11.1 13.6-16.3 20.8l-40.5-29.4z"/><path id="path314" class="st32" d="M-994.6 599.5c5.9-8.1 12.1-16 18.6-23.7l38.2 32.3c-5.7 6.7-11.1 13.6-16.3 20.8l-40.5-29.4z"/></g><g id="g322"><path id="path318" class="st1" d="M-976 575.8c6.5-7.7 13.2-15.1 20.3-22.2l35.7 35c-6.2 6.3-12.1 12.8-17.8 19.5l-38.2-32.3z"/><path id="path320" class="st33" d="M-976 575.8c6.5-7.7 13.2-15.1 20.3-22.2l35.7 35c-6.2 6.3-12.1 12.8-17.8 19.5l-38.2-32.3z"/></g><g id="g328"><path id="path324" class="st1" d="M-955.7 553.6c7-7.2 14.3-14.1 21.9-20.7l33 37.6c-6.6 5.8-13 11.9-19.2 18.1l-35.7-35z"/><path id="path326" class="st34" d="M-955.7 553.6c7-7.2 14.3-14.1 21.9-20.7l33 37.6c-6.6 5.8-13 11.9-19.2 18.1l-35.7-35z"/></g><g id="g334"><path id="path330" class="st1" d="M-933.9 532.9c7.5-6.6 15.3-13 23.3-19l30.1 39.9c-7 5.3-13.8 10.9-20.5 16.7l-32.9-37.6z"/><path id="path332" class="st34" d="M-933.9 532.9c7.5-6.6 15.3-13 23.3-19l30.1 39.9c-7 5.3-13.8 10.9-20.5 16.7l-32.9-37.6z"/></g><g id="g340"><path id="path336" class="st1" d="M-910.6 513.9c8-6 16.2-11.8 24.7-17.2l27.1 42c-7.4 4.8-14.6 9.8-21.6 15.1l-30.2-39.9z"/><path id="path338" class="st34" d="M-910.6 513.9c8-6 16.2-11.8 24.7-17.2l27.1 42c-7.4 4.8-14.6 9.8-21.6 15.1l-30.2-39.9z"/></g><g id="g346"><path id="path342" class="st1" d="M-885.9 496.7c8.4-5.4 17.1-10.6 25.9-15.4l23.9 43.9c-7.7 4.2-15.3 8.7-22.7 13.5l-27.1-42z"/><path id="path344" class="st34" d="M-885.9 496.7c8.4-5.4 17.1-10.6 25.9-15.4l23.9 43.9c-7.7 4.2-15.3 8.7-22.7 13.5l-27.1-42z"/></g><g id="g352"><path id="path348" class="st1" d="M-860 481.3c8.8-4.8 17.8-9.3 26.9-13.4l20.6 45.6c-8 3.6-15.9 7.5-23.6 11.8l-23.9-44z"/><path id="path350" class="st35" d="M-860 481.3c8.8-4.8 17.8-9.3 26.9-13.4l20.6 45.6c-8 3.6-15.9 7.5-23.6 11.8l-23.9-44z"/></g><g id="g358"><path id="path354" class="st1" d="M-833.1 467.9c9.1-4.1 18.4-7.9 27.8-11.4l17.2 47c-8.3 3-16.4 6.4-24.4 10l-20.6-45.6z"/><path id="path356" class="st35" d="M-833.1 467.9c9.1-4.1 18.4-7.9 27.8-11.4l17.2 47c-8.3 3-16.4 6.4-24.4 10l-20.6-45.6z"/></g><g id="g364"><path id="path360" class="st1" d="M-805.3 456.6c9.4-3.4 19-6.5 28.6-9.3l13.7 48.1c-8.5 2.4-16.8 5.1-25.1 8.2l-17.2-47z"/><path id="path362" d="M-805.3 456.6c9.4-3.4 19-6.5 28.6-9.3l13.7 48.1c-8.5 2.4-16.8 5.1-25.1 8.2l-17.2-47z" style="fill:#a8beff;stroke:#f5f5f5;stroke-width:1.2686;stroke-linejoin:round;stroke-miterlimit:2.5372"/></g><g id="g370"><path id="path366" class="st1" d="M-776.6 447.3c9.6-2.7 19.4-5.1 29.2-7.2l10.1 49c-8.6 1.8-17.2 3.9-25.6 6.3l-13.7-48.1z"/><path id="path368" class="st37" d="M-776.6 447.3c9.6-2.7 19.4-5.1 29.2-7.2l10.1 49c-8.6 1.8-17.2 3.9-25.6 6.3l-13.7-48.1z"/></g><g id="g376"><path id="path372" class="st1" d="M-747.4 440.1c9.8-2 19.7-3.7 29.7-5l6.4 49.6c-8.7 1.1-17.4 2.6-26 4.4l-10.1-49z"/><path id="path374" class="st37" d="M-747.4 440.1c9.8-2 19.7-3.7 29.7-5l6.4 49.6c-8.7 1.1-17.4 2.6-26 4.4l-10.1-49z"/></g><g id="g382"><path id="path378" class="st1" d="M-717.8 435.1c9.9-1.3 19.9-2.2 30-2.8l2.8 49.9c-8.8.5-17.5 1.3-26.3 2.4l-6.5-49.5z"/><path id="path380" class="st38" d="M-717.8 435.1c9.9-1.3 19.9-2.2 30-2.8l2.8 49.9c-8.8.5-17.5 1.3-26.3 2.4l-6.5-49.5z"/></g><g id="g388"><path id="path384" class="st1" d="M-687.8 432.4c10-.6 20-.7 30.1-.6l-.9 50c-8.8-.2-17.6 0-26.4.5l-2.8-49.9z"/><path id="path386" class="st38" d="M-687.8 432.4c10-.6 20-.7 30.1-.6l-.9 50c-8.8-.2-17.6 0-26.4.5l-2.8-49.9z"/></g><g id="g394"><path id="path390" class="st1" d="M-657.7 431.8c10 .2 20 .7 30 1.7l-4.6 49.8c-8.8-.8-17.5-1.3-26.3-1.5l.9-50z"/><path id="path392" d="M-657.7 431.8c10 .2 20 .7 30 1.7l-4.6 49.8c-8.8-.8-17.5-1.3-26.3-1.5l.9-50z" style="fill:#bdcdff;stroke:#f5f5f5;stroke-width:1.2686;stroke-linejoin:round;stroke-miterlimit:2.5372"/></g><g id="g400"><path id="path396" class="st1" d="M-627.7 433.5c10 .9 19.9 2.2 29.8 3.9l-8.3 49.3c-8.7-1.5-17.4-2.6-26.2-3.4l4.7-49.8z"/><path id="path398" d="M-627.7 433.5c10 .9 19.9 2.2 29.8 3.9l-8.3 49.3c-8.7-1.5-17.4-2.6-26.2-3.4l4.7-49.8z" style="fill:#c2d1ff;stroke:#f5f5f5;stroke-width:1.2686;stroke-linejoin:round;stroke-miterlimit:2.5372"/></g><g id="g406"><path id="path402" class="st1" d="M-597.9 437.4c9.9 1.7 19.7 3.7 29.5 6.1l-11.9 48.6c-8.5-2.1-17.2-3.9-25.8-5.3l8.2-49.4z"/><path id="path404" class="st41" d="M-597.9 437.4c9.9 1.7 19.7 3.7 29.5 6.1l-11.9 48.6c-8.5-2.1-17.2-3.9-25.8-5.3l8.2-49.4z"/></g><g id="g412"><path id="path408" class="st1" d="M-568.4 443.4c9.7 2.4 19.4 5.1 28.9 8.2l-15.5 47.6c-8.4-2.7-16.8-5.1-25.4-7.2l12-48.6z"/><path id="path410" class="st42" d="M-568.4 443.4c9.7 2.4 19.4 5.1 28.9 8.2l-15.5 47.6c-8.4-2.7-16.8-5.1-25.4-7.2l12-48.6z"/></g><g id="g418"><path id="path414" class="st1" d="M-539.5 451.7c9.5 3.1 19 6.6 28.2 10.3l-18.9 46.3c-8.1-3.3-16.4-6.4-24.8-9.1l15.5-47.5z"/><path id="path416" class="st42" d="M-539.5 451.7c9.5 3.1 19 6.6 28.2 10.3l-18.9 46.3c-8.1-3.3-16.4-6.4-24.8-9.1l15.5-47.5z"/></g><g id="g424"><path id="path420" class="st1" d="M-511.2 462c9.3 3.8 18.4 7.9 27.4 12.4l-22.3 44.8c-7.9-3.9-15.9-7.6-24-10.9l18.9-46.3z"/><path id="path422" class="st42" d="M-511.2 462c9.3 3.8 18.4 7.9 27.4 12.4l-22.3 44.8c-7.9-3.9-15.9-7.6-24-10.9l18.9-46.3z"/></g><g id="g430"><path id="path426" class="st1" d="M-483.8 474.4c9 4.5 17.8 9.3 26.4 14.4l-25.5 43c-7.6-4.5-15.3-8.7-23.2-12.6l22.3-44.8z"/><path id="path428" class="st43" d="M-483.8 474.4c9 4.5 17.8 9.3 26.4 14.4l-25.5 43c-7.6-4.5-15.3-8.7-23.2-12.6l22.3-44.8z"/></g><g id="g436"><path id="path432" class="st1" d="M-457.4 488.8c8.6 5.1 17.1 10.6 25.3 16.3l-28.6 41c-7.2-5-14.6-9.8-22.2-14.3l25.5-43z"/><path id="path434" class="st44" d="M-457.4 488.8c8.6 5.1 17.1 10.6 25.3 16.3l-28.6 41c-7.2-5-14.6-9.8-22.2-14.3l25.5-43z"/></g><g id="g442"><path id="path438" class="st1" d="M-432.2 505.1c8.2 5.7 16.2 11.8 24 18.1l-31.6 38.8c-6.8-5.6-13.8-10.9-21.1-15.9l28.7-41z"/><path id="path440" class="st44" d="M-432.2 505.1c8.2 5.7 16.2 11.8 24 18.1l-31.6 38.8c-6.8-5.6-13.8-10.9-21.1-15.9l28.7-41z"/></g><g id="g448"><path id="path444" class="st1" d="M-408.2 523.3c7.8 6.3 15.3 13 22.6 19.9l-34.4 36.3c-6.4-6-13-11.9-19.8-17.4l31.6-38.8z"/><path id="path446" d="M-408.2 523.3c7.8 6.3 15.3 13 22.6 19.9l-34.4 36.3c-6.4-6-13-11.9-19.8-17.4l31.6-38.8z" style="fill:#e0e8ff;stroke:#f5f5f5;stroke-width:1.2686;stroke-linejoin:round;stroke-miterlimit:2.5372"/></g><g id="g454"><path id="path450" class="st1" d="M-385.6 543.1c7.3 6.9 14.3 14.1 21.1 21.5l-37 33.7c-5.9-6.5-12.1-12.8-18.5-18.8l34.4-36.4z"/><path id="path452" d="M-385.6 543.1c7.3 6.9 14.3 14.1 21.1 21.5l-37 33.7c-5.9-6.5-12.1-12.8-18.5-18.8l34.4-36.4z" style="fill:#001c70;stroke:#f5f5f5;stroke-width:1.2686;stroke-linejoin:round;stroke-miterlimit:2.5372"/></g><g id="g460"><path id="path456" class="st1" d="M-364.5 564.6c6.8 7.4 13.2 15.1 19.4 23l-39.3 30.9c-5.4-6.9-11.1-13.6-17-20.1l36.9-33.8z"/><path id="path458" class="st33" d="M-364.5 564.6c6.8 7.4 13.2 15.1 19.4 23l-39.3 30.9c-5.4-6.9-11.1-13.6-17-20.1l36.9-33.8z"/></g><g id="g466"><path id="path462" class="st1" d="M-345.1 587.5c6.2 7.9 12.1 16 17.7 24.3l-41.5 27.9c-4.9-7.3-10.1-14.4-15.5-21.3l39.3-30.9z"/><path id="path464" class="st41" d="M-345.1 587.5c6.2 7.9 12.1 16 17.7 24.3l-41.5 27.9c-4.9-7.3-10.1-14.4-15.5-21.3l39.3-30.9z"/></g><g id="g472"><path id="path468" class="st1" d="M-327.4 611.9c5.6 8.3 10.9 16.9 15.8 25.6l-43.5 24.7c-4.4-7.6-9-15.1-13.9-22.4l41.6-27.9z"/><path id="path470" class="st42" d="M-327.4 611.9c5.6 8.3 10.9 16.9 15.8 25.6l-43.5 24.7c-4.4-7.6-9-15.1-13.9-22.4l41.6-27.9z"/></g><g id="g478"><path id="path474" class="st1" d="M-311.6 637.5c5 8.7 9.6 17.6 13.9 26.7l-45.2 21.4c-3.8-7.9-7.8-15.8-12.2-23.4l43.5-24.7z"/><path id="path476" class="st43" d="M-311.6 637.5c5 8.7 9.6 17.6 13.9 26.7l-45.2 21.4c-3.8-7.9-7.8-15.8-12.2-23.4l43.5-24.7z"/></g><g id="g484"><path id="path480" class="st1" d="M-297.7 664.1c4.3 9.1 8.3 18.3 11.9 27.6l-46.6 18.1c-3.2-8.2-6.7-16.3-10.4-24.2l45.1-21.5z"/><path id="path482" class="st43" d="M-297.7 664.1c4.3 9.1 8.3 18.3 11.9 27.6l-46.6 18.1c-3.2-8.2-6.7-16.3-10.4-24.2l45.1-21.5z"/></g><g id="g490"><path id="path486" class="st1" d="M-285.8 691.8c3.6 9.4 6.9 18.8 9.8 28.4l-47.8 14.6c-2.6-8.4-5.4-16.7-8.6-24.9l46.6-18.1z"/><path id="path488" class="st44" d="M-285.8 691.8c3.6 9.4 6.9 18.8 9.8 28.4l-47.8 14.6c-2.6-8.4-5.4-16.7-8.6-24.9l46.6-18.1z"/></g><g id="g496"><path id="path492" class="st1" d="M-276 720.2c2.9 9.6 5.5 19.3 7.7 29.1l-48.8 11c-1.9-8.6-4.2-17.1-6.7-25.5l47.8-14.6z"/><path id="path494" class="st44" d="M-276 720.2c2.9 9.6 5.5 19.3 7.7 29.1l-48.8 11c-1.9-8.6-4.2-17.1-6.7-25.5l47.8-14.6z"/></g><g id="g502"><path id="path498" class="st1" d="M-268.3 749.3c2.2 9.8 4 19.6 5.5 29.6l-49.5 7.4c-1.3-8.7-2.9-17.4-4.8-25.9l48.8-11.1z"/><path id="path500" class="st47" d="M-268.3 749.3c2.2 9.8 4 19.6 5.5 29.6l-49.5 7.4c-1.3-8.7-2.9-17.4-4.8-25.9l48.8-11.1z"/></g><g id="g508"><path id="path504" class="st1" d="M-262.7 778.8c1.5 9.9 2.6 19.9 3.3 29.9l-49.9 3.7c-.6-8.8-1.6-17.5-2.9-26.2l49.5-7.4z"/><path id="path506" class="st47" d="M-262.7 778.8c1.5 9.9 2.6 19.9 3.3 29.9l-49.9 3.7c-.6-8.8-1.6-17.5-2.9-26.2l49.5-7.4z"/></g><g id="g514"><path id="path510" class="st1" d="M-259.4 808.7c.7 10 1.1 20 1.1 30.1h-50c0-8.8-.3-17.6-1-26.4l49.9-3.7z"/><path id="path512" class="st47" d="M-259.4 808.7c.7 10 1.1 20 1.1 30.1h-50c0-8.8-.3-17.6-1-26.4l49.9-3.7z"/></g></g><g id="g1028" transform="scale(.85)"><g id="g522"><path id="path518" class="st1" d="M-320.8 838.7c0 8.5-.3 17-.9 25.4l-50.4-3.7c.5-7.2.8-14.5.8-21.7h50.5z"/><path id="path520" class="st48" d="M-320.8 838.7c0 8.5-.3 17-.9 25.4l-50.4-3.7c.5-7.2.8-14.5.8-21.7h50.5z"/></g><g id="g528"><path id="path524" class="st1" d="M-321.8 864.2c-.6 8.5-1.6 16.9-2.8 25.3l-49.9-7.4c1.1-7.2 1.9-14.4 2.4-21.6l50.3 3.7z"/><path id="path526" d="M-321.8 864.2c-.6 8.5-1.6 16.9-2.8 25.3l-49.9-7.4c1.1-7.2 1.9-14.4 2.4-21.6l50.3 3.7z" style="fill:#ff2929;stroke:#f5f5f5;stroke-width:1.2686;stroke-linejoin:round;stroke-miterlimit:2.5372"/></g><g id="g534"><path id="path530" class="st1" d="M-324.6 889.5c-1.3 8.4-2.8 16.7-4.7 25l-49.3-11.1c1.6-7.1 2.9-14.2 4-21.4l50 7.5z"/><path id="path532" class="st50" d="M-324.6 889.5c-1.3 8.4-2.8 16.7-4.7 25l-49.3-11.1c1.6-7.1 2.9-14.2 4-21.4l50 7.5z"/></g><g id="g540"><path id="path536" class="st1" d="M-329.2 914.5c-1.9 8.3-4 16.5-6.5 24.6l-48.3-14.7c2.1-6.9 4-13.9 5.6-21l49.2 11.1z"/><path id="path538" class="st51" d="M-329.2 914.5c-1.9 8.3-4 16.5-6.5 24.6l-48.3-14.7c2.1-6.9 4-13.9 5.6-21l49.2 11.1z"/></g><g id="g546"><path id="path542" class="st1" d="M-335.8 939.1c-2.5 8.1-5.2 16.1-8.3 24.1l-47.1-18.2c2.6-6.8 5-13.6 7.1-20.5l48.3 14.6z"/><path id="path544" class="st52" d="M-335.8 939.1c-2.5 8.1-5.2 16.1-8.3 24.1l-47.1-18.2c2.6-6.8 5-13.6 7.1-20.5l48.3 14.6z"/></g><g id="g552"><path id="path548" class="st1" d="M-344.1 963.2c-3.1 7.9-6.4 15.7-10.1 23.4l-45.6-21.7c3.1-6.5 6-13.2 8.6-20l47.1 18.3z"/><path id="path550" class="st53" d="M-344.1 963.2c-3.1 7.9-6.4 15.7-10.1 23.4l-45.6-21.7c3.1-6.5 6-13.2 8.6-20l47.1 18.3z"/></g><g id="g558"><path id="path554" class="st1" d="M-354.1 986.6c-3.6 7.7-7.6 15.2-11.8 22.6l-43.9-25c3.6-6.3 6.9-12.7 10-19.3l45.7 21.7z"/><path id="path556" class="st54" d="M-354.1 986.6c-3.6 7.7-7.6 15.2-11.8 22.6l-43.9-25c3.6-6.3 6.9-12.7 10-19.3l45.7 21.7z"/></g><g id="g564"><path id="path560" class="st1" d="M-365.9 1009.1c-4.2 7.4-8.7 14.6-13.4 21.6l-41.9-28.2c4-6 7.9-12.2 11.4-18.5l43.9 25.1z"/><path id="path562" class="st48" d="M-365.9 1009.1c-4.2 7.4-8.7 14.6-13.4 21.6l-41.9-28.2c4-6 7.9-12.2 11.4-18.5l43.9 25.1z"/></g><g id="g570"><path id="path566" class="st1" d="M-379.3 1030.8c-4.7 7-9.7 13.9-15 20.6l-39.7-31.2c4.5-5.7 8.7-11.6 12.8-17.6l41.9 28.2z"/><path id="path568" class="st55" d="M-379.3 1030.8c-4.7 7-9.7 13.9-15 20.6l-39.7-31.2c4.5-5.7 8.7-11.6 12.8-17.6l41.9 28.2z"/></g><g id="g576"><path id="path572" class="st1" d="M-394.3 1051.4c-5.2 6.7-10.7 13.2-16.4 19.4l-37.3-34c4.9-5.4 9.6-10.9 14-16.6l39.7 31.2z"/><path id="path574" class="st56" d="M-394.3 1051.4c-5.2 6.7-10.7 13.2-16.4 19.4l-37.3-34c4.9-5.4 9.6-10.9 14-16.6l39.7 31.2z"/></g><g id="g582"><path id="path578" class="st1" d="M-410.7 1070.8c-5.7 6.3-11.7 12.3-17.8 18.2l-34.7-36.7c5.3-5 10.3-10.2 15.2-15.5l37.3 34z"/><path id="path580" d="M-410.7 1070.8c-5.7 6.3-11.7 12.3-17.8 18.2l-34.7-36.7c5.3-5 10.3-10.2 15.2-15.5l37.3 34z" style="fill:#600;stroke:#f5f5f5;stroke-width:1.2686;stroke-linejoin:round;stroke-miterlimit:2.5372"/></g><g id="g588"><path id="path584" class="st1" d="M-428.6 1089c-6.2 5.8-12.5 11.4-19.1 16.8l-31.9-39.1c5.6-4.6 11.1-9.4 16.3-14.3l34.7 36.6z"/><path id="path586" d="M-428.6 1089c-6.2 5.8-12.5 11.4-19.1 16.8l-31.9-39.1c5.6-4.6 11.1-9.4 16.3-14.3l34.7 36.6z" style="fill:#e00000;stroke:#f5f5f5;stroke-width:1.2686;stroke-linejoin:round;stroke-miterlimit:2.5372"/></g><g id="g594"><path id="path590" class="st1" d="M-447.7 1105.8c-6.6 5.4-13.4 10.5-20.3 15.3l-28.9-41.4c5.9-4.1 11.7-8.5 17.3-13.1l31.9 39.2z"/><path id="path592" class="st56" d="M-447.7 1105.8c-6.6 5.4-13.4 10.5-20.3 15.3l-28.9-41.4c5.9-4.1 11.7-8.5 17.3-13.1l31.9 39.2z"/></g><g id="g600"><path id="path596" class="st1" d="M-468 1121.1c-7 4.9-14.1 9.5-21.4 13.8l-25.8-43.4c6.2-3.7 12.3-7.6 18.3-11.8l28.9 41.4z"/><path id="path598" class="st50" d="M-468 1121.1c-7 4.9-14.1 9.5-21.4 13.8l-25.8-43.4c6.2-3.7 12.3-7.6 18.3-11.8l28.9 41.4z"/></g><g id="g606"><path id="path602" class="st1" d="M-489.4 1134.9c-7.3 4.3-14.8 8.4-22.4 12.2l-22.5-45.2c6.5-3.2 12.8-6.7 19.1-10.4l25.8 43.4z"/><path id="path604" d="M-489.4 1134.9c-7.3 4.3-14.8 8.4-22.4 12.2l-22.5-45.2c6.5-3.2 12.8-6.7 19.1-10.4l25.8 43.4z" style="fill:#c20000;stroke:#f5f5f5;stroke-width:1.2686;stroke-linejoin:round;stroke-miterlimit:2.5372"/></g><g id="g612"><path id="path608" class="st1" d="M-511.8 1147.1c-7.6 3.8-15.3 7.3-23.2 10.5l-19.1-46.7c6.7-2.7 13.3-5.7 19.8-9l22.5 45.2z"/><path id="path610" class="st60" d="M-511.8 1147.1c-7.6 3.8-15.3 7.3-23.2 10.5l-19.1-46.7c6.7-2.7 13.3-5.7 19.8-9l22.5 45.2z"/></g><g id="g618"><path id="path614" class="st1" d="M-535 1157.6c-7.9 3.2-15.8 6.1-23.9 8.8l-15.6-48c6.9-2.2 13.7-4.7 20.4-7.5l19.1 46.7z"/><path id="path616" class="st61" d="M-535 1157.6c-7.9 3.2-15.8 6.1-23.9 8.8l-15.6-48c6.9-2.2 13.7-4.7 20.4-7.5l19.1 46.7z"/></g><g id="g624"><path id="path620" class="st1" d="M-558.9 1166.4c-8.1 2.6-16.2 4.9-24.5 7l-12-49.1c7-1.7 14-3.7 20.9-5.9l15.6 48z"/><path id="path622" class="st48" d="M-558.9 1166.4c-8.1 2.6-16.2 4.9-24.5 7l-12-49.1c7-1.7 14-3.7 20.9-5.9l15.6 48z"/></g><g id="g630"><path id="path626" class="st1" d="M-583.4 1173.3c-8.2 2-16.6 3.7-24.9 5.1l-8.4-49.8c7.1-1.2 14.2-2.7 21.3-4.4l12 49.1z"/><path id="path628" class="st62" d="M-583.4 1173.3c-8.2 2-16.6 3.7-24.9 5.1l-8.4-49.8c7.1-1.2 14.2-2.7 21.3-4.4l12 49.1z"/></g><g id="g636"><path id="path632" class="st1" d="M-608.3 1178.5c-8.4 1.4-16.8 2.5-25.2 3.3l-4.7-50.3c7.2-.7 14.4-1.6 21.5-2.8l8.4 49.8z"/><path id="path634" d="M-608.3 1178.5c-8.4 1.4-16.8 2.5-25.2 3.3l-4.7-50.3c7.2-.7 14.4-1.6 21.5-2.8l8.4 49.8z" style="fill:#ff7575;stroke:#f5f5f5;stroke-width:1.2686;stroke-linejoin:round;stroke-miterlimit:2.5372"/></g><g id="g642"><path id="path638" class="st1" d="M-633.5 1181.8c-8.5.8-16.9 1.3-25.4 1.4l-.9-50.5c7.2-.1 14.5-.5 21.7-1.2l4.6 50.3z"/><path id="path640" class="st61" d="M-633.5 1181.8c-8.5.8-16.9 1.3-25.4 1.4l-.9-50.5c7.2-.1 14.5-.5 21.7-1.2l4.6 50.3z"/></g><g id="g648"><path id="path644" class="st1" d="M-659 1183.2c-8.5.2-17 0-25.5-.5l2.8-50.4c7.2.4 14.5.5 21.7.4l1 50.5z"/><path id="path646" class="st64" d="M-659 1183.2c-8.5.2-17 0-25.5-.5l2.8-50.4c7.2.4 14.5.5 21.7.4l1 50.5z"/></g><g id="g654"><path id="path650" class="st1" d="M-684.4 1182.7c-8.5-.5-16.9-1.3-25.4-2.4l6.5-50.1c7.2.9 14.4 1.6 21.6 2l-2.7 50.5z"/><path id="path652" d="M-684.4 1182.7c-8.5-.5-16.9-1.3-25.4-2.4l6.5-50.1c7.2.9 14.4 1.6 21.6 2l-2.7 50.5z" style="fill:#ff0f0f;stroke:#f5f5f5;stroke-width:1.2686;stroke-linejoin:round;stroke-miterlimit:2.5372"/></g><g id="g660"><path id="path656" class="st1" d="M-709.8 1180.4c-8.4-1.1-16.8-2.5-25.1-4.2l10.2-49.5c7.1 1.5 14.2 2.7 21.4 3.6l-6.5 50.1z"/><path id="path658" class="st64" d="M-709.8 1180.4c-8.4-1.1-16.8-2.5-25.1-4.2l10.2-49.5c7.1 1.5 14.2 2.7 21.4 3.6l-6.5 50.1z"/></g><g id="g666"><path id="path662" class="st1" d="M-734.9 1176.1c-8.3-1.7-16.6-3.7-24.7-6.1l13.8-48.6c7 2 14 3.7 21.1 5.2l-10.2 49.5z"/><path id="path664" class="st51" d="M-734.9 1176.1c-8.3-1.7-16.6-3.7-24.7-6.1l13.8-48.6c7 2 14 3.7 21.1 5.2l-10.2 49.5z"/></g><g id="g672"><path id="path668" class="st1" d="M-759.6 1170.1c-8.2-2.3-16.2-4.9-24.2-7.9l17.4-47.4c6.8 2.5 13.7 4.7 20.7 6.7l-13.9 48.6z"/><path id="path670" class="st48" d="M-759.6 1170.1c-8.2-2.3-16.2-4.9-24.2-7.9l17.4-47.4c6.8 2.5 13.7 4.7 20.7 6.7l-13.9 48.6z"/></g><g id="g678"><path id="path674" class="st1" d="M-783.8 1162.2c-8-2.9-15.8-6.1-23.6-9.6l20.8-46c6.6 3 13.3 5.7 20.1 8.2l-17.3 47.4z"/><path id="path676" class="st60" d="M-783.8 1162.2c-8-2.9-15.8-6.1-23.6-9.6l20.8-46c6.6 3 13.3 5.7 20.1 8.2l-17.3 47.4z"/></g><g id="g684"><path id="path680" class="st1" d="M-807.4 1152.6c-7.7-3.5-15.3-7.3-22.8-11.3l24.2-44.3c6.4 3.5 12.8 6.7 19.4 9.7l-20.8 45.9z"/><path id="path682" class="st60" d="M-807.4 1152.6c-7.7-3.5-15.3-7.3-22.8-11.3l24.2-44.3c6.4 3.5 12.8 6.7 19.4 9.7l-20.8 45.9z"/></g><g id="g690"><path id="path686" class="st1" d="M-830.2 1141.2c-7.5-4.1-14.8-8.4-21.9-13l27.4-42.4c6.1 3.9 12.3 7.6 18.7 11.1l-24.2 44.3z"/><path id="path688" class="st60" d="M-830.2 1141.2c-7.5-4.1-14.8-8.4-21.9-13l27.4-42.4c6.1 3.9 12.3 7.6 18.7 11.1l-24.2 44.3z"/></g><g id="g696"><path id="path692" class="st1" d="M-852.1 1128.2c-7.1-4.6-14.1-9.5-20.9-14.6l30.4-40.3c5.8 4.4 11.7 8.5 17.8 12.4l-27.3 42.5z"/><path id="path694" class="st66" d="M-852.1 1128.2c-7.1-4.6-14.1-9.5-20.9-14.6l30.4-40.3c5.8 4.4 11.7 8.5 17.8 12.4l-27.3 42.5z"/></g><g id="g702"><path id="path698" class="st1" d="M-872.9 1113.6c-6.8-5.1-13.4-10.5-19.7-16.1l33.3-37.9c5.4 4.8 11.1 9.4 16.8 13.7l-30.4 40.3z"/><path id="path700" d="M-872.9 1113.6c-6.8-5.1-13.4-10.5-19.7-16.1l33.3-37.9c5.4 4.8 11.1 9.4 16.8 13.7l-30.4 40.3z" style="fill:#380000;stroke:#f5f5f5;stroke-width:1.2686;stroke-linejoin:round;stroke-miterlimit:2.5372"/></g><g id="g708"><path id="path704" class="st1" d="M-892.7 1097.6c-6.4-5.6-12.5-11.4-18.5-17.5l36-35.4c5.1 5.2 10.3 10.2 15.8 14.9l-33.3 38z"/><path id="path706" class="st48" d="M-892.7 1097.6c-6.4-5.6-12.5-11.4-18.5-17.5l36-35.4c5.1 5.2 10.3 10.2 15.8 14.9l-33.3 38z"/></g><g id="g714"><path id="path710" class="st1" d="M-911.2 1080.1c-5.9-6.1-11.7-12.3-17.2-18.8l38.6-32.6c4.7 5.5 9.6 10.9 14.6 16.1l-36 35.3z"/><path id="path712" class="st54" d="M-911.2 1080.1c-5.9-6.1-11.7-12.3-17.2-18.8l38.6-32.6c4.7 5.5 9.6 10.9 14.6 16.1l-36 35.3z"/></g><g id="g720"><path id="path716" class="st1" d="M-928.3 1061.2c-5.5-6.5-10.7-13.2-15.7-20l40.9-29.7c4.3 5.9 8.7 11.6 13.4 17.1l-38.6 32.6z"/><path id="path718" class="st60" d="M-928.3 1061.2c-5.5-6.5-10.7-13.2-15.7-20l40.9-29.7c4.3 5.9 8.7 11.6 13.4 17.1l-38.6 32.6z"/></g><g id="g726"><path id="path722" class="st1" d="M-944 1041.2c-5-6.9-9.7-13.9-14.2-21.1l42.9-26.6c3.8 6.2 7.9 12.2 12.1 18l-40.8 29.7z"/><path id="path724" d="M-944 1041.2c-5-6.9-9.7-13.9-14.2-21.1l42.9-26.6c3.8 6.2 7.9 12.2 12.1 18l-40.8 29.7z" style="fill:#ff2e2e;stroke:#f5f5f5;stroke-width:1.2686;stroke-linejoin:round;stroke-miterlimit:2.5372"/></g><g id="g732"><path id="path728" class="st1" d="M-958.2 1020.1c-4.5-7.2-8.7-14.6-12.6-22.1l44.8-23.3c3.3 6.4 6.9 12.7 10.7 18.9l-42.9 26.5z"/><path id="path730" class="st56" d="M-958.2 1020.1c-4.5-7.2-8.7-14.6-12.6-22.1l44.8-23.3c3.3 6.4 6.9 12.7 10.7 18.9l-42.9 26.5z"/></g><g id="g738"><path id="path734" class="st1" d="M-970.8 997.9c-3.9-7.5-7.6-15.2-10.9-23l46.4-20c2.9 6.7 6 13.2 9.3 19.6l-44.8 23.4z"/><path id="path736" class="st69" d="M-970.8 997.9c-3.9-7.5-7.6-15.2-10.9-23l46.4-20c2.9 6.7 6 13.2 9.3 19.6l-44.8 23.4z"/></g><g id="g744"><path id="path740" class="st1" d="M-981.7 974.9c-3.4-7.8-6.4-15.7-9.2-23.7l47.7-16.5c2.4 6.8 5 13.6 7.8 20.3l-46.3 19.9z"/><path id="path742" class="st66" d="M-981.7 974.9c-3.4-7.8-6.4-15.7-9.2-23.7l47.7-16.5c2.4 6.8 5 13.6 7.8 20.3l-46.3 19.9z"/></g><g id="g750"><path id="path746" class="st1" d="M-990.9 951.2c-2.8-8-5.2-16.1-7.4-24.4l48.8-12.9c1.9 7 4 13.9 6.3 20.8l-47.7 16.5z"/><path id="path748" class="st48" d="M-990.9 951.2c-2.8-8-5.2-16.1-7.4-24.4l48.8-12.9c1.9 7 4 13.9 6.3 20.8l-47.7 16.5z"/></g><g id="g756"><path id="path752" class="st1" d="M-998.4 926.9c-2.2-8.2-4-16.5-5.6-24.8l49.6-9.3c1.3 7.1 2.9 14.2 4.8 21.2l-48.8 12.9z"/><path id="path754" d="M-998.4 926.9c-2.2-8.2-4-16.5-5.6-24.8l49.6-9.3c1.3 7.1 2.9 14.2 4.8 21.2l-48.8 12.9z" style="fill:#850000;stroke:#f5f5f5;stroke-width:1.2686;stroke-linejoin:round;stroke-miterlimit:2.5372"/></g><g id="g762"><path id="path758" class="st1" d="M-1004 902c-1.6-8.3-2.8-16.7-3.7-25.2l50.2-5.6c.8 7.2 1.9 14.4 3.2 21.5l-49.7 9.3z"/><path id="path760" class="st69" d="M-1004 902c-1.6-8.3-2.8-16.7-3.7-25.2l50.2-5.6c.8 7.2 1.9 14.4 3.2 21.5l-49.7 9.3z"/></g><g id="g768"><path id="path764" class="st1" d="M-1007.7 876.8c-.9-8.4-1.6-16.9-1.9-25.4l50.5-1.9c.3 7.2.8 14.5 1.6 21.7l-50.2 5.6z"/><path id="path766" class="st55" d="M-1007.7 876.8c-.9-8.4-1.6-16.9-1.9-25.4l50.5-1.9c.3 7.2.8 14.5 1.6 21.7l-50.2 5.6z"/></g><g id="g774"><path id="path770" class="st1" d="M-1009.6 851.4c-.3-8.5-.3-17 0-25.5l50.5 1.9c-.3 7.2-.3 14.5 0 21.7l-50.5 1.9z"/><path id="path772" d="M-1009.6 851.4c-.3-8.5-.3-17 0-25.5l50.5 1.9c-.3 7.2-.3 14.5 0 21.7l-50.5 1.9z" style="fill:#ff5252;stroke:#f5f5f5;stroke-width:1.2686;stroke-linejoin:round;stroke-miterlimit:2.5372"/></g><g id="g780"><path id="path776" class="st1" d="M-1009.6 826c.3-8.5.9-17 1.9-25.4l50.2 5.6c-.8 7.2-1.3 14.4-1.6 21.7l-50.5-1.9z"/><path id="path778" class="st72" d="M-1009.6 826c.3-8.5.9-17 1.9-25.4l50.2 5.6c-.8 7.2-1.3 14.4-1.6 21.7l-50.5-1.9z"/></g><g id="g786"><path id="path782" class="st1" d="M-1007.7 800.6c.9-8.4 2.2-16.8 3.8-25.2l49.6 9.3c-1.3 7.1-2.4 14.3-3.2 21.5l-50.2-5.6z"/><path id="path784" class="st48" d="M-1007.7 800.6c.9-8.4 2.2-16.8 3.8-25.2l49.6 9.3c-1.3 7.1-2.4 14.3-3.2 21.5l-50.2-5.6z"/></g><g id="g792"><path id="path788" class="st1" d="M-1003.9 775.4c1.6-8.3 3.4-16.6 5.6-24.8l48.8 12.9c-1.9 7-3.4 14.1-4.8 21.2l-49.6-9.3z"/><path id="path790" class="st73" d="M-1003.9 775.4c1.6-8.3 3.4-16.6 5.6-24.8l48.8 12.9c-1.9 7-3.4 14.1-4.8 21.2l-49.6-9.3z"/></g><g id="g798"><path id="path794" class="st1" d="M-998.3 750.6c2.2-8.2 4.6-16.3 7.4-24.4l47.7 16.5c-2.4 6.8-4.5 13.8-6.3 20.8l-48.8-12.9z"/><path id="path796" class="st48" d="M-998.3 750.6c2.2-8.2 4.6-16.3 7.4-24.4l47.7 16.5c-2.4 6.8-4.5 13.8-6.3 20.8l-48.8-12.9z"/></g><g id="g804"><path id="path800" class="st1" d="M-990.9 726.2c2.8-8 5.8-15.9 9.2-23.7l46.4 20c-2.9 6.7-5.5 13.4-7.9 20.3l-47.7-16.6z"/><path id="path802" class="st48" d="M-990.9 726.2c2.8-8 5.8-15.9 9.2-23.7l46.4 20c-2.9 6.7-5.5 13.4-7.9 20.3l-47.7-16.6z"/></g><g id="g810"><path id="path806" class="st1" d="M-981.7 702.5c3.4-7.8 7-15.5 10.9-23l44.8 23.3c-3.3 6.4-6.5 13-9.3 19.6l-46.4-19.9z"/><path id="path808" d="M-981.7 702.5c3.4-7.8 7-15.5 10.9-23l44.8 23.3c-3.3 6.4-6.5 13-9.3 19.6l-46.4-19.9z" style="fill:#ff1f1f;stroke:#f5f5f5;stroke-width:1.2686;stroke-linejoin:round;stroke-miterlimit:2.5372"/></g><g id="g816"><path id="path812" class="st1" d="M-970.8 679.5c3.9-7.5 8.1-14.9 12.6-22.1l42.9 26.6c-3.8 6.2-7.4 12.5-10.7 18.9l-44.8-23.4z"/><path id="path814" class="st75" d="M-970.8 679.5c3.9-7.5 8.1-14.9 12.6-22.1l42.9 26.6c-3.8 6.2-7.4 12.5-10.7 18.9l-44.8-23.4z"/></g><g id="g822"><path id="path818" class="st1" d="M-958.2 657.4c4.5-7.2 9.2-14.3 14.2-21.1l40.9 29.7c-4.3 5.9-8.3 11.9-12.1 18l-43-26.6z"/><path id="path820" class="st48" d="M-958.2 657.4c4.5-7.2 9.2-14.3 14.2-21.1l40.9 29.7c-4.3 5.9-8.3 11.9-12.1 18l-43-26.6z"/></g><g id="g828"><path id="path824" class="st1" d="M-944 636.2c5-6.9 10.2-13.5 15.7-20l38.5 32.6c-4.7 5.5-9.2 11.2-13.4 17.1l-40.8-29.7z"/><path id="path826" class="st51" d="M-944 636.2c5-6.9 10.2-13.5 15.7-20l38.5 32.6c-4.7 5.5-9.2 11.2-13.4 17.1l-40.8-29.7z"/></g><g id="g834"><path id="path830" class="st1" d="M-928.3 616.2c5.5-6.5 11.2-12.8 17.2-18.8l36 35.4c-5.1 5.2-10 10.5-14.6 16.1l-38.6-32.7z"/><path id="path832" class="st60" d="M-928.3 616.2c5.5-6.5 11.2-12.8 17.2-18.8l36 35.4c-5.1 5.2-10 10.5-14.6 16.1l-38.6-32.7z"/></g><g id="g840"><path id="path836" class="st1" d="M-911.1 597.4c5.9-6.1 12.1-11.9 18.5-17.5l33.3 37.9c-5.4 4.8-10.7 9.8-15.8 14.9l-36-35.3z"/><path id="path838" class="st52" d="M-911.1 597.4c5.9-6.1 12.1-11.9 18.5-17.5l33.3 37.9c-5.4 4.8-10.7 9.8-15.8 14.9l-36-35.3z"/></g><g id="g846"><path id="path842" class="st1" d="M-892.6 579.9c6.4-5.6 13-11 19.7-16.1l30.4 40.3c-5.8 4.4-11.4 8.9-16.8 13.7l-33.3-37.9z"/><path id="path844" class="st54" d="M-892.6 579.9c6.4-5.6 13-11 19.7-16.1l30.4 40.3c-5.8 4.4-11.4 8.9-16.8 13.7l-33.3-37.9z"/></g><g id="g852"><path id="path848" class="st1" d="M-872.9 563.8c6.8-5.1 13.7-10 20.9-14.6l27.4 42.4c-6.1 3.9-12 8.1-17.8 12.4l-30.5-40.2z"/><path id="path850" d="M-872.9 563.8c6.8-5.1 13.7-10 20.9-14.6l27.4 42.4c-6.1 3.9-12 8.1-17.8 12.4l-30.5-40.2z" style="fill:#a30000;stroke:#f5f5f5;stroke-width:1.2686;stroke-linejoin:round;stroke-miterlimit:2.5372"/></g><g id="g858"><path id="path854" class="st1" d="M-852 549.2c7.1-4.6 14.4-8.9 21.9-13l24.2 44.3c-6.4 3.5-12.6 7.2-18.7 11.1l-27.4-42.4z"/><path id="path856" class="st48" d="M-852 549.2c7.1-4.6 14.4-8.9 21.9-13l24.2 44.3c-6.4 3.5-12.6 7.2-18.7 11.1l-27.4-42.4z"/></g><g id="g864"><path id="path860" class="st1" d="M-830.1 536.2c7.5-4.1 15.1-7.8 22.8-11.3l20.8 46c-6.6 3-13.1 6.2-19.5 9.7l-24.1-44.4z"/><path id="path862" class="st66" d="M-830.1 536.2c7.5-4.1 15.1-7.8 22.8-11.3l20.8 46c-6.6 3-13.1 6.2-19.5 9.7l-24.1-44.4z"/></g><g id="g870"><path id="path866" class="st1" d="M-807.3 524.9c7.7-3.5 15.6-6.7 23.6-9.6l17.4 47.4c-6.8 2.5-13.5 5.2-20.1 8.2l-20.9-46z"/><path id="path868" d="M-807.3 524.9c7.7-3.5 15.6-6.7 23.6-9.6l17.4 47.4c-6.8 2.5-13.5 5.2-20.1 8.2l-20.9-46z" style="fill:#940000;stroke:#f5f5f5;stroke-width:1.2686;stroke-linejoin:round;stroke-miterlimit:2.5372"/></g><g id="g876"><path id="path872" class="st1" d="M-783.8 515.2c8-2.9 16-5.5 24.2-7.9l13.8 48.6c-7 2-13.9 4.2-20.7 6.7l-17.3-47.4z"/><path id="path874" class="st48" d="M-783.8 515.2c8-2.9 16-5.5 24.2-7.9l13.8 48.6c-7 2-13.9 4.2-20.7 6.7l-17.3-47.4z"/></g><g id="g882"><path id="path878" class="st1" d="M-759.6 507.4c8.2-2.3 16.4-4.3 24.7-6.1l10.2 49.5c-7.1 1.5-14.1 3.2-21.1 5.2l-13.8-48.6z"/><path id="path880" class="st78" d="M-759.6 507.4c8.2-2.3 16.4-4.3 24.7-6.1l10.2 49.5c-7.1 1.5-14.1 3.2-21.1 5.2l-13.8-48.6z"/></g><g id="g888"><path id="path884" class="st1" d="M-734.8 501.3c8.3-1.7 16.7-3.1 25.1-4.2l6.5 50.1c-7.2.9-14.3 2.1-21.4 3.6l-10.2-49.5z"/><path id="path886" class="st64" d="M-734.8 501.3c8.3-1.7 16.7-3.1 25.1-4.2l6.5 50.1c-7.2.9-14.3 2.1-21.4 3.6l-10.2-49.5z"/></g><g id="g894"><path id="path890" class="st1" d="M-709.7 497.1c8.4-1.1 16.9-1.9 25.4-2.3l2.8 50.4c-7.2.4-14.5 1.1-21.6 2l-6.6-50.1z"/><path id="path892" class="st64" d="M-709.7 497.1c8.4-1.1 16.9-1.9 25.4-2.3l2.8 50.4c-7.2.4-14.5 1.1-21.6 2l-6.6-50.1z"/></g><g id="g900"><path id="path896" class="st1" d="M-684.4 494.8c8.5-.5 17-.6 25.5-.5l-.9 50.5c-7.2-.1-14.5 0-21.7.4l-2.9-50.4z"/><path id="path898" class="st53" d="M-684.4 494.8c8.5-.5 17-.6 25.5-.5l-.9 50.5c-7.2-.1-14.5 0-21.7.4l-2.9-50.4z"/></g><g id="g906"><path id="path902" class="st1" d="M-658.9 494.3c8.5.2 17 .6 25.4 1.4l-4.7 50.3c-7.2-.7-14.5-1.1-21.7-1.2l1-50.5z"/><path id="path904" d="M-658.9 494.3c8.5.2 17 .6 25.4 1.4l-4.7 50.3c-7.2-.7-14.5-1.1-21.7-1.2l1-50.5z" style="fill:#ff2424;stroke:#f5f5f5;stroke-width:1.2686;stroke-linejoin:round;stroke-miterlimit:2.5372"/></g><g id="g912"><path id="path908" class="st1" d="M-633.5 495.7c8.5.8 16.9 1.9 25.2 3.3l-8.4 49.8c-7.1-1.2-14.3-2.1-21.5-2.8l4.7-50.3z"/><path id="path910" d="M-633.5 495.7c8.5.8 16.9 1.9 25.2 3.3l-8.4 49.8c-7.1-1.2-14.3-2.1-21.5-2.8l4.7-50.3z" style="fill:#7a0000;stroke:#f5f5f5;stroke-width:1.2686;stroke-linejoin:round;stroke-miterlimit:2.5372"/></g><g id="g918"><path id="path914" class="st1" d="M-608.2 499c8.4 1.4 16.7 3.1 24.9 5.1l-12 49c-7-1.7-14.1-3.2-21.3-4.4l8.4-49.7z"/><path id="path916" class="st54" d="M-608.2 499c8.4 1.4 16.7 3.1 24.9 5.1l-12 49c-7-1.7-14.1-3.2-21.3-4.4l8.4-49.7z"/></g><g id="g924"><path id="path920" class="st1" d="M-583.3 504.1c8.2 2 16.4 4.3 24.5 7l-15.6 48c-6.9-2.2-13.9-4.2-20.9-5.9l12-49.1z"/><path id="path922" d="M-583.3 504.1c8.2 2 16.4 4.3 24.5 7l-15.6 48c-6.9-2.2-13.9-4.2-20.9-5.9l12-49.1z" style="fill:#ff5757;stroke:#f5f5f5;stroke-width:1.2686;stroke-linejoin:round;stroke-miterlimit:2.5372"/></g><g id="g930"><path id="path926" class="st1" d="M-558.8 511.1c8.1 2.6 16 5.5 23.9 8.8l-19.1 46.7c-6.7-2.7-13.5-5.2-20.4-7.5l15.6-48z"/><path id="path928" class="st72" d="M-558.8 511.1c8.1 2.6 16 5.5 23.9 8.8l-19.1 46.7c-6.7-2.7-13.5-5.2-20.4-7.5l15.6-48z"/></g><g id="g936"><path id="path932" class="st1" d="M-534.9 519.9c7.9 3.2 15.6 6.7 23.2 10.5l-22.5 45.2c-6.5-3.2-13.1-6.2-19.8-9l19.1-46.7z"/><path id="path934" class="st51" d="M-534.9 519.9c7.9 3.2 15.6 6.7 23.2 10.5l-22.5 45.2c-6.5-3.2-13.1-6.2-19.8-9l19.1-46.7z"/></g><g id="g942"><path id="path938" class="st1" d="M-511.7 530.4c7.6 3.8 15.1 7.8 22.4 12.2l-25.8 43.4c-6.2-3.7-12.6-7.2-19.1-10.4l22.5-45.2z"/><path id="path940" class="st48" d="M-511.7 530.4c7.6 3.8 15.1 7.8 22.4 12.2l-25.8 43.4c-6.2-3.7-12.6-7.2-19.1-10.4l22.5-45.2z"/></g><g id="g948"><path id="path944" class="st1" d="M-489.4 542.6c7.3 4.3 14.4 8.9 21.4 13.8l-28.9 41.4c-5.9-4.2-12-8.1-18.3-11.8l25.8-43.4z"/><path id="path946" class="st48" d="M-489.4 542.6c7.3 4.3 14.4 8.9 21.4 13.8l-28.9 41.4c-5.9-4.2-12-8.1-18.3-11.8l25.8-43.4z"/></g><g id="g954"><path id="path950" class="st1" d="M-468 556.4c7 4.9 13.7 10 20.3 15.3l-31.9 39.1c-5.6-4.6-11.4-8.9-17.3-13.1l28.9-41.3z"/><path id="path952" class="st48" d="M-468 556.4c7 4.9 13.7 10 20.3 15.3l-31.9 39.1c-5.6-4.6-11.4-8.9-17.3-13.1l28.9-41.3z"/></g><g id="g960"><path id="path956" class="st1" d="M-447.7 571.7c6.6 5.4 13 11 19.1 16.8l-34.7 36.7c-5.3-5-10.7-9.8-16.3-14.3l31.9-39.2z"/><path id="path958" class="st48" d="M-447.7 571.7c6.6 5.4 13 11 19.1 16.8l-34.7 36.7c-5.3-5-10.7-9.8-16.3-14.3l31.9-39.2z"/></g><g id="g966"><path id="path962" class="st1" d="M-428.5 588.5c6.2 5.8 12.1 11.9 17.8 18.2l-37.3 34c-4.9-5.4-10-10.5-15.2-15.5l34.7-36.7z"/><path id="path964" class="st61" d="M-428.5 588.5c6.2 5.8 12.1 11.9 17.8 18.2l-37.3 34c-4.9-5.4-10-10.5-15.2-15.5l34.7-36.7z"/></g><g id="g972"><path id="path968" class="st1" d="M-410.7 606.7c5.7 6.3 11.2 12.8 16.4 19.4l-39.7 31.2c-4.5-5.7-9.2-11.2-14-16.6l37.3-34z"/><path id="path970" class="st62" d="M-410.7 606.7c5.7 6.3 11.2 12.8 16.4 19.4l-39.7 31.2c-4.5-5.7-9.2-11.2-14-16.6l37.3-34z"/></g><g id="g978"><path id="path974" class="st1" d="M-394.2 626.1c5.2 6.7 10.2 13.6 15 20.6l-41.9 28.1c-4-6-8.3-11.9-12.8-17.6l39.7-31.1z"/><path id="path976" d="M-394.2 626.1c5.2 6.7 10.2 13.6 15 20.6l-41.9 28.1c-4-6-8.3-11.9-12.8-17.6l39.7-31.1z" style="fill:#9e0000;stroke:#f5f5f5;stroke-width:1.2686;stroke-linejoin:round;stroke-miterlimit:2.5372"/></g><g id="g984"><path id="path980" class="st1" d="M-379.3 646.7c4.7 7 9.2 14.3 13.4 21.6l-43.9 25c-3.6-6.3-7.4-12.5-11.4-18.5l41.9-28.1z"/><path id="path982" class="st55" d="M-379.3 646.7c4.7 7 9.2 14.3 13.4 21.6l-43.9 25c-3.6-6.3-7.4-12.5-11.4-18.5l41.9-28.1z"/></g><g id="g990"><path id="path986" class="st1" d="M-365.9 668.4c4.2 7.4 8.1 14.9 11.8 22.6l-45.6 21.7c-3.1-6.5-6.5-13-10-19.3l43.8-25z"/><path id="path988" class="st78" d="M-365.9 668.4c4.2 7.4 8.1 14.9 11.8 22.6l-45.6 21.7c-3.1-6.5-6.5-13-10-19.3l43.8-25z"/></g><g id="g996"><path id="path992" class="st1" d="M-354.1 690.9c3.6 7.7 7 15.5 10.1 23.4l-47.1 18.2c-2.6-6.8-5.5-13.4-8.6-20l45.6-21.6z"/><path id="path994" class="st48" d="M-354.1 690.9c3.6 7.7 7 15.5 10.1 23.4l-47.1 18.2c-2.6-6.8-5.5-13.4-8.6-20l45.6-21.6z"/></g><g id="g1002"><path id="path998" class="st1" d="M-344.1 714.3c3.1 7.9 5.8 15.9 8.3 24.1l-48.3 14.7c-2.1-6.9-4.5-13.8-7.1-20.5l47.1-18.3z"/><path id="path1000" class="st60" d="M-344.1 714.3c3.1 7.9 5.8 15.9 8.3 24.1l-48.3 14.7c-2.1-6.9-4.5-13.8-7.1-20.5l47.1-18.3z"/></g><g id="g1008"><path id="path1004" class="st1" d="M-335.7 738.4c2.5 8.1 4.6 16.3 6.5 24.6l-49.3 11.1c-1.6-7.1-3.4-14.1-5.6-21l48.4-14.7z"/><path id="path1006" d="M-335.7 738.4c2.5 8.1 4.6 16.3 6.5 24.6l-49.3 11.1c-1.6-7.1-3.4-14.1-5.6-21l48.4-14.7z" style="fill:#ff1a1a;stroke:#f5f5f5;stroke-width:1.2686;stroke-linejoin:round;stroke-miterlimit:2.5372"/></g><g id="g1014"><path id="path1010" class="st1" d="M-329.2 763c1.9 8.3 3.4 16.6 4.7 25l-50 7.4c-1.1-7.2-2.4-14.3-4-21.4l49.3-11z"/><path id="path1012" class="st75" d="M-329.2 763c1.9 8.3 3.4 16.6 4.7 25l-50 7.4c-1.1-7.2-2.4-14.3-4-21.4l49.3-11z"/></g><g id="g1020"><path id="path1016" class="st1" d="M-324.6 788c1.2 8.4 2.2 16.8 2.8 25.3l-50.4 3.7c-.5-7.2-1.3-14.4-2.4-21.6l50-7.4z"/><path id="path1018" class="st75" d="M-324.6 788c1.2 8.4 2.2 16.8 2.8 25.3l-50.4 3.7c-.5-7.2-1.3-14.4-2.4-21.6l50-7.4z"/></g><g id="g1026"><path id="path1022" class="st1" d="M-321.7 813.3c.6 8.5.9 17 .9 25.4h-50.5c0-7.2-.3-14.5-.8-21.7l50.4-3.7z"/><path id="path1024" class="st73" d="M-321.7 813.3c.6 8.5.9 17 .9 25.4h-50.5c0-7.2-.3-14.5-.8-21.7l50.4-3.7z"/></g></g><g id="g1540" transform="scale(.85)"><g id="g1034"><path id="path1030" class="st1" d="M-383.3 838.7c0 6.9-.3 13.9-.8 20.8l-49.9-3.7c.4-5.7.6-11.4.6-17.1h50.1z"/><path id="path1032" class="st84" d="M-383.3 838.7c0 6.9-.3 13.9-.8 20.8l-49.9-3.7c.4-5.7.6-11.4.6-17.1h50.1z"/></g><g id="g1040"><path id="path1036" class="st1" d="M-384.1 859.6c-.5 6.9-1.3 13.8-2.3 20.7l-49.5-7.4c.8-5.7 1.5-11.3 1.9-17l49.9 3.7z"/><path id="path1038" class="st85" d="M-384.1 859.6c-.5 6.9-1.3 13.8-2.3 20.7l-49.5-7.4c.8-5.7 1.5-11.3 1.9-17l49.9 3.7z"/></g><g id="g1046"><path id="path1042" class="st1" d="M-386.4 880.3c-1 6.9-2.3 13.7-3.8 20.5l-48.8-11c1.3-5.6 2.3-11.2 3.2-16.9l49.4 7.4z"/><path id="path1044" class="st86" d="M-386.4 880.3c-1 6.9-2.3 13.7-3.8 20.5l-48.8-11c1.3-5.6 2.3-11.2 3.2-16.9l49.4 7.4z"/></g><g id="g1052"><path id="path1048" class="st1" d="M-390.2 900.8c-1.5 6.8-3.3 13.5-5.3 20.1l-47.8-14.6c1.7-5.5 3.1-11 4.4-16.6l48.7 11.1z"/><path id="path1050" class="st87" d="M-390.2 900.8c-1.5 6.8-3.3 13.5-5.3 20.1l-47.8-14.6c1.7-5.5 3.1-11 4.4-16.6l48.7 11.1z"/></g><g id="g1058"><path id="path1054" class="st1" d="M-395.5 920.9c-2 6.6-4.3 13.2-6.8 19.7l-46.6-18.1c2.1-5.3 3.9-10.7 5.6-16.2l47.8 14.6z"/><path id="path1056" class="st88" d="M-395.5 920.9c-2 6.6-4.3 13.2-6.8 19.7l-46.6-18.1c2.1-5.3 3.9-10.7 5.6-16.2l47.8 14.6z"/></g><g id="g1064"><path id="path1060" class="st1" d="M-402.4 940.6c-2.5 6.5-5.3 12.9-8.2 19.1l-45.2-21.5c2.5-5.2 4.7-10.4 6.8-15.7l46.6 18.1z"/><path id="path1062" class="st87" d="M-402.4 940.6c-2.5 6.5-5.3 12.9-8.2 19.1l-45.2-21.5c2.5-5.2 4.7-10.4 6.8-15.7l46.6 18.1z"/></g><g id="g1070"><path id="path1066" class="st1" d="M-410.6 959.8c-3 6.3-6.2 12.4-9.6 18.5l-43.5-24.7c2.8-5 5.5-10 7.9-15.2l45.2 21.4z"/><path id="path1068" class="st89" d="M-410.6 959.8c-3 6.3-6.2 12.4-9.6 18.5l-43.5-24.7c2.8-5 5.5-10 7.9-15.2l45.2 21.4z"/></g><g id="g1076"><path id="path1072" class="st1" d="M-420.2 978.2c-3.4 6-7.1 12-11 17.7l-41.5-27.9c3.2-4.7 6.2-9.6 9-14.6l43.5 24.8z"/><path id="path1074" d="M-420.2 978.2c-3.4 6-7.1 12-11 17.7l-41.5-27.9c3.2-4.7 6.2-9.6 9-14.6l43.5 24.8z" style="fill:#80ff80;stroke:#f5f5f5;stroke-width:1.2686;stroke-linejoin:round;stroke-miterlimit:2.5372"/></g><g id="g1082"><path id="path1078" class="st1" d="M-431.2 996c-3.9 5.8-8 11.4-12.3 16.9l-39.3-30.9c3.5-4.5 6.9-9.1 10.1-13.9l41.5 27.9z"/><path id="path1080" class="st89" d="M-431.2 996c-3.9 5.8-8 11.4-12.3 16.9l-39.3-30.9c3.5-4.5 6.9-9.1 10.1-13.9l41.5 27.9z"/></g><g id="g1088"><path id="path1084" class="st1" d="M-443.5 1012.8c-4.3 5.5-8.8 10.8-13.5 15.9l-36.9-33.7c3.9-4.2 7.5-8.6 11.1-13.1l39.3 30.9z"/><path id="path1086" class="st91" d="M-443.5 1012.8c-4.3 5.5-8.8 10.8-13.5 15.9l-36.9-33.7c3.9-4.2 7.5-8.6 11.1-13.1l39.3 30.9z"/></g><g id="g1094"><path id="path1090" class="st1" d="M-456.9 1028.7a342 342 0 0 1-14.6 14.9l-34.4-36.3c4.2-3.9 8.2-8 12-12.2l37 33.6z"/><path id="path1092" d="M-456.9 1028.7a342 342 0 0 1-14.6 14.9l-34.4-36.3c4.2-3.9 8.2-8 12-12.2l37 33.6z" style="fill:#003d00;stroke:#f5f5f5;stroke-width:1.2686;stroke-linejoin:round;stroke-miterlimit:2.5372"/></g><g id="g1100"><path id="path1096" class="st1" d="M-471.5 1043.6c-5 4.8-10.3 9.4-15.7 13.8l-31.6-38.8c4.4-3.6 8.7-7.4 12.9-11.3l34.4 36.3z"/><path id="path1098" class="st93" d="M-471.5 1043.6c-5 4.8-10.3 9.4-15.7 13.8l-31.6-38.8c4.4-3.6 8.7-7.4 12.9-11.3l34.4 36.3z"/></g><g id="g1106"><path id="path1102" class="st1" d="M-487.2 1057.3c-5.4 4.4-10.9 8.6-16.6 12.6l-28.6-41c4.7-3.3 9.3-6.7 13.7-10.3l31.5 38.7z"/><path id="path1104" d="M-487.2 1057.3c-5.4 4.4-10.9 8.6-16.6 12.6l-28.6-41c4.7-3.3 9.3-6.7 13.7-10.3l31.5 38.7z" style="fill:#00c700;stroke:#f5f5f5;stroke-width:1.2686;stroke-linejoin:round;stroke-miterlimit:2.5372"/></g><g id="g1112"><path id="path1108" class="st1" d="M-503.8 1069.9c-5.7 4-11.5 7.7-17.5 11.3l-25.5-43c4.9-2.9 9.7-6 14.4-9.3l28.6 41z"/><path id="path1110" class="st95" d="M-503.8 1069.9c-5.7 4-11.5 7.7-17.5 11.3l-25.5-43c4.9-2.9 9.7-6 14.4-9.3l28.6 41z"/></g><g id="g1118"><path id="path1114" class="st1" d="M-521.3 1081.2c-6 3.5-12.1 6.9-18.3 10l-22.3-44.8c5.1-2.5 10.1-5.3 15.1-8.2l25.5 43z"/><path id="path1116" class="st96" d="M-521.3 1081.2c-6 3.5-12.1 6.9-18.3 10l-22.3-44.8c5.1-2.5 10.1-5.3 15.1-8.2l25.5 43z"/></g><g id="g1124"><path id="path1120" class="st1" d="M-539.6 1091.2c-6.2 3.1-12.6 6-19 8.6l-18.9-46.3c5.3-2.2 10.5-4.5 15.6-7.1l22.3 44.8z"/><path id="path1122" class="st97" d="M-539.6 1091.2c-6.2 3.1-12.6 6-19 8.6l-18.9-46.3c5.3-2.2 10.5-4.5 15.6-7.1l22.3 44.8z"/></g><g id="g1130"><path id="path1126" class="st1" d="M-558.6 1099.8c-6.4 2.6-13 5-19.6 7.2l-15.4-47.6c5.4-1.8 10.8-3.7 16.1-5.9l18.9 46.3z"/><path id="path1128" class="st98" d="M-558.6 1099.8c-6.4 2.6-13 5-19.6 7.2l-15.4-47.6c5.4-1.8 10.8-3.7 16.1-5.9l18.9 46.3z"/></g><g id="g1136"><path id="path1132" class="st1" d="M-578.2 1106.9c-6.6 2.1-13.3 4-20 5.7l-11.9-48.6c5.6-1.4 11.1-2.9 16.5-4.7l15.4 47.6z"/><path id="path1134" class="st99" d="M-578.2 1106.9c-6.6 2.1-13.3 4-20 5.7l-11.9-48.6c5.6-1.4 11.1-2.9 16.5-4.7l15.4 47.6z"/></g><g id="g1142"><path id="path1138" class="st1" d="M-598.2 1112.6c-6.7 1.7-13.6 3.1-20.4 4.2l-8.3-49.3c5.6-.9 11.2-2.1 16.8-3.5l11.9 48.6z"/><path id="path1140" d="M-598.2 1112.6c-6.7 1.7-13.6 3.1-20.4 4.2l-8.3-49.3c5.6-.9 11.2-2.1 16.8-3.5l11.9 48.6z" style="fill:#008f00;stroke:#f5f5f5;stroke-width:1.2686;stroke-linejoin:round;stroke-miterlimit:2.5372"/></g><g id="g1148"><path id="path1144" class="st1" d="M-618.6 1116.8c-6.9 1.2-13.7 2-20.7 2.7l-4.6-49.8c5.7-.5 11.4-1.3 17-2.2l8.3 49.3z"/><path id="path1146" class="st101" d="M-618.6 1116.8c-6.9 1.2-13.7 2-20.7 2.7l-4.6-49.8c5.7-.5 11.4-1.3 17-2.2l8.3 49.3z"/></g><g id="g1154"><path id="path1150" class="st1" d="M-639.3 1119.5c-6.9.6-13.9 1-20.8 1.2l-.9-50c5.7-.1 11.4-.4 17.1-.9l4.6 49.7z"/><path id="path1152" class="st91" d="M-639.3 1119.5c-6.9.6-13.9 1-20.8 1.2l-.9-50c5.7-.1 11.4-.4 17.1-.9l4.6 49.7z"/></g><g id="g1160"><path id="path1156" class="st1" d="M-660.1 1120.7c-6.9.1-13.9 0-20.8-.4l2.8-49.9c5.7.3 11.4.4 17.1.3l.9 50z"/><path id="path1158" d="M-660.1 1120.7c-6.9.1-13.9 0-20.8-.4l2.8-49.9c5.7.3 11.4.4 17.1.3l.9 50z" style="fill:#4dff4d;stroke:#f5f5f5;stroke-width:1.2686;stroke-linejoin:round;stroke-miterlimit:2.5372"/></g><g id="g1166"><path id="path1162" class="st1" d="M-680.9 1120.3c-6.9-.4-13.9-1-20.8-1.9l6.5-49.6c5.7.7 11.4 1.3 17.1 1.6l-2.8 49.9z"/><path id="path1164" d="M-680.9 1120.3c-6.9-.4-13.9-1-20.8-1.9l6.5-49.6c5.7.7 11.4 1.3 17.1 1.6l-2.8 49.9z" style="fill:#52ff52;stroke:#f5f5f5;stroke-width:1.2686;stroke-linejoin:round;stroke-miterlimit:2.5372"/></g><g id="g1172"><path id="path1168" class="st1" d="M-701.7 1118.4c-6.9-.9-13.7-2-20.6-3.5l10.1-49c5.6 1.2 11.2 2.1 16.9 2.8l-6.4 49.7z"/><path id="path1170" class="st85" d="M-701.7 1118.4c-6.9-.9-13.7-2-20.6-3.5l10.1-49c5.6 1.2 11.2 2.1 16.9 2.8l-6.4 49.7z"/></g><g id="g1178"><path id="path1174" class="st1" d="M-722.3 1114.9c-6.8-1.4-13.6-3.1-20.2-5l13.7-48.1c5.5 1.6 11.1 2.9 16.7 4.1l-10.2 49z"/><path id="path1176" class="st104" d="M-722.3 1114.9c-6.8-1.4-13.6-3.1-20.2-5l13.7-48.1c5.5 1.6 11.1 2.9 16.7 4.1l-10.2 49z"/></g><g id="g1184"><path id="path1180" class="st1" d="M-742.5 1110c-6.7-1.9-13.3-4.1-19.8-6.4l17.2-46.9c5.4 2 10.8 3.7 16.3 5.3l-13.7 48z"/><path id="path1182" d="M-742.5 1110c-6.7-1.9-13.3-4.1-19.8-6.4l17.2-46.9c5.4 2 10.8 3.7 16.3 5.3l-13.7 48z" style="fill:#00d100;stroke:#f5f5f5;stroke-width:1.2686;stroke-linejoin:round;stroke-miterlimit:2.5372"/></g><g id="g1190"><path id="path1186" class="st1" d="M-762.3 1103.5c-6.5-2.4-13-5-19.3-7.9l20.6-45.6c5.2 2.4 10.5 4.5 15.9 6.5l-17.2 47z"/><path id="path1188" class="st97" d="M-762.3 1103.5c-6.5-2.4-13-5-19.3-7.9l20.6-45.6c5.2 2.4 10.5 4.5 15.9 6.5l-17.2 47z"/></g><g id="g1196"><path id="path1192" class="st1" d="M-781.6 1095.6c-6.3-2.9-12.6-6-18.7-9.3l23.9-43.9c5 2.7 10.1 5.3 15.3 7.6l-20.5 45.6z"/><path id="path1194" class="st106" d="M-781.6 1095.6c-6.3-2.9-12.6-6-18.7-9.3l23.9-43.9c5 2.7 10.1 5.3 15.3 7.6l-20.5 45.6z"/></g><g id="g1202"><path id="path1198" class="st1" d="M-800.3 1086.3c-6.1-3.3-12.1-6.9-17.9-10.6l27.1-42c4.8 3.1 9.7 6 14.7 8.8l-23.9 43.8z"/><path id="path1200" class="st107" d="M-800.3 1086.3c-6.1-3.3-12.1-6.9-17.9-10.6l27.1-42c4.8 3.1 9.7 6 14.7 8.8l-23.9 43.8z"/></g><g id="g1208"><path id="path1204" class="st1" d="M-818.2 1075.7c-5.8-3.8-11.5-7.7-17.1-11.9l30.1-39.9c4.6 3.4 9.3 6.7 14.1 9.8l-27.1 42z"/><path id="path1206" d="M-818.2 1075.7c-5.8-3.8-11.5-7.7-17.1-11.9l30.1-39.9c4.6 3.4 9.3 6.7 14.1 9.8l-27.1 42z" style="fill:#00db00;stroke:#f5f5f5;stroke-width:1.2686;stroke-linejoin:round;stroke-miterlimit:2.5372"/></g><g id="g1214"><path id="path1210" class="st1" d="M-835.3 1063.8c-5.5-4.2-10.9-8.6-16.2-13.2l33-37.6c4.3 3.8 8.7 7.4 13.3 10.8l-30.1 40z"/><path id="path1212" d="M-835.3 1063.8c-5.5-4.2-10.9-8.6-16.2-13.2l33-37.6c4.3 3.8 8.7 7.4 13.3 10.8l-30.1 40z" style="fill:#005700;stroke:#f5f5f5;stroke-width:1.2686;stroke-linejoin:round;stroke-miterlimit:2.5372"/></g><g id="g1220"><path id="path1216" class="st1" d="M-851.4 1050.6c-5.2-4.6-10.3-9.4-15.1-14.3l35.7-35c4 4.1 8.2 8 12.5 11.8l-33.1 37.5z"/><path id="path1218" d="M-851.4 1050.6c-5.2-4.6-10.3-9.4-15.1-14.3l35.7-35c4 4.1 8.2 8 12.5 11.8l-33.1 37.5z" style="fill:#b3ffb3;stroke:#f5f5f5;stroke-width:1.2686;stroke-linejoin:round;stroke-miterlimit:2.5372"/></g><g id="g1226"><path id="path1222" class="st1" d="M-866.6 1036.3c-4.9-5-9.6-10.1-14-15.4l38.2-32.3c3.7 4.4 7.5 8.6 11.6 12.7l-35.8 35z"/><path id="path1224" class="st98" d="M-866.6 1036.3c-4.9-5-9.6-10.1-14-15.4l38.2-32.3c3.7 4.4 7.5 8.6 11.6 12.7l-35.8 35z"/></g><g id="g1232"><path id="path1228" class="st1" d="M-880.6 1020.9c-4.5-5.3-8.8-10.8-12.9-16.4l40.5-29.4c3.4 4.6 6.9 9.1 10.6 13.5l-38.2 32.3z"/><path id="path1230" class="st111" d="M-880.6 1020.9c-4.5-5.3-8.8-10.8-12.9-16.4l40.5-29.4c3.4 4.6 6.9 9.1 10.6 13.5l-38.2 32.3z"/></g><g id="g1238"><path id="path1234" class="st1" d="M-893.5 1004.5c-4.1-5.6-8-11.4-11.6-17.3l42.5-26.3c3 4.9 6.2 9.6 9.6 14.2l-40.5 29.4z"/><path id="path1236" class="st112" d="M-893.5 1004.5c-4.1-5.6-8-11.4-11.6-17.3l42.5-26.3c3 4.9 6.2 9.6 9.6 14.2l-40.5 29.4z"/></g><g id="g1244"><path id="path1240" class="st1" d="M-905.1 987.2c-3.7-5.9-7.1-12-10.3-18.1L-871 946c2.6 5.1 5.5 10 8.5 14.9l-42.6 26.3z"/><path id="path1242" d="M-905.1 987.2c-3.7-5.9-7.1-12-10.3-18.1L-871 946c2.6 5.1 5.5 10 8.5 14.9l-42.6 26.3z" style="fill:#00f000;stroke:#f5f5f5;stroke-width:1.2686;stroke-linejoin:round;stroke-miterlimit:2.5372"/></g><g id="g1250"><path id="path1246" class="st1" d="M-915.4 969.1c-3.2-6.2-6.2-12.4-8.9-18.8l45.9-19.8c2.3 5.3 4.7 10.4 7.4 15.5l-44.4 23.1z"/><path id="path1248" class="st114" d="M-915.4 969.1c-3.2-6.2-6.2-12.4-8.9-18.8l45.9-19.8c2.3 5.3 4.7 10.4 7.4 15.5l-44.4 23.1z"/></g><g id="g1256"><path id="path1252" class="st1" d="M-924.3 950.2c-2.7-6.4-5.3-12.9-7.5-19.4l47.3-16.3c1.9 5.4 3.9 10.7 6.2 16l-46 19.7z"/><path id="path1254" class="st91" d="M-924.3 950.2c-2.7-6.4-5.3-12.9-7.5-19.4l47.3-16.3c1.9 5.4 3.9 10.7 6.2 16l-46 19.7z"/></g><g id="g1262"><path id="path1258" class="st1" d="M-931.9 930.8c-2.3-6.6-4.3-13.2-6.1-19.9l48.3-12.8c1.5 5.5 3.1 11 5 16.4l-47.2 16.3z"/><path id="path1260" class="st84" d="M-931.9 930.8c-2.3-6.6-4.3-13.2-6.1-19.9l48.3-12.8c1.5 5.5 3.1 11 5 16.4l-47.2 16.3z"/></g><g id="g1268"><path id="path1264" class="st1" d="M-937.9 910.9c-1.8-6.7-3.3-13.5-4.6-20.3l49.1-9.2c1.1 5.6 2.3 11.2 3.8 16.7l-48.3 12.8z"/><path id="path1266" d="M-937.9 910.9c-1.8-6.7-3.3-13.5-4.6-20.3l49.1-9.2c1.1 5.6 2.3 11.2 3.8 16.7l-48.3 12.8z" style="fill:#00b300;stroke:#f5f5f5;stroke-width:1.2686;stroke-linejoin:round;stroke-miterlimit:2.5372"/></g><g id="g1274"><path id="path1270" class="st1" d="M-942.5 890.5c-1.3-6.8-2.3-13.7-3.1-20.6l49.7-5.5c.6 5.7 1.5 11.3 2.5 17l-49.1 9.1z"/><path id="path1272" class="st116" d="M-942.5 890.5c-1.3-6.8-2.3-13.7-3.1-20.6l49.7-5.5c.6 5.7 1.5 11.3 2.5 17l-49.1 9.1z"/></g><g id="g1280"><path id="path1276" class="st1" d="M-945.6 869.9c-.8-6.9-1.3-13.8-1.5-20.8l50-1.8c.2 5.7.6 11.4 1.3 17.1l-49.8 5.5z"/><path id="path1278" class="st116" d="M-945.6 869.9c-.8-6.9-1.3-13.8-1.5-20.8l50-1.8c.2 5.7.6 11.4 1.3 17.1l-49.8 5.5z"/></g><g id="g1286"><path id="path1282" class="st1" d="M-947.1 849.1c-.3-6.9-.3-13.9 0-20.8l50 1.9c-.2 5.7-.2 11.4 0 17.1l-50 1.8z"/><path id="path1284" class="st117" d="M-947.1 849.1c-.3-6.9-.3-13.9 0-20.8l50 1.9c-.2 5.7-.2 11.4 0 17.1l-50 1.8z"/></g><g id="g1292"><path id="path1288" class="st1" d="M-947.1 828.3c.3-6.9.8-13.9 1.5-20.8l49.7 5.5c-.6 5.7-1.1 11.4-1.3 17.1l-49.9-1.8z"/><path id="path1290" d="M-947.1 828.3c.3-6.9.8-13.9 1.5-20.8l49.7 5.5c-.6 5.7-1.1 11.4-1.3 17.1l-49.9-1.8z" style="fill:#6bff6b;stroke:#f5f5f5;stroke-width:1.2686;stroke-linejoin:round;stroke-miterlimit:2.5372"/></g><g id="g1298"><path id="path1294" class="st1" d="M-945.6 807.5c.8-6.9 1.8-13.8 3.1-20.6l49.1 9.2c-1.1 5.6-1.9 11.3-2.5 17l-49.7-5.6z"/><path id="path1296" d="M-945.6 807.5c.8-6.9 1.8-13.8 3.1-20.6l49.1 9.2c-1.1 5.6-1.9 11.3-2.5 17l-49.7-5.6z" style="fill:#0c0;stroke:#f5f5f5;stroke-width:1.2686;stroke-linejoin:round;stroke-miterlimit:2.5372"/></g><g id="g1304"><path id="path1300" class="st1" d="M-942.5 786.9c1.3-6.8 2.8-13.6 4.6-20.3l48.3 12.8c-1.5 5.5-2.7 11.1-3.8 16.7l-49.1-9.2z"/><path id="path1302" d="M-942.5 786.9c1.3-6.8 2.8-13.6 4.6-20.3l48.3 12.8c-1.5 5.5-2.7 11.1-3.8 16.7l-49.1-9.2z" style="fill:#8aff8a;stroke:#f5f5f5;stroke-width:1.2686;stroke-linejoin:round;stroke-miterlimit:2.5372"/></g><g id="g1310"><path id="path1306" class="st1" d="M-937.9 766.6c1.8-6.7 3.8-13.4 6.1-19.9l47.3 16.3c-1.9 5.4-3.5 10.9-5 16.4l-48.4-12.8z"/><path id="path1308" class="st84" d="M-937.9 766.6c1.8-6.7 3.8-13.4 6.1-19.9l47.3 16.3c-1.9 5.4-3.5 10.9-5 16.4l-48.4-12.8z"/></g><g id="g1316"><path id="path1312" class="st1" d="M-931.8 746.6c2.3-6.6 4.8-13.1 7.5-19.4l45.9 19.8c-2.3 5.3-4.3 10.6-6.2 16l-47.2-16.4z"/><path id="path1314" class="st93" d="M-931.8 746.6c2.3-6.6 4.8-13.1 7.5-19.4l45.9 19.8c-2.3 5.3-4.3 10.6-6.2 16l-47.2-16.4z"/></g><g id="g1322"><path id="path1318" class="st1" d="M-924.3 727.2c2.7-6.4 5.7-12.7 8.9-18.8l44.3 23.1c-2.6 5.1-5.1 10.2-7.4 15.5l-45.8-19.8z"/><path id="path1320" class="st95" d="M-924.3 727.2c2.7-6.4 5.7-12.7 8.9-18.8l44.3 23.1c-2.6 5.1-5.1 10.2-7.4 15.5l-45.8-19.8z"/></g><g id="g1328"><path id="path1324" class="st1" d="M-915.4 708.4c3.2-6.2 6.7-12.2 10.3-18.1l42.5 26.3c-3 4.9-5.8 9.8-8.5 14.9l-44.3-23.1z"/><path id="path1326" class="st117" d="M-915.4 708.4c3.2-6.2 6.7-12.2 10.3-18.1l42.5 26.3c-3 4.9-5.8 9.8-8.5 14.9l-44.3-23.1z"/></g><g id="g1334"><path id="path1330" class="st1" d="M-905.1 690.3c3.7-5.9 7.5-11.7 11.6-17.3l40.4 29.4c-3.4 4.6-6.5 9.4-9.6 14.2l-42.4-26.3z"/><path id="path1332" class="st97" d="M-905.1 690.3c3.7-5.9 7.5-11.7 11.6-17.3l40.4 29.4c-3.4 4.6-6.5 9.4-9.6 14.2l-42.4-26.3z"/></g><g id="g1340"><path id="path1336" class="st1" d="M-893.4 673c4.1-5.6 8.4-11.1 12.9-16.4l38.2 32.3c-3.7 4.4-7.2 8.9-10.6 13.5l-40.5-29.4z"/><path id="path1338" class="st121" d="M-893.4 673c4.1-5.6 8.4-11.1 12.9-16.4l38.2 32.3c-3.7 4.4-7.2 8.9-10.6 13.5l-40.5-29.4z"/></g><g id="g1346"><path id="path1342" class="st1" d="M-880.6 656.6c4.5-5.3 9.2-10.4 14-15.4l35.7 35c-4 4.1-7.9 8.3-11.6 12.7l-38.1-32.3z"/><path id="path1344" class="st86" d="M-880.6 656.6c4.5-5.3 9.2-10.4 14-15.4l35.7 35c-4 4.1-7.9 8.3-11.6 12.7l-38.1-32.3z"/></g><g id="g1352"><path id="path1348" class="st1" d="M-866.5 641.2c4.9-5 9.9-9.7 15.1-14.3l33 37.6c-4.3 3.8-8.5 7.7-12.5 11.8l-35.6-35.1z"/><path id="path1350" class="st121" d="M-866.5 641.2c4.9-5 9.9-9.7 15.1-14.3l33 37.6c-4.3 3.8-8.5 7.7-12.5 11.8l-35.6-35.1z"/></g><g id="g1358"><path id="path1354" class="st1" d="M-851.4 626.8c5.2-4.6 10.6-9 16.2-13.2l30.1 39.9c-4.6 3.4-9 7.1-13.3 10.8l-33-37.5z"/><path id="path1356" class="st99" d="M-851.4 626.8c5.2-4.6 10.6-9 16.2-13.2l30.1 39.9c-4.6 3.4-9 7.1-13.3 10.8l-33-37.5z"/></g><g id="g1364"><path id="path1360" class="st1" d="M-835.2 613.7c5.5-4.2 11.2-8.2 17.1-11.9l27.1 42c-4.8 3.1-9.5 6.4-14.1 9.8l-30.1-39.9z"/><path id="path1362" d="M-835.2 613.7c5.5-4.2 11.2-8.2 17.1-11.9l27.1 42c-4.8 3.1-9.5 6.4-14.1 9.8l-30.1-39.9z" style="fill:#007a00;stroke:#f5f5f5;stroke-width:1.2686;stroke-linejoin:round;stroke-miterlimit:2.5372"/></g><g id="g1370"><path id="path1366" class="st1" d="M-818.1 601.7c5.8-3.8 11.8-7.3 17.9-10.6l23.9 43.9c-5 2.7-9.9 5.7-14.7 8.8l-27.1-42.1z"/><path id="path1368" class="st104" d="M-818.1 601.7c5.8-3.8 11.8-7.3 17.9-10.6l23.9 43.9c-5 2.7-9.9 5.7-14.7 8.8l-27.1-42.1z"/></g><g id="g1376"><path id="path1372" class="st1" d="M-800.2 591.1c6.1-3.3 12.3-6.4 18.7-9.3l20.6 45.6c-5.2 2.4-10.3 4.9-15.3 7.6l-24-43.9z"/><path id="path1374" class="st123" d="M-800.2 591.1c6.1-3.3 12.3-6.4 18.7-9.3l20.6 45.6c-5.2 2.4-10.3 4.9-15.3 7.6l-24-43.9z"/></g><g id="g1382"><path id="path1378" class="st1" d="M-781.6 581.8c6.3-2.9 12.8-5.5 19.3-7.9l17.2 47c-5.4 2-10.7 4.1-15.9 6.5l-20.6-45.6z"/><path id="path1380" class="st2" d="M-781.6 581.8c6.3-2.9 12.8-5.5 19.3-7.9l17.2 47c-5.4 2-10.7 4.1-15.9 6.5l-20.6-45.6z"/></g><g id="g1388"><path id="path1384" class="st1" d="M-762.3 573.9c6.5-2.4 13.1-4.5 19.8-6.4l13.7 48.1c-5.5 1.6-10.9 3.3-16.3 5.3l-17.2-47z"/><path id="path1386" class="st121" d="M-762.3 573.9c6.5-2.4 13.1-4.5 19.8-6.4l13.7 48.1c-5.5 1.6-10.9 3.3-16.3 5.3l-17.2-47z"/></g><g id="g1394"><path id="path1390" class="st1" d="M-742.5 567.5c6.7-1.9 13.4-3.6 20.2-5l10.1 49c-5.6 1.2-11.2 2.5-16.7 4.1l-13.6-48.1z"/><path id="path1392" class="st123" d="M-742.5 567.5c6.7-1.9 13.4-3.6 20.2-5l10.1 49c-5.6 1.2-11.2 2.5-16.7 4.1l-13.6-48.1z"/></g><g id="g1400"><path id="path1396" class="st1" d="M-722.2 562.5c6.8-1.4 13.7-2.6 20.6-3.4l6.4 49.6c-5.7.7-11.3 1.7-16.9 2.8l-10.1-49z"/><path id="path1398" d="M-722.2 562.5c6.8-1.4 13.7-2.6 20.6-3.4l6.4 49.6c-5.7.7-11.3 1.7-16.9 2.8l-10.1-49z" style="fill:#ebffeb;stroke:#f5f5f5;stroke-width:1.2686;stroke-linejoin:round;stroke-miterlimit:2.5372"/></g><g id="g1406"><path id="path1402" class="st1" d="M-701.7 559.1c6.9-.9 13.8-1.5 20.8-1.9l2.8 49.9c-5.7.3-11.4.8-17.1 1.6l-6.5-49.6z"/><path id="path1404" d="M-701.7 559.1c6.9-.9 13.8-1.5 20.8-1.9l2.8 49.9c-5.7.3-11.4.8-17.1 1.6l-6.5-49.6z" style="fill:#f0fff0;stroke:#f5f5f5;stroke-width:1.2686;stroke-linejoin:round;stroke-miterlimit:2.5372"/></g><g id="g1412"><path id="path1408" class="st1" d="M-680.9 557.2c6.9-.4 13.9-.5 20.8-.4l-.9 50c-5.7-.1-11.4 0-17.1.3l-2.8-49.9z"/><path id="path1410" d="M-680.9 557.2c6.9-.4 13.9-.5 20.8-.4l-.9 50c-5.7-.1-11.4 0-17.1.3l-2.8-49.9z" style="fill:#29ff29;stroke:#f5f5f5;stroke-width:1.2686;stroke-linejoin:round;stroke-miterlimit:2.5372"/></g><g id="g1418"><path id="path1414" class="st1" d="M-660.1 556.8c6.9.1 13.9.5 20.8 1.2l-4.6 49.8c-5.7-.5-11.4-.8-17.1-1l.9-50z"/><path id="path1416" class="st106" d="M-660.1 556.8c6.9.1 13.9.5 20.8 1.2l-4.6 49.8c-5.7-.5-11.4-.8-17.1-1l.9-50z"/></g><g id="g1424"><path id="path1420" class="st1" d="M-639.3 557.9c6.9.6 13.8 1.5 20.7 2.7l-8.3 49.3c-5.6-.9-11.3-1.7-17-2.2l4.6-49.8z"/><path id="path1422" class="st114" d="M-639.3 557.9c6.9.6 13.8 1.5 20.7 2.7l-8.3 49.3c-5.6-.9-11.3-1.7-17-2.2l4.6-49.8z"/></g><g id="g1430"><path id="path1426" class="st1" d="M-618.6 560.6c6.9 1.2 13.7 2.6 20.4 4.2l-11.9 48.6c-5.6-1.4-11.2-2.5-16.8-3.5l8.3-49.3z"/><path id="path1428" d="M-618.6 560.6c6.9 1.2 13.7 2.6 20.4 4.2l-11.9 48.6c-5.6-1.4-11.2-2.5-16.8-3.5l8.3-49.3z" style="fill:#05ff05;stroke:#f5f5f5;stroke-width:1.2686;stroke-linejoin:round;stroke-miterlimit:2.5372"/></g><g id="g1436"><path id="path1432" class="st1" d="M-598.2 564.8c6.7 1.7 13.4 3.6 20 5.7l-15.5 47.6c-5.4-1.8-10.9-3.3-16.5-4.7l12-48.6z"/><path id="path1434" d="M-598.2 564.8c6.7 1.7 13.4 3.6 20 5.7l-15.5 47.6c-5.4-1.8-10.9-3.3-16.5-4.7l12-48.6z" style="fill:#85ff85;stroke:#f5f5f5;stroke-width:1.2686;stroke-linejoin:round;stroke-miterlimit:2.5372"/></g><g id="g1442"><path id="path1438" class="st1" d="M-578.1 570.5c6.6 2.1 13.1 4.5 19.6 7.2l-18.9 46.3c-5.3-2.2-10.7-4.1-16.1-5.9l15.4-47.6z"/><path id="path1440" class="st2" d="M-578.1 570.5c6.6 2.1 13.1 4.5 19.6 7.2l-18.9 46.3c-5.3-2.2-10.7-4.1-16.1-5.9l15.4-47.6z"/></g><g id="g1448"><path id="path1444" class="st1" d="M-558.6 577.7c6.4 2.6 12.8 5.5 19 8.6l-22.3 44.8c-5.1-2.5-10.3-4.9-15.6-7.1l18.9-46.3z"/><path id="path1446" class="st87" d="M-558.6 577.7c6.4 2.6 12.8 5.5 19 8.6l-22.3 44.8c-5.1-2.5-10.3-4.9-15.6-7.1l18.9-46.3z"/></g><g id="g1454"><path id="path1450" class="st1" d="M-539.6 586.3c6.2 3.1 12.3 6.4 18.3 10l-25.5 43c-4.9-2.9-9.9-5.7-15.1-8.2l22.3-44.8z"/><path id="path1452" class="st85" d="M-539.6 586.3c6.2 3.1 12.3 6.4 18.3 10l-25.5 43c-4.9-2.9-9.9-5.7-15.1-8.2l22.3-44.8z"/></g><g id="g1460"><path id="path1456" class="st1" d="M-521.3 596.3c6 3.5 11.8 7.3 17.5 11.3l-28.6 41c-4.7-3.3-9.5-6.4-14.4-9.3l25.5-43z"/><path id="path1458" class="st104" d="M-521.3 596.3c6 3.5 11.8 7.3 17.5 11.3l-28.6 41c-4.7-3.3-9.5-6.4-14.4-9.3l25.5-43z"/></g><g id="g1466"><path id="path1462" class="st1" d="M-503.8 607.6c5.7 4 11.2 8.2 16.6 12.6l-31.6 38.8c-4.4-3.6-9-7.1-13.7-10.3l28.7-41.1z"/><path id="path1464" class="st88" d="M-503.8 607.6c5.7 4 11.2 8.2 16.6 12.6l-31.6 38.8c-4.4-3.6-9-7.1-13.7-10.3l28.7-41.1z"/></g><g id="g1472"><path id="path1468" class="st1" d="M-487.1 620.2c5.4 4.4 10.6 9 15.7 13.8l-34.4 36.3c-4.2-3.9-8.4-7.7-12.9-11.3l31.6-38.8z"/><path id="path1470" class="st84" d="M-487.1 620.2c5.4 4.4 10.6 9 15.7 13.8l-34.4 36.3c-4.2-3.9-8.4-7.7-12.9-11.3l31.6-38.8z"/></g><g id="g1478"><path id="path1474" class="st1" d="M-471.5 633.9c5 4.8 9.9 9.7 14.6 14.9l-37 33.7c-3.9-4.2-7.9-8.3-12-12.2l34.4-36.4z"/><path id="path1476" class="st89" d="M-471.5 633.9c5 4.8 9.9 9.7 14.6 14.9l-37 33.7c-3.9-4.2-7.9-8.3-12-12.2l34.4-36.4z"/></g><g id="g1484"><path id="path1480" class="st1" d="M-456.9 648.8c4.7 5.1 9.2 10.4 13.5 15.9l-39.3 30.9c-3.5-4.5-7.2-8.9-11.1-13.1l36.9-33.7z"/><path id="path1482" class="st107" d="M-456.9 648.8c4.7 5.1 9.2 10.4 13.5 15.9l-39.3 30.9c-3.5-4.5-7.2-8.9-11.1-13.1l36.9-33.7z"/></g><g id="g1490"><path id="path1486" class="st1" d="M-443.4 664.7c4.3 5.5 8.4 11.1 12.2 16.9l-41.5 27.9c-3.2-4.7-6.5-9.4-10.1-13.9l39.4-30.9z"/><path id="path1488" class="st111" d="M-443.4 664.7c4.3 5.5 8.4 11.1 12.2 16.9l-41.5 27.9c-3.2-4.7-6.5-9.4-10.1-13.9l39.4-30.9z"/></g><g id="g1496"><path id="path1492" class="st1" d="M-431.2 681.6c3.9 5.8 7.5 11.7 11 17.7l-43.5 24.7c-2.8-5-5.8-9.8-9-14.6l41.5-27.8z"/><path id="path1494" class="st2" d="M-431.2 681.6c3.9 5.8 7.5 11.7 11 17.7l-43.5 24.7c-2.8-5-5.8-9.8-9-14.6l41.5-27.8z"/></g><g id="g1502"><path id="path1498" class="st1" d="M-420.2 699.3c3.4 6 6.6 12.2 9.6 18.5l-45.2 21.4c-2.5-5.2-5.1-10.2-7.9-15.2l43.5-24.7z"/><path id="path1500" d="M-420.2 699.3c3.4 6 6.6 12.2 9.6 18.5l-45.2 21.4c-2.5-5.2-5.1-10.2-7.9-15.2l43.5-24.7z" style="fill:#009400;stroke:#f5f5f5;stroke-width:1.2686;stroke-linejoin:round;stroke-miterlimit:2.5372"/></g><g id="g1508"><path id="path1504" class="st1" d="M-410.6 717.8c3 6.3 5.7 12.7 8.2 19.1L-449 755c-2.1-5.3-4.3-10.6-6.8-15.7l45.2-21.5z"/><path id="path1506" class="st112" d="M-410.6 717.8c3 6.3 5.7 12.7 8.2 19.1L-449 755c-2.1-5.3-4.3-10.6-6.8-15.7l45.2-21.5z"/></g><g id="g1514"><path id="path1510" class="st1" d="M-402.3 736.9c2.5 6.5 4.8 13.1 6.8 19.7l-47.8 14.6c-1.7-5.5-3.5-10.9-5.6-16.2l46.6-18.1z"/><path id="path1512" class="st86" d="M-402.3 736.9c2.5 6.5 4.8 13.1 6.8 19.7l-47.8 14.6c-1.7-5.5-3.5-10.9-5.6-16.2l46.6-18.1z"/></g><g id="g1520"><path id="path1516" class="st1" d="M-395.5 756.6c2 6.6 3.8 13.4 5.3 20.1l-48.8 11c-1.3-5.6-2.7-11.1-4.4-16.6l47.9-14.5z"/><path id="path1518" class="st93" d="M-395.5 756.6c2 6.6 3.8 13.4 5.3 20.1l-48.8 11c-1.3-5.6-2.7-11.1-4.4-16.6l47.9-14.5z"/></g><g id="g1526"><path id="path1522" class="st1" d="M-390.2 776.8c1.5 6.8 2.8 13.6 3.8 20.5l-49.5 7.4c-.8-5.7-1.9-11.3-3.1-16.9l48.8-11z"/><path id="path1524" class="st88" d="M-390.2 776.8c1.5 6.8 2.8 13.6 3.8 20.5l-49.5 7.4c-.8-5.7-1.9-11.3-3.1-16.9l48.8-11z"/></g><g id="g1532"><path id="path1528" class="st1" d="M-386.4 797.2c1 6.9 1.8 13.8 2.3 20.7l-49.9 3.7c-.4-5.7-1.1-11.4-1.9-17l49.5-7.4z"/><path id="path1530" class="st96" d="M-386.4 797.2c1 6.9 1.8 13.8 2.3 20.7l-49.9 3.7c-.4-5.7-1.1-11.4-1.9-17l49.5-7.4z"/></g><g id="g1538"><path id="path1534" class="st1" d="M-384.1 818c.5 6.9.8 13.9.8 20.8h-50c0-5.7-.2-11.4-.6-17.1l49.8-3.7z"/><path id="path1536" class="st101" d="M-384.1 818c.5 6.9.8 13.9.8 20.8h-50c0-5.7-.2-11.4-.6-17.1l49.8-3.7z"/></g></g></g></g><text transform="translate(223.88 181.08)" class="st130 st131">Spectral count</text><linearGradient id="rect15_1_" gradientUnits="userSpaceOnUse" x1="216.802" y1="-682.206" x2="271.575" y2="-682.206" gradientTransform="matrix(2.7386 0 0 -.3651 -393.717 -48.026)"><stop offset="0" style="stop-color:#fff"/><stop offset=".5" style="stop-color:#0040ff"/><stop offset="1" style="stop-color:#000"/></linearGradient><path id="rect15" style="fill:url(#rect15_1_)" d="M200 191.1h150v20H200z"/><text transform="translate(183.906 206.08)" class="st130 st131">0</text><text transform="translate(354.321 206.08)" class="st130 st131">50</text><text transform="translate(169.634 243.262)" class="st130 st131">Protein expression - HEK 293</text><linearGradient id="rect36_1_" gradientUnits="userSpaceOnUse" x1="216.802" y1="-682.206" x2="271.575" y2="-682.206" gradientTransform="matrix(2.7386 0 0 -.3651 -393.717 14.156)"><stop offset="0" style="stop-color:#fff"/><stop offset=".5" style="stop-color:red"/><stop offset="1" style="stop-color:#000"/></linearGradient><path id="rect36" style="fill:url(#rect36_1_)" d="M200 253.3h150v20H200z"/><text transform="translate(183.906 268.262)" class="st130 st131">0</text><text transform="translate(356.321 268.262)" class="st130 st131">7</text><text transform="translate(178.532 305.444)" class="st130 st131">RNA expression - HEK 293</text><linearGradient id="rect57_1_" gradientUnits="userSpaceOnUse" x1="216.802" y1="-682.206" x2="271.575" y2="-682.206" gradientTransform="matrix(2.7386 0 0 -.3651 -393.717 76.337)"><stop offset="0" style="stop-color:#fff"/><stop offset=".5" style="stop-color:#0f0"/><stop offset="1" style="stop-color:#000"/></linearGradient><path id="rect57" style="fill:url(#rect57_1_)" d="M200 315.4h150v20H200z"/><text transform="translate(183.906 330.444)" class="st130 st131">0</text><text transform="translate(354.321 330.444)" class="st130 st131">50</text><text id="text71" transform="translate(207.427 367.08)" class="st130 st131">Known interactions</text><path id="line73" style="fill:none;stroke:#000;stroke-width:3" d="M225 377.1h100"/></svg>