<svg id="svg-main" xmlns="http://www.w3.org/2000/svg" xmlns:xlink="http://www.w3.org/1999/xlink" width="499" height="489" viewBox="0 0 499 489"><style>.st0{fill-opacity:0}.st4{fill:#06c}.st5{fill:#9cf}.st6{font-family:&apos;Lato&apos;,sans-serif}.st7{fill:#333;font-size:16px}.st8{fill:none;stroke:#333;stroke-width:2}</style><g transform="translate(100)"><path class="st0" d="M-15 20h389v389H-15z" id="plot_points_wheel"/><defs><path id="SVGID_1_" d="M-15 0h409v409H-15z"/></defs><clipPath id="SVGID_2_"><use xlink:href="#SVGID_1_" overflow="visible"/></clipPath><g clip-path="url(#SVGID_2_)"><g><path class="st0" d="M-15 20h389v389H-15z"/><path pointer-events="none" fill-opacity="0" stroke="#000" stroke-dasharray="2" d="M-15 20z"/><path fill="none" stroke="#000" stroke-dasharray="4,4" d="M-15 409L374 20"/><circle class="st4" cx="-15" cy="206.6" r="4"/><circle class="st4" cx="306.1" cy="84.8" r="4"/><circle class="st4" cx="266.9" cy="150.5" r="4"/><circle class="st4" cx="293" cy="104.3" r="4"/><circle class="st4" cx="225.1" cy="142.4" r="4"/><circle class="st4" cx="252" cy="187.5" r="4"/><circle class="st4" cx="216" cy="218.4" r="4"/><circle class="st5" cx="205.5" cy="409" r="4"/><circle class="st5" cx="171" cy="216.7" r="4"/><circle class="st4" cx="177.7" cy="169.4" r="4"/><circle class="st5" cx="182.2" cy="217.1" r="4"/><circle class="st5" cx="190" cy="164.7" r="4"/><circle class="st4" cx="263.6" cy="149.6" r="4"/><circle class="st5" cx="203.1" cy="217.9" r="4"/><circle class="st4" cx="195" cy="409" r="4"/><circle class="st4" cx="187.1" cy="409" r="4"/><circle class="st5" cx="190.6" cy="242.3" r="4"/><circle class="st4" cx="230.7" cy="285.2" r="4"/><circle class="st4" cx="271.5" cy="97.3" r="4"/><circle class="st5" cx="-15" cy="185.6" r="4"/><circle class="st5" cx="190.6" cy="188.2" r="4"/><circle class="st4" cx="241.6" cy="146.2" r="4"/><circle class="st4" cx="226.1" cy="162.9" r="4"/><circle class="st4" cx="222.2" cy="168.9" r="4"/><circle class="st4" cx="175.6" cy="109.5" r="4"/><text transform="translate(183.63 114.793)" class="st6 st7">PLK1</text><circle class="st4" cx="284.2" cy="102.2" r="4"/><circle class="st4" cx="-15" cy="143.4" r="4"/><circle class="st4" cx="243.3" cy="409" r="4"/><circle class="st5" cx="230.3" cy="137.7" r="4"/><circle class="st4" cx="300.3" cy="62.4" r="4"/><circle class="st4" cx="154.3" cy="216.3" r="4"/><circle class="st5" cx="139.2" cy="206.9" r="4"/><circle class="st4" cx="117.2" cy="202.6" r="4"/><circle class="st4" cx="254.3" cy="211.5" r="4"/><circle class="st4" cx="238.9" cy="161.1" r="4"/><circle class="st4" cx="164" cy="199" r="4"/></g></g></g><path class="st8" d="M85 409h389"/><defs><path id="SVGID_3_" d="M84 409h391v100H84z"/></defs><clipPath id="SVGID_4_"><use xlink:href="#SVGID_3_" overflow="visible"/></clipPath><g clip-path="url(#SVGID_4_)"><path class="st8" d="M85 409v10M162.8 409v10M240.6 409v10M318.4 409v10M396.2 409v10M474 409v10"/></g><path fill="none" d="M60 409h439v100H60z"/><text transform="translate(69.43 437)" class="st6 st7">0.01</text><text transform="translate(151.679 437)" class="st6 st7">0.1</text><text transform="translate(236.15 437)" class="st6 st7">1</text><text transform="translate(309.502 437)" class="st6 st7">10</text><text transform="translate(382.852 437)" class="st6 st7">100</text><text transform="translate(456.203 437)" class="st6 st7">1000</text><text transform="translate(250.404 478)" class="st6 st7">PPP6R1</text><path class="st8" d="M85 20v389"/><g><defs><path id="SVGID_5_" d="M-15 19H85v391H-15z"/></defs><clipPath id="SVGID_6_"><use xlink:href="#SVGID_5_" overflow="visible"/></clipPath><g clip-path="url(#SVGID_6_)"><path class="st8" d="M85 409H75M85 331.2H75M85 253.4H75M85 175.6H75M85 97.8H75M85 20H75"/></g></g><g><text transform="translate(40.86 414.333)" class="st6 st7">0.01</text><text transform="translate(49.758 336.533)" class="st6 st7">0.1</text><text transform="translate(63.102 258.733)" class="st6 st7">1</text><text transform="translate(54.203 180.933)" class="st6 st7">10</text><text transform="translate(45.305 103.133)" class="st6 st7">100</text><text transform="translate(36.406 25.333)" class="st6 st7">1000</text></g><text transform="rotate(-90 132.798 110.798)" class="st6 st7">PPP6R2</text><g><circle class="st4" cx="104.9" cy="33.3" r="6"/><text transform="translate(119.921 38.69)" class="st6 st7">FDR ≤ 0.01</text><circle class="st5" cx="104.9" cy="62.7" r="6"/><text transform="translate(119.921 68.122)" class="st6 st7">0.01 &lt; FDR ≤ 0.05</text></g></svg>