<svg xmlns="http://www.w3.org/2000/svg" height="333.713" width="444.608" xml:space="preserve"><defs><clipPath id="a" clipPathUnits="userSpaceOnUse"><path d="M205.107 220.529h5.349v-11.375h-5.349z"/></clipPath><clipPath id="b" clipPathUnits="userSpaceOnUse"><path d="M339.814 220.529h10.697v-11.375h-10.697z"/></clipPath><clipPath id="c" clipPathUnits="userSpaceOnUse"><path d="M211.859 41.82h33.276V27.626h-33.276z"/></clipPath><clipPath id="d" clipPathUnits="userSpaceOnUse"><path d="M259.055 41.82h33.275V27.626h-33.275z"/></clipPath><clipPath id="e" clipPathUnits="userSpaceOnUse"><path d="M306.041 41.82h33.697V27.626h-33.697z"/></clipPath><clipPath id="f" clipPathUnits="userSpaceOnUse"><path d="M225.281 131.562h106.078v-14.195H225.281z"/></clipPath></defs><path d="M207.781 237.691h3.435v-13.738h-3.435z" style="fill:#e6ebfa;fill-opacity:1;fill-rule:nonzero;stroke:none" transform="matrix(1.33333 0 0 -1.33333 -34.237 354.888)"/><path d="M211.216 237.691h3.435v-13.738h-3.435z" style="fill:#dbe2f8;fill-opacity:1;fill-rule:nonzero;stroke:none" transform="matrix(1.33333 0 0 -1.33333 -34.237 354.888)"/><path d="M214.65 237.691h3.435v-13.738h-3.435z" style="fill:#cfd9f5;fill-opacity:1;fill-rule:nonzero;stroke:none" transform="matrix(1.33333 0 0 -1.33333 -34.237 354.888)"/><path d="M218.085 237.691h3.434v-13.738h-3.434z" style="fill:#c4cff3;fill-opacity:1;fill-rule:nonzero;stroke:none" transform="matrix(1.33333 0 0 -1.33333 -34.237 354.888)"/><path d="M221.519 237.691h3.435v-13.738h-3.435z" style="fill:#b8c6f1;fill-opacity:1;fill-rule:nonzero;stroke:none" transform="matrix(1.33333 0 0 -1.33333 -34.237 354.888)"/><path d="M224.953 237.691h3.436v-13.738h-3.436z" style="fill:#adbdef;fill-opacity:1;fill-rule:nonzero;stroke:none" transform="matrix(1.33333 0 0 -1.33333 -34.237 354.888)"/><path d="M228.389 237.691h3.435v-13.738h-3.435z" style="fill:#a1b4ec;fill-opacity:1;fill-rule:nonzero;stroke:none" transform="matrix(1.33333 0 0 -1.33333 -34.237 354.888)"/><path d="M231.823 237.691h3.435v-13.738h-3.435z" style="fill:#96abea;fill-opacity:1;fill-rule:nonzero;stroke:none" transform="matrix(1.33333 0 0 -1.33333 -34.237 354.888)"/><path d="M235.258 237.691h3.434v-13.738h-3.434z" style="fill:#8aa1e8;fill-opacity:1;fill-rule:nonzero;stroke:none" transform="matrix(1.33333 0 0 -1.33333 -34.237 354.888)"/><path d="M238.691 237.691h3.435v-13.738h-3.435z" style="fill:#7f98e5;fill-opacity:1;fill-rule:nonzero;stroke:none" transform="matrix(1.33333 0 0 -1.33333 -34.237 354.888)"/><path d="M242.126 237.691h3.435v-13.738h-3.435z" style="fill:#738fe3;fill-opacity:1;fill-rule:nonzero;stroke:none" transform="matrix(1.33333 0 0 -1.33333 -34.237 354.888)"/><path d="M245.561 237.691h3.436v-13.738h-3.436z" style="fill:#6886e1;fill-opacity:1;fill-rule:nonzero;stroke:none" transform="matrix(1.33333 0 0 -1.33333 -34.237 354.888)"/><path d="M248.996 237.691h3.434v-13.738h-3.434z" style="fill:#5c7dde;fill-opacity:1;fill-rule:nonzero;stroke:none" transform="matrix(1.33333 0 0 -1.33333 -34.237 354.888)"/><path d="M252.43 237.691h3.435v-13.738h-3.435z" style="fill:#5173dc;fill-opacity:1;fill-rule:nonzero;stroke:none" transform="matrix(1.33333 0 0 -1.33333 -34.237 354.888)"/><path d="M255.864 237.691h3.435v-13.738h-3.435z" style="fill:#456ada;fill-opacity:1;fill-rule:nonzero;stroke:none" transform="matrix(1.33333 0 0 -1.33333 -34.237 354.888)"/><path d="M259.299 237.691h3.435v-13.738h-3.435z" style="fill:#3a61d8;fill-opacity:1;fill-rule:nonzero;stroke:none" transform="matrix(1.33333 0 0 -1.33333 -34.237 354.888)"/><path d="M262.733 237.691h3.435v-13.738h-3.435z" style="fill:#2e58d5;fill-opacity:1;fill-rule:nonzero;stroke:none" transform="matrix(1.33333 0 0 -1.33333 -34.237 354.888)"/><path d="M266.168 237.691h3.435v-13.738h-3.435z" style="fill:#234fd3;fill-opacity:1;fill-rule:nonzero;stroke:none" transform="matrix(1.33333 0 0 -1.33333 -34.237 354.888)"/><path d="M269.603 237.691h3.435v-13.738h-3.435z" style="fill:#1745d1;fill-opacity:1;fill-rule:nonzero;stroke:none" transform="matrix(1.33333 0 0 -1.33333 -34.237 354.888)"/><path d="M273.037 237.691h3.435v-13.738h-3.435z" style="fill:#0c3cce;fill-opacity:1;fill-rule:nonzero;stroke:none" transform="matrix(1.33333 0 0 -1.33333 -34.237 354.888)"/><path d="M276.472 237.691h3.435v-13.738h-3.435z" style="fill:#03c;fill-opacity:1;fill-rule:nonzero;stroke:none" transform="matrix(1.33333 0 0 -1.33333 -34.237 354.888)"/><path d="M279.906 237.691h3.434v-13.738h-3.434z" style="fill:#0031c3;fill-opacity:1;fill-rule:nonzero;stroke:none" transform="matrix(1.33333 0 0 -1.33333 -34.237 354.888)"/><path d="M283.34 237.691h3.436v-13.738h-3.436z" style="fill:#002eba;fill-opacity:1;fill-rule:nonzero;stroke:none" transform="matrix(1.33333 0 0 -1.33333 -34.237 354.888)"/><path d="M286.775 237.691h3.435v-13.738h-3.435z" style="fill:#002cb0;fill-opacity:1;fill-rule:nonzero;stroke:none" transform="matrix(1.33333 0 0 -1.33333 -34.237 354.888)"/><path d="M290.21 237.691h3.435v-13.738h-3.435z" style="fill:#002aa7;fill-opacity:1;fill-rule:nonzero;stroke:none" transform="matrix(1.33333 0 0 -1.33333 -34.237 354.888)"/><path d="M293.645 237.691h3.435v-13.738h-3.435z" style="fill:#00289e;fill-opacity:1;fill-rule:nonzero;stroke:none" transform="matrix(1.33333 0 0 -1.33333 -34.237 354.888)"/><path d="M297.079 237.691h3.434v-13.738h-3.434z" style="fill:#002595;fill-opacity:1;fill-rule:nonzero;stroke:none" transform="matrix(1.33333 0 0 -1.33333 -34.237 354.888)"/><path d="M300.513 237.691h3.435v-13.738h-3.435z" style="fill:#00238c;fill-opacity:1;fill-rule:nonzero;stroke:none" transform="matrix(1.33333 0 0 -1.33333 -34.237 354.888)"/><path d="M303.947 237.691h3.436v-13.738h-3.436z" style="fill:#002182;fill-opacity:1;fill-rule:nonzero;stroke:none" transform="matrix(1.33333 0 0 -1.33333 -34.237 354.888)"/><path d="M307.383 237.691h3.435v-13.738h-3.435z" style="fill:#001e79;fill-opacity:1;fill-rule:nonzero;stroke:none" transform="matrix(1.33333 0 0 -1.33333 -34.237 354.888)"/><path d="M310.817 237.691h3.434v-13.738h-3.434z" style="fill:#001c70;fill-opacity:1;fill-rule:nonzero;stroke:none" transform="matrix(1.33333 0 0 -1.33333 -34.237 354.888)"/><path d="M314.251 237.691h3.435v-13.738h-3.435z" style="fill:#001a67;fill-opacity:1;fill-rule:nonzero;stroke:none" transform="matrix(1.33333 0 0 -1.33333 -34.237 354.888)"/><path d="M317.686 237.691h3.435v-13.738h-3.435z" style="fill:#00175e;fill-opacity:1;fill-rule:nonzero;stroke:none" transform="matrix(1.33333 0 0 -1.33333 -34.237 354.888)"/><path d="M321.12 237.691h3.435v-13.738h-3.435z" style="fill:#001554;fill-opacity:1;fill-rule:nonzero;stroke:none" transform="matrix(1.33333 0 0 -1.33333 -34.237 354.888)"/><path d="M324.555 237.691h3.436v-13.738h-3.436z" style="fill:#00134b;fill-opacity:1;fill-rule:nonzero;stroke:none" transform="matrix(1.33333 0 0 -1.33333 -34.237 354.888)"/><path d="M327.99 237.691h3.434v-13.738h-3.434z" style="fill:#001142;fill-opacity:1;fill-rule:nonzero;stroke:none" transform="matrix(1.33333 0 0 -1.33333 -34.237 354.888)"/><path d="M331.424 237.691h3.435v-13.738h-3.435z" style="fill:#000e39;fill-opacity:1;fill-rule:nonzero;stroke:none" transform="matrix(1.33333 0 0 -1.33333 -34.237 354.888)"/><path d="M334.858 237.691h3.435v-13.738h-3.435z" style="fill:#000c30;fill-opacity:1;fill-rule:nonzero;stroke:none" transform="matrix(1.33333 0 0 -1.33333 -34.237 354.888)"/><path d="M338.293 237.691h3.435v-13.738h-3.435z" style="fill:#000a26;fill-opacity:1;fill-rule:nonzero;stroke:none" transform="matrix(1.33333 0 0 -1.33333 -34.237 354.888)"/><path d="M341.728 237.691h3.435v-13.738h-3.435z" style="fill:#00071d;fill-opacity:1;fill-rule:nonzero;stroke:none" transform="matrix(1.33333 0 0 -1.33333 -34.237 354.888)"/><g clip-path="url(#a)" transform="matrix(1.33333 0 0 -1.33333 -44.237 334.575)"><text style="font-variant:normal;font-weight:400;font-stretch:normal;font-size:9.61670017px;font-family:Arial;-inkscape-font-specification:ArialMT;writing-mode:lr-tb;fill:#000;fill-opacity:1;fill-rule:nonzero;stroke:none" transform="matrix(1 0 0 -1 205.107 212.277)"><tspan y="0" x="0">0</tspan></text></g><g clip-path="url(#b)" transform="matrix(1.33333 0 0 -1.33333 -22.237 334.575)"><text style="font-variant:normal;font-weight:400;font-stretch:normal;font-size:9.61670017px;font-family:Arial;-inkscape-font-specification:ArialMT;writing-mode:lr-tb;fill:#000;fill-opacity:1;fill-rule:nonzero;stroke:none" transform="matrix(1 0 0 -1 339.815 212.277)"><tspan y="0" x="0 5.3468852">50</tspan></text></g><path style="fill:none;stroke:#000514;stroke-width:2;stroke-linecap:butt;stroke-linejoin:miter;stroke-miterlimit:4;stroke-dasharray:none;stroke-opacity:1" d="M0 0c5.691 0 10.305-4.613 10.305-10.303 0-5.691-4.614-10.304-10.305-10.304-5.69 0-10.303 4.613-10.303 10.304C-10.303-4.613-5.69 0 0 0z" transform="matrix(1.33333 0 0 -1.33333 270.423 241.885)"/><g clip-path="url(#c)" transform="matrix(1.33333 0 0 -1.33333 -34.237 344.888)"><text style="font-variant:normal;font-weight:400;font-stretch:normal;font-size:12px;font-family:Arial;-inkscape-font-specification:ArialMT;writing-mode:lr-tb;fill:#000;fill-opacity:1;fill-rule:nonzero;stroke:none" transform="matrix(1 0 0 -1 211.86 31.523)"><tspan y="0" x="0 6.5879998 9.9239998 16.596001 19.931999 26.604">≤ 0.01</tspan></text></g><path style="fill:none;stroke:#03c;stroke-width:2;stroke-linecap:butt;stroke-linejoin:miter;stroke-miterlimit:4;stroke-dasharray:none;stroke-opacity:1" d="M0 0c5.691 0 10.305-4.613 10.305-10.304 0-5.69-4.614-10.303-10.305-10.303-5.69 0-10.303 4.613-10.303 10.303C-10.303-4.613-5.69 0 0 0z" transform="matrix(1.33333 0 0 -1.33333 333.351 241.885)"/><g clip-path="url(#d)" transform="matrix(1.33333 0 0 -1.33333 -34.237 344.888)"><text style="font-variant:normal;font-weight:400;font-stretch:normal;font-size:12px;font-family:Arial;-inkscape-font-specification:ArialMT;writing-mode:lr-tb;fill:#000;fill-opacity:1;fill-rule:nonzero;stroke:none" transform="matrix(1 0 0 -1 259.055 31.523)"><tspan y="0" x="0 6.5879998 9.9239998 16.596001 19.931999 26.604">≤ 0.05</tspan></text></g><path style="fill:none;stroke:#e6ebfa;stroke-width:2;stroke-linecap:butt;stroke-linejoin:miter;stroke-miterlimit:4;stroke-dasharray:none;stroke-opacity:1" d="M0 0c5.691 0 10.305-4.613 10.305-10.304 0-5.69-4.614-10.302-10.305-10.302-5.69 0-10.303 4.612-10.303 10.302C-10.303-4.613-5.69 0 0 0z" transform="matrix(1.33333 0 0 -1.33333 396.28 241.885)"/><g clip-path="url(#e)" transform="matrix(1.33333 0 0 -1.33333 -34.237 344.888)"><text style="font-variant:normal;font-weight:400;font-stretch:normal;font-size:12px;font-family:Arial;-inkscape-font-specification:ArialMT;writing-mode:lr-tb;fill:#000;fill-opacity:1;fill-rule:nonzero;stroke:none" transform="matrix(1 0 0 -1 306.041 31.523)"><tspan y="0" x="0 7.0079999 10.344 17.016001 20.351999 27.024">&gt; 0.05</tspan></text></g><g clip-path="url(#f)" transform="matrix(1.33333 0 0 -1.33333 -34.237 322.888)"><text style="font-variant:normal;font-weight:400;font-stretch:normal;font-size:12px;font-family:Arial;-inkscape-font-specification:ArialMT;writing-mode:lr-tb;fill:#000;fill-opacity:1;fill-rule:nonzero;stroke:none" transform="matrix(1 0 0 -1 225.28 121.264)"><tspan y="0" x="0 8.6639996 15.336 18 24.672001 28.007999 30.672001 36.672001 43.344002 46.68 53.352001 60.023998 66.695999 73.367996 80.040001 86.711998 93.384003 99.384003">Relative abundance</tspan></text></g><path d="M0 0a3.434 3.434 0 1 0 .001-6.869A3.434 3.434 0 0 0 0 0" style="fill:#000;fill-opacity:1;fill-rule:nonzero;stroke:none" transform="matrix(1.33333 0 0 -1.33333 298.219 118.667)"/><path d="M0 0h30.911" style="fill:none;stroke:#000;stroke-width:2;stroke-linecap:butt;stroke-linejoin:miter;stroke-miterlimit:4;stroke-dasharray:none;stroke-opacity:1" transform="matrix(1.33333 0 0 -1.33333 307.378 123.246)"/><path d="m0 0-6.87 3.435v-6.869z" style="fill:#000;fill-opacity:1;fill-rule:nonzero;stroke:none" transform="matrix(1.33333 0 0 -1.33333 348.593 123.246)"/><path d="M0 0c5.69 0 10.304-4.613 10.304-10.305 0-5.69-4.614-10.302-10.304-10.302s-10.304 4.612-10.304 10.302C-10.304-4.613-5.69 0 0 0" style="fill:#000;fill-opacity:1;fill-rule:nonzero;stroke:none" transform="matrix(1.33333 0 0 -1.33333 366.91 109.507)"/><path style="fill:#002081;fill-opacity:1;fill-rule:nonzero;stroke:none" d="M0 0a2.745 2.745 0 1 0 .001-5.49A2.745 2.745 0 0 0 0 0" transform="matrix(1.33333 0 0 -1.33333 33.393 29.712)"/><path style="fill:none;stroke:#e6ebfa;stroke-width:2;stroke-linecap:butt;stroke-linejoin:miter;stroke-miterlimit:4;stroke-dasharray:none;stroke-opacity:1" d="M0 0a2.745 2.745 0 1 0 .001-5.49A2.745 2.745 0 0 0 0 0z" transform="matrix(1.33333 0 0 -1.33333 33.393 29.712)"/><path style="fill:#000514;fill-opacity:1;fill-rule:nonzero;stroke:none" d="M0 0a5.278 5.278 0 1 0 0-10.556A5.278 5.278 0 0 0 0 0" transform="matrix(1.33333 0 0 -1.33333 55.59 26.336)"/><path style="fill:none;stroke:#000514;stroke-width:2;stroke-linecap:butt;stroke-linejoin:miter;stroke-miterlimit:4;stroke-dasharray:none;stroke-opacity:1" d="M0 0a5.278 5.278 0 1 0 0-10.556A5.278 5.278 0 0 0 0 0z" transform="matrix(1.33333 0 0 -1.33333 55.59 26.336)"/><path style="fill:#000516;fill-opacity:1;fill-rule:nonzero;stroke:none" d="M0 0a3.875 3.875 0 1 0 0-7.75A3.875 3.875 0 0 0 0 0" transform="matrix(1.33333 0 0 -1.33333 77.788 28.207)"/><path style="fill:none;stroke:#e6ebfa;stroke-width:2;stroke-linecap:butt;stroke-linejoin:miter;stroke-miterlimit:4;stroke-dasharray:none;stroke-opacity:1" d="M0 0a3.875 3.875 0 1 0 0-7.75A3.875 3.875 0 0 0 0 0z" transform="matrix(1.33333 0 0 -1.33333 77.788 28.207)"/><path style="fill:#000514;fill-opacity:1;fill-rule:nonzero;stroke:none" d="M0 0a4.227 4.227 0 0 0 0-8.452A4.227 4.227 0 0 0 0 0" transform="matrix(1.33333 0 0 -1.33333 99.987 27.738)"/><path style="fill:none;stroke:#e6ebfa;stroke-width:2;stroke-linecap:butt;stroke-linejoin:miter;stroke-miterlimit:4;stroke-dasharray:none;stroke-opacity:1" d="M0 0a4.227 4.227 0 0 0 0-8.452A4.227 4.227 0 0 0 0 0z" transform="matrix(1.33333 0 0 -1.33333 99.987 27.738)"/><path style="fill:#000514;fill-opacity:1;fill-rule:nonzero;stroke:none" d="M0 0a5.549 5.549 0 1 0 0-11.098A5.55 5.55 0 0 0 0 0" transform="matrix(1.33333 0 0 -1.33333 122.185 25.974)"/><path style="fill:none;stroke:#000514;stroke-width:2;stroke-linecap:butt;stroke-linejoin:miter;stroke-miterlimit:4;stroke-dasharray:none;stroke-opacity:1" d="M0 0a5.549 5.549 0 1 0 0-11.098A5.55 5.55 0 0 0 0 0z" transform="matrix(1.33333 0 0 -1.33333 122.185 25.974)"/><path style="fill:#00289e;fill-opacity:1;fill-rule:nonzero;stroke:none" d="M0 0a2.434 2.434 0 1 0 0-4.867A2.434 2.434 0 0 0 0 0" transform="matrix(1.33333 0 0 -1.33333 144.383 30.128)"/><path style="fill:none;stroke:#e6ebfa;stroke-width:2;stroke-linecap:butt;stroke-linejoin:miter;stroke-miterlimit:4;stroke-dasharray:none;stroke-opacity:1" d="M0 0a2.434 2.434 0 1 0 0-4.867A2.434 2.434 0 0 0 0 0z" transform="matrix(1.33333 0 0 -1.33333 144.383 30.128)"/><path style="fill:#001142;fill-opacity:1;fill-rule:nonzero;stroke:none" d="M0 0a3.409 3.409 0 1 0-.002-6.818A3.409 3.409 0 0 0 0 0" transform="matrix(1.33333 0 0 -1.33333 166.582 28.829)"/><path style="fill:none;stroke:#e6ebfa;stroke-width:2;stroke-linecap:butt;stroke-linejoin:miter;stroke-miterlimit:4;stroke-dasharray:none;stroke-opacity:1" d="M0 0a3.409 3.409 0 1 0-.002-6.818A3.409 3.409 0 0 0 0 0z" transform="matrix(1.33333 0 0 -1.33333 166.582 28.829)"/><path style="fill:#000514;fill-opacity:1;fill-rule:nonzero;stroke:none" d="M0 0a5.549 5.549 0 1 0 0-11.098A5.55 5.55 0 0 0 0 0" transform="matrix(1.33333 0 0 -1.33333 122.185 48.172)"/><path style="fill:none;stroke:#000514;stroke-width:2;stroke-linecap:butt;stroke-linejoin:miter;stroke-miterlimit:4;stroke-dasharray:none;stroke-opacity:1" d="M0 0a5.549 5.549 0 1 0 0-11.098A5.55 5.55 0 0 0 0 0z" transform="matrix(1.33333 0 0 -1.33333 122.185 48.172)"/><path style="fill:#000514;fill-opacity:1;fill-rule:nonzero;stroke:none" d="M0 0a3.481 3.481 0 0 0 0-6.96A3.48 3.48 0 1 0 0 0" transform="matrix(1.33333 0 0 -1.33333 144.383 50.931)"/><path style="fill:none;stroke:#000514;stroke-width:2;stroke-linecap:butt;stroke-linejoin:miter;stroke-miterlimit:4;stroke-dasharray:none;stroke-opacity:1" d="M0 0a3.481 3.481 0 0 0 0-6.96A3.48 3.48 0 1 0 0 0z" transform="matrix(1.33333 0 0 -1.33333 144.383 50.931)"/><path style="fill:#355dd7;fill-opacity:1;fill-rule:nonzero;stroke:none" d="M0 0a.686.686 0 1 0 0-1.373A.686.686 0 0 0 0 0" transform="matrix(1.33333 0 0 -1.33333 166.582 54.656)"/><path style="fill:none;stroke:#000514;stroke-width:2;stroke-linecap:butt;stroke-linejoin:miter;stroke-miterlimit:4;stroke-dasharray:none;stroke-opacity:1" d="M0 0a.686.686 0 1 0 0-1.373A.686.686 0 0 0 0 0z" transform="matrix(1.33333 0 0 -1.33333 166.582 54.656)"/><path style="fill:#d6def7;fill-opacity:1;fill-rule:nonzero;stroke:none" d="M0 0a.087.087 0 1 0 .001-.175A.087.087 0 0 0 0 0" transform="matrix(1.33333 0 0 -1.33333 77.788 77.652)"/><path style="fill:none;stroke:#e6ebfa;stroke-width:2;stroke-linecap:butt;stroke-linejoin:miter;stroke-miterlimit:4;stroke-dasharray:none;stroke-opacity:1" d="M0 0a.087.087 0 1 0 .001-.175A.087.087 0 0 0 0 0z" transform="matrix(1.33333 0 0 -1.33333 77.788 77.652)"/><path style="fill:#dfe5f9;fill-opacity:1;fill-rule:nonzero;stroke:none" d="M0 0a.043.043 0 0 0 .042-.042A.043.043 0 0 0 0-.083a.042.042 0 0 0-.042.041C-.042-.019-.023 0 0 0" transform="matrix(1.33333 0 0 -1.33333 99.987 77.714)"/><path style="fill:none;stroke:#e6ebfa;stroke-width:2;stroke-linecap:butt;stroke-linejoin:miter;stroke-miterlimit:4;stroke-dasharray:none;stroke-opacity:1" d="M0 0a.043.043 0 0 0 .042-.042A.043.043 0 0 0 0-.083a.042.042 0 0 0-.042.041C-.042-.019-.023 0 0 0z" transform="matrix(1.33333 0 0 -1.33333 99.987 77.714)"/><path style="fill:#000514;fill-opacity:1;fill-rule:nonzero;stroke:none" d="M0 0a5.549 5.549 0 1 0 0-11.098A5.55 5.55 0 0 0 0 0" transform="matrix(1.33333 0 0 -1.33333 122.185 70.37)"/><path style="fill:none;stroke:#000514;stroke-width:2;stroke-linecap:butt;stroke-linejoin:miter;stroke-miterlimit:4;stroke-dasharray:none;stroke-opacity:1" d="M0 0a5.549 5.549 0 1 0 0-11.098A5.55 5.55 0 0 0 0 0z" transform="matrix(1.33333 0 0 -1.33333 122.185 70.37)"/><path style="fill:#000514;fill-opacity:1;fill-rule:nonzero;stroke:none" d="M0 0a3.147 3.147 0 1 0-.001-6.293A3.147 3.147 0 0 0 0 0" transform="matrix(1.33333 0 0 -1.33333 144.383 73.574)"/><path style="fill:none;stroke:#000514;stroke-width:2;stroke-linecap:butt;stroke-linejoin:miter;stroke-miterlimit:4;stroke-dasharray:none;stroke-opacity:1" d="M0 0a3.147 3.147 0 1 0-.001-6.293A3.147 3.147 0 0 0 0 0z" transform="matrix(1.33333 0 0 -1.33333 144.383 73.574)"/><path style="fill:#b1c1ef;fill-opacity:1;fill-rule:nonzero;stroke:none" d="M0 0a.275.275 0 1 0-.001-.55A.275.275 0 0 0 0 0" transform="matrix(1.33333 0 0 -1.33333 166.582 77.403)"/><path style="fill:none;stroke:#e6ebfa;stroke-width:2;stroke-linecap:butt;stroke-linejoin:miter;stroke-miterlimit:4;stroke-dasharray:none;stroke-opacity:1" d="M0 0a.275.275 0 1 0-.001-.55A.275.275 0 0 0 0 0z" transform="matrix(1.33333 0 0 -1.33333 166.582 77.403)"/><path style="fill:#000514;fill-opacity:1;fill-rule:nonzero;stroke:none" d="M0 0a2.256 2.256 0 1 0 0-4.511A2.256 2.256 0 0 0 0 0" transform="matrix(1.33333 0 0 -1.33333 77.788 96.96)"/><path style="fill:none;stroke:#000514;stroke-width:2;stroke-linecap:butt;stroke-linejoin:miter;stroke-miterlimit:4;stroke-dasharray:none;stroke-opacity:1" d="M0 0a2.256 2.256 0 1 0 0-4.511A2.256 2.256 0 0 0 0 0z" transform="matrix(1.33333 0 0 -1.33333 77.788 96.96)"/><path style="fill:#000514;fill-opacity:1;fill-rule:nonzero;stroke:none" d="M0 0a5.166 5.166 0 1 0 0-10.333A5.166 5.166 0 0 0 0 0" transform="matrix(1.33333 0 0 -1.33333 99.987 93.08)"/><path style="fill:none;stroke:#000514;stroke-width:2;stroke-linecap:butt;stroke-linejoin:miter;stroke-miterlimit:4;stroke-dasharray:none;stroke-opacity:1" d="M0 0a5.166 5.166 0 1 0 0-10.333A5.166 5.166 0 0 0 0 0z" transform="matrix(1.33333 0 0 -1.33333 99.987 93.08)"/><path style="fill:#000514;fill-opacity:1;fill-rule:nonzero;stroke:none" d="M0 0a5.279 5.279 0 1 0 0-10.558A5.279 5.279 0 0 0 0 0" transform="matrix(1.33333 0 0 -1.33333 122.185 92.929)"/><path style="fill:none;stroke:#000514;stroke-width:2;stroke-linecap:butt;stroke-linejoin:miter;stroke-miterlimit:4;stroke-dasharray:none;stroke-opacity:1" d="M0 0a5.279 5.279 0 1 0 0-10.558A5.279 5.279 0 0 0 0 0z" transform="matrix(1.33333 0 0 -1.33333 122.185 92.929)"/><path style="fill:#000514;fill-opacity:1;fill-rule:nonzero;stroke:none" d="M0 0a4.873 4.873 0 1 0 0-9.746A4.873 4.873 0 0 0 0 0" transform="matrix(1.33333 0 0 -1.33333 144.383 93.47)"/><path style="fill:none;stroke:#000514;stroke-width:2;stroke-linecap:butt;stroke-linejoin:miter;stroke-miterlimit:4;stroke-dasharray:none;stroke-opacity:1" d="M0 0a4.873 4.873 0 1 0 0-9.746A4.873 4.873 0 0 0 0 0z" transform="matrix(1.33333 0 0 -1.33333 144.383 93.47)"/><path style="fill:#000514;fill-opacity:1;fill-rule:nonzero;stroke:none" d="M0 0a5.55 5.55 0 1 0-.002-11.1A5.55 5.55 0 0 0 0 0" transform="matrix(1.33333 0 0 -1.33333 166.582 92.568)"/><path style="fill:none;stroke:#000514;stroke-width:2;stroke-linecap:butt;stroke-linejoin:miter;stroke-miterlimit:4;stroke-dasharray:none;stroke-opacity:1" d="M0 0a5.55 5.55 0 1 0-.002-11.1A5.55 5.55 0 0 0 0 0z" transform="matrix(1.33333 0 0 -1.33333 166.582 92.568)"/><path style="fill:#cfd9f5;fill-opacity:1;fill-rule:nonzero;stroke:none" d="M0 0a.184.184 0 0 0 .185-.186A.184.184 0 0 0 0-.37a.184.184 0 0 0-.185.184C-.185-.082-.103 0 0 0" transform="matrix(1.33333 0 0 -1.33333 33.393 121.918)"/><path style="fill:none;stroke:#e6ebfa;stroke-width:2;stroke-linecap:butt;stroke-linejoin:miter;stroke-miterlimit:4;stroke-dasharray:none;stroke-opacity:1" d="M0 0a.184.184 0 0 0 .185-.186A.184.184 0 0 0 0-.37a.184.184 0 0 0-.185.184C-.185-.082-.103 0 0 0z" transform="matrix(1.33333 0 0 -1.33333 33.393 121.918)"/><path style="fill:#001d76;fill-opacity:1;fill-rule:nonzero;stroke:none" d="M0 0a2.569 2.569 0 1 0 0-5.138A2.569 2.569 0 0 0 0 0" transform="matrix(1.33333 0 0 -1.33333 99.987 118.738)"/><path style="fill:none;stroke:#e6ebfa;stroke-width:2;stroke-linecap:butt;stroke-linejoin:miter;stroke-miterlimit:4;stroke-dasharray:none;stroke-opacity:1" d="M0 0a2.569 2.569 0 1 0 0-5.138A2.569 2.569 0 0 0 0 0z" transform="matrix(1.33333 0 0 -1.33333 99.987 118.738)"/><path style="fill:#001146;fill-opacity:1;fill-rule:nonzero;stroke:none" d="M0 0a3.026 3.026 0 1 0 0-6.053A3.026 3.026 0 0 0 0 0" transform="matrix(1.33333 0 0 -1.33333 122.185 118.13)"/><path style="fill:none;stroke:#e6ebfa;stroke-width:2;stroke-linecap:butt;stroke-linejoin:miter;stroke-miterlimit:4;stroke-dasharray:none;stroke-opacity:1" d="M0 0a3.026 3.026 0 1 0 0-6.053A3.026 3.026 0 0 0 0 0z" transform="matrix(1.33333 0 0 -1.33333 122.185 118.13)"/><path style="fill:#000514;fill-opacity:1;fill-rule:nonzero;stroke:none" d="M0 0a3.797 3.797 0 1 0-.001-7.593A3.797 3.797 0 0 0 0 0" transform="matrix(1.33333 0 0 -1.33333 144.383 117.104)"/><path style="fill:none;stroke:#e6ebfa;stroke-width:2;stroke-linecap:butt;stroke-linejoin:miter;stroke-miterlimit:4;stroke-dasharray:none;stroke-opacity:1" d="M0 0a3.797 3.797 0 1 0-.001-7.593A3.797 3.797 0 0 0 0 0z" transform="matrix(1.33333 0 0 -1.33333 144.383 117.104)"/><path style="fill:#000514;fill-opacity:1;fill-rule:nonzero;stroke:none" d="M0 0a5.549 5.549 0 0 0 5.548-5.55A5.549 5.549 0 1 0 0 0" transform="matrix(1.33333 0 0 -1.33333 166.582 114.766)"/><path style="fill:none;stroke:#e6ebfa;stroke-width:2;stroke-linecap:butt;stroke-linejoin:miter;stroke-miterlimit:4;stroke-dasharray:none;stroke-opacity:1" d="M0 0a5.549 5.549 0 0 0 5.548-5.55A5.549 5.549 0 1 0 0 0z" transform="matrix(1.33333 0 0 -1.33333 166.582 114.766)"/><path style="fill:#bfccf2;fill-opacity:1;fill-rule:nonzero;stroke:none" d="M0 0a1.402 1.402 0 1 0-.002-2.804A1.402 1.402 0 0 0 0 0" transform="matrix(1.33333 0 0 -1.33333 33.393 142.494)"/><path style="fill:none;stroke:#e6ebfa;stroke-width:2;stroke-linecap:butt;stroke-linejoin:miter;stroke-miterlimit:4;stroke-dasharray:none;stroke-opacity:1" d="M0 0a1.402 1.402 0 1 0-.002-2.804A1.402 1.402 0 0 0 0 0z" transform="matrix(1.33333 0 0 -1.33333 33.393 142.494)"/><path style="fill:#d6def7;fill-opacity:1;fill-rule:nonzero;stroke:none" d="M0 0a.605.605 0 0 0 0-1.207A.603.603 0 0 0 0 0" transform="matrix(1.33333 0 0 -1.33333 77.788 143.559)"/><path style="fill:none;stroke:#e6ebfa;stroke-width:2;stroke-linecap:butt;stroke-linejoin:miter;stroke-miterlimit:4;stroke-dasharray:none;stroke-opacity:1" d="M0 0a.605.605 0 0 0 0-1.207A.603.603 0 0 0 0 0z" transform="matrix(1.33333 0 0 -1.33333 77.788 143.559)"/><path style="fill:#718de3;fill-opacity:1;fill-rule:nonzero;stroke:none" d="M0 0a4.114 4.114 0 1 0-.001-8.227A4.114 4.114 0 0 0 0 0" transform="matrix(1.33333 0 0 -1.33333 99.987 138.88)"/><path style="fill:none;stroke:#e6ebfa;stroke-width:2;stroke-linecap:butt;stroke-linejoin:miter;stroke-miterlimit:4;stroke-dasharray:none;stroke-opacity:1" d="M0 0a4.114 4.114 0 1 0-.001-8.227A4.114 4.114 0 0 0 0 0z" transform="matrix(1.33333 0 0 -1.33333 99.987 138.88)"/><path style="fill:#6886e1;fill-opacity:1;fill-rule:nonzero;stroke:none" d="M0 0a4.43 4.43 0 0 0 4.432-4.432A4.43 4.43 0 0 0 0-8.863 4.43 4.43 0 1 0 0 0" transform="matrix(1.33333 0 0 -1.33333 122.185 138.455)"/><path style="fill:none;stroke:#e6ebfa;stroke-width:2;stroke-linecap:butt;stroke-linejoin:miter;stroke-miterlimit:4;stroke-dasharray:none;stroke-opacity:1" d="M0 0a4.43 4.43 0 0 0 4.432-4.432A4.43 4.43 0 0 0 0-8.863 4.43 4.43 0 1 0 0 0z" transform="matrix(1.33333 0 0 -1.33333 122.185 138.455)"/><path style="fill:#57d;fill-opacity:1;fill-rule:nonzero;stroke:none" d="M0 0a5.072 5.072 0 1 0-.002-10.144A5.072 5.072 0 0 0 0 0" transform="matrix(1.33333 0 0 -1.33333 144.383 137.602)"/><path style="fill:none;stroke:#e6ebfa;stroke-width:2;stroke-linecap:butt;stroke-linejoin:miter;stroke-miterlimit:4;stroke-dasharray:none;stroke-opacity:1" d="M0 0a5.072 5.072 0 1 0-.002-10.144A5.072 5.072 0 0 0 0 0z" transform="matrix(1.33333 0 0 -1.33333 144.383 137.602)"/><path style="fill:#476cda;fill-opacity:1;fill-rule:nonzero;stroke:none" d="M0 0a5.548 5.548 0 0 0 5.548-5.549A5.547 5.547 0 0 0 0-11.097 5.548 5.548 0 1 0 0 0" transform="matrix(1.33333 0 0 -1.33333 166.582 136.965)"/><path style="fill:none;stroke:#03c;stroke-width:2;stroke-linecap:butt;stroke-linejoin:miter;stroke-miterlimit:4;stroke-dasharray:none;stroke-opacity:1" d="M0 0a5.548 5.548 0 0 0 5.548-5.549A5.547 5.547 0 0 0 0-11.097 5.548 5.548 0 1 0 0 0z" transform="matrix(1.33333 0 0 -1.33333 166.582 136.965)"/><path style="fill:#4a6edb;fill-opacity:1;fill-rule:nonzero;stroke:none" d="M0 0a4.287 4.287 0 1 0 0-8.576A4.288 4.288 0 1 0 0 0" transform="matrix(1.33333 0 0 -1.33333 33.393 160.844)"/><path style="fill:none;stroke:#000514;stroke-width:2;stroke-linecap:butt;stroke-linejoin:miter;stroke-miterlimit:4;stroke-dasharray:none;stroke-opacity:1" d="M0 0a4.287 4.287 0 1 0 0-8.576A4.288 4.288 0 1 0 0 0z" transform="matrix(1.33333 0 0 -1.33333 33.393 160.844)"/><path style="fill:#5c7dde;fill-opacity:1;fill-rule:nonzero;stroke:none" d="M0 0a3.784 3.784 0 1 0 0-7.568A3.784 3.784 0 0 0 0 0" transform="matrix(1.33333 0 0 -1.33333 55.59 161.517)"/><path style="fill:none;stroke:#000514;stroke-width:2;stroke-linecap:butt;stroke-linejoin:miter;stroke-miterlimit:4;stroke-dasharray:none;stroke-opacity:1" d="M0 0a3.784 3.784 0 1 0 0-7.568A3.784 3.784 0 0 0 0 0z" transform="matrix(1.33333 0 0 -1.33333 55.59 161.517)"/><path style="fill:#5c7dde;fill-opacity:1;fill-rule:nonzero;stroke:none" d="M0 0a3.784 3.784 0 1 0 0-7.568A3.784 3.784 0 0 0 0 0" transform="matrix(1.33333 0 0 -1.33333 77.788 161.517)"/><path style="fill:none;stroke:#000514;stroke-width:2;stroke-linecap:butt;stroke-linejoin:miter;stroke-miterlimit:4;stroke-dasharray:none;stroke-opacity:1" d="M0 0a3.784 3.784 0 1 0 0-7.568A3.784 3.784 0 0 0 0 0z" transform="matrix(1.33333 0 0 -1.33333 77.788 161.517)"/><path style="fill:#1c49d2;fill-opacity:1;fill-rule:nonzero;stroke:none" d="M0 0a5.548 5.548 0 1 0 0-11.098A5.55 5.55 0 0 0 0 0" transform="matrix(1.33333 0 0 -1.33333 99.987 159.163)"/><path style="fill:none;stroke:#000514;stroke-width:2;stroke-linecap:butt;stroke-linejoin:miter;stroke-miterlimit:4;stroke-dasharray:none;stroke-opacity:1" d="M0 0a5.548 5.548 0 1 0 0-11.098A5.55 5.55 0 0 0 0 0z" transform="matrix(1.33333 0 0 -1.33333 99.987 159.163)"/><path style="fill:#456ada;fill-opacity:1;fill-rule:nonzero;stroke:none" d="M0 0a4.414 4.414 0 1 0 0-8.828A4.414 4.414 0 0 0 0 0" transform="matrix(1.33333 0 0 -1.33333 122.185 160.676)"/><path style="fill:none;stroke:#000514;stroke-width:2;stroke-linecap:butt;stroke-linejoin:miter;stroke-miterlimit:4;stroke-dasharray:none;stroke-opacity:1" d="M0 0a4.414 4.414 0 1 0 0-8.828A4.414 4.414 0 0 0 0 0z" transform="matrix(1.33333 0 0 -1.33333 122.185 160.676)"/><path style="fill:#2954d4;fill-opacity:1;fill-rule:nonzero;stroke:none" d="M0 0a5.172 5.172 0 1 0-.002-10.344A5.172 5.172 0 0 0 0 0" transform="matrix(1.33333 0 0 -1.33333 144.383 159.667)"/><path style="fill:none;stroke:#000514;stroke-width:2;stroke-linecap:butt;stroke-linejoin:miter;stroke-miterlimit:4;stroke-dasharray:none;stroke-opacity:1" d="M0 0a5.172 5.172 0 1 0-.002-10.344A5.172 5.172 0 0 0 0 0z" transform="matrix(1.33333 0 0 -1.33333 144.383 159.667)"/><path style="fill:#204dd2;fill-opacity:1;fill-rule:nonzero;stroke:none" d="M0 0a5.425 5.425 0 1 0-.002-10.846A5.425 5.425 0 0 0 0 0" transform="matrix(1.33333 0 0 -1.33333 166.582 159.328)"/><path style="fill:none;stroke:#000514;stroke-width:2;stroke-linecap:butt;stroke-linejoin:miter;stroke-miterlimit:4;stroke-dasharray:none;stroke-opacity:1" d="M0 0a5.425 5.425 0 1 0-.002-10.846A5.425 5.425 0 0 0 0 0z" transform="matrix(1.33333 0 0 -1.33333 166.582 159.328)"/><path style="fill:#000514;fill-opacity:1;fill-rule:nonzero;stroke:none" d="M0 0a5.142 5.142 0 1 0 0-10.284A5.142 5.142 0 1 0 0 0" transform="matrix(1.33333 0 0 -1.33333 33.393 181.902)"/><path style="fill:none;stroke:#000514;stroke-width:2;stroke-linecap:butt;stroke-linejoin:miter;stroke-miterlimit:4;stroke-dasharray:none;stroke-opacity:1" d="M0 0a5.142 5.142 0 1 0 0-10.284A5.142 5.142 0 1 0 0 0z" transform="matrix(1.33333 0 0 -1.33333 33.393 181.902)"/><path style="fill:#000514;fill-opacity:1;fill-rule:nonzero;stroke:none" d="M0 0a5.55 5.55 0 1 0-.001-11.1A5.55 5.55 0 0 0 0 0" transform="matrix(1.33333 0 0 -1.33333 55.59 181.36)"/><path style="fill:none;stroke:#000514;stroke-width:2;stroke-linecap:butt;stroke-linejoin:miter;stroke-miterlimit:4;stroke-dasharray:none;stroke-opacity:1" d="M0 0a5.55 5.55 0 1 0-.001-11.1A5.55 5.55 0 0 0 0 0z" transform="matrix(1.33333 0 0 -1.33333 55.59 181.36)"/><path style="fill:#a8b9ee;fill-opacity:1;fill-rule:nonzero;stroke:none" d="M0 0a.245.245 0 1 0 .001-.491A.245.245 0 0 0 0 0" transform="matrix(1.33333 0 0 -1.33333 77.788 188.431)"/><path style="fill:none;stroke:#e6ebfa;stroke-width:2;stroke-linecap:butt;stroke-linejoin:miter;stroke-miterlimit:4;stroke-dasharray:none;stroke-opacity:1" d="M0 0a.245.245 0 1 0 .001-.491A.245.245 0 0 0 0 0z" transform="matrix(1.33333 0 0 -1.33333 77.788 188.431)"/><path style="fill:#1242d0;fill-opacity:1;fill-rule:nonzero;stroke:none" d="M0 0a.812.812 0 1 0-.001-1.623A.812.812 0 0 0 0 0" transform="matrix(1.33333 0 0 -1.33333 99.987 187.677)"/><path style="fill:none;stroke:#e6ebfa;stroke-width:2;stroke-linecap:butt;stroke-linejoin:miter;stroke-miterlimit:4;stroke-dasharray:none;stroke-opacity:1" d="M0 0a.812.812 0 1 0-.001-1.623A.812.812 0 0 0 0 0z" transform="matrix(1.33333 0 0 -1.33333 99.987 187.677)"/><path style="fill:#000b2e;fill-opacity:1;fill-rule:nonzero;stroke:none" d="M0 0a1.641 1.641 0 1 0 0-3.284A1.642 1.642 0 1 0 0 0" transform="matrix(1.33333 0 0 -1.33333 122.185 186.57)"/><path style="fill:none;stroke:#e6ebfa;stroke-width:2;stroke-linecap:butt;stroke-linejoin:miter;stroke-miterlimit:4;stroke-dasharray:none;stroke-opacity:1" d="M0 0a1.641 1.641 0 1 0 0-3.284A1.642 1.642 0 1 0 0 0z" transform="matrix(1.33333 0 0 -1.33333 122.185 186.57)"/><path style="fill:#000514;fill-opacity:1;fill-rule:nonzero;stroke:none" d="M0 0a2.827 2.827 0 1 0-.001-5.653A2.827 2.827 0 0 0 0 0" transform="matrix(1.33333 0 0 -1.33333 166.582 184.99)"/><path style="fill:none;stroke:#000514;stroke-width:2;stroke-linecap:butt;stroke-linejoin:miter;stroke-miterlimit:4;stroke-dasharray:none;stroke-opacity:1" d="M0 0a2.827 2.827 0 1 0-.001-5.653A2.827 2.827 0 0 0 0 0z" transform="matrix(1.33333 0 0 -1.33333 166.582 184.99)"/><path style="fill:#000514;fill-opacity:1;fill-rule:nonzero;stroke:none" d="M0 0a1.42 1.42 0 1 0 0-2.842A1.422 1.422 0 0 0 0 0" transform="matrix(1.33333 0 0 -1.33333 33.393 209.064)"/><path style="fill:none;stroke:#e6ebfa;stroke-width:2;stroke-linecap:butt;stroke-linejoin:miter;stroke-miterlimit:4;stroke-dasharray:none;stroke-opacity:1" d="M0 0a1.42 1.42 0 1 0 0-2.842A1.422 1.422 0 0 0 0 0z" transform="matrix(1.33333 0 0 -1.33333 33.393 209.064)"/><path style="fill:#000514;fill-opacity:1;fill-rule:nonzero;stroke:none" d="M0 0a1.652 1.652 0 1 0 0-3.305A1.652 1.652 0 0 0 0 0" transform="matrix(1.33333 0 0 -1.33333 55.59 208.755)"/><path style="fill:none;stroke:#e6ebfa;stroke-width:2;stroke-linecap:butt;stroke-linejoin:miter;stroke-miterlimit:4;stroke-dasharray:none;stroke-opacity:1" d="M0 0a1.652 1.652 0 1 0 0-3.305A1.652 1.652 0 0 0 0 0z" transform="matrix(1.33333 0 0 -1.33333 55.59 208.755)"/><path style="fill:#000514;fill-opacity:1;fill-rule:nonzero;stroke:none" d="M0 0a5.548 5.548 0 1 0 0-11.098A5.55 5.55 0 0 0 0 0" transform="matrix(1.33333 0 0 -1.33333 77.788 203.56)"/><path style="fill:none;stroke:#000514;stroke-width:2;stroke-linecap:butt;stroke-linejoin:miter;stroke-miterlimit:4;stroke-dasharray:none;stroke-opacity:1" d="M0 0a5.548 5.548 0 1 0 0-11.098A5.55 5.55 0 0 0 0 0z" transform="matrix(1.33333 0 0 -1.33333 77.788 203.56)"/><path style="fill:#000514;fill-opacity:1;fill-rule:nonzero;stroke:none" d="M0 0a2.506 2.506 0 0 0 2.507-2.507A2.506 2.506 0 0 0 0-5.014a2.506 2.506 0 0 0-2.507 2.507A2.506 2.506 0 0 0 0 0" transform="matrix(1.33333 0 0 -1.33333 99.987 207.615)"/><path style="fill:none;stroke:#e6ebfa;stroke-width:2;stroke-linecap:butt;stroke-linejoin:miter;stroke-miterlimit:4;stroke-dasharray:none;stroke-opacity:1" d="M0 0a2.506 2.506 0 0 0 2.507-2.507A2.506 2.506 0 0 0 0-5.014a2.506 2.506 0 0 0-2.507 2.507A2.506 2.506 0 0 0 0 0z" transform="matrix(1.33333 0 0 -1.33333 99.987 207.615)"/><path style="fill:#a8b9ee;fill-opacity:1;fill-rule:nonzero;stroke:none" d="M0 0a.185.185 0 1 0 0-.371A.185.185 0 1 0 0 0" transform="matrix(1.33333 0 0 -1.33333 122.185 210.711)"/><path style="fill:none;stroke:#e6ebfa;stroke-width:2;stroke-linecap:butt;stroke-linejoin:miter;stroke-miterlimit:4;stroke-dasharray:none;stroke-opacity:1" d="M0 0a.185.185 0 1 0 0-.371A.185.185 0 1 0 0 0z" transform="matrix(1.33333 0 0 -1.33333 122.185 210.711)"/><path style="fill:#001963;fill-opacity:1;fill-rule:nonzero;stroke:none" d="M0 0a2.282 2.282 0 1 0 0-4.563A2.282 2.282 0 0 0 0 0" transform="matrix(1.33333 0 0 -1.33333 33.393 230.115)"/><path style="fill:none;stroke:#03c;stroke-width:2;stroke-linecap:butt;stroke-linejoin:miter;stroke-miterlimit:4;stroke-dasharray:none;stroke-opacity:1" d="M0 0a2.282 2.282 0 1 0 0-4.563A2.282 2.282 0 0 0 0 0z" transform="matrix(1.33333 0 0 -1.33333 33.393 230.115)"/><path style="fill:#000514;fill-opacity:1;fill-rule:nonzero;stroke:none" d="M0 0a5.55 5.55 0 1 0 0-11.1A5.55 5.55 0 0 0 0 0" transform="matrix(1.33333 0 0 -1.33333 55.59 225.757)"/><path style="fill:none;stroke:#000514;stroke-width:2;stroke-linecap:butt;stroke-linejoin:miter;stroke-miterlimit:4;stroke-dasharray:none;stroke-opacity:1" d="M0 0a5.55 5.55 0 1 0 0-11.1A5.55 5.55 0 0 0 0 0z" transform="matrix(1.33333 0 0 -1.33333 55.59 225.757)"/><path style="fill:#1242d0;fill-opacity:1;fill-rule:nonzero;stroke:none" d="M0 0a1.349 1.349 0 1 0 0-2.698A1.349 1.349 0 0 0 0 0" transform="matrix(1.33333 0 0 -1.33333 77.788 231.36)"/><path style="fill:none;stroke:#e6ebfa;stroke-width:2;stroke-linecap:butt;stroke-linejoin:miter;stroke-miterlimit:4;stroke-dasharray:none;stroke-opacity:1" d="M0 0a1.349 1.349 0 1 0 0-2.698A1.349 1.349 0 0 0 0 0z" transform="matrix(1.33333 0 0 -1.33333 77.788 231.36)"/><path style="fill:#819ae6;fill-opacity:1;fill-rule:nonzero;stroke:none" d="M0 0a.649.649 0 1 0-.001-1.297A.649.649 0 0 0 0 0" transform="matrix(1.33333 0 0 -1.33333 99.987 232.29)"/><path style="fill:none;stroke:#e6ebfa;stroke-width:2;stroke-linecap:butt;stroke-linejoin:miter;stroke-miterlimit:4;stroke-dasharray:none;stroke-opacity:1" d="M0 0a.649.649 0 1 0-.001-1.297A.649.649 0 0 0 0 0z" transform="matrix(1.33333 0 0 -1.33333 99.987 232.29)"/><path style="fill:#cfd9f5;fill-opacity:1;fill-rule:nonzero;stroke:none" d="M0 0a.153.153 0 1 0 0-.306A.153.153 0 0 0 0 0" transform="matrix(1.33333 0 0 -1.33333 122.185 232.952)"/><path style="fill:none;stroke:#e6ebfa;stroke-width:2;stroke-linecap:butt;stroke-linejoin:miter;stroke-miterlimit:4;stroke-dasharray:none;stroke-opacity:1" d="M0 0a.153.153 0 1 0 0-.306A.153.153 0 0 0 0 0z" transform="matrix(1.33333 0 0 -1.33333 122.185 232.952)"/><path style="fill:#0e3ecf;fill-opacity:1;fill-rule:nonzero;stroke:none" d="M0 0a2.892 2.892 0 1 0 0-5.783A2.892 2.892 0 0 0 0 0" transform="matrix(1.33333 0 0 -1.33333 33.393 251.499)"/><path style="fill:none;stroke:#e6ebfa;stroke-width:2;stroke-linecap:butt;stroke-linejoin:miter;stroke-miterlimit:4;stroke-dasharray:none;stroke-opacity:1" d="M0 0a2.892 2.892 0 1 0 0-5.783A2.892 2.892 0 0 0 0 0z" transform="matrix(1.33333 0 0 -1.33333 33.393 251.499)"/><path style="fill:#5a7bde;fill-opacity:1;fill-rule:nonzero;stroke:none" d="M0 0a1.903 1.903 0 1 0-.001-3.805A1.903 1.903 0 0 0 0 0" transform="matrix(1.33333 0 0 -1.33333 55.59 252.818)"/><path style="fill:none;stroke:#e6ebfa;stroke-width:2;stroke-linecap:butt;stroke-linejoin:miter;stroke-miterlimit:4;stroke-dasharray:none;stroke-opacity:1" d="M0 0a1.903 1.903 0 1 0-.001-3.805A1.903 1.903 0 0 0 0 0z" transform="matrix(1.33333 0 0 -1.33333 55.59 252.818)"/><path style="fill:#000e39;fill-opacity:1;fill-rule:nonzero;stroke:none" d="M0 0a5.549 5.549 0 1 0 0-11.097A5.549 5.549 0 0 0 0 0" transform="matrix(1.33333 0 0 -1.33333 77.788 247.955)"/><path style="fill:none;stroke:#000514;stroke-width:2;stroke-linecap:butt;stroke-linejoin:miter;stroke-miterlimit:4;stroke-dasharray:none;stroke-opacity:1" d="M0 0a5.549 5.549 0 1 0 0-11.097A5.549 5.549 0 0 0 0 0z" transform="matrix(1.33333 0 0 -1.33333 77.788 247.955)"/><path style="fill:#8ca3e8;fill-opacity:1;fill-rule:nonzero;stroke:none" d="M0 0a1.223 1.223 0 1 0 0-2.444A1.223 1.223 0 0 0 0 0" transform="matrix(1.33333 0 0 -1.33333 99.987 253.723)"/><path style="fill:none;stroke:#e6ebfa;stroke-width:2;stroke-linecap:butt;stroke-linejoin:miter;stroke-miterlimit:4;stroke-dasharray:none;stroke-opacity:1" d="M0 0a1.223 1.223 0 1 0 0-2.444A1.223 1.223 0 0 0 0 0z" transform="matrix(1.33333 0 0 -1.33333 99.987 253.723)"/><path style="fill:#d6def7;fill-opacity:1;fill-rule:nonzero;stroke:none" d="M0 0a.235.235 0 0 0 .234-.234A.236.236 0 0 0 0-.469a.236.236 0 0 0-.234.235C-.234-.105-.128 0 0 0" transform="matrix(1.33333 0 0 -1.33333 122.185 255.042)"/><path style="fill:none;stroke:#e6ebfa;stroke-width:2;stroke-linecap:butt;stroke-linejoin:miter;stroke-miterlimit:4;stroke-dasharray:none;stroke-opacity:1" d="M0 0a.235.235 0 0 0 .234-.234A.236.236 0 0 0 0-.469a.236.236 0 0 0-.234.235C-.234-.105-.128 0 0 0z" transform="matrix(1.33333 0 0 -1.33333 122.185 255.042)"/><path style="fill:#dfe5f9;fill-opacity:1;fill-rule:nonzero;stroke:none" d="M0 0c.061 0 .11-.051.11-.111A.11.11 0 0 0 0-.223.112.112 0 0 0 0 0" transform="matrix(1.33333 0 0 -1.33333 144.383 255.206)"/><path style="fill:none;stroke:#e6ebfa;stroke-width:2;stroke-linecap:butt;stroke-linejoin:miter;stroke-miterlimit:4;stroke-dasharray:none;stroke-opacity:1" d="M0 0c.061 0 .11-.051.11-.111A.11.11 0 0 0 0-.223.112.112 0 0 0 0 0z" transform="matrix(1.33333 0 0 -1.33333 144.383 255.206)"/><g><path style="fill:#5375dd;fill-opacity:1;fill-rule:nonzero;stroke:none" d="M0 0a1.78 1.78 0 1 0 0-3.559A1.78 1.78 0 0 0 0 0" transform="matrix(1.33333 0 0 -1.33333 33.393 275.18)"/></g><g><path style="fill:none;stroke:#e6ebfa;stroke-width:2;stroke-linecap:butt;stroke-linejoin:miter;stroke-miterlimit:4;stroke-dasharray:none;stroke-opacity:1" d="M0 0a1.78 1.78 0 1 0 0-3.559A1.78 1.78 0 0 0 0 0z" transform="matrix(1.33333 0 0 -1.33333 33.393 275.18)"/></g><g><path style="fill:#001f7b;fill-opacity:1;fill-rule:nonzero;stroke:none" d="M0 0a3.997 3.997 0 1 0 0-7.994A3.997 3.997 0 0 0 0 0" transform="matrix(1.33333 0 0 -1.33333 55.59 272.223)"/></g><g><path style="fill:none;stroke:#000514;stroke-width:2;stroke-linecap:butt;stroke-linejoin:miter;stroke-miterlimit:4;stroke-dasharray:none;stroke-opacity:1" d="M0 0a3.997 3.997 0 1 0 0-7.994A3.997 3.997 0 0 0 0 0z" transform="matrix(1.33333 0 0 -1.33333 55.59 272.223)"/></g><g><path style="fill:#000925;fill-opacity:1;fill-rule:nonzero;stroke:none" d="M0 0a5.273 5.273 0 1 0 0-10.546A5.273 5.273 0 0 0 0 0" transform="matrix(1.33333 0 0 -1.33333 77.788 270.522)"/></g><g><path style="fill:none;stroke:#000514;stroke-width:2;stroke-linecap:butt;stroke-linejoin:miter;stroke-miterlimit:4;stroke-dasharray:none;stroke-opacity:1" d="M0 0a5.273 5.273 0 1 0 0-10.546A5.273 5.273 0 0 0 0 0z" transform="matrix(1.33333 0 0 -1.33333 77.788 270.522)"/></g><g><path style="fill:#93a9e9;fill-opacity:1;fill-rule:nonzero;stroke:none" d="M0 0a1.003 1.003 0 1 0 0-2.007A1.003 1.003 0 0 0 0 0" transform="matrix(1.33333 0 0 -1.33333 99.987 276.215)"/></g><g><path style="fill:none;stroke:#e6ebfa;stroke-width:2;stroke-linecap:butt;stroke-linejoin:miter;stroke-miterlimit:4;stroke-dasharray:none;stroke-opacity:1" d="M0 0a1.003 1.003 0 1 0 0-2.007A1.003 1.003 0 0 0 0 0z" transform="matrix(1.33333 0 0 -1.33333 99.987 276.215)"/></g><g><path style="fill:#000514;fill-opacity:1;fill-rule:nonzero;stroke:none" d="M0 0a5.548 5.548 0 1 0 0-11.098A5.55 5.55 0 0 0 0 0" transform="matrix(1.33333 0 0 -1.33333 122.185 270.154)"/></g><g><path style="fill:none;stroke:#000514;stroke-width:2;stroke-linecap:butt;stroke-linejoin:miter;stroke-miterlimit:4;stroke-dasharray:none;stroke-opacity:1" d="M0 0a5.548 5.548 0 1 0 0-11.098A5.55 5.55 0 0 0 0 0z" transform="matrix(1.33333 0 0 -1.33333 122.185 270.154)"/></g><g><path style="fill:#e1e7f9;fill-opacity:1;fill-rule:nonzero;stroke:none" d="M0 0c.032 0 .06-.028.06-.06A.06.06 0 0 0 0-.12a.061.061 0 0 0-.061.06c0 .032.028.06.061.06" transform="matrix(1.33333 0 0 -1.33333 144.383 277.471)"/></g><g><path style="fill:none;stroke:#e6ebfa;stroke-width:2;stroke-linecap:butt;stroke-linejoin:miter;stroke-miterlimit:4;stroke-dasharray:none;stroke-opacity:1" d="M0 0c.032 0 .06-.028.06-.06A.06.06 0 0 0 0-.12a.061.061 0 0 0-.061.06c0 .032.028.06.061.06z" transform="matrix(1.33333 0 0 -1.33333 144.383 277.471)"/></g><g><path style="fill:#002aa9;fill-opacity:1;fill-rule:nonzero;stroke:none" d="M0 0a3.604 3.604 0 1 0 0-7.208A3.604 3.604 0 0 0 0 0" transform="matrix(1.33333 0 0 -1.33333 33.393 294.945)"/></g><g><path style="fill:none;stroke:#e6ebfa;stroke-width:2;stroke-linecap:butt;stroke-linejoin:miter;stroke-miterlimit:4;stroke-dasharray:none;stroke-opacity:1" d="M0 0a3.604 3.604 0 1 0 0-7.208A3.604 3.604 0 0 0 0 0z" transform="matrix(1.33333 0 0 -1.33333 33.393 294.945)"/></g><g><path style="fill:#000d33;fill-opacity:1;fill-rule:nonzero;stroke:none" d="M0 0a5.55 5.55 0 0 0 0-11.1A5.55 5.55 0 0 0 0 0" transform="matrix(1.33333 0 0 -1.33333 55.59 292.352)"/></g><g><path style="fill:none;stroke:#000514;stroke-width:2;stroke-linecap:butt;stroke-linejoin:miter;stroke-miterlimit:4;stroke-dasharray:none;stroke-opacity:1" d="M0 0a5.55 5.55 0 0 0 0-11.1A5.55 5.55 0 0 0 0 0z" transform="matrix(1.33333 0 0 -1.33333 55.59 292.352)"/></g><g><path style="fill:#b3c3f0;fill-opacity:1;fill-rule:nonzero;stroke:none" d="M0 0a.686.686 0 1 0 0-1.372A.686.686 0 0 0 0 0" transform="matrix(1.33333 0 0 -1.33333 77.788 298.836)"/></g><g><path style="fill:none;stroke:#e6ebfa;stroke-width:2;stroke-linecap:butt;stroke-linejoin:miter;stroke-miterlimit:4;stroke-dasharray:none;stroke-opacity:1" d="M0 0a.686.686 0 1 0 0-1.372A.686.686 0 0 0 0 0z" transform="matrix(1.33333 0 0 -1.33333 77.788 298.836)"/></g><g><path style="fill:#afbfef;fill-opacity:1;fill-rule:nonzero;stroke:none" d="M0 0a.746.746 0 1 0 0-1.492A.746.746 0 0 0 0 0" transform="matrix(1.33333 0 0 -1.33333 99.987 298.757)"/></g><g><path style="fill:none;stroke:#e6ebfa;stroke-width:2;stroke-linecap:butt;stroke-linejoin:miter;stroke-miterlimit:4;stroke-dasharray:none;stroke-opacity:1" d="M0 0a.746.746 0 1 0 0-1.492A.746.746 0 0 0 0 0z" transform="matrix(1.33333 0 0 -1.33333 99.987 298.757)"/></g><g><path style="fill:#9cb0eb;fill-opacity:1;fill-rule:nonzero;stroke:none" d="M0 0a.991.991 0 0 0 0-1.98A.99.99 0 0 0 0 0" transform="matrix(1.33333 0 0 -1.33333 122.185 298.43)"/></g><g><path style="fill:none;stroke:#e6ebfa;stroke-width:2;stroke-linecap:butt;stroke-linejoin:miter;stroke-miterlimit:4;stroke-dasharray:none;stroke-opacity:1" d="M0 0a.991.991 0 0 0 0-1.98A.99.99 0 0 0 0 0z" transform="matrix(1.33333 0 0 -1.33333 122.185 298.43)"/></g><g><path style="fill:#000514;fill-opacity:1;fill-rule:nonzero;stroke:none" d="M0 0a5.551 5.551 0 0 0 0-11.1A5.55 5.55 0 1 0 0 0" transform="matrix(1.33333 0 0 -1.33333 33.393 314.55)"/></g><g><path style="fill:none;stroke:#000514;stroke-width:2;stroke-linecap:butt;stroke-linejoin:miter;stroke-miterlimit:4;stroke-dasharray:none;stroke-opacity:1" d="M0 0a5.551 5.551 0 0 0 0-11.1A5.55 5.55 0 1 0 0 0z" transform="matrix(1.33333 0 0 -1.33333 33.393 314.55)"/></g><g><path style="fill:#5e7edf;fill-opacity:1;fill-rule:nonzero;stroke:none" d="M0 0a1.345 1.345 0 1 0 0-2.69A1.345 1.345 0 0 0 0 0" transform="matrix(1.33333 0 0 -1.33333 55.59 320.155)"/></g><g><path style="fill:none;stroke:#e6ebfa;stroke-width:2;stroke-linecap:butt;stroke-linejoin:miter;stroke-miterlimit:4;stroke-dasharray:none;stroke-opacity:1" d="M0 0a1.345 1.345 0 1 0 0-2.69A1.345 1.345 0 0 0 0 0z" transform="matrix(1.33333 0 0 -1.33333 55.59 320.155)"/></g><g><path style="fill:#000514;fill-opacity:1;fill-rule:nonzero;stroke:none" d="M0 0a5.184 5.184 0 1 0 0-10.368A5.184 5.184 0 0 0 0 0" transform="matrix(1.33333 0 0 -1.33333 77.788 315.037)"/></g><g><path style="fill:none;stroke:#000514;stroke-width:2;stroke-linecap:butt;stroke-linejoin:miter;stroke-miterlimit:4;stroke-dasharray:none;stroke-opacity:1" d="M0 0a5.184 5.184 0 1 0 0-10.368A5.184 5.184 0 0 0 0 0z" transform="matrix(1.33333 0 0 -1.33333 77.788 315.037)"/></g><g><path style="fill:#234fd3;fill-opacity:1;fill-rule:nonzero;stroke:none" d="M0 0a1.938 1.938 0 1 0 .002-3.876A1.938 1.938 0 0 0 0 0" transform="matrix(1.33333 0 0 -1.33333 99.987 319.365)"/></g><g><path style="fill:none;stroke:#e6ebfa;stroke-width:2;stroke-linecap:butt;stroke-linejoin:miter;stroke-miterlimit:4;stroke-dasharray:none;stroke-opacity:1" d="M0 0a1.938 1.938 0 1 0 .002-3.876A1.938 1.938 0 0 0 0 0z" transform="matrix(1.33333 0 0 -1.33333 99.987 319.365)"/></g><g><path style="fill:#bdcaf2;fill-opacity:1;fill-rule:nonzero;stroke:none" d="M0 0a.431.431 0 1 0 0-.862A.431.431 0 0 0 0 0" transform="matrix(1.33333 0 0 -1.33333 122.185 321.374)"/></g><g><path style="fill:none;stroke:#e6ebfa;stroke-width:2;stroke-linecap:butt;stroke-linejoin:miter;stroke-miterlimit:4;stroke-dasharray:none;stroke-opacity:1" d="M0 0a.431.431 0 1 0 0-.862A.431.431 0 0 0 0 0z" transform="matrix(1.33333 0 0 -1.33333 122.185 321.374)"/></g><path style="fill:none;stroke:#000;stroke-width:1;stroke-linecap:butt;stroke-linejoin:miter;stroke-miterlimit:4;stroke-dasharray:none;stroke-opacity:1" d="M42.398 249.461h116.541V16.381H42.398z" transform="matrix(1.33333 0 0 -1.33333 -34.237 354.888)"/><text y="-96.493" x="263.361" style="font-variant:normal;font-weight:400;font-stretch:normal;font-size:12px;font-family:Arial;-inkscape-font-specification:ArialMT;writing-mode:lr-tb;fill:#000;fill-opacity:1;fill-rule:nonzero;stroke:none" transform="matrix(1.33333 0 0 1.33333 -34.237 354.888)"><tspan y="-96.493" x="263.36081 270.69281 279.35681">FDR</tspan></text><text transform="matrix(1.33333 0 0 1.33333 -34.237 354.888)" y="-242.006" x="221.98" style="font-style:normal;font-variant:normal;font-weight:400;font-stretch:normal;font-size:30px;line-height:1.25;font-family:Arial;-inkscape-font-specification:Arial;letter-spacing:0;word-spacing:0;fill:#000;fill-opacity:1;stroke:none;stroke-width:.75" xml:space="preserve"><tspan style="font-style:normal;font-variant:normal;font-weight:400;font-stretch:normal;font-size:12px;font-family:Arial;-inkscape-font-specification:Arial;stroke-width:.75" y="-242.006" x="221.98">Absolute abundance</tspan></text><text transform="matrix(1.33333 0 0 1.33333 -34.237 354.888)" y="-257.471" x="72.21" style="font-style:normal;font-variant:normal;font-weight:400;font-stretch:normal;font-size:12px;line-height:1.25;font-family:Arial;-inkscape-font-specification:Arial;letter-spacing:0;word-spacing:0;fill:#000;fill-opacity:1;stroke:none;stroke-width:.75" xml:space="preserve"><tspan style="stroke-width:.75" y="-257.471" x="72.21">Conditions</tspan></text><text transform="matrix(0 -1.33333 1.33333 0 -34.237 354.888)" y="34.373" x="106.946" style="font-style:normal;font-variant:normal;font-weight:400;font-stretch:normal;font-size:12px;line-height:1.25;font-family:Arial;-inkscape-font-specification:Arial;letter-spacing:0;word-spacing:0;fill:#000;fill-opacity:1;stroke:none;stroke-width:.75" xml:space="preserve"><tspan style="stroke-width:.75" y="34.373" x="106.946">Readouts</tspan></text></svg>