<svg version="1.1" id="svg2" xmlns="http://www.w3.org/2000/svg" x="0" y="0" width="440" height="334.9" viewBox="0 0 440 334.9" style="enable-background:new 0 0 440 334.9" xml:space="preserve"><style>.st2{fill:#cfd9f5}.st11{fill:#6886e1}.st12{fill:#5c7dde}.st14{fill:#456ada}.st17{fill:#234fd3}.st25{fill:#00289e}.st35{fill:#001142}.st36{fill:#000e39}.st40,.st41,.st42{fill:none;stroke:#000514;stroke-width:2.6667;stroke-miterlimit:5.3333}.st41,.st42{stroke:#03c}.st42{stroke:#e6ebfa}.st45{fill:#000514}.st47{fill:#fff}.st49{fill:#d6def7}.st50{fill:#dfe5f9}.st62{fill:#a8b9ee}.st63{fill:#1242d0}.st83{font-family:&apos;Lato&apos;}.st84{font-size:16px}</style><g id="g4287"><path id="path12" d="M234.9 46.5h4.6v18.3h-4.6V46.5z" style="fill:#e6ebfa"/><path id="path14" d="M239.5 46.5h4.6v18.3h-4.6V46.5z" style="fill:#dbe2f8"/><path id="path16" class="st2" d="M244.1 46.5h4.6v18.3h-4.6V46.5z"/><path id="path18" d="M248.7 46.5h4.6v18.3h-4.6V46.5z" style="fill:#c4cff3"/><path id="path20" d="M253.3 46.5h4.6v18.3h-4.6V46.5z" style="fill:#b8c6f1"/><path id="path22" d="M257.8 46.5h4.6v18.3h-4.6V46.5z" style="fill:#adbdef"/><path id="path24" d="M262.4 46.5h4.6v18.3h-4.6V46.5z" style="fill:#a1b4ec"/><path id="path26" d="M267 46.5h4.6v18.3H267V46.5z" style="fill:#96abea"/><path id="path28" d="M271.6 46.5h4.6v18.3h-4.6V46.5z" style="fill:#8aa1e8"/><path id="path30" d="M276.2 46.5h4.6v18.3h-4.6V46.5z" style="fill:#7f98e5"/><path id="path32" d="M280.7 46.5h4.6v18.3h-4.6V46.5z" style="fill:#738fe3"/><path id="path34" class="st11" d="M285.3 46.5h4.6v18.3h-4.6V46.5z"/><path id="path36" class="st12" d="M289.9 46.5h4.6v18.3h-4.6V46.5z"/><path id="path38" d="M294.5 46.5h4.6v18.3h-4.6V46.5z" style="fill:#5173dc"/><path id="path40" class="st14" d="M299.1 46.5h4.6v18.3h-4.6V46.5z"/><path id="path42" d="M303.6 46.5h4.6v18.3h-4.6V46.5z" style="fill:#3a61d8"/><path id="path44" d="M308.2 46.5h4.6v18.3h-4.6V46.5z" style="fill:#2e58d5"/><path id="path46" class="st17" d="M312.8 46.5h4.6v18.3h-4.6V46.5z"/><path id="path48" d="M317.4 46.5h4.6v18.3h-4.6V46.5z" style="fill:#1745d1"/><path id="path50" d="M322 46.5h4.6v18.3H322V46.5z" style="fill:#0c3cce"/><path id="path52" d="M326.5 46.5h4.6v18.3h-4.6V46.5z" style="fill:#03c"/><path id="path54" d="M331.1 46.5h4.6v18.3h-4.6V46.5z" style="fill:#0031c3"/><path id="path56" d="M335.7 46.5h4.6v18.3h-4.6V46.5z" style="fill:#002eba"/><path id="path58" d="M340.3 46.5h4.6v18.3h-4.6V46.5z" style="fill:#002cb0"/><path id="path60" d="M344.8 46.5h4.6v18.3h-4.6V46.5z" style="fill:#002aa7"/><path id="path62" class="st25" d="M349.4 46.5h4.6v18.3h-4.6V46.5z"/><path id="path64" d="M354 46.5h4.6v18.3H354V46.5z" style="fill:#002595"/><path id="path66" d="M358.6 46.5h4.6v18.3h-4.6V46.5z" style="fill:#00238c"/><path id="path68" d="M363.2 46.5h4.6v18.3h-4.6V46.5z" style="fill:#002182"/><path id="path70" d="M367.7 46.5h4.6v18.3h-4.6V46.5z" style="fill:#001e79"/><path id="path72" d="M372.3 46.5h4.6v18.3h-4.6V46.5z" style="fill:#001c70"/><path id="path74" d="M376.9 46.5h4.6v18.3h-4.6V46.5z" style="fill:#001a67"/><path id="path76" d="M381.5 46.5h4.6v18.3h-4.6V46.5z" style="fill:#00175e"/><path id="path78" d="M386.1 46.5h4.6v18.3h-4.6V46.5z" style="fill:#001554"/><path id="path80" d="M390.6 46.5h4.6v18.3h-4.6V46.5z" style="fill:#00134b"/><path id="path82" class="st35" d="M395.2 46.5h4.6v18.3h-4.6V46.5z"/><path id="path84" class="st36" d="M399.8 46.5h4.6v18.3h-4.6V46.5z"/><path id="path86" d="M404.4 46.5h4.6v18.3h-4.6V46.5z" style="fill:#000c30"/><path id="path88" d="M409 46.5h4.6v18.3H409V46.5z" style="fill:#000a26"/><path id="path90" d="M413.5 46.5h4.6v18.3h-4.6V46.5z" style="fill:#00071d"/></g><g id="g148" transform="translate(228.495 84.752)"><path id="path150" class="st40" d="M34.1 165.3c7.6 0 13.7 6.2 13.7 13.7 0 7.6-6.2 13.7-13.7 13.7-7.6 0-13.7-6.2-13.7-13.7-.1-7.6 6.1-13.7 13.7-13.7z"/></g><g id="g168" transform="translate(275.691 84.752)"><path id="path170" class="st41" d="M49.8 165.3c7.6 0 13.7 6.2 13.7 13.7 0 7.6-6.2 13.7-13.7 13.7-7.6 0-13.7-6.2-13.7-13.7 0-7.6 6.1-13.7 13.7-13.7z"/></g><g id="g188" transform="translate(322.888 84.752)"><path id="path190" class="st42" d="M65.5 165.3c7.6 0 13.7 6.2 13.7 13.7 0 7.6-6.2 13.7-13.7 13.7-7.6 0-13.7-6.1-13.7-13.7s6.1-13.7 13.7-13.7z"/></g><g id="g208" transform="translate(253.403 171.166)"><path id="path210" d="M34.7-44.4c2.5 0 4.6 2 4.6 4.6 0 2.5-2.1 4.6-4.6 4.6-2.5 0-4.6-2-4.6-4.6.1-2.5 2.1-4.6 4.6-4.6"/></g><g id="g212" transform="translate(260.272 167.731)"><path id="path214" d="M37-36.3h41.2" style="fill:none;stroke:#000;stroke-width:2.6667;stroke-miterlimit:5.3333"/></g><g id="g216" transform="translate(291.184 167.731)"><path id="path218" d="m50.3-36.3-9.2-4.6v9.2l9.2-4.6z"/></g><g id="g236" transform="translate(304.92 178.036)"><path id="path238" d="M53.9-60.4c7.6 0 13.7 6.2 13.7 13.7 0 7.6-6.2 13.7-13.7 13.7s-13.7-6.1-13.7-13.7c0-7.5 6.1-13.7 13.7-13.7"/></g><g id="g240" transform="translate(50.722 243.882)"><path id="path242" d="M-15.2-213c2 0 3.7 1.6 3.7 3.7 0 2-1.6 3.7-3.7 3.7s-3.7-1.6-3.7-3.7 1.7-3.7 3.7-3.7" style="fill:#002081"/></g><g id="g244" transform="translate(50.722 243.882)"><path id="path246" class="st42" d="M-15.2-213c2 0 3.7 1.6 3.7 3.7 0 2-1.6 3.7-3.7 3.7s-3.7-1.6-3.7-3.7 1.7-3.7 3.7-3.7z"/></g><g id="g248" transform="translate(67.37 246.414)"><path id="path250" class="st45" d="M-9.6-218.9c3.9 0 7 3.2 7 7 0 3.9-3.2 7-7 7s-7-3.2-7-7c-.1-3.9 3.1-7 7-7"/></g><g id="g252" transform="translate(67.37 246.414)"><path id="path254" class="st40" d="M-9.6-218.9c3.9 0 7 3.2 7 7 0 3.9-3.2 7-7 7s-7-3.2-7-7c-.1-3.9 3.1-7 7-7z"/></g><g id="g256" transform="translate(84.019 245.01)"><path id="path258" d="M-4.1-215.7c2.9 0 5.2 2.3 5.2 5.2 0 2.9-2.3 5.2-5.2 5.2-2.9 0-5.2-2.3-5.2-5.2 0-2.9 2.4-5.2 5.2-5.2" style="fill:#000516"/></g><g id="g260" transform="translate(84.019 245.01)"><path id="path262" class="st42" d="M-4.1-215.7c2.9 0 5.2 2.3 5.2 5.2 0 2.9-2.3 5.2-5.2 5.2-2.9 0-5.2-2.3-5.2-5.2 0-2.9 2.4-5.2 5.2-5.2z"/></g><g id="g264" transform="translate(100.668 245.362)"><path id="path266" class="st45" d="M1.5-216.5c3.1 0 5.6 2.5 5.6 5.6 0 3.1-2.5 5.6-5.6 5.6s-5.6-2.5-5.6-5.6c-.1-3.1 2.4-5.6 5.6-5.6"/></g><g id="g268" transform="translate(100.668 245.362)"><path id="path270" class="st42" d="M1.5-216.5c3.1 0 5.6 2.5 5.6 5.6 0 3.1-2.5 5.6-5.6 5.6s-5.6-2.5-5.6-5.6c-.1-3.1 2.4-5.6 5.6-5.6z"/></g><g id="g272" transform="translate(117.316 246.685)"><path id="path274" class="st45" d="M7-219.6c4.1 0 7.4 3.3 7.4 7.4 0 4.1-3.3 7.4-7.4 7.4-4.1 0-7.4-3.3-7.4-7.4 0-4.1 3.3-7.4 7.4-7.4"/></g><g id="g276" transform="translate(117.316 246.685)"><path id="path278" class="st40" d="M7-219.6c4.1 0 7.4 3.3 7.4 7.4 0 4.1-3.3 7.4-7.4 7.4-4.1 0-7.4-3.3-7.4-7.4 0-4.1 3.3-7.4 7.4-7.4z"/></g><g id="g280" transform="translate(133.965 243.57)"><path id="path282" class="st25" d="M12.6-212.3c1.8 0 3.2 1.5 3.2 3.2 0 1.8-1.5 3.2-3.2 3.2-1.8 0-3.2-1.5-3.2-3.2-.1-1.8 1.4-3.2 3.2-3.2"/></g><g id="g284" transform="translate(133.965 243.57)"><path id="path286" class="st42" d="M12.6-212.3c1.8 0 3.2 1.5 3.2 3.2 0 1.8-1.5 3.2-3.2 3.2-1.8 0-3.2-1.5-3.2-3.2-.1-1.8 1.4-3.2 3.2-3.2z"/></g><g id="g288" transform="translate(150.614 244.544)"><path id="path290" class="st35" d="M18.1-214.6c2.5 0 4.5 2 4.5 4.5s-2 4.5-4.5 4.5-4.5-2-4.5-4.5 2-4.5 4.5-4.5"/></g><g id="g292" transform="translate(150.614 244.544)"><path id="path294" class="st42" d="M18.1-214.6c2.5 0 4.5 2 4.5 4.5s-2 4.5-4.5 4.5-4.5-2-4.5-4.5 2-4.5 4.5-4.5z"/></g><g id="g328" transform="translate(117.316 230.037)"><path id="path330" class="st45" d="M7-180.7c4.1 0 7.4 3.3 7.4 7.4s-3.3 7.4-7.4 7.4c-4.1 0-7.4-3.3-7.4-7.4s3.3-7.4 7.4-7.4"/></g><g id="g332" transform="translate(117.316 230.037)"><path id="path334" class="st40" d="M7-180.7c4.1 0 7.4 3.3 7.4 7.4s-3.3 7.4-7.4 7.4c-4.1 0-7.4-3.3-7.4-7.4s3.3-7.4 7.4-7.4z"/></g><g id="g336" transform="translate(133.965 227.968)"><path id="path338" class="st45" d="M12.6-175.9c2.6 0 4.6 2.1 4.6 4.6 0 2.6-2.1 4.6-4.6 4.6-2.6 0-4.6-2.1-4.6-4.6-.1-2.5 2-4.6 4.6-4.6"/></g><g id="g340" transform="translate(133.965 227.968)"><path id="path342" class="st40" d="M12.6-175.9c2.6 0 4.6 2.1 4.6 4.6 0 2.6-2.1 4.6-4.6 4.6-2.6 0-4.6-2.1-4.6-4.6-.1-2.5 2-4.6 4.6-4.6z"/></g><g id="g344" transform="translate(150.614 225.174)"><path id="path346" d="M18.1-169.4c.5 0 .9.4.9.9s-.4.9-.9.9-.9-.4-.9-.9.4-.9.9-.9" style="fill:#355dd7"/></g><g id="g348" transform="translate(150.614 225.174)"><path id="path350" class="st40" d="M18.1-169.4c.5 0 .9.4.9.9s-.4.9-.9.9-.9-.4-.9-.9.4-.9.9-.9z"/></g><g id="g368" transform="translate(84.019 207.927)"><path id="path370" class="st49" d="M-4.1-129.1c.1 0 .1.1.1.1 0 .1-.1.1-.1.1-.1 0-.1-.1-.1-.1 0-.1 0-.1.1-.1"/></g><g id="g372" transform="translate(84.019 207.927)"><path id="path374" class="st42" d="M-4.1-129.1c.1 0 .1.1.1.1 0 .1-.1.1-.1.1-.1 0-.1-.1-.1-.1 0-.1 0-.1.1-.1z"/></g><g id="g376" transform="translate(100.668 207.88)"><path id="path378" class="st50" d="M1.5-129c.1.1 0 .1 0 .1-.1 0-.1 0 0-.1-.1 0-.1 0 0 0"/></g><g id="g380" transform="translate(100.668 207.88)"><path id="path382" class="st42" d="M1.5-129c.1.1 0 .1 0 .1-.1 0-.1 0 0-.1-.1 0-.1 0 0 0z"/></g><g id="g384" transform="translate(117.316 213.388)"><path id="path386" class="st45" d="M7-141.9c4.1 0 7.4 3.3 7.4 7.4s-3.3 7.4-7.4 7.4c-4.1 0-7.4-3.3-7.4-7.4 0-4.1 3.3-7.4 7.4-7.4"/></g><g id="g388" transform="translate(117.316 213.388)"><path id="path390" class="st40" d="M7-141.9c4.1 0 7.4 3.3 7.4 7.4s-3.3 7.4-7.4 7.4c-4.1 0-7.4-3.3-7.4-7.4 0-4.1 3.3-7.4 7.4-7.4z"/></g><g id="g392" transform="translate(133.965 210.985)"><path id="path394" class="st45" d="M12.6-136.3c2.3 0 4.2 1.9 4.2 4.2 0 2.3-1.9 4.2-4.2 4.2s-4.2-1.9-4.2-4.2c0-2.3 1.8-4.2 4.2-4.2"/></g><g id="g396" transform="translate(133.965 210.985)"><path id="path398" class="st40" d="M12.6-136.3c2.3 0 4.2 1.9 4.2 4.2 0 2.3-1.9 4.2-4.2 4.2s-4.2-1.9-4.2-4.2c0-2.3 1.8-4.2 4.2-4.2z"/></g><g id="g400" transform="translate(150.614 208.114)"><path id="path402" d="M18.1-129.6c.2 0 .4.2.4.4s-.2.4-.4.4-.4-.2-.4-.4.2-.4.4-.4" style="fill:#b1c1ef"/></g><g id="g404" transform="translate(150.614 208.114)"><path id="path406" class="st42" d="M18.1-129.6c.2 0 .4.2.4.4s-.2.4-.4.4-.4-.2-.4-.4.2-.4.4-.4z"/></g><g id="g424" transform="translate(84.019 193.446)"><path id="path426" class="st45" d="M-4.1-95.3c1.7 0 3 1.3 3 3s-1.3 3-3 3-3-1.3-3-3 1.3-3 3-3"/></g><g id="g428" transform="translate(84.019 193.446)"><path id="path430" class="st40" d="M-4.1-95.3c1.7 0 3 1.3 3 3s-1.3 3-3 3-3-1.3-3-3 1.3-3 3-3z"/></g><g id="g432" transform="translate(100.668 196.356)"><path id="path434" class="st45" d="M1.5-102.1c3.8 0 6.9 3.1 6.9 6.9 0 3.8-3.1 6.9-6.9 6.9s-6.9-3.1-6.9-6.9c0-3.9 3.1-6.9 6.9-6.9"/></g><g id="g436" transform="translate(100.668 196.356)"><path id="path438" class="st40" d="M1.5-102.1c3.8 0 6.9 3.1 6.9 6.9 0 3.8-3.1 6.9-6.9 6.9s-6.9-3.1-6.9-6.9c0-3.9 3.1-6.9 6.9-6.9z"/></g><g id="g440" transform="translate(117.316 196.47)"><path id="path442" class="st45" d="M7-102.4c3.9 0 7 3.2 7 7 0 3.9-3.2 7-7 7-3.9 0-7-3.2-7-7 0-3.9 3.1-7 7-7"/></g><g id="g444" transform="translate(117.316 196.47)"><path id="path446" class="st40" d="M7-102.4c3.9 0 7 3.2 7 7 0 3.9-3.2 7-7 7-3.9 0-7-3.2-7-7 0-3.9 3.1-7 7-7z"/></g><g id="g448" transform="translate(133.965 196.064)"><path id="path450" class="st45" d="M12.6-101.5c3.6 0 6.5 2.9 6.5 6.5s-2.9 6.5-6.5 6.5-6.5-2.9-6.5-6.5c0-3.5 2.9-6.5 6.5-6.5"/></g><g id="g452" transform="translate(133.965 196.064)"><path id="path454" class="st40" d="M12.6-101.5c3.6 0 6.5 2.9 6.5 6.5s-2.9 6.5-6.5 6.5-6.5-2.9-6.5-6.5c0-3.5 2.9-6.5 6.5-6.5z"/></g><g id="g456" transform="translate(150.614 196.74)"><path id="path458" class="st45" d="M18.1-103c4.1 0 7.4 3.3 7.4 7.4 0 4.1-3.3 7.4-7.4 7.4-4.1 0-7.4-3.3-7.4-7.4 0-4.1 3.3-7.4 7.4-7.4"/></g><g id="g460" transform="translate(150.614 196.74)"><path id="path462" class="st40" d="M18.1-103c4.1 0 7.4 3.3 7.4 7.4 0 4.1-3.3 7.4-7.4 7.4-4.1 0-7.4-3.3-7.4-7.4 0-4.1 3.3-7.4 7.4-7.4z"/></g><g id="g464" transform="translate(50.722 174.727)"><path id="path466" class="st2" d="M-15.2-51.7c.1 0 .2.1.2.2s-.1.2-.2.2-.2-.1-.2-.2.1-.2.2-.2"/></g><g id="g468" transform="translate(50.722 174.727)"><path id="path470" class="st42" d="M-15.2-51.7c.1 0 .2.1.2.2s-.1.2-.2.2-.2-.1-.2-.2.1-.2.2-.2z"/></g><g id="g488" transform="translate(100.668 177.112)"><path id="path490" d="M1.5-57.2c1.9 0 3.4 1.5 3.4 3.4s-1.5 3.4-3.4 3.4S-2-51.9-2-53.8s1.6-3.4 3.5-3.4" style="fill:#001d76"/></g><g id="g492" transform="translate(100.668 177.112)"><path id="path494" class="st42" d="M1.5-57.2c1.9 0 3.4 1.5 3.4 3.4s-1.5 3.4-3.4 3.4S-2-51.9-2-53.8s1.6-3.4 3.5-3.4z"/></g><g id="g496" transform="translate(117.316 177.568)"><path id="path498" d="M7-58.3c2.2 0 4 1.8 4 4s-1.8 4-4 4-4-1.8-4-4 1.8-4 4-4" style="fill:#001146"/></g><g id="g500" transform="translate(117.316 177.568)"><path id="path502" class="st42" d="M7-58.3c2.2 0 4 1.8 4 4s-1.8 4-4 4-4-1.8-4-4 1.8-4 4-4z"/></g><g id="g504" transform="translate(133.965 178.338)"><path id="path506" class="st45" d="M12.6-60.1c2.8 0 5.1 2.3 5.1 5.1s-2.3 5.1-5.1 5.1-5.1-2.3-5.1-5.1 2.3-5.1 5.1-5.1"/></g><g id="g508" transform="translate(133.965 178.338)"><path id="path510" class="st42" d="M12.6-60.1c2.8 0 5.1 2.3 5.1 5.1s-2.3 5.1-5.1 5.1-5.1-2.3-5.1-5.1 2.3-5.1 5.1-5.1z"/></g><g id="g512" transform="translate(150.614 180.092)"><path id="path514" class="st45" d="M18.1-64.2c4.1 0 7.4 3.3 7.4 7.4 0 4.1-3.3 7.4-7.4 7.4-4.1 0-7.4-3.3-7.4-7.4 0-4.1 3.3-7.4 7.4-7.4"/></g><g id="g516" transform="translate(150.614 180.092)"><path id="path518" class="st42" d="M18.1-64.2c4.1 0 7.4 3.3 7.4 7.4 0 4.1-3.3 7.4-7.4 7.4-4.1 0-7.4-3.3-7.4-7.4 0-4.1 3.3-7.4 7.4-7.4z"/></g><g id="g520" transform="translate(50.722 159.296)"><path id="path522" d="M-15.2-15.7c1 0 1.9.8 1.9 1.9 0 1-.8 1.9-1.9 1.9s-1.9-.8-1.9-1.9c0-1 .9-1.9 1.9-1.9" style="fill:#bfccf2"/></g><g id="g524" transform="translate(50.722 159.296)"><path id="path526" class="st42" d="M-15.2-15.7c1 0 1.9.8 1.9 1.9 0 1-.8 1.9-1.9 1.9s-1.9-.8-1.9-1.9c0-1 .9-1.9 1.9-1.9z"/></g><g id="g536" transform="translate(84.019 158.497)"><path id="path538" class="st49" d="M-4.1-13.8c.4 0 .8.4.8.8s-.4.8-.8.8-.8-.4-.8-.8.4-.8.8-.8"/></g><g id="g540" transform="translate(84.019 158.497)"><path id="path542" class="st42" d="M-4.1-13.8c.4 0 .8.4.8.8s-.4.8-.8.8-.8-.4-.8-.8.4-.8.8-.8z"/></g><g id="g544" transform="translate(100.668 162.007)"><path id="path546" d="M1.5-22c3 0 5.5 2.5 5.5 5.5S4.5-11 1.5-11-4-13.5-4-16.5-1.6-22 1.5-22" style="fill:#718de3"/></g><g id="g548" transform="translate(100.668 162.007)"><path id="path550" class="st42" d="M1.5-22c3 0 5.5 2.5 5.5 5.5S4.5-11 1.5-11-4-13.5-4-16.5-1.6-22 1.5-22z"/></g><g id="g552" transform="translate(117.316 162.325)"><path id="path554" class="st11" d="M7-22.7c3.3 0 5.9 2.6 5.9 5.9 0 3.3-2.6 5.9-5.9 5.9-3.3 0-5.9-2.6-5.9-5.9 0-3.3 2.6-5.9 5.9-5.9"/></g><g id="g556" transform="translate(117.316 162.325)"><path id="path558" class="st42" d="M7-22.7c3.3 0 5.9 2.6 5.9 5.9 0 3.3-2.6 5.9-5.9 5.9-3.3 0-5.9-2.6-5.9-5.9 0-3.3 2.6-5.9 5.9-5.9z"/></g><g id="g560" transform="translate(133.965 162.965)"><path id="path562" d="M12.6-24.2c3.7 0 6.8 3 6.8 6.8 0 3.7-3 6.8-6.8 6.8s-6.8-3-6.8-6.8 3-6.8 6.8-6.8" style="fill:#57d"/></g><g id="g564" transform="translate(133.965 162.965)"><path id="path566" class="st42" d="M12.6-24.2c3.7 0 6.8 3 6.8 6.8 0 3.7-3 6.8-6.8 6.8s-6.8-3-6.8-6.8 3-6.8 6.8-6.8z"/></g><g id="g568" transform="translate(150.614 163.442)"><path id="path570" d="M18.1-25.3c4.1 0 7.4 3.3 7.4 7.4 0 4.1-3.3 7.4-7.4 7.4-4.1 0-7.4-3.3-7.4-7.4 0-4.1 3.3-7.4 7.4-7.4" style="fill:#476cda"/></g><g id="g572" transform="translate(150.614 163.442)"><path id="path574" class="st41" d="M18.1-25.3c4.1 0 7.4 3.3 7.4 7.4 0 4.1-3.3 7.4-7.4 7.4-4.1 0-7.4-3.3-7.4-7.4 0-4.1 3.3-7.4 7.4-7.4z"/></g><g id="g576" transform="translate(50.722 145.533)"><path id="path578" d="M-15.2 16.4c3.2 0 5.7 2.6 5.7 5.7 0 3.2-2.6 5.7-5.7 5.7-3.2 0-5.7-2.6-5.7-5.7s2.5-5.7 5.7-5.7" style="fill:#4a6edb"/></g><g id="g580" transform="translate(50.722 145.533)"><path id="path582" class="st40" d="M-15.2 16.4c3.2 0 5.7 2.6 5.7 5.7 0 3.2-2.6 5.7-5.7 5.7-3.2 0-5.7-2.6-5.7-5.7s2.5-5.7 5.7-5.7z"/></g><g id="g584" transform="translate(67.37 145.028)"><path id="path586" class="st12" d="M-9.6 17.6c2.8 0 5 2.3 5 5 0 2.8-2.3 5-5 5s-5-2.3-5-5c-.1-2.7 2.2-5 5-5"/></g><g id="g588" transform="translate(67.37 145.028)"><path id="path590" class="st40" d="M-9.6 17.6c2.8 0 5 2.3 5 5 0 2.8-2.3 5-5 5s-5-2.3-5-5c-.1-2.7 2.2-5 5-5z"/></g><g id="g592" transform="translate(84.019 145.028)"><path id="path594" class="st12" d="M-4.1 17.6c2.8 0 5 2.3 5 5 0 2.8-2.3 5-5 5s-5-2.3-5-5 2.2-5 5-5"/></g><g id="g596" transform="translate(84.019 145.028)"><path id="path598" class="st40" d="M-4.1 17.6c2.8 0 5 2.3 5 5 0 2.8-2.3 5-5 5s-5-2.3-5-5 2.2-5 5-5z"/></g><g id="g600" transform="translate(100.668 146.794)"><path id="path602" d="M1.5 13.5c4.1 0 7.4 3.3 7.4 7.4 0 4.1-3.3 7.4-7.4 7.4-4.1 0-7.4-3.3-7.4-7.4 0-4.1 3.3-7.4 7.4-7.4" style="fill:#1c49d2"/></g><g id="g604" transform="translate(100.668 146.794)"><path id="path606" class="st40" d="M1.5 13.5c4.1 0 7.4 3.3 7.4 7.4 0 4.1-3.3 7.4-7.4 7.4-4.1 0-7.4-3.3-7.4-7.4 0-4.1 3.3-7.4 7.4-7.4z"/></g><g id="g608" transform="translate(117.316 145.66)"><path id="path610" class="st14" d="M7 16.2c3.3 0 5.9 2.6 5.9 5.9 0 3.3-2.6 5.9-5.9 5.9s-5.9-2.7-5.9-6c0-3.2 2.7-5.8 5.9-5.8"/></g><g id="g612" transform="translate(117.316 145.66)"><path id="path614" class="st40" d="M7 16.2c3.3 0 5.9 2.6 5.9 5.9 0 3.3-2.6 5.9-5.9 5.9s-5.9-2.7-5.9-6c0-3.2 2.7-5.8 5.9-5.8z"/></g><g id="g616" transform="translate(133.965 146.416)"><path id="path618" d="M12.6 14.4c3.8 0 6.9 3.1 6.9 6.9 0 3.8-3.1 6.9-6.9 6.9-3.8 0-6.9-3.1-6.9-6.9 0-3.8 3-6.9 6.9-6.9" style="fill:#2954d4"/></g><g id="g620" transform="translate(133.965 146.416)"><path id="path622" class="st40" d="M12.6 14.4c3.8 0 6.9 3.1 6.9 6.9 0 3.8-3.1 6.9-6.9 6.9-3.8 0-6.9-3.1-6.9-6.9 0-3.8 3-6.9 6.9-6.9z"/></g><g id="g624" transform="translate(150.614 146.67)"><path id="path626" d="M18.1 13.8c4 0 7.2 3.2 7.2 7.2s-3.2 7.2-7.2 7.2-7.2-3.2-7.2-7.2 3.2-7.2 7.2-7.2" style="fill:#204dd2"/></g><g id="g628" transform="translate(150.614 146.67)"><path id="path630" class="st40" d="M18.1 13.8c4 0 7.2 3.2 7.2 7.2s-3.2 7.2-7.2 7.2-7.2-3.2-7.2-7.2 3.2-7.2 7.2-7.2z"/></g><g id="g632" transform="translate(50.722 129.74)"><path id="path634" class="st45" d="M-15.2 53.3c3.8 0 6.9 3.1 6.9 6.9 0 3.8-3.1 6.9-6.9 6.9s-6.9-3.1-6.9-6.9c.1-3.8 3.1-6.9 6.9-6.9"/></g><g id="g636" transform="translate(50.722 129.74)"><path id="path638" class="st40" d="M-15.2 53.3c3.8 0 6.9 3.1 6.9 6.9 0 3.8-3.1 6.9-6.9 6.9s-6.9-3.1-6.9-6.9c.1-3.8 3.1-6.9 6.9-6.9z"/></g><g id="g640" transform="translate(67.37 130.147)"><path id="path642" class="st45" d="M-9.6 52.4c4.1 0 7.4 3.3 7.4 7.4 0 4.1-3.3 7.4-7.4 7.4s-7.4-3.3-7.4-7.4c0-4.1 3.3-7.4 7.4-7.4"/></g><g id="g644" transform="translate(67.37 130.147)"><path id="path646" class="st40" d="M-9.6 52.4c4.1 0 7.4 3.3 7.4 7.4 0 4.1-3.3 7.4-7.4 7.4s-7.4-3.3-7.4-7.4c0-4.1 3.3-7.4 7.4-7.4z"/></g><g id="g648" transform="translate(84.019 124.843)"><path id="path650" class="st62" d="M-4.1 64.7c.2 0 .3.1.3.3 0 .2-.1.3-.3.3-.2 0-.3-.1-.3-.3 0-.1.1-.3.3-.3"/></g><g id="g652" transform="translate(84.019 124.843)"><path id="path654" class="st42" d="M-4.1 64.7c.2 0 .3.1.3.3 0 .2-.1.3-.3.3-.2 0-.3-.1-.3-.3 0-.1.1-.3.3-.3z"/></g><g id="g656" transform="translate(100.668 125.408)"><path id="path658" class="st63" d="M1.5 63.4c.6 0 1.1.5 1.1 1.1 0 .6-.5 1.1-1.1 1.1S.4 65.1.4 64.5c0-.6.5-1.1 1.1-1.1"/></g><g id="g660" transform="translate(100.668 125.408)"><path id="path662" class="st42" d="M1.5 63.4c.6 0 1.1.5 1.1 1.1 0 .6-.5 1.1-1.1 1.1S.4 65.1.4 64.5c0-.6.5-1.1 1.1-1.1z"/></g><g id="g664" transform="translate(117.316 126.238)"><path id="path666" d="M7 61.5c1.2 0 2.2 1 2.2 2.2 0 1.2-1 2.2-2.2 2.2-1.2 0-2.2-1-2.2-2.2 0-1.3 1-2.2 2.2-2.2" style="fill:#000b2e"/></g><g id="g668" transform="translate(117.316 126.238)"><path id="path670" class="st42" d="M7 61.5c1.2 0 2.2 1 2.2 2.2 0 1.2-1 2.2-2.2 2.2-1.2 0-2.2-1-2.2-2.2 0-1.3 1-2.2 2.2-2.2z"/></g><g id="g680" transform="translate(150.614 127.423)"><path id="path682" class="st45" d="M18.1 58.7c2.1 0 3.8 1.7 3.8 3.8 0 2.1-1.7 3.8-3.8 3.8-2.1 0-3.8-1.7-3.8-3.8 0-2.1 1.7-3.8 3.8-3.8"/></g><g id="g684" transform="translate(150.614 127.423)"><path id="path686" class="st40" d="M18.1 58.7c2.1 0 3.8 1.7 3.8 3.8 0 2.1-1.7 3.8-3.8 3.8-2.1 0-3.8-1.7-3.8-3.8 0-2.1 1.7-3.8 3.8-3.8z"/></g><g id="g688" transform="translate(50.722 109.368)"><path id="path690" class="st45" d="M-15.2 100.8c1 0 1.9.8 1.9 1.9 0 1-.8 1.9-1.9 1.9s-1.9-.8-1.9-1.9c0-1 .9-1.9 1.9-1.9"/></g><g id="g692" transform="translate(50.722 109.368)"><path id="path694" class="st42" d="M-15.2 100.8c1 0 1.9.8 1.9 1.9 0 1-.8 1.9-1.9 1.9s-1.9-.8-1.9-1.9c0-1 .9-1.9 1.9-1.9z"/></g><g id="g696" transform="translate(67.37 109.6)"><path id="path698" class="st45" d="M-9.6 100.3c1.2 0 2.2 1 2.2 2.2 0 1.2-1 2.2-2.2 2.2-1.2 0-2.2-1-2.2-2.2 0-1.2.9-2.2 2.2-2.2"/></g><g id="g700" transform="translate(67.37 109.6)"><path id="path702" class="st42" d="M-9.6 100.3c1.2 0 2.2 1 2.2 2.2 0 1.2-1 2.2-2.2 2.2-1.2 0-2.2-1-2.2-2.2 0-1.2.9-2.2 2.2-2.2z"/></g><g id="g704" transform="translate(84.019 113.496)"><path id="path706" class="st45" d="M-4.1 91.2c4.1 0 7.4 3.3 7.4 7.4 0 4.1-3.3 7.4-7.4 7.4-4.1 0-7.4-3.3-7.4-7.4 0-4.1 3.3-7.4 7.4-7.4"/></g><g id="g708" transform="translate(84.019 113.496)"><path id="path710" class="st40" d="M-4.1 91.2c4.1 0 7.4 3.3 7.4 7.4 0 4.1-3.3 7.4-7.4 7.4-4.1 0-7.4-3.3-7.4-7.4 0-4.1 3.3-7.4 7.4-7.4z"/></g><g id="g712" transform="translate(100.668 110.455)"><path id="path714" class="st45" d="M1.5 98.3c1.8 0 3.3 1.5 3.3 3.3S3.3 105 1.5 105s-3.3-1.5-3.3-3.3 1.4-3.4 3.3-3.4"/></g><g id="g716" transform="translate(100.668 110.455)"><path id="path718" class="st42" d="M1.5 98.3c1.8 0 3.3 1.5 3.3 3.3S3.3 105 1.5 105s-3.3-1.5-3.3-3.3 1.4-3.4 3.3-3.4z"/></g><g id="g720" transform="translate(117.316 108.133)"><path id="path722" class="st62" d="M7 103.7c.1 0 .2.1.2.2s-.1.2-.2.2-.2-.1-.2-.2.1-.2.2-.2"/></g><g id="g724" transform="translate(117.316 108.133)"><path id="path726" class="st42" d="M7 103.7c.1 0 .2.1.2.2s-.1.2-.2.2-.2-.1-.2-.2.1-.2.2-.2z"/></g><g id="g744" transform="translate(50.722 93.58)"><path id="path746" d="M-15.2 137.7c1.7 0 3 1.4 3 3 0 1.7-1.4 3-3 3s-3-1.4-3-3c0-1.7 1.3-3 3-3" style="fill:#001963"/></g><g id="g748" transform="translate(50.722 93.58)"><path id="path750" class="st41" d="M-15.2 137.7c1.7 0 3 1.4 3 3 0 1.7-1.4 3-3 3s-3-1.4-3-3c0-1.7 1.3-3 3-3z"/></g><g id="g752" transform="translate(67.37 96.849)"><path id="path754" class="st45" d="M-9.6 130c4.1 0 7.4 3.3 7.4 7.4 0 4.1-3.3 7.4-7.4 7.4s-7.4-3.3-7.4-7.4c0-4 3.3-7.4 7.4-7.4"/></g><g id="g756" transform="translate(67.37 96.849)"><path id="path758" class="st40" d="M-9.6 130c4.1 0 7.4 3.3 7.4 7.4 0 4.1-3.3 7.4-7.4 7.4s-7.4-3.3-7.4-7.4c0-4 3.3-7.4 7.4-7.4z"/></g><g id="g760" transform="translate(84.019 92.647)"><path id="path762" class="st63" d="M-4.1 139.9c1 0 1.8.8 1.8 1.8s-.8 1.8-1.8 1.8-1.8-.8-1.8-1.8.8-1.8 1.8-1.8"/></g><g id="g764" transform="translate(84.019 92.647)"><path id="path766" class="st42" d="M-4.1 139.9c1 0 1.8.8 1.8 1.8s-.8 1.8-1.8 1.8-1.8-.8-1.8-1.8.8-1.8 1.8-1.8z"/></g><g id="g768" transform="translate(100.668 91.948)"><path id="path770" d="M1.5 141.5c.5 0 .9.4.9.9s-.4.9-.9.9-.9-.4-.9-.9.4-.9.9-.9" style="fill:#819ae6"/></g><g id="g772" transform="translate(100.668 91.948)"><path id="path774" class="st42" d="M1.5 141.5c.5 0 .9.4.9.9s-.4.9-.9.9-.9-.4-.9-.9.4-.9.9-.9z"/></g><g id="g776" transform="translate(117.316 91.452)"><path id="path778" class="st2" d="M7 142.6c.1 0 .2.1.2.2s-.1.2-.2.2-.2-.1-.2-.2.1-.2.2-.2"/></g><g id="g780" transform="translate(117.316 91.452)"><path id="path782" class="st42" d="M7 142.6c.1 0 .2.1.2.2s-.1.2-.2.2-.2-.1-.2-.2.1-.2.2-.2z"/></g><g id="g800" transform="translate(50.722 77.542)"><path id="path802" d="M-15.2 175.1c2.1 0 3.9 1.7 3.9 3.9 0 2.1-1.7 3.9-3.9 3.9s-3.9-1.7-3.9-3.9c.1-2.2 1.8-3.9 3.9-3.9" style="fill:#0e3ecf"/></g><g id="g804" transform="translate(50.722 77.542)"><path id="path806" class="st42" d="M-15.2 175.1c2.1 0 3.9 1.7 3.9 3.9 0 2.1-1.7 3.9-3.9 3.9s-3.9-1.7-3.9-3.9c.1-2.2 1.8-3.9 3.9-3.9z"/></g><g id="g808" transform="translate(67.37 76.553)"><path id="path810" d="M-9.6 177.4c1.4 0 2.5 1.1 2.5 2.5s-1.1 2.5-2.5 2.5-2.5-1.1-2.5-2.5c-.1-1.4 1.1-2.5 2.5-2.5" style="fill:#5a7bde"/></g><g id="g812" transform="translate(67.37 76.553)"><path id="path814" class="st42" d="M-9.6 177.4c1.4 0 2.5 1.1 2.5 2.5s-1.1 2.5-2.5 2.5-2.5-1.1-2.5-2.5c-.1-1.4 1.1-2.5 2.5-2.5z"/></g><g id="g816" transform="translate(84.019 80.2)"><path id="path818" class="st36" d="M-4.1 168.9c4.1 0 7.4 3.3 7.4 7.4 0 4.1-3.3 7.4-7.4 7.4-4.1 0-7.4-3.3-7.4-7.4 0-4.1 3.3-7.4 7.4-7.4"/></g><g id="g820" transform="translate(84.019 80.2)"><path id="path822" class="st40" d="M-4.1 168.9c4.1 0 7.4 3.3 7.4 7.4 0 4.1-3.3 7.4-7.4 7.4-4.1 0-7.4-3.3-7.4-7.4 0-4.1 3.3-7.4 7.4-7.4z"/></g><g id="g824" transform="translate(100.668 75.874)"><path id="path826" d="M1.5 179c.9 0 1.6.7 1.6 1.6 0 .9-.7 1.6-1.6 1.6s-1.6-.7-1.6-1.6c-.1-.9.7-1.6 1.6-1.6" style="fill:#8ca3e8"/></g><g id="g828" transform="translate(100.668 75.874)"><path id="path830" class="st42" d="M1.5 179c.9 0 1.6.7 1.6 1.6 0 .9-.7 1.6-1.6 1.6s-1.6-.7-1.6-1.6c-.1-.9.7-1.6 1.6-1.6z"/></g><g id="g832" transform="translate(117.316 74.885)"><path id="path834" class="st49" d="M7 181.3c.2 0 .3.1.3.3 0 .2-.1.3-.3.3s-.3-.1-.3-.3c0-.2.1-.3.3-.3"/></g><g id="g836" transform="translate(117.316 74.885)"><path id="path838" class="st42" d="M7 181.3c.2 0 .3.1.3.3 0 .2-.1.3-.3.3s-.3-.1-.3-.3c0-.2.1-.3.3-.3z"/></g><g id="g840" transform="translate(133.965 74.762)"><path id="path842" class="st50" d="M12.6 181.6c.1 0 .1.1.1.1 0 .1-.1.1-.1.1l-.1-.1c-.1 0 0-.1.1-.1"/></g><g id="g844" transform="translate(133.965 74.762)"><path id="path846" class="st42" d="M12.6 181.6c.1 0 .1.1.1.1 0 .1-.1.1-.1.1l-.1-.1c-.1 0 0-.1.1-.1z"/></g><g id="g856" transform="translate(50.722 59.781)"><path id="path858" d="M-15.2 216.5c1.3 0 2.4 1.1 2.4 2.4 0 1.3-1.1 2.4-2.4 2.4s-2.4-1.1-2.4-2.4c0-1.3 1.1-2.4 2.4-2.4" style="fill:#5375dd"/></g><g id="g860" transform="translate(50.722 59.781)"><path id="path862" class="st42" d="M-15.2 216.5c1.3 0 2.4 1.1 2.4 2.4 0 1.3-1.1 2.4-2.4 2.4s-2.4-1.1-2.4-2.4c0-1.3 1.1-2.4 2.4-2.4z"/></g><g id="g864" transform="translate(67.37 61.999)"><path id="path866" d="M-9.6 211.4c2.9 0 5.3 2.4 5.3 5.3s-2.4 5.3-5.3 5.3-5.3-2.4-5.3-5.3c-.1-3 2.3-5.3 5.3-5.3" style="fill:#001f7b"/></g><g id="g868" transform="translate(67.37 61.999)"><path id="path870" class="st40" d="M-9.6 211.4c2.9 0 5.3 2.4 5.3 5.3s-2.4 5.3-5.3 5.3-5.3-2.4-5.3-5.3c-.1-3 2.3-5.3 5.3-5.3z"/></g><g id="g872" transform="translate(84.019 63.274)"><path id="path874" d="M-4.1 208.4c3.9 0 7 3.1 7 7s-3.1 7-7 7-7-3.1-7-7 3.1-7 7-7" style="fill:#000925"/></g><g id="g876" transform="translate(84.019 63.274)"><path id="path878" class="st40" d="M-4.1 208.4c3.9 0 7 3.1 7 7s-3.1 7-7 7-7-3.1-7-7 3.1-7 7-7z"/></g><g id="g880" transform="translate(100.668 59.005)"><path id="path882" d="M1.5 218.3c.7 0 1.3.6 1.3 1.3 0 .7-.6 1.3-1.3 1.3s-1.3-.6-1.3-1.3c-.1-.7.5-1.3 1.3-1.3" style="fill:#93a9e9"/></g><g id="g884" transform="translate(100.668 59.005)"><path id="path886" class="st42" d="M1.5 218.3c.7 0 1.3.6 1.3 1.3 0 .7-.6 1.3-1.3 1.3s-1.3-.6-1.3-1.3c-.1-.7.5-1.3 1.3-1.3z"/></g><g id="g888" transform="translate(117.316 63.55)"><path id="path890" class="st45" d="M7 207.7c4.1 0 7.4 3.3 7.4 7.4 0 4.1-3.3 7.4-7.4 7.4-4.1 0-7.4-3.3-7.4-7.4 0-4 3.3-7.4 7.4-7.4"/></g><g id="g892" transform="translate(117.316 63.55)"><path id="path894" class="st40" d="M7 207.7c4.1 0 7.4 3.3 7.4 7.4 0 4.1-3.3 7.4-7.4 7.4-4.1 0-7.4-3.3-7.4-7.4 0-4 3.3-7.4 7.4-7.4z"/></g><g id="g896" transform="translate(133.965 58.063)"><path id="path898" d="M12.6 220.5s0 .1 0 0c.1.1 0 .2 0 .2-.1 0-.1 0 0-.2-.1.1-.1 0 0 0" style="fill:#e1e7f9"/></g><g id="g900" transform="translate(133.965 58.063)"><path id="path902" class="st42" d="M12.6 220.5s0 .1 0 0c.1.1 0 .2 0 .2-.1 0-.1 0 0-.2-.1.1-.1 0 0 0z"/></g><g id="g912" transform="translate(50.722 44.957)"><path id="path914" d="M-15.2 251.1c2.7 0 4.8 2.2 4.8 4.8s-2.2 4.8-4.8 4.8-4.8-2.2-4.8-4.8 2.2-4.8 4.8-4.8" style="fill:#002aa9"/></g><g id="g916" transform="translate(50.722 44.957)"><path id="path918" class="st42" d="M-15.2 251.1c2.7 0 4.8 2.2 4.8 4.8s-2.2 4.8-4.8 4.8-4.8-2.2-4.8-4.8 2.2-4.8 4.8-4.8z"/></g><g id="g920" transform="translate(67.37 46.902)"><path id="path922" d="M-9.6 246.6c4.1 0 7.4 3.3 7.4 7.4 0 4.1-3.3 7.4-7.4 7.4s-7.4-3.3-7.4-7.4c0-4.1 3.3-7.4 7.4-7.4" style="fill:#000d33"/></g><g id="g924" transform="translate(67.37 46.902)"><path id="path926" class="st40" d="M-9.6 246.6c4.1 0 7.4 3.3 7.4 7.4 0 4.1-3.3 7.4-7.4 7.4s-7.4-3.3-7.4-7.4c0-4.1 3.3-7.4 7.4-7.4z"/></g><g id="g928" transform="translate(84.019 42.04)"><path id="path930" d="M-4.1 257.9c.5 0 .9.4.9.9s-.4.9-.9.9-.9-.4-.9-.9.4-.9.9-.9" style="fill:#b3c3f0"/></g><g id="g932" transform="translate(84.019 42.04)"><path id="path934" class="st42" d="M-4.1 257.9c.5 0 .9.4.9.9s-.4.9-.9.9-.9-.4-.9-.9.4-.9.9-.9z"/></g><g id="g936" transform="translate(100.668 42.099)"><path id="path938" d="M1.5 257.8c.5 0 1 .4 1 1 0 .5-.4 1-1 1s-1-.4-1-1 .4-1 1-1" style="fill:#afbfef"/></g><g id="g940" transform="translate(100.668 42.099)"><path id="path942" class="st42" d="M1.5 257.8c.5 0 1 .4 1 1 0 .5-.4 1-1 1s-1-.4-1-1 .4-1 1-1z"/></g><g id="g944" transform="translate(117.316 42.344)"><path id="path946" d="M7 257.2c.7 0 1.3.6 1.3 1.3 0 .7-.6 1.3-1.3 1.3s-1.3-.6-1.3-1.3c0-.7.6-1.3 1.3-1.3" style="fill:#9cb0eb"/></g><g id="g948" transform="translate(117.316 42.344)"><path id="path950" class="st42" d="M7 257.2c.7 0 1.3.6 1.3 1.3 0 .7-.6 1.3-1.3 1.3s-1.3-.6-1.3-1.3c0-.7.6-1.3 1.3-1.3z"/></g><g id="g968" transform="translate(50.722 30.253)"><path id="path970" class="st45" d="M-15.2 285.4c4.1 0 7.4 3.3 7.4 7.4 0 4.1-3.3 7.4-7.4 7.4s-7.4-3.3-7.4-7.4c0-4.1 3.3-7.4 7.4-7.4"/></g><g id="g972" transform="translate(50.722 30.253)"><path id="path974" class="st40" d="M-15.2 285.4c4.1 0 7.4 3.3 7.4 7.4 0 4.1-3.3 7.4-7.4 7.4s-7.4-3.3-7.4-7.4c0-4.1 3.3-7.4 7.4-7.4z"/></g><g id="g976" transform="translate(67.37 26.05)"><path id="path978" d="M-9.6 295.2c1 0 1.8.8 1.8 1.8s-.8 1.8-1.8 1.8-1.8-.8-1.8-1.8.8-1.8 1.8-1.8" style="fill:#5e7edf"/></g><g id="g980" transform="translate(67.37 26.05)"><path id="path982" class="st42" d="M-9.6 295.2c1 0 1.8.8 1.8 1.8s-.8 1.8-1.8 1.8-1.8-.8-1.8-1.8.8-1.8 1.8-1.8z"/></g><g id="g984" transform="translate(84.019 29.889)"><path id="path986" class="st45" d="M-4.1 286.3c3.8 0 6.9 3.1 6.9 6.9 0 3.8-3.1 6.9-6.9 6.9s-6.9-3.1-6.9-6.9c0-3.8 3.1-6.9 6.9-6.9"/></g><g id="g988" transform="translate(84.019 29.889)"><path id="path990" class="st40" d="M-4.1 286.3c3.8 0 6.9 3.1 6.9 6.9 0 3.8-3.1 6.9-6.9 6.9s-6.9-3.1-6.9-6.9c0-3.8 3.1-6.9 6.9-6.9z"/></g><g id="g992" transform="translate(100.668 26.643)"><path id="path994" class="st17" d="M1.5 293.9c1.4 0 2.6 1.2 2.6 2.6 0 1.4-1.2 2.6-2.6 2.6s-2.6-1.2-2.6-2.6c0-1.5 1.1-2.6 2.6-2.6"/></g><g id="g996" transform="translate(100.668 26.643)"><path id="path998" class="st42" d="M1.5 293.9c1.4 0 2.6 1.2 2.6 2.6 0 1.4-1.2 2.6-2.6 2.6s-2.6-1.2-2.6-2.6c0-1.5 1.1-2.6 2.6-2.6z"/></g><g id="g1000" transform="translate(117.316 25.136)"><path id="path1002" d="M7 297.4c.3 0 .6.3.6.6s-.3.6-.6.6-.6-.3-.6-.6c0-.4.3-.6.6-.6" style="fill:#bdcaf2"/></g><g id="g1004" transform="translate(117.316 25.136)"><path id="path1006" class="st42" d="M7 297.4c.3 0 .6.3.6.6s-.3.6-.6.6-.6-.3-.6-.6c0-.4.3-.6.6-.6z"/></g><path id="path1024" d="M24.4 23.4h155.4v310.8H24.4V23.4z" style="fill:none;stroke:#000;stroke-width:1.3333;stroke-miterlimit:5.3333"/><text transform="translate(253.594 37.352)" class="st83 st84">Absolute abundance</text><text transform="translate(64.325 13.732)" class="st83 st84">Conditions</text><text transform="rotate(-90 113.388 99.656)" class="st83 st84">Readouts</text><text transform="translate(218.147 59.92)" class="st83 st84">0</text><text transform="translate(421.443 59.92)" class="st83 st84">50</text><text transform="translate(257.35 176.855)" class="st83 st84">Relative abundance</text><text transform="translate(309.05 235.584)" class="st83 st84">FDR</text><text transform="translate(242.307 305.043)" class="st83 st84">≤0.01</text><text transform="translate(305.236 305.043)" class="st83 st84">≤0.05</text><text transform="translate(368.164 305.043)" class="st83 st84">&gt;0.05</text></svg>