<svg xmlns="http://www.w3.org/2000/svg" width="70.867" height="42.779"><path fill="#00377B" d="M14.004 40.935c0 .445.018.893.029 1.339l-.049.078c-.68.223-1.292.427-2.291.427-.602 0-1.02-.088-1.301-.164-.379-.108-1.089-.341-1.662-1.078-.437-.562-.68-1.33-.68-2.243 0-.649.147-1.438.494-2.048.77-1.301 1.983-1.611 3.09-1.611 1.008 0 1.658.271 2.066.446l.049.057c-.078.584-.096.737-.145 1.34l-.078.031c-.457-.303-.894-.595-1.631-.595-1.223 0-2.048.836-2.048 2.37 0 .729.272 2.165 1.774 2.165.273 0 .467-.05.729-.106.02-.883.011-1.116-.076-2.069l.049-.058 1.649-.029.049.059c-.009.496-.018.981-.018 1.467v.222M24.354 42.631c-.74 0-.897.009-1.509.027l-.056-.055c0-.315.009-.641.009-.955 0-.351-.009-1.62-.027-1.925-.027-.333-.075-.88-.583-.88-.296 0-.518.157-.711.287.007 1.656.018 2.017.072 3.444l-.054.056c-.741 0-.881 0-1.547.027l-.057-.055a96.2 96.2 0 0 0 .02-1.777c0-1.511-.057-2.094-.13-2.9l.055-.064c.695-.091.852-.12 1.565-.269l.093.064-.018.51c.426-.25.915-.547 1.479-.547.334 0 .862.075 1.148.557.232.378.241.805.25 1.694v.723c.019.907.019 1.166.064 1.981l-.063.057M30.001 40.177c0-.362 0-1.861-1.295-2.37-.408-.158-.889-.177-1.129-.177-1.612 0-2.52.861-2.52 2.563 0 .594.094 1.196.436 1.696.239.36.693.86 2.019.86 1.962.001 2.489-1.182 2.489-2.572m-1.6-.009c0 .759-.103 1.602-.87 1.602a.748.748 0 0 1-.518-.212c-.159-.159-.335-.474-.335-1.372 0-.269 0-.861.185-1.185.141-.25.379-.417.677-.417a.78.78 0 0 1 .593.287c.22.269.268.796.268 1.297zM37.873 42.631c-.648 0-.852 0-1.547.027l-.057-.055c.011-.278.019-1.659.028-1.974 0-.177.011-.351.011-.526 0-.797-.084-1.298-.611-1.298-.277 0-.482.13-.64.231l.009.937v.342c.01 1.121.019 1.379.073 2.26l-.055.056c-.639 0-.834 0-1.536.036l-.057-.063c.02-.752.029-.955.029-2.297 0-.797-.019-1.454-.593-1.454-.231 0-.445.121-.64.26.011 1.609.019 2.035.084 3.463l-.055.056c-.77 0-.973.009-1.567.027l-.044-.055c0-.527.008-1.066.008-1.593 0-1.834-.055-2.344-.128-3.085l.056-.064a23.62 23.62 0 0 0 1.571-.269l.086.084v.52c.425-.298.824-.576 1.434-.576.742 0 .973.39 1.102.604.371-.261.881-.604 1.64-.604.148 0 .786 0 1.146.528.271.39.26.964.252 1.584v.694c0 1.047.008 1.286.054 2.148l-.053.056M42.918 41.271c-.352.183-.769.396-1.445.396-.556 0-.935-.177-1.157-.51-.139-.194-.166-.379-.203-.563l2.99-.057.057-.064c-.01-.453-.019-.916-.148-1.379-.325-1.092-1.037-1.316-1.353-1.39a2.361 2.361 0 0 0-.657-.084c-1.455 0-2.417.955-2.417 2.557 0 .436.075.891.223 1.213.536 1.25 1.798 1.36 2.462 1.36.77 0 1.103-.138 1.593-.333l.057-.073.063-1.046-.065-.027m-2.805-1.659c.027-.287.092-.676.444-.897a.651.651 0 0 1 .371-.103c.304 0 .49.159.591.324.132.204.14.426.14.64l-1.546.036zM48.839 42.289a5.434 5.434 0 0 1-.332.184c-.352.178-.907.307-1.501.307-2.072 0-3.137-1.557-3.137-3.381 0-1.711 1.055-3.434 3.192-3.434.937 0 1.37.223 1.742.407l.045.073a2.47 2.47 0 0 0-.075.492l-.062.046c-.269-.185-.74-.509-1.649-.509-1.843 0-2.556 1.573-2.556 2.924 0 1.613 1.037 2.862 2.604 2.862.342 0 .686-.064 1.027-.205.352-.146.509-.276.721-.452l.075.046c-.038.23-.046.287-.046.547l-.048.093M49.701 38.593l.073.037c.417-.214.704-.352 1.316-.352.647 0 .851.314.907.427.064.147.073.36.083.61v.121l-.815.12c-.517.083-1.175.194-1.592.565-.314.276-.48.693-.48 1.12 0 .924.647 1.508 1.572 1.508.474 0 .898-.156 1.315-.462l.009.324.065.055.49-.027.057-.064c-.057-.862-.075-1.122-.057-2.371v-.574c0-.907 0-1.11-.268-1.406-.213-.241-.575-.437-1.231-.437-.611 0-1.001.158-1.372.306l-.044.063-.028.437m2.38 1.306v1.861c-.297.249-.611.5-1.213.5-.759 0-1.094-.565-1.094-1.046 0-.492.362-.761.438-.815.259-.194.554-.268 1.369-.425l.5-.075zM54.376 42.64l-.547.019-.045-.055c.009-.509.02-.742.02-1.141 0-.481-.011-.972-.02-1.452-.01-1.056-.019-1.288-.084-2.009l.049-.065.563-.093.055.055-.037.482c.389-.241.926-.594 1.676-.594.176 0 .722 0 1.113.437.331.36.331.813.34 1.518l.019.944c.011.973.019 1.12.055 1.897l-.055.057-.556.019-.044-.064c.007-.435.017-.676.017-1.047 0-.37-.017-1.666-.037-2.156-.009-.214-.027-.547-.222-.779-.157-.185-.454-.315-.786-.315-.694 0-1.241.418-1.501.621.01 1.565.019 1.926.084 3.666l-.057.055M58.784 38.593l.075.037c.416-.214.702-.352 1.314-.352.647 0 .852.314.907.427.063.147.073.36.084.61v.121l-.817.12c-.518.083-1.174.194-1.591.565-.314.276-.481.693-.481 1.12 0 .924.649 1.508 1.574 1.508.473 0 .896-.156 1.315-.462l.009.324.064.055.491-.027.056-.064c-.056-.862-.075-1.122-.056-2.371v-.574c0-.907 0-1.11-.269-1.406-.214-.241-.574-.437-1.232-.437-.61 0-1 .158-1.369.306l-.048.063-.026.437m2.381 1.306v1.861c-.297.249-.611.5-1.214.5-.76 0-1.092-.565-1.092-1.046 0-.492.36-.761.434-.815.26-.194.557-.268 1.371-.425l.501-.075zM66.043 42.604l.056.055c.222-.019.268-.019.49-.019l.056-.046c-.073-1.491-.073-3.168-.073-4.75 0-.834.009-1.666.018-2.511l-.056-.055a6.332 6.332 0 0 1-.567.111l-.062.057c.062.556.062.711.084 2.415-.176-.009-.298-.009-.417-.009-.676 0-1.64.055-2.287.677-.398.379-.713 1.019-.713 1.813 0 1.26.751 2.361 2.083 2.361.786 0 1.193-.36 1.39-.528v.429m-.011-.973c-.13.139-.528.564-1.278.564-1.027 0-1.583-.843-1.583-1.889 0-.52.139-1.371 1.019-1.769.426-.187.897-.212 1.314-.212.232 0 .335.008.492.019 0 .832.027 2.155.036 2.98v.307zM67.868 38.593l.072.037c.418-.214.704-.352 1.316-.352.648 0 .852.314.906.427.066.147.073.36.084.61v.121l-.815.12c-.518.083-1.176.194-1.591.565-.316.276-.482.693-.482 1.12 0 .924.647 1.508 1.574 1.508.472 0 .897-.156 1.314-.462l.01.324.063.055.49-.027.057-.064c-.057-.862-.074-1.122-.057-2.371v-.574c0-.907 0-1.11-.269-1.406-.212-.241-.572-.437-1.23-.437-.611 0-1 .158-1.371.306l-.045.063-.026.437m2.379 1.306v1.861c-.296.249-.612.5-1.214.5-.759 0-1.093-.565-1.093-1.046 0-.492.361-.761.437-.815.26-.194.556-.268 1.369-.425l.501-.075zM19.216 40.473c-.011-.453-.009-.98-.139-1.304-.112-.276-.622-.988-1.828-.536-.012.006-.037.013-.049.03-.017.024.012.045.012.045.318.139.502.396.502.867l-1.545.036s-.061-.336.151-.772c.171-.354.6-.854 1.466-1.027.345-.055.411-.017.451-.027.004-.002.045-.019.006-.041a.237.237 0 0 0-.096-.037c-.153-.049-.492-.125-1.089-.125-1.452 0-2.416.994-2.416 2.596 0 .436.073.891.221 1.213.538 1.25 1.796 1.36 2.463 1.36.768 0 1.103-.138 1.592-.333l.055-.073.066-1.046-.066-.027c-.351.183-.768.396-1.444.396-.555 0-.935-.177-1.156-.51-.14-.194-.168-.379-.205-.563l2.992-.057.056-.065"/><path fill="#ED1C24" d="M7.205 27.393c-.245-.081-.751-.228-1.278-.444-1.388-.572-2.68-1.398-2.646-2.776.03-1.317 1.233-2.138 3.414-2.565 2.39-.467 5.888-.822 7.657-1.724 1.744-.783 1.577-2.802.528-3.749-.098-.092-.17-.16-.225-.137-.075.031-.057.093-.026.192.091.276.217.792-.031 1.226-.858 1.504-5.642 1.496-9.806 2.298-3.44.665-4.868 2.302-4.789 4.096.083 1.866 1.865 3.27 4.34 3.656.988.153 2.333.223 2.81.152.125-.019.162-.062.158-.125-.004-.051-.024-.073-.106-.1"/><path fill="#00377B" d="M2.327 19.372c.794-.285 1.861-.545 3.644-.827.253-.042.504-.086.65-.113.067-.013.096-.047.105-.079.021-.075-.017-.121-.145-.153-.151-.038-.4-.077-.596-.128-1.942-.458-2.22-1.029-2.232-1.611-.006-.331.145-.673.556-.959.541-.374 1.457-.581 1.988-.694 3.726-.783 9.341-.904 9.341-5.943 0-2.013-1.248-3.293-2.332-3.975-.808-.507-1.538-.66-1.538-.66v1.98s1.171.793 1.171 2.317c0 1.71-.688 3.576-4.59 4.385-2.452.511-4.219.863-5.466 1.393-1.255.532-2.036 1.505-2.135 2.41-.09.814.113 1.911 1.579 2.657M14.58 20.813c-.767.359-1.706.668-3.204.964-.379.076-.645.116-.805.148-.13.025-.161.084-.139.147.018.049.058.066.171.092.18.041.467.093.814.192.856.262 1.409.62 1.721.973.309.352.461.782.461 1.29 0 .595-.187 1.109-.562 1.546-.51.556-1.356 1.014-2.541 1.373-.582.175-1.377.332-2.306.418v1.577c2.352-.131 4.662-.704 5.955-1.547 1.48-.96 2.224-2.243 2.224-3.845 0-.95-.26-1.769-.794-2.443-.34-.433-.679-.677-.995-.885"/><path fill="#ED1C24" d="M4.355 12.763c.794-.24 2.898-.685 2.898-.685.052-.011.104-.021.11-.074.006-.043-.009-.088-.069-.105-.067-.021-.797-.171-1.501-.634-.942-.619-1.672-1.519-1.628-2.833.062-1.753 1.506-2.858 3.17-3.372 1.508-.464 2.883-.669 3.743-1.222 1.632-1.047 1.461-2.785.545-3.659-.125-.121-.208-.208-.275-.172-.061.031-.052.104-.018.195.083.212.269.736.027 1.212-.452.883-2.935 1.197-4.807 1.596-2.495.533-3.834 1.341-4.822 2.56-.59.73-.96 1.792-.96 2.862 0 2.408 1.845 3.673 3.587 4.331"/></svg>