<svg id="Layer_1" xmlns="http://www.w3.org/2000/svg" width="238.466" height="50" viewBox="0 0 238.466 50">
  <style>
    .st0{fill:#f04b54}.st1{fill:#fdb71a}.st2{fill:#64cbe8}
  </style>
  <path class="st1" d="M14.244 33.344l1.243 4.985 3.789-3.658-1.371-2.376zM35.031 19.456l4.176-4.032-5.156-1.478-1.692 2.93zM6.331 20.979l-4.177 4.033L7.31 26.49l1.692-2.931zM27.117 7.091l-1.243-4.985-3.789 3.659 1.372 2.375z"/>
  <path class="st2" d="M6.728 12.937L0 14.866l6.331 6.113 3.236-3.125zM33.689 11.511l1.694-6.791-8.266 2.371 1.102 4.42zM21.521 35.649l4.957 4.787 1.966-7.886-4.405-1.263z"/>
  <path class="st1" d="M7.51 6.335l1.291 5.176h3.212l.904-3.626z"/>
  <path class="st2" d="M19.84 4.787L14.883 0l-1.966 7.885 4.405 1.264zM34.633 27.498l6.728-1.929-6.33-6.113-3.237 3.126zM7.672 28.924l-1.693 6.791 8.265-2.371-1.102-4.42z"/>
  <path class="st1" d="M32.561 28.924h-3.213l-.904 3.626 5.407 1.551z"/>
  <path class="st0" d="M12.917 7.885l-.904 3.626h3.945l1.364-2.362zM32.359 16.876l-.012.021-1.917 3.321 1.364 2.364 3.237-3.126zM25.403 28.924l-1.364 2.363 4.405 1.263.904-3.626zM9.567 17.854l-3.236 3.125 2.671 2.58 1.929-3.341zM15.958 28.924h-2.816l1.102 4.42 3.661-1.049zM27.117 7.091l-3.66 1.049 1.946 3.371h2.816z"/>
  <path d="M48.668 18.635V5.041h2.308v11.5h6.438v2.094h-8.746zM60.981 9.132v5.683c0 1.26.64 2.055 1.784 2.055 1.241 0 1.978-.969 1.978-2.385V9.132h2.211v9.502h-2.172v-.776c-.602.659-1.435.989-2.462.989-2.153 0-3.549-1.551-3.549-4.188V9.132h2.21zM71.452 18.635h-2.211V9.132h2.172v.776c.601-.679 1.415-1.008 2.463-1.008 2.346 0 3.762 1.551 3.762 4.208v5.527h-2.211v-5.527c0-1.338-.698-2.211-1.881-2.211-1.338 0-2.094.95-2.094 2.483v5.255zM87.945 14.543h-6.497c.097 1.416 1.086 2.308 2.502 2.308 1.028 0 1.842-.446 2.443-1.337l1.494 1.396c-1.009 1.3-2.328 1.939-3.937 1.939-1.416 0-2.579-.446-3.452-1.357-.873-.912-1.319-2.094-1.319-3.548 0-1.416.408-2.619 1.203-3.588.815-.97 1.9-1.455 3.238-1.455 3.083 0 4.344 2.462 4.344 4.867l-.019.775zm-6.38-1.764h4.053c-.02-.989-.64-1.862-1.978-1.862-1.163-.001-1.862.834-2.075 1.862zM91.902 18.635h-2.21V9.132h2.171v.776c.601-.679 1.416-1.008 2.463-1.008 2.346 0 3.762 1.551 3.762 4.208v5.527h-2.211v-5.527c0-1.338-.698-2.211-1.881-2.211-1.338 0-2.094.95-2.094 2.483v5.255zM104.835 5.06v2.036c-.194-.02-.368-.02-.504-.02-1.376 0-1.998.562-1.998 1.939v.116h2.289v1.978h-2.289v7.524h-2.172V11.11h-1.396V9.132h1.396v-.484c0-2.405 1.28-3.607 3.82-3.607l.854.019zM114.042 14.543h-6.497c.097 1.416 1.086 2.308 2.501 2.308 1.028 0 1.843-.446 2.444-1.337l1.494 1.396c-1.009 1.3-2.328 1.939-3.937 1.939-1.415 0-2.579-.446-3.451-1.357-.873-.912-1.319-2.094-1.319-3.548 0-1.416.407-2.619 1.202-3.588.814-.97 1.9-1.455 3.239-1.455 3.083 0 4.344 2.462 4.344 4.867l-.02.775zm-6.379-1.764h4.052c-.019-.989-.64-1.862-1.978-1.862-1.163-.001-1.862.834-2.074 1.862zM115.852 18.635V5.041h2.211v13.594h-2.211zM127.087 9.831v-4.79h2.21v13.594h-2.171v-.854c-.679.718-1.59 1.067-2.696 1.067-1.357 0-2.462-.465-3.335-1.396-.873-.95-1.299-2.133-1.299-3.568s.427-2.618 1.299-3.568S123.073 8.9 124.43 8.9c1.048 0 1.94.31 2.657.931zm-5.042 4.053c0 1.706.931 3.025 2.541 3.025 1.628 0 2.54-1.319 2.54-3.025 0-1.707-.912-3.025-2.54-3.025-1.609-.001-2.541 1.318-2.541 3.025zM131.663 14.562v-2.036h7.078v2.036h-7.078zM138.786 5.041h10.491v2.094h-4.15v11.5h-2.308v-11.5h-4.034V5.041zM156.102 9.986v-.854h2.172v9.502h-2.211v-.698c-.756.602-1.648.912-2.656.912-1.357 0-2.463-.465-3.336-1.396-.873-.95-1.299-2.133-1.299-3.568s.426-2.618 1.299-3.568c.873-.95 1.979-1.416 3.336-1.416 1.105 0 1.997.368 2.695 1.086zm-2.56.93c-1.629 0-2.521 1.261-2.521 2.967 0 1.706.892 3.064 2.521 3.064s2.56-1.358 2.56-3.064c0-1.686-.931-2.967-2.56-2.967zM162.674 18.635h-2.21V9.132h2.172v.776c.601-.679 1.416-1.008 2.463-1.008 2.346 0 3.762 1.551 3.762 4.208v5.527h-2.21v-5.527c0-1.338-.698-2.211-1.881-2.211-1.338 0-2.095.95-2.095 2.483v5.255h-.001zM179.168 14.543h-6.496c.097 1.416 1.086 2.308 2.501 2.308 1.028 0 1.842-.446 2.443-1.337l1.494 1.396c-1.009 1.3-2.327 1.939-3.937 1.939-1.416 0-2.579-.446-3.451-1.357-.873-.912-1.319-2.094-1.319-3.548 0-1.416.407-2.619 1.202-3.588.815-.97 1.901-1.455 3.238-1.455 3.084 0 4.344 2.462 4.344 4.867l-.019.775zm-6.379-1.764h4.053c-.02-.989-.64-1.862-1.978-1.862-1.164-.001-1.862.834-2.075 1.862zM183.125 18.635h-2.211V9.132h2.172v.776c.601-.679 1.416-1.008 2.463-1.008 2.346 0 3.762 1.551 3.762 4.208v5.527h-2.21v-5.527c0-1.338-.698-2.211-1.881-2.211-1.338 0-2.095.95-2.095 2.483v5.255zM193.596 17.781v.854h-2.172V5.041h2.211v4.79c.717-.621 1.609-.931 2.656-.931 1.358 0 2.463.465 3.335 1.415.873.95 1.299 2.133 1.299 3.568s-.426 2.618-1.299 3.568c-.873.931-1.978 1.396-3.335 1.396-1.105.001-2.017-.348-2.695-1.066zm5.08-3.897c0-1.707-.931-3.025-2.54-3.025-1.629 0-2.541 1.319-2.541 3.025s.912 3.025 2.541 3.025c1.61-.001 2.54-1.319 2.54-3.025zM209.826 9.986v-.854h2.172v9.502h-2.21v-.698c-.756.602-1.648.912-2.657.912-1.358 0-2.463-.465-3.335-1.396-.873-.95-1.299-2.133-1.299-3.568s.427-2.618 1.299-3.568S205.772 8.9 207.13 8.9c1.106 0 1.998.368 2.696 1.086zm-2.56.93c-1.628 0-2.521 1.261-2.521 2.967 0 1.706.893 3.064 2.521 3.064 1.629 0 2.56-1.358 2.56-3.064 0-1.686-.931-2.967-2.56-2.967zM216.107 9.132v5.683c0 1.26.641 2.055 1.784 2.055 1.241 0 1.978-.969 1.978-2.385V9.132h2.21v9.502h-2.172v-.776c-.601.659-1.435.989-2.463.989-2.152 0-3.548-1.551-3.548-4.188V9.132h2.211zM230.34 18.635v-5.682c0-1.26-.64-2.056-1.745-2.056-1.261 0-1.959.912-1.959 2.328v5.411h-2.21V9.132h2.172v.834c.601-.717 1.435-1.066 2.463-1.066 1.183 0 2.055.407 2.656 1.241.737-.834 1.726-1.241 2.967-1.241 2.501 0 3.782 1.473 3.782 4.208v5.527h-2.211v-5.682c0-1.261-.64-2.056-1.746-2.056-1.26 0-1.978.911-1.978 2.327v5.41h-2.191zM56.638 35.687l-2.851-4.635h-2.812v4.635h-2.308V22.093h5.178c3.2 0 5.178 1.648 5.178 4.441 0 1.997-1.009 3.452-2.773 4.13l3.123 5.022h-2.735v.001zm-5.662-11.499v4.751h2.58c2.114 0 3.161-.795 3.161-2.385 0-1.571-1.047-2.366-3.161-2.366h-2.58zM68.815 31.595h-6.496c.096 1.416 1.085 2.308 2.501 2.308 1.028 0 1.842-.446 2.443-1.338l1.494 1.396C67.748 35.26 66.429 35.9 64.82 35.9c-1.416 0-2.579-.446-3.452-1.357-.873-.912-1.318-2.094-1.318-3.549 0-1.416.407-2.618 1.202-3.587.814-.97 1.9-1.455 3.238-1.455 3.083 0 4.344 2.463 4.344 4.868l-.019.775zm-6.38-1.764h4.053c-.02-.989-.64-1.862-1.978-1.862-1.164 0-1.862.834-2.075 1.862zM73.082 31.789c-1.92-.446-2.89-1.435-2.89-3.005 0-1.727 1.436-2.832 3.471-2.832 1.377 0 2.56.523 3.588 1.59l-1.416 1.513c-.582-.795-1.319-1.202-2.23-1.202-.795 0-1.3.407-1.3.892 0 .446.311.737.932.892l1.493.349c1.939.446 2.909 1.435 2.909 2.967 0 1.727-1.357 2.948-3.762 2.948-1.648 0-2.967-.62-3.937-1.842l1.396-1.435c.699.911 1.611 1.376 2.716 1.376 1.027 0 1.455-.426 1.455-.969 0-.407-.291-.698-1.164-.931l-1.261-.311zM87.276 31.595H80.78c.097 1.416 1.086 2.308 2.501 2.308 1.028 0 1.842-.446 2.443-1.338l1.494 1.396c-1.009 1.299-2.327 1.939-3.937 1.939-1.416 0-2.579-.446-3.451-1.357-.873-.912-1.319-2.094-1.319-3.549 0-1.416.407-2.618 1.202-3.587.815-.97 1.9-1.455 3.238-1.455 3.084 0 4.344 2.463 4.344 4.868l-.019.775zm-6.38-1.764h4.053c-.02-.989-.64-1.862-1.978-1.862-1.163 0-1.861.834-2.075 1.862zM96.06 27.038v-.854h2.172v9.502h-2.211v-.696c-.756.601-1.648.911-2.656.911-1.358 0-2.463-.465-3.335-1.396-.873-.95-1.299-2.133-1.299-3.568s.426-2.618 1.299-3.568c.873-.95 1.978-1.416 3.335-1.416 1.105 0 1.997.368 2.695 1.085zm-2.56.931c-1.629 0-2.521 1.261-2.521 2.967S91.871 34 93.5 34c1.628 0 2.56-1.357 2.56-3.064 0-1.687-.932-2.967-2.56-2.967zM106.336 28.163c-.097-.02-.213-.02-.349-.02-2.172 0-2.928 1.164-2.928 3.82v3.724h-2.211v-9.502h2.172v1.028c.64-.776 1.609-1.164 2.889-1.164.136 0 .271 0 .426.02v2.094h.001zM109.261 30.936c0 1.726 1.105 2.967 2.599 2.967 1.105 0 1.726-.465 2.443-1.474l1.513 1.416c-.95 1.377-2.289 2.056-4.034 2.056-1.319 0-2.443-.465-3.374-1.416-.931-.95-1.396-2.133-1.396-3.549s.465-2.599 1.396-3.548c.931-.951 2.055-1.435 3.374-1.435 1.59 0 2.87.64 3.859 1.9l-1.532 1.473c-.678-.911-1.435-1.357-2.269-1.357-1.493 0-2.579 1.241-2.579 2.967zM119.441 35.687h-2.211V22.093h2.211v4.751c.64-.601 1.435-.892 2.366-.892 2.269 0 3.821 1.571 3.821 4.208v5.527h-2.211V30.16c0-1.337-.698-2.21-1.881-2.21-1.337 0-2.094.95-2.094 2.482v5.255zM132.161 35.687V22.093h2.308v13.594h-2.308zM138.947 35.687h-2.21v-9.502h2.172v.776c.601-.678 1.415-1.008 2.462-1.008 2.347 0 3.762 1.551 3.762 4.208v5.527h-2.211V30.16c0-1.337-.698-2.21-1.88-2.21-1.339 0-2.095.95-2.095 2.482v5.255zM149.66 31.789c-1.919-.446-2.889-1.435-2.889-3.005 0-1.727 1.435-2.832 3.471-2.832 1.377 0 2.56.523 3.588 1.59l-1.416 1.513c-.582-.795-1.319-1.202-2.23-1.202-.795 0-1.299.407-1.299.892 0 .446.31.737.931.892l1.494.349c1.939.446 2.909 1.435 2.909 2.967 0 1.727-1.357 2.948-3.762 2.948-1.648 0-2.967-.62-3.937-1.842l1.396-1.435c.698.912 1.609 1.376 2.715 1.376 1.028 0 1.455-.426 1.455-.969 0-.407-.291-.698-1.164-.931l-1.262-.311zM155.903 32.333v-4.169h-1.396v-1.978h1.396V23.53h2.191v2.656h2.269v1.978h-2.269v3.84c0 1.376.31 1.726 1.551 1.726l.717-.039v1.978c-.291.02-.679.039-1.183.039-2.461-.002-3.276-.913-3.276-3.375zM162.011 22.326a1.405 1.405 0 0 1 1.978 0c.543.524.543 1.415 0 1.958a1.405 1.405 0 0 1-1.978 0c-.543-.543-.543-1.434 0-1.958zm-.136 13.361v-9.502h2.211v9.502h-2.211zM166.509 32.333v-4.169h-1.396v-1.978h1.396V23.53h2.191v2.656h2.269v1.978H168.7v3.84c0 1.376.31 1.726 1.551 1.726l.718-.039v1.978c-.291.02-.679.039-1.183.039-2.462-.002-3.277-.913-3.277-3.375zM174.479 26.185v5.682c0 1.261.64 2.056 1.784 2.056 1.241 0 1.978-.97 1.978-2.385v-5.353h2.21v9.502h-2.172v-.776c-.601.659-1.435.989-2.462.989-2.153 0-3.549-1.551-3.549-4.188v-5.527h2.211zM182.933 32.333v-4.169h-1.396v-1.978h1.396V23.53h2.191v2.656h2.269v1.978h-2.269v3.84c0 1.376.31 1.726 1.551 1.726l.718-.039v1.978c-.291.02-.679.039-1.183.039-2.462-.002-3.277-.913-3.277-3.375zM196.953 31.595h-6.497c.097 1.416 1.086 2.308 2.501 2.308 1.028 0 1.842-.446 2.443-1.338l1.494 1.396c-1.009 1.299-2.328 1.939-3.937 1.939-1.416 0-2.579-.446-3.452-1.357-.873-.912-1.319-2.094-1.319-3.549 0-1.416.408-2.618 1.202-3.587.815-.97 1.9-1.455 3.239-1.455 3.083 0 4.344 2.463 4.344 4.868l-.018.775zm-6.38-1.764h4.053c-.02-.989-.64-1.862-1.978-1.862-1.164 0-1.862.834-2.075 1.862z"/>
  <g>
    <path d="M50.558 45.707c-1.146-.207-1.81-.818-1.81-1.792a1.5 1.5 0 0 1 .621-1.25c.414-.319.914-.474 1.508-.474.879 0 1.621.319 2.233.965l-.716.759c-.439-.526-.957-.793-1.56-.793-.689 0-1.052.354-1.052.767 0 .439.336.715 1 .818l.604.104c1.302.207 1.931.871 1.931 1.862 0 .517-.207.939-.621 1.267-.414.319-.974.483-1.689.483-.991 0-1.793-.388-2.405-1.155l.698-.708c.439.578.965.931 1.836.931.732 0 1.146-.328 1.146-.802 0-.457-.327-.75-.991-.862l-.733-.12zM54.33 42.389a.623.623 0 0 1 .879 0 .614.614 0 0 1 0 .87.623.623 0 0 1-.879 0 .612.612 0 0 1 0-.87zm-.061 5.938v-4.224h.983v4.224h-.983zM57.381 48.327h-.982v-4.224h.965v.345c.268-.301.63-.448 1.094-.448 1.043 0 1.673.69 1.673 1.871v2.457h-.982v-2.457c0-.595-.311-.983-.837-.983-.594 0-.931.422-.931 1.103v2.336zM64.253 44.483v-.379h.965v4.224h-.982v-.31a1.847 1.847 0 0 1-1.181.405c-.604 0-1.095-.207-1.483-.62-.388-.422-.578-.948-.578-1.586s.19-1.164.578-1.586c.388-.423.879-.629 1.483-.629.491-.002.888.162 1.198.481zm-1.138.414c-.724 0-1.121.56-1.121 1.319s.397 1.362 1.121 1.362 1.138-.604 1.138-1.362c0-.75-.414-1.319-1.138-1.319zM66.415 42.389a.623.623 0 0 1 .879 0 .614.614 0 0 1 0 .87.623.623 0 0 1-.879 0 .612.612 0 0 1 0-.87zm-.061 5.938v-4.224h.983v4.224h-.983zM74.415 48.327v-2.612H71.58v2.612h-1.026v-6.042h1.026v2.491h2.835v-2.491h1.035v6.042h-1.035zM80.346 46.51h-2.888c.043.629.483 1.025 1.112 1.025.457 0 .818-.199 1.086-.595l.664.621c-.448.578-1.035.861-1.75.861-.629 0-1.146-.198-1.534-.604-.388-.405-.586-.931-.586-1.577 0-.629.181-1.164.534-1.594.363-.431.846-.647 1.441-.647 1.37 0 1.931 1.095 1.931 2.164l-.01.346zm-2.836-.786h1.802c-.008-.439-.284-.828-.88-.828-.516.001-.827.372-.922.828zM84.399 44.483v-.379h.966v4.224h-.983v-.31a1.845 1.845 0 0 1-1.181.405c-.604 0-1.095-.207-1.483-.62-.388-.422-.577-.948-.577-1.586s.189-1.164.577-1.586c.389-.422.879-.629 1.483-.629.491-.002.888.162 1.198.481zm-1.137.414c-.725 0-1.121.56-1.121 1.319s.396 1.362 1.121 1.362c.724 0 1.138-.604 1.138-1.362-.001-.75-.415-1.319-1.138-1.319zM86.469 48.327v-6.042h.983v6.042h-.983zM88.65 46.837v-1.854h-.62v-.879h.621v-1.18h.974v1.18h1.008v.879h-1.008v1.707c0 .612.137.768.689.768l.319-.018v.879a8.064 8.064 0 0 1-.526.018c-1.094 0-1.457-.406-1.457-1.5zM92.427 48.327h-.983v-6.042h.983v2.112c.284-.267.637-.397 1.051-.397 1.009 0 1.698.698 1.698 1.871v2.457h-.983v-2.457c0-.595-.31-.983-.836-.983-.595 0-.931.422-.931 1.104l.001 2.335zM100.135 45.707c-1.146-.207-1.81-.818-1.81-1.792 0-.517.207-.932.62-1.25.414-.319.914-.474 1.508-.474.879 0 1.621.319 2.233.965l-.716.759c-.439-.526-.957-.793-1.56-.793-.689 0-1.052.354-1.052.767 0 .439.337.715 1 .818l.604.104c1.302.207 1.931.871 1.931 1.862 0 .517-.207.939-.621 1.267-.414.319-.974.483-1.689.483-.992 0-1.793-.388-2.406-1.155l.698-.707c.44.578.966.931 1.836.931.733 0 1.147-.328 1.147-.802 0-.457-.328-.75-.992-.862l-.731-.121zM105.48 50h-1.034l.655-1.62-1.672-4.276h1.12l1.104 3.052 1.121-3.052h1.068L105.48 50zM109.619 46.595c-.854-.198-1.284-.638-1.284-1.336 0-.767.638-1.258 1.542-1.258.612 0 1.139.232 1.595.707l-.629.673c-.258-.354-.586-.535-.991-.535-.354 0-.578.181-.578.396 0 .198.138.328.414.396l.664.156c.862.198 1.292.638 1.292 1.318 0 .767-.604 1.31-1.672 1.31-.733 0-1.319-.275-1.75-.818l.621-.638c.31.405.715.612 1.207.612.457 0 .646-.19.646-.431 0-.181-.129-.31-.517-.413l-.56-.139zM112.611 46.837v-1.854h-.621v-.879h.621v-1.18h.975v1.18h1.008v.879h-1.008v1.707c0 .612.138.768.689.768l.319-.018v.879a8.064 8.064 0 0 1-.526.018c-1.094 0-1.457-.406-1.457-1.5zM119.018 46.51h-2.888c.043.629.483 1.025 1.112 1.025.457 0 .818-.199 1.086-.595l.664.621c-.448.578-1.035.861-1.75.861-.629 0-1.146-.198-1.535-.604-.387-.405-.585-.931-.585-1.577 0-.629.18-1.164.534-1.594.362-.431.845-.647 1.44-.647 1.37 0 1.931 1.095 1.931 2.164l-.009.346zm-2.835-.786h1.801c-.008-.439-.284-.828-.879-.828-.517.001-.828.372-.922.828zM122.61 48.327v-2.525c0-.561-.285-.914-.776-.914-.561 0-.871.405-.871 1.035v2.405h-.983v-4.224h.966v.371c.268-.319.638-.475 1.095-.475.526 0 .914.181 1.181.552.328-.371.767-.552 1.319-.552 1.112 0 1.681.655 1.681 1.871v2.457h-.982v-2.525c0-.56-.285-.914-.776-.914-.56 0-.88.405-.88 1.035v2.405l-.974-.002z"/>
  </g>
</svg>
