<svg xmlns="http://www.w3.org/2000/svg" width="338.641" height="145.911"><path fill="#F58025" d="M24.166 91.906c-.812-.271-2.52-.767-4.282-1.496-4.657-1.917-8.996-4.687-8.885-9.31.109-4.42 4.14-7.168 11.458-8.605 8.019-1.57 19.756-2.759 25.688-5.785 5.851-2.628 5.293-9.402 1.766-12.575-.321-.31-.559-.542-.749-.46-.248.103-.193.308-.087.644.312.93.728 2.658-.106 4.111-2.872 5.046-18.924 5.021-32.895 7.711C4.534 68.368-.259 73.859.011 79.878c.275 6.263 6.251 10.968 14.562 12.267 3.308.517 7.823.749 9.417.509.426-.062.547-.205.535-.413-.013-.172-.081-.247-.359-.335"/><path fill="#013A81" d="M7.812 64.987c2.657-.952 6.236-1.82 12.219-2.771a56.466 56.466 0 0 0 2.177-.384c.23-.04.327-.155.358-.261.074-.25-.059-.404-.485-.513-.511-.126-1.348-.258-2.005-.429-6.513-1.535-7.448-3.457-7.484-5.404-.019-1.113.484-2.26 1.862-3.217 1.813-1.262 4.892-1.954 6.672-2.329 12.497-2.632 31.34-3.042 31.34-19.943 0-6.75-4.187-11.045-7.829-13.338-2.708-1.696-5.155-2.208-5.155-2.208v6.645s3.928 2.656 3.928 7.771c0 5.741-2.31 12-15.398 14.715-8.227 1.706-14.158 2.895-18.342 4.666-4.208 1.784-6.829 5.052-7.16 8.085-.304 2.74.381 6.422 5.302 8.915M48.907 69.829c-2.562 1.2-5.712 2.239-10.742 3.234-1.273.254-2.159.391-2.702.495-.436.087-.539.284-.464.5.061.161.196.218.574.305.604.143 1.569.312 2.732.645 2.873.88 4.73 2.082 5.767 3.262 1.042 1.185 1.557 2.627 1.557 4.327 0 1.997-.629 3.722-1.888 5.187-1.717 1.873-4.554 3.406-8.522 4.604-1.957.595-4.631 1.124-7.743 1.411v5.29c7.891-.437 15.642-2.363 19.978-5.191 4.974-3.221 7.464-7.528 7.464-12.903 0-3.182-.874-5.929-2.664-8.196-1.148-1.453-2.285-2.276-3.347-2.97"/><path fill="#F58025" d="M14.608 42.819c2.662-.801 9.727-2.293 9.727-2.298.175-.026.347-.067.372-.248.013-.145-.036-.287-.237-.349-.226-.07-2.677-.578-5.032-2.124-3.16-2.078-5.617-5.095-5.456-9.505.195-5.883 5.045-9.591 10.625-11.316 5.061-1.552 9.67-2.241 12.557-4.095C42.644 9.365 42.068 3.543 39 .606c-.424-.4-.699-.692-.929-.583-.206.105-.176.354-.056.659.274.714.9 2.474.086 4.071-1.517 2.958-9.846 4.012-16.121 5.356-8.377 1.787-12.868 4.496-16.188 8.586-1.98 2.448-3.217 6.008-3.217 9.599.002 8.077 6.188 12.319 12.033 14.525"/><g fill="#013A81"><path d="M191.273 138.332c0 1.836.077 3.668.116 5.504l-.201.318c-2.789.916-5.302 1.757-9.409 1.757-2.468 0-4.178-.363-5.34-.68-1.553-.445-4.468-1.396-6.819-4.426-1.79-2.307-2.788-5.454-2.788-9.204 0-2.674.601-5.905 2.034-8.415 3.15-5.341 8.132-6.615 12.681-6.615 4.142 0 6.809 1.111 8.48 1.829l.207.235c-.32 2.398-.402 3.032-.599 5.507l-.317.121c-1.876-1.239-3.671-2.436-6.7-2.436-5.018 0-8.408 3.432-8.408 9.731 0 2.989 1.116 8.89 7.297 8.89 1.111 0 1.908-.202 2.982-.439.082-3.623.048-4.585-.317-8.492l.203-.246 6.775-.118.199.246a298.157 298.157 0 0 0-.077 6.021v.912zM233.771 145.303c-3.04 0-3.684.033-6.195.11l-.23-.222c0-1.298.039-2.63.039-3.923 0-1.442-.039-6.65-.113-7.903-.11-1.368-.308-3.613-2.397-3.613-1.211 0-2.129.646-2.925 1.178.036 6.801.072 8.289.303 14.146l-.23.228c-3.038 0-3.612 0-6.345.11l-.232-.222c.038-2.442.078-4.874.078-7.303 0-6.195-.228-8.594-.529-11.903l.229-.261c2.846-.382 3.493-.497 6.423-1.107l.377.262-.072 2.092c1.749-1.023 3.764-2.241 6.081-2.241 1.367 0 3.539.305 4.713 2.284.953 1.561.993 3.303 1.028 6.962v2.959c.074 3.729.074 4.794.26 8.141l-.263.226zM250.387 135.188c0 3.116-.422 6.579-3.577 6.579-.985 0-1.672-.462-2.125-.876-.646-.644-1.372-1.938-1.372-5.626 0-1.104 0-3.538.762-4.867.569-1.026 1.554-1.708 2.774-1.708 1.062 0 1.938.566 2.436 1.177.912 1.104 1.102 3.261 1.102 5.321zm6.574.039c0-1.485 0-7.646-5.324-9.729-1.672-.653-3.647-.729-4.636-.729-6.623 0-10.343 3.538-10.343 10.527 0 2.434.383 4.907 1.791 6.971.987 1.468 2.845 3.53 8.29 3.53 8.055.001 10.222-4.864 10.222-10.57zM289.275 145.303c-2.656 0-3.493 0-6.347.11l-.231-.222c.041-1.146.079-6.815.115-8.103 0-.727.04-1.446.04-2.167 0-3.266-.346-5.322-2.507-5.322-1.144 0-1.986.53-2.625.948l.037 3.842v1.403c.037 4.602.073 5.668.296 9.282l-.223.228c-2.623 0-3.422 0-6.308.15l-.229-.262c.076-3.085.115-3.923.115-9.439 0-3.265-.081-5.958-2.438-5.958-.947 0-1.826.489-2.617 1.062.035 6.608.074 8.363.338 14.22l-.228.228c-3.154 0-3.988.033-6.423.11l-.191-.222c0-2.165.041-4.38.041-6.544 0-7.528-.233-9.627-.535-12.662l.228-.261c2.658-.382 3.497-.531 6.461-1.107l.345.349v2.126c1.748-1.224 3.385-2.362 5.892-2.362 3.046 0 3.989 1.601 4.526 2.474 1.518-1.065 3.608-2.474 6.729-2.474.606 0 3.229 0 4.707 2.169 1.113 1.6 1.069 3.957 1.032 6.505v2.85c0 4.296.037 5.283.231 8.822l-.231.227zM299.275 130.855c.038 6.608.072 8.363.342 14.22l-.231.228c-3.156 0-3.988.033-6.423.11l-.188-.222c0-2.165.038-4.38.038-6.544 0-7.528-.231-9.627-.535-12.662l.229-.261c2.657-.382 3.495-.531 6.46-1.107l.347.349v2.126l-.039 3.763zM212.671 136.441c-.039-1.861-.034-4.022-.57-5.354-.457-1.131-2.55-4.052-7.5-2.198-.057.018-.155.047-.202.122-.073.104.047.184.047.184 1.301.567 2.066 1.622 2.066 3.559l-6.344.151s-.255-1.382.617-3.167c.7-1.461 2.465-3.519 6.013-4.228 1.422-.223 1.694-.063 1.854-.108.023 0 .185-.077.027-.169.014 0-.153-.105-.393-.148-.632-.206-2.02-.521-4.468-.521-5.973 0-9.928 4.085-9.928 10.663 0 1.787.302 3.653.912 4.978 2.204 5.132 7.373 5.594 10.117 5.594 3.149 0 4.522-.57 6.538-1.375l.229-.3.257-4.297-.257-.112c-1.448.758-3.162 1.632-5.941 1.632-2.272 0-3.835-.723-4.748-2.096-.571-.795-.68-1.556-.83-2.315l12.276-.226.228-.269zM318.69 140.311l.732 4.151-.075.204c.019.038-.028.193-.112.228-1.357.555-3.602.948-6.109.948-7.004 0-11.431-4.151-11.431-10.411 0-5.794 4.162-10.79 12.314-10.79 1.715 0 3.658.28 5.2.81.069.024.084.048.118.144l.056.076-.953 4.297-.152.212c-.016.021-.096.081-.183.042-.857-.346-2.038-.624-3.764-.624-3.562 0-5.897 2.318-5.86 5.555 0 3.729 2.8 5.602 6.019 5.602 1.554 0 2.771-.245 3.794-.602.122-.044.116.102.232.057l.174.101zM322.272 143.996l1.044-4.051.143-.097c.172-.056.118-.065.228-.011 1.355.729 3.826 1.477 5.664 1.477 2.064 0 2.877-.644 2.877-1.623 0-1.044-.658-1.509-3.167-2.203-4.505-1.223-6.345-3.57-6.31-6.12 0-3.849 3.401-6.728 8.733-6.728 2.439 0 4.661.532 5.989 1.141.082.037.11.137.13.157l.049.181-.999 3.888-.142.152c-.114.076-.143.092-.256.04-1.036-.479-2.861-1.099-4.587-1.099-1.587 0-2.545.546-2.545 1.597 0 .995.914 1.503 3.585 2.265 4.12 1.174 5.896 3.102 5.932 6.269 0 3.646-2.937 6.611-9.262 6.611-2.82 0-5.222-.588-6.95-1.395-.086-.039-.042-.143-.114-.261l-.042-.19zM299.353 119.21c0 1.857-1.641 3.362-3.666 3.362-2.031 0-3.672-1.505-3.672-3.362 0-1.86 1.641-3.363 3.672-3.363 2.025 0 3.666 1.503 3.666 3.363zM50.909 131.885c0 3.223-.758 8.378-4.508 11.489-2.238 1.854-5.196 2.537-8.115 2.537-1.933 0-5.875-.38-8.754-3.07-3.564-3.298-3.868-8.149-3.868-10.729a22.1 22.1 0 0 1 .343-3.867c.303-1.592 1.135-5.989 5.761-8.64 2.045-1.177 4.434-1.594 6.785-1.594 2.652 0 5.307.646 7.241 1.935a9.366 9.366 0 0 1 2.273 2.122c.945 1.174 2.842 3.867 2.842 9.817zM38.4 122.75c-.721 0-1.743.152-2.769.759-1.779 1.138-2.88 3.487-2.88 8.035 0 3.412.342 9.551 5.61 9.551 4.4 0 5.608-4.093 5.461-9.778-.041-.947-.115-2.311-.417-3.752-.229-1.098-.572-2.2-1.329-3.069a4.74 4.74 0 0 0-3.676-1.746zM73.087 145.303c-3.033 0-3.678.04-6.181.113l-.228-.225c0-1.289.038-2.62.038-3.906 0-1.438-.038-6.632-.113-7.884-.114-1.366-.302-3.603-2.391-3.603-1.21 0-2.121.646-2.916 1.179.036 6.783.077 8.262.304 14.099l-.227.227c-3.035 0-3.602 0-6.333.113l-.228-.225c.039-2.426.076-4.854.076-7.279 0-6.179-.228-8.565-.53-11.867l.227-.264c2.844-.378 3.49-.49 6.407-1.098l.38.264-.077 2.086c1.741-1.024 3.752-2.237 6.066-2.237 1.362 0 3.524.303 4.699 2.275.947 1.553.986 3.298 1.025 6.934v2.962c.074 3.714.074 4.774.264 8.109l-.262.227zM88.593 141.133l-.384 3.903-.264.267c-1.327.229-2.502.458-3.979.458-5.915 0-5.989-3.754-5.989-7.242 0-.982.036-1.934.074-2.882l.113-6.026-2.386.079-.229-.229.34-4.058.229-.188 2.046.076-.035-4.741.149-.265c2.692-.68 3.374-.869 5.951-1.628l.266.226-.112 6.366h3.786l.231.229-.379 4.059-.228.226-3.41-.152-.076 5.346c-.04 1.517-.04 3.601.076 4.587.075.569.227 1.782 2.161 1.782.643 0 1.099-.153 1.744-.339l.305.146zM107.923 136.851c0 3.562 0 4.512.265 8.226l-.191.267c-2.463-.04-3.297 0-6.027.115l-.225-.267v-1.403c-.796.645-2.43 2.01-5.269 2.01-3.718 0-6.634-2.617-6.634-6.673 0-1.704.718-3.867 2.842-5.194 2.275-1.4 4.396-1.818 8.946-2.426 0-.568-.113-1.249-.491-1.629-.493-.494-1.064-.722-2.466-.722-2.539 0-5.002.987-6.325 1.52l-.306-.152.188-4.134.225-.304c2.166-.642 4.173-1.252 7.433-1.252 4.853 0 6.369 1.52 7.123 2.732.987 1.59.987 3.069.952 6.481l-.04 2.805zm-6.216-1.366c-2.579.343-5.574.761-5.574 3.261 0 1.592 1.138 2.314 2.501 2.314 1.252 0 2.275-.531 3.072-.987v-4.588zM123.01 131.432c-.53-.304-.909-.531-1.554-.531-2.579 0-2.579 2.501-2.579 4.207 0 2.615.229 6.899.38 9.969l-.189.267c-3.032-.04-3.636 0-6.445.115l-.227-.229c.073-3.146.113-6.254.113-9.364 0-5.269-.113-6.975-.341-9.819l.228-.225c2.765-.417 3.488-.529 6.293-1.137l.302.302-.113 3.488c1.211-2.804 2.957-3.678 4.509-3.678.268 0 .53.036.799.036l.228.267-1.062 6.182-.342.15zM146.778 145.798c-5.42 0-7.278-2.05-8.264-3.528-1.404-2.042-1.782-4.509-1.782-6.936 0-6.974 3.716-10.502 10.312-10.502.984 0 2.957.08 4.623.723 5.309 2.086 5.309 8.228 5.309 9.703-.001 5.686-2.163 10.54-10.198 10.54zm2.538-15.885c-.49-.606-1.363-1.173-2.423-1.173-1.213 0-2.199.684-2.766 1.704-.761 1.325-.761 3.753-.761 4.853 0 3.678.718 4.966 1.364 5.611.456.417 1.133.871 2.119.871 3.151 0 3.569-3.451 3.569-6.558.001-2.049-.189-4.208-1.102-5.308zM133.491 130.898c.041 6.612.076 8.361.342 14.224l-.227.227c-3.158 0-3.992.03-6.427.109l-.188-.226c0-2.165.043-4.375.043-6.544 0-7.527-.237-9.621-.538-12.662l.231-.26c2.653-.382 3.497-.533 6.458-1.107l.347.349v2.128l-.041 3.762z"/><ellipse cx="129.902" cy="119.252" rx="3.67" ry="3.364"/></g></svg>