<svg id="Layer_1" xmlns="http://www.w3.org/2000/svg" viewBox="0 0 512 512"><style>.st1{fill:#ac867c}.st5{fill:#2a3132}</style><path class="st1" d="M294.7 100l56.2-2.2 51.7 48.8 6.5 70.9-36.4 42.9-54.4-72.7z"/><path d="M409.1 217.5l44.7-21.8c15.2-7.4 21.5-25.7 14.1-41l-31.4-64.6c-7.4-15.2-25.7-21.5-41-14.1l-44.7 21.8 58.3 119.7z" fill="#763626"/><path d="M261 109.3l83.6 171.8c4.1 8.5 14.4 12.1 22.9 7.9 8.5-4.1 12.1-14.4 7.9-22.9L291.9 94.3c-4.1-8.5-14.4-12.1-22.9-7.9-8.6 4.1-12.1 14.4-8 22.9z" fill="#90afc5"/><path d="M356.6 269.1L273 97.3c-1.9-3.9-2.2-8.2-1.1-12.1-1 .3-2 .6-3 1.1-8.5 4.1-12.1 14.4-7.9 22.9L344.6 281c4.1 8.5 14.4 12.1 22.9 7.9 4.6-2.2 7.8-6.3 9-10.9-7.7 2.3-16.2-1.3-19.9-8.9z" fill="#763626"/><path class="st1" d="M423.7 124.4c0 18.9 15.3 34.2 34.2 34.2H503V90.2h-45.1c-18.9 0-34.2 15.3-34.2 34.2z"/><circle class="st5" cx="457.3" cy="124.4" r="10.7"/><path class="st5" d="M338.1 287.8c3.2 4.9 7.8 8.6 13.4 10.5 6.6 2.3 13.7 1.9 20-1.2 12.7-6.2 18.3-22.2 12.1-35l-.2-.5 31.3-37 43-20.9c13.7-6.7 22.3-20.3 22.3-35.6v-.6h23c5 0 9-4 9-9V90.2c0-5-4-9-9-9h-45.1c-5.1 0-10.1.9-14.7 2.6-4.8-8.2-12.2-14.4-21.3-17.6-10-3.5-20.8-2.8-30.3 1.8l-43 20.9-48.4 1.8-.2-.5c-6.2-12.8-22.2-18.3-35-12.1-12.8 6.2-18.3 22.1-12.1 35l1.6 3.3-30.7 8.8c-4.8 1.4-7.5 6.4-6.1 11.1 1.4 4.8 6.4 7.5 11.1 6.1l33.7-9.7 43.8 90.1c2.2 4.5 7.5 6.3 12 4.1 4.4-2.1 6.3-7.6 4.1-12 0 0-47.1-96.9-47.2-96.9l-6.3-12.9c-2-4-.2-9 3.8-10.9 7.3-3.5 11.4 4 13.7 9.5l78 160.4c1.8 3.7 4.6 7.7 3.2 12-.7 2.1-2.2 3.7-4.2 4.7-4 2-9 .2-10.9-3.8l-14.4-29.7c-2.2-4.5-7.5-6.3-12-4.1-3.1 1.5-4.9 4.5-5 7.7-.1 1.4.2 2.9.9 4.3l7.7 15.9L202 376.7c-3.8 3.2-4.4 8.8-1.2 12.6 3.2 3.8 8.8 4.4 12.6 1.2l124.7-102.7zM494 99.1v50.5h-36.1c-19.5 0-31.9-23-20.9-39.3 4.7-6.9 12.6-11.1 20.9-11.1l36.1-.1zm-77.9-15.9c5.1 1.8 9.3 5.3 11.9 10.1.4.8-3.9 4.8-4.5 5.4-2.3 2.6-4 5.6-5.4 8.9-11.8 27.7 8.9 59.5 38.9 60.1H461.9c.2 8.6-4.5 16.4-12.2 20.1l-36.6 17.8-41-84.3-9.3-19.2 36.6-17.8c5.3-2.7 11.2-3 16.7-1.1zM345.4 107l12.3 25.3 40.8 83.8-23.7 27.9-5.2-10.7-60.8-124.9 36.6-1.4zM188.9 406.6c0-2-.7-4-2.1-5.7-3.2-3.8-8.8-4.4-12.6-1.2l-39.3 32.4c-3.8 3.2-4.4 8.8-1.2 12.6 3.2 3.8 8.8 4.4 12.6 1.2l39.3-32.4c2.2-1.7 3.3-4.3 3.3-6.9zM189.5 154c3.9-1.1 6.5-4.7 6.5-8.6 0-.8-.1-1.7-.4-2.5-1.4-4.8-6.4-7.5-11.1-6.1l-178 51.4c-4.8 1.4-7.5 6.4-6.1 11.1 1.4 4.8 6.4 7.5 11.1 6.1l178-51.4z"/></svg>