<svg id="Layer_1" xmlns="http://www.w3.org/2000/svg" viewBox="0 0 200 500"><style>.st1,.st3{fill:#4169b2}.st3{opacity:.72}.st4{fill:#2a3132}.st6,.st7{opacity:.88;fill:#4169b2}.st7{opacity:.76}</style><path opacity=".4" fill="#4169b2" d="M0 0h50v50H0z"/><path class="st1" d="M0 50h50v50H0zM0 100h50v50H0zM0 250h50v50H0z"/><path opacity=".85" fill="#2a3132" d="M0 300h50v50H0z"/><path class="st1" d="M0 350h50v50H0z"/><path class="st3" d="M0 400h50v50H0z"/><path class="st4" d="M0 450h50v50H0z"/><path opacity=".65" fill="#4169b2" d="M0 150h50v50H0z"/><path class="st4" d="M0 200h50v50H0zM50 0h50v50H50zM50 50h50v50H50z"/><path class="st6" d="M50 100h50v50H50z"/><path class="st7" d="M50 250h50v50H50z"/><path class="st6" d="M50 300h50v50H50z"/><path class="st4" d="M50 350h50v50H50z"/><path class="st1" d="M50 400h50v50H50z"/><path class="st7" d="M50 450h50v50H50z"/><path class="st1" d="M50 150h50v50H50z"/><path opacity=".84" fill="#4169b2" d="M50 200h50v50H50z"/><path class="st1" d="M100 0h50v50h-50zM100 50h50v50h-50z"/><path opacity=".87" fill="#2a3132" d="M100 100h50v50h-50z"/><path class="st1" d="M100 250h50v50h-50zM100 300h50v50h-50zM100 350h50v50h-50z"/><path opacity=".8" fill="#2a3132" d="M100 400h50v50h-50z"/><path class="st1" d="M100 450h50v50h-50z"/><path class="st4" d="M100 150h50v50h-50z"/><path opacity=".94" fill="#4169b2" d="M100 200h50v50h-50z"/><path class="st1" d="M150 0h50v50h-50z"/><path class="st4" d="M150 50h50v50h-50z"/><path class="st1" d="M150 100h50v50h-50z"/><path opacity=".34" fill="#4169b2" d="M150 250h50v50h-50z"/><path class="st3" d="M150 300h50v50h-50z"/><path class="st1" d="M150 350h50v50h-50zM150 400h50v50h-50z"/><path class="st6" d="M150 450h50v50h-50z"/><path opacity=".57" fill="#4169b2" d="M150 150h50v50h-50z"/><path class="st1" d="M150 200h50v50h-50z"/></svg>