<?xml version="1.0" encoding="utf-8"?>
<!-- Generator: Adobe Illustrator 16.0.4, SVG Export Plug-In . SVG Version: 6.00 Build 0)  -->
<!DOCTYPE svg PUBLIC "-//W3C//DTD SVG 1.1//EN" "http://www.w3.org/Graphics/SVG/1.1/DTD/svg11.dtd">
<svg version="1.1" id="Layer_1" xmlns="http://www.w3.org/2000/svg" xmlns:xlink="http://www.w3.org/1999/xlink" x="0px" y="0px"
	 width="246.765px" height="35.52px" viewBox="0 0 246.765 35.52" enable-background="new 0 0 246.765 35.52" xml:space="preserve">
<path fill="#2A3132" d="M0,35.04V0.96h14.544c1.632,0,3.127,0.336,4.488,1.008c1.36,0.672,2.528,1.552,3.504,2.64
	c0.976,1.088,1.744,2.321,2.304,3.696c0.56,1.376,0.84,2.768,0.84,4.176c0,1.504-0.264,2.944-0.792,4.32
	c-0.528,1.376-1.264,2.609-2.208,3.696c-0.944,1.088-2.088,1.952-3.432,2.592c-1.344,0.641-2.832,0.96-4.464,0.96H7.872V35.04H0z
	 M7.872,17.184h6.432c0.928,0,1.728-0.4,2.4-1.2c0.672-0.799,1.008-1.968,1.008-3.504c0-0.799-0.104-1.488-0.312-2.064
	c-0.208-0.576-0.488-1.056-0.84-1.44c-0.353-0.384-0.752-0.664-1.2-0.84c-0.449-0.176-0.896-0.264-1.344-0.264H7.872V17.184z"/>
<path fill="#2A3132" d="M45.263,16.416c-1.856,0.032-3.536,0.336-5.04,0.912c-1.504,0.576-2.592,1.44-3.264,2.592v15.12h-7.68V9.84
	h7.056v5.088c0.864-1.696,1.976-3.024,3.336-3.984c1.359-0.96,2.808-1.456,4.344-1.488c0.352,0,0.607,0,0.768,0
	c0.16,0,0.319,0.017,0.48,0.048V16.416z"/>
<path fill="#2A3132" d="M59.231,35.52c-2.145,0-4.056-0.353-5.736-1.056c-1.68-0.703-3.096-1.656-4.248-2.856
	c-1.152-1.2-2.024-2.592-2.616-4.176c-0.593-1.584-0.888-3.24-0.888-4.968s0.295-3.384,0.888-4.968
	c0.592-1.584,1.464-2.976,2.616-4.176c1.152-1.2,2.568-2.16,4.248-2.88c1.68-0.72,3.592-1.08,5.736-1.08
	c2.144,0,4.048,0.36,5.712,1.08c1.664,0.72,3.072,1.68,4.224,2.88c1.152,1.2,2.032,2.592,2.64,4.176s0.912,3.24,0.912,4.968
	s-0.296,3.384-0.888,4.968c-0.593,1.584-1.464,2.976-2.616,4.176c-1.152,1.2-2.568,2.153-4.248,2.856
	C63.287,35.167,61.375,35.52,59.231,35.52z M53.615,22.464c0,1.985,0.528,3.576,1.584,4.776c1.056,1.2,2.4,1.8,4.032,1.8
	c0.799,0,1.536-0.16,2.208-0.48c0.672-0.319,1.255-0.768,1.752-1.344c0.496-0.576,0.888-1.272,1.176-2.088s0.432-1.704,0.432-2.664
	c0-1.983-0.528-3.576-1.584-4.776c-1.056-1.2-2.384-1.8-3.984-1.8c-0.8,0-1.544,0.16-2.232,0.48c-0.688,0.32-1.28,0.768-1.776,1.344
	c-0.496,0.576-0.888,1.272-1.176,2.088C53.759,20.616,53.615,21.504,53.615,22.464z"/>
<path fill="#2A3132" d="M106.127,0.96v34.08h-7.872V21.072H84.672V35.04H76.8V0.96h7.872v13.2h13.584V0.96H106.127z"/>
<path fill="#2A3132" d="M112.031,6.96V0h7.68v6.96H112.031z M112.031,35.04V9.84h7.68v25.2H112.031z"/>
<path fill="#2A3132" d="M141.311,33.696c-1.056,0.449-2.264,0.864-3.624,1.248c-1.36,0.384-2.729,0.576-4.104,0.576
	c-0.96,0-1.864-0.12-2.712-0.36c-0.848-0.24-1.592-0.624-2.232-1.152c-0.641-0.528-1.145-1.224-1.512-2.088
	c-0.368-0.864-0.552-1.903-0.552-3.12V15.648h-3.216V9.84h3.216V1.824h7.68V9.84h5.136v5.808h-5.136V26.16
	c0,0.833,0.208,1.433,0.624,1.8c0.416,0.368,0.944,0.552,1.584,0.552c0.576,0,1.168-0.096,1.776-0.288
	c0.607-0.192,1.135-0.4,1.584-0.624L141.311,33.696z"/>
<path fill="#2A3132" d="M154.222,35.52c-2.145,0-4.257-0.344-6.336-1.032c-2.081-0.688-3.841-1.688-5.28-3l2.736-4.704
	c1.535,1.056,3.031,1.872,4.488,2.448c1.455,0.576,2.855,0.864,4.199,0.864c0.992,0,1.76-0.176,2.305-0.528
	c0.543-0.352,0.815-0.864,0.815-1.536c0-0.672-0.345-1.208-1.032-1.608c-0.688-0.399-1.896-0.823-3.623-1.272
	c-1.697-0.48-3.129-0.943-4.297-1.392c-1.168-0.448-2.12-0.944-2.855-1.488c-0.736-0.543-1.265-1.167-1.584-1.872
	c-0.32-0.703-0.48-1.536-0.48-2.496c0-1.279,0.256-2.448,0.768-3.504c0.512-1.056,1.217-1.951,2.113-2.688
	c0.895-0.736,1.959-1.312,3.191-1.728c1.231-0.416,2.568-0.624,4.008-0.624c1.888,0,3.656,0.257,5.305,0.768
	c1.646,0.512,3.239,1.44,4.775,2.784l-2.977,4.608c-1.439-0.992-2.72-1.711-3.84-2.16c-1.12-0.448-2.207-0.672-3.264-0.672
	c-0.832,0-1.536,0.168-2.111,0.504c-0.576,0.336-0.865,0.873-0.865,1.608c0,0.705,0.312,1.232,0.937,1.584s1.784,0.736,3.479,1.152
	c1.793,0.48,3.305,0.96,4.537,1.44c1.23,0.48,2.231,1.016,3,1.608c0.768,0.593,1.327,1.272,1.68,2.04
	c0.352,0.768,0.527,1.68,0.527,2.736c0,2.496-0.928,4.48-2.783,5.952C159.902,34.784,157.39,35.52,154.222,35.52z"/>
<path fill="#2A3132" d="M168.19,25.296v-6.912h14.784v6.912H168.19z"/>
<path fill="#2A3132" d="M212.075,6.96V0h7.68v6.96H212.075z M212.075,35.04V9.84h7.68v25.2H212.075z"/>
<path fill="#2A3132" d="M225.549,30.432l12.863-15.264h-12.191V9.84h20.208v4.608l-12.769,15.264h13.104v5.328h-21.216V30.432z"/>
<linearGradient id="SVGID_1_" gradientUnits="userSpaceOnUse" x1="247.2378" y1="80.54" x2="247.2378" y2="57.9678" gradientTransform="matrix(0.8634 -0.5044 0.6326 1.0828 -68.3069 69.4307)">
	<stop  offset="0.386" style="stop-color:#2A3132"/>
	<stop  offset="1" style="stop-color:#2484C6;stop-opacity:0"/>
</linearGradient>
<polygon fill="url(#SVGID_1_)" points="193.178,33.625 181.78,7.52 199.031,30.224 "/>
<circle fill="#2A3132" cx="196.226" cy="32.134" r="3.385"/>
<linearGradient id="SVGID_2_" gradientUnits="userSpaceOnUse" x1="54.1455" y1="43.3672" x2="54.1455" y2="20.7944" gradientTransform="matrix(0.8686 0.4955 -0.6214 1.0892 176.1613 -41.9299)">
	<stop  offset="0.386" style="stop-color:#2A3132"/>
	<stop  offset="1" style="stop-color:#2484C6;stop-opacity:0"/>
</linearGradient>
<polygon fill="url(#SVGID_2_)" points="193.311,30.444 210.22,7.52 199.184,33.812 "/>
</svg>
